<svg xmlns="http://www.w3.org/2000/svg" width="41" height="69" viewBox="0 0 41 69">
  <g id="Vector_Smart_Object" data-name="Vector Smart Object" transform="translate(-0.058)">
    <path id="Path_98" data-name="Path 98" d="M2.216,11.434H6.84V53.816H2.216Z" fill="#d4e1f4"/>
    <path id="Path_99" data-name="Path 99" d="M10.708,2.159H6.084A3.874,3.874,0,0,0,2.216,6.03V9.275H6.84V6.029A3.873,3.873,0,0,1,10.708,2.159Z" fill="#d4e1f4"/>
    <path id="Path_100" data-name="Path 100" d="M10.708,63.757a3.873,3.873,0,0,1-3.868-3.87V55.975H2.216v7a3.874,3.874,0,0,0,3.868,3.871H35.031a3.876,3.876,0,0,0,3.788-3.084Z" fill="#d4e1f4"/>
    <path id="Path_101" data-name="Path 101" d="M19.306,37.365a1.077,1.077,0,0,1-.821-.378L16.6,34.78a1.079,1.079,0,0,1,1.641-1.4l1.2,1.405,3.57-2.906a1.079,1.079,0,1,1,1.362,1.675l-4.387,3.571A1.079,1.079,0,0,1,19.306,37.365Z" fill="#1ae5be"/>
    <path id="Path_102" data-name="Path 102" d="M20.558,44.061a9.56,9.56,0,1,1,9.556-9.56A9.558,9.558,0,0,1,20.558,44.061Zm0-16.962a7.4,7.4,0,1,0,7.4,7.4A7.4,7.4,0,0,0,20.558,27.1Z" fill="#1ae5be"/>
    <g id="Group_11" data-name="Group 11">
      <path id="Path_103" data-name="Path 103" d="M35.031,0H6.084A6.035,6.035,0,0,0,.058,6.03V62.971A6.035,6.035,0,0,0,6.084,69H35.031a6.035,6.035,0,0,0,6.027-6.03V6.029A6.035,6.035,0,0,0,35.031,0ZM2.216,11.434H38.9V53.816H2.216ZM6.084,2.159H35.031A3.874,3.874,0,0,1,38.9,6.03V9.275H2.216V6.029A3.873,3.873,0,0,1,6.084,2.159ZM35.031,66.841H6.084a3.873,3.873,0,0,1-3.868-3.87v-7H38.9v7A3.874,3.874,0,0,1,35.031,66.841Z" fill="#040e28"/>
      <path id="Path_104" data-name="Path 104" d="M24.923,60.375H16.192a1.079,1.079,0,0,0,0,2.159h8.731a1.079,1.079,0,0,0,0-2.159Z" fill="#040e28"/>
      <path id="Path_105" data-name="Path 105" d="M34.969,33.421H33.351a1.079,1.079,0,0,0,0,2.159h1.618a1.079,1.079,0,0,0,0-2.159Z" fill="#040e28"/>
      <path id="Path_106" data-name="Path 106" d="M7.764,35.58a1.079,1.079,0,0,0,0-2.159H6.146a1.079,1.079,0,0,0,0,2.159Z" fill="#040e28"/>
      <path id="Path_107" data-name="Path 107" d="M34.535,38.177,32.276,37.4a1.079,1.079,0,0,0-.7,2.041l2.259.779a1.079,1.079,0,1,0,.7-2.041Z" fill="#040e28"/>
      <path id="Path_108" data-name="Path 108" d="M9.542,29.561l-2.258-.779a1.08,1.08,0,1,0-.7,2.041l2.258.778a1.079,1.079,0,1,0,.7-2.041Z" fill="#040e28"/>
      <path id="Path_109" data-name="Path 109" d="M32.038,32.009a1.072,1.072,0,0,0,.321-.049l2.281-.709A1.079,1.079,0,1,0,34,29.189l-2.281.71a1.079,1.079,0,0,0,.32,2.11Z" fill="#040e28"/>
      <path id="Path_110" data-name="Path 110" d="M8.757,37.04l-2.281.71a1.079,1.079,0,1,0,.641,2.061L9.4,39.1a1.08,1.08,0,0,0-.641-2.062Z" fill="#040e28"/>
    </g>
  </g>
</svg>
