<svg xmlns="http://www.w3.org/2000/svg" xmlns:xlink="http://www.w3.org/1999/xlink" width="67" height="69" viewBox="0 0 67 69">
  <defs>
    <clipPath id="clip-Custom_Size_1">
      <rect width="67" height="69"/>
    </clipPath>
  </defs>
  <g id="Custom_Size_1" data-name="Custom Size – 1" clip-path="url(#clip-Custom_Size_1)">
    <g id="Vector_Smart_Object" data-name="Vector Smart Object" transform="translate(0 10.981)">
      <path id="Path_111" data-name="Path 111" d="M11.589,39.961a4.446,4.446,0,0,1-4.459-4.42V2.265H6.735A4.445,4.445,0,0,0,2.276,6.686V40.353a4.446,4.446,0,0,0,4.459,4.421h53.53a4.446,4.446,0,0,0,4.459-4.421v-.392Z" fill="#d4e1f4"/>
      <path id="Path_112" data-name="Path 112" d="M33.5,27.414a1.137,1.137,0,0,1-.59-.165L.554,7.644A1.118,1.118,0,0,1,.6,5.691a1.139,1.139,0,0,1,1.139.037L33.5,24.976,65.266,5.728a1.14,1.14,0,0,1,1.139-.037,1.118,1.118,0,0,1,.041,1.953L34.09,27.249a1.136,1.136,0,0,1-.59.165Z" fill="#ff9d5a"/>
      <path id="Path_113" data-name="Path 113" d="M60.265.019H6.735A6.7,6.7,0,0,0,.011,6.686V40.353a6.7,6.7,0,0,0,6.724,6.666h53.53a6.7,6.7,0,0,0,6.724-6.666V6.686A6.7,6.7,0,0,0,60.265.019Zm4.459,40.334a4.446,4.446,0,0,1-4.459,4.421H6.735a4.446,4.446,0,0,1-4.459-4.421V6.686A4.445,4.445,0,0,1,6.735,2.265h53.53a4.445,4.445,0,0,1,4.459,4.421Z" fill="#030d26"/>
    </g>
  </g>
</svg>
