<svg xmlns="http://www.w3.org/2000/svg" width="58" height="71" viewBox="0 0 58 71">
  <g id="Vector_Smart_Object" data-name="Vector Smart Object" transform="translate(-0.035)">
    <path id="Path_114" data-name="Path 114" d="M18.883,44.628a28.186,28.186,0,0,1-6.1-9.6A25.889,25.889,0,0,1,11.2,24.318,27.662,27.662,0,0,1,19.255,6.584a26.233,26.233,0,0,1,4.588-3.656,25.921,25.921,0,0,0-13.272,7.109A27.662,27.662,0,0,0,2.519,27.771,25.886,25.886,0,0,0,4.1,38.481a28.184,28.184,0,0,0,6.1,9.6L29.035,68.026,35.007,61.7Z" fill="#d4e1f4"/>
    <path id="Path_115" data-name="Path 115" d="M29.035,47.88A20.352,20.352,0,0,1,8.9,27.36,20.353,20.353,0,0,1,29.035,6.839a20.351,20.351,0,0,1,20.132,20.52A20.352,20.352,0,0,1,29.035,47.88Zm0-38.623a17.925,17.925,0,0,0-17.7,18.1,17.926,17.926,0,0,0,17.7,18.1,17.926,17.926,0,0,0,17.7-18.1A17.925,17.925,0,0,0,29.035,9.257Z" fill="#fc6da0"/>
    <g id="Group_12" data-name="Group 12">
      <path id="Path_116" data-name="Path 116" d="M8.427,49.735,28.149,70.618a1.22,1.22,0,0,0,1.773,0L49.643,49.735A30.571,30.571,0,0,0,56.25,39.31a28.273,28.273,0,0,0,1.727-11.7A30.066,30.066,0,0,0,49.22,8.331a28.62,28.62,0,0,0-40.371,0A30.071,30.071,0,0,0,.093,27.61a28.273,28.273,0,0,0,1.727,11.7A30.586,30.586,0,0,0,8.427,49.735ZM2.519,27.771a27.662,27.662,0,0,1,8.053-17.734,26.179,26.179,0,0,1,36.926,0,27.657,27.657,0,0,1,8.053,17.734,25.872,25.872,0,0,1-1.585,10.709,28.171,28.171,0,0,1-6.1,9.6L29.035,68.026,10.2,48.081a28.188,28.188,0,0,1-6.1-9.6A25.89,25.89,0,0,1,2.519,27.771Z" fill="#030d28"/>
      <path id="Path_117" data-name="Path 117" d="M25.778,33.475a1.22,1.22,0,0,0,1.7.02L38.558,22.972a1.2,1.2,0,0,0,.039-1.709,1.22,1.22,0,0,0-1.718-.039L26.657,30.93l-5.445-5.414a1.221,1.221,0,0,0-1.72,0,1.2,1.2,0,0,0,0,1.71Z" fill="#3e7aff"/>
    </g>
  </g>
</svg>
