<svg xmlns="http://www.w3.org/2000/svg" xmlns:xlink="http://www.w3.org/1999/xlink" width="81" height="84" viewBox="0 0 81 84">
  <defs>
    <clipPath id="clip-Custom_Size_1">
      <rect width="81" height="84"/>
    </clipPath>
  </defs>
  <g id="Custom_Size_1" data-name="Custom Size – 1" clip-path="url(#clip-Custom_Size_1)">
    <g id="Ai" transform="translate(-908 -3612.002)">
      <g id="Vector_Smart_Object" data-name="Vector Smart Object" transform="translate(908 3619.002)">
        <g id="Group_19" data-name="Group 19" transform="translate(0 0)">
          <path id="Path_74" data-name="Path 74" d="M76.674,26.581h-.231a25.047,25.047,0,0,0-1.687-4.246l.173-.18a3.565,3.565,0,0,0,0-4.884l-5.141-5.364a3.232,3.232,0,0,0-4.7,0l-.162.169a22.91,22.91,0,0,0-4.065-1.758v-.25A3.393,3.393,0,0,0,57.531,6.61H50.273a3.393,3.393,0,0,0-3.326,3.457v.25a22.918,22.918,0,0,0-4.062,1.758l-.162-.169a3.232,3.232,0,0,0-4.7,0L32.878,17.27a3.565,3.565,0,0,0,0,4.884l.173.18a25.068,25.068,0,0,0-1.687,4.246h-.231a3.393,3.393,0,0,0-3.326,3.457v5.315l-.051-.017a3.079,3.079,0,0,0-3.011-3.13H18.768a3.079,3.079,0,0,0-3.011,3.13,19.132,19.132,0,0,0-3.018,1.308,2.929,2.929,0,0,0-4.253.011L4.252,41.068a3.232,3.232,0,0,0,0,4.426A20.917,20.917,0,0,0,3,48.648a3.079,3.079,0,0,0-3,3.135v6.25a3.079,3.079,0,0,0,3,3.134A20.937,20.937,0,0,0,4.252,64.32a3.231,3.231,0,0,0,0,4.426l4.232,4.416a2.929,2.929,0,0,0,4.253.011,19.113,19.113,0,0,0,3.018,1.308,3.079,3.079,0,0,0,3.011,3.13h5.979a3.079,3.079,0,0,0,3.011-3.13,19.134,19.134,0,0,0,3.018-1.308,2.929,2.929,0,0,0,4.253-.011l4.232-4.416a3.231,3.231,0,0,0,0-4.426,20.936,20.936,0,0,0,1.253-3.153,3.079,3.079,0,0,0,3-3.134V55.884a26.98,26.98,0,0,0,3.436,1.456V57.6a3.393,3.393,0,0,0,3.326,3.457h7.263A3.393,3.393,0,0,0,60.863,57.6v-.25a22.918,22.918,0,0,0,4.065-1.758l.162.169a3.232,3.232,0,0,0,4.7,0L74.935,50.4a3.565,3.565,0,0,0,0-4.884l-.173-.18a25.048,25.048,0,0,0,1.687-4.246h.225A3.393,3.393,0,0,0,80,37.631V30.039a3.393,3.393,0,0,0-3.326-3.457ZM40.39,57.911H39.338a1.576,1.576,0,0,0-1.516,1.231,17.593,17.593,0,0,1-1.838,4.625,1.68,1.68,0,0,0,.236,1.984l.748.78L32.9,70.781,32.155,70a1.516,1.516,0,0,0-1.908-.247,16.082,16.082,0,0,1-4.431,1.917,1.617,1.617,0,0,0-1.18,1.579v1.1H18.882v-1.1a1.617,1.617,0,0,0-1.18-1.579,16.078,16.078,0,0,1-4.431-1.917A1.516,1.516,0,0,0,11.362,70l-.744.776L6.547,66.533l.748-.78a1.68,1.68,0,0,0,.236-1.984,17.594,17.594,0,0,1-1.837-4.625,1.576,1.576,0,0,0-1.516-1.231H3.125V51.9H4.177a1.576,1.576,0,0,0,1.516-1.231A17.589,17.589,0,0,1,7.53,46.047a1.68,1.68,0,0,0-.236-1.984l-.748-.78,4.069-4.246.744.776a1.516,1.516,0,0,0,1.908.247A16.086,16.086,0,0,1,17.7,38.142a1.617,1.617,0,0,0,1.18-1.579v-1.1h5.753v1.1a1.616,1.616,0,0,0,1.18,1.579,16.086,16.086,0,0,1,4.431,1.917,1.516,1.516,0,0,0,1.908-.247l.744-.776,4.069,4.246-.742.781a1.68,1.68,0,0,0-.236,1.984,17.6,17.6,0,0,1,1.838,4.625A1.576,1.576,0,0,0,39.343,51.9H40.4ZM76.876,37.63a.2.2,0,0,1-.2.2H75.261a1.576,1.576,0,0,0-1.516,1.231,21.727,21.727,0,0,1-2.27,5.713,1.68,1.68,0,0,0,.236,1.984l1.008,1.054a.208.208,0,0,1,0,.28L67.578,53.46a.2.2,0,0,1-.282,0l-1-1.044a1.516,1.516,0,0,0-1.908-.247,19.865,19.865,0,0,1-5.474,2.368,1.617,1.617,0,0,0-1.18,1.579V57.6a.2.2,0,0,1-.2.2H50.273a.2.2,0,0,1-.2-.2v-1.48a1.617,1.617,0,0,0-1.18-1.579,23.71,23.71,0,0,1-5.38-2.32v-.439a3.079,3.079,0,0,0-3-3.134,20.908,20.908,0,0,0-1.253-3.153,3.231,3.231,0,0,0,0-4.426l-4.232-4.416a2.926,2.926,0,0,0-4.1-.163V30.038a.2.2,0,0,1,.2-.2h1.415a1.576,1.576,0,0,0,1.519-1.23,21.733,21.733,0,0,1,2.27-5.714,1.68,1.68,0,0,0-.236-1.984l-1.009-1.053a.208.208,0,0,1,0-.28l5.141-5.364a.2.2,0,0,1,.282,0l1,1.044a1.516,1.516,0,0,0,1.908.247A19.865,19.865,0,0,1,48.9,13.132a1.617,1.617,0,0,0,1.18-1.579V10.066a.2.2,0,0,1,.2-.2h7.261a.2.2,0,0,1,.2.2v1.486a1.617,1.617,0,0,0,1.18,1.579A19.858,19.858,0,0,1,64.389,15.5a1.516,1.516,0,0,0,1.908-.247l1-1.044a.2.2,0,0,1,.282,0l5.139,5.361a.208.208,0,0,1,0,.28L71.71,20.9a1.68,1.68,0,0,0-.236,1.984,21.733,21.733,0,0,1,2.27,5.714,1.576,1.576,0,0,0,1.516,1.231h1.415a.2.2,0,0,1,.2.2Z" transform="translate(0 -6.61)" fill="#5a76ff"/>
          <path id="Path_75" data-name="Path 75" d="M59.969,20.078A15.674,15.674,0,1,0,75.583,35.752,15.674,15.674,0,0,0,59.969,20.078Zm0,27.862A12.189,12.189,0,1,1,72.107,35.752,12.189,12.189,0,0,1,59.969,47.94Z" transform="translate(-8.069 -8.118)" fill="#fa463c"/>
        </g>
        <g id="Group_21" data-name="Group 21" transform="translate(11.755 36.44)">
          <g id="Group_20" data-name="Group 20">
            <ellipse id="Ellipse_1" data-name="Ellipse 1" cx="11.422" cy="11.468" rx="11.422" ry="11.468" fill="#54d391"/>
          </g>
        </g>
      </g>
    </g>
  </g>
</svg>
