<svg xmlns="http://www.w3.org/2000/svg" width="714" height="534" viewBox="0 0 714 534">
  <g id="Ai" transform="translate(-104 -5006)">
    <g id="Bg">
      <ellipse id="Ellipse_571" data-name="Ellipse 571" cx="357" cy="48" rx="357" ry="48" transform="translate(104 5444)" fill="#fbfaf8"/>
    </g>
    <g id="Card_" data-name="Card ">
      <rect id="Rectangle_565" data-name="Rectangle 565" width="173" height="206" transform="translate(368 5166)" fill="#f3f4fc"/>
      <rect id="Rectangle_566" data-name="Rectangle 566" width="100" height="4" transform="translate(397 5285)" fill="#01030f"/>
      <rect id="Rectangle_566_copy" data-name="Rectangle 566 copy" width="74.22" height="4" transform="translate(397 5261)" fill="#01030f"/>
      <rect id="Rectangle_566_copy_2" data-name="Rectangle 566 copy 2" width="90.63" height="4" transform="translate(397 5309)" fill="#01030f"/>
      <g id="Vector_Smart_Object" data-name="Vector Smart Object" transform="translate(176.256 5078.133)">
        <g id="Group_40" data-name="Group 40">
          <path id="Path_109" data-name="Path 109" d="M265.921,119.63a24.043,24.043,0,0,0-15.542-16.516l-7.635,22.752Z" fill="#fca7a7"/>
          <path id="Path_110" data-name="Path 110" d="M242.744,125.867l-10.623,21.522a24,24,0,0,0,33.8-27.758Z" fill="#c8dafc"/>
          <path id="Path_111" data-name="Path 111" d="M250.379,103.114a24,24,0,0,0-18.258,44.274l10.623-21.522Z" fill="#f7d02d"/>
        </g>
      </g>
      <rect id="Rectangle_582" data-name="Rectangle 582" width="21" height="16" transform="translate(501 5342)" fill="#fba7a7"/>
    </g>
    <g id="Ai-2" data-name="Ai">
      <g id="Vector_Smart_Object-2" data-name="Vector Smart Object" transform="translate(-83.606 4903.034)">
        <g id="Group_45" data-name="Group 45">
          <g id="Group_42" data-name="Group 42">
            <path id="Path_112" data-name="Path 112" d="M780.6,535.479l-.466,26.468-6.055,16.02h32.836l-1.863-43.184Z" fill="#102048"/>
            <g id="Group_41" data-name="Group 41">
              <path id="Path_113" data-name="Path 113" d="M732.276,538.265v21.94l-25.849,17.761h52.048l-3.144-42.139Z" fill="#102048"/>
              <rect id="Rectangle_8" data-name="Rectangle 8" width="2.794" height="9.775" transform="translate(731.43 561.314) rotate(-52.721)" fill="#fff"/>
            </g>
            <path id="Path_114" data-name="Path 114" d="M775.937,323.042l-.14.529-4.639,18.235-10.116,39.743a188.316,188.316,0,0,0-3.256,20.338c-4.932,45.232,1.439,103.042,4.751,127.977a10.929,10.929,0,0,1-10.871,12.342h-18.4a11.022,11.022,0,0,1-9.921-6.241c-23.46-48.979-19.646-122.127-14.937-140.027,7.448-28.32,12.575-70.571,12.575-70.571l15.635-.669Z" fill="#3a6bea"/>
            <path id="Path_115" data-name="Path 115" d="M811.162,529.419a11.619,11.619,0,0,1-11.626,11.325H783.775a11.6,11.6,0,0,1-11.513-10.071c-3-22.846-10.326-80.406-14.476-128.786-2.166-25.381-3.451-48.227-2.781-62.213.237-5.308.768-9.333,1.649-11.743l19.143-4.36,19.492-4.43s4.835,5.141,9.278,32.513C809.192,380.212,813.37,432.994,811.162,529.419Z" fill="#3a6bea"/>
            <path id="Path_116" data-name="Path 116" d="M755.8,440.554c-.865-17.84-.314-33.05,1.681-46.5a17.306,17.306,0,0,1,6.446-11.031l13.095-10.378.869,1.091-13.1,10.377a15.919,15.919,0,0,0-5.933,10.145c-1.982,13.359-2.528,28.48-1.668,46.229Z" fill="#102048"/>
            <path id="Path_117" data-name="Path 117" d="M716.527,446.32l-.172-1.382a96.917,96.917,0,0,1,22.989-.465l-.161,1.384A95.629,95.629,0,0,0,716.527,446.32Z" fill="#102048"/>
            <path id="Path_118" data-name="Path 118" d="M779.4,443.07l-.172-1.382a96.9,96.9,0,0,1,22.989-.465l-.161,1.383A95.567,95.567,0,0,0,779.4,443.07Z" fill="#102048"/>
            <path id="Path_119" data-name="Path 119" d="M740.822,525.657a98.352,98.352,0,0,1-20.938-2.155l.334-1.353c.2.049,20.539,4.916,41.1-.274l.343,1.35A85.732,85.732,0,0,1,740.822,525.657Z" fill="#102048"/>
            <path id="Path_120" data-name="Path 120" d="M790.048,525.736c-1.887,0-3.675-.056-5.3-.141a110.5,110.5,0,0,1-13.67-1.546l.267-1.367c.23.045,23.22,4.408,38.522-1.233l.484,1.307C804.012,525.091,796.455,525.736,790.048,525.736Z" fill="#102048"/>
            <path id="Path_121" data-name="Path 121" d="M804.567,351.655c-8.9-4.736-21.183-7.829-33.409-9.849-5.492-.919-10.983-1.6-16.152-2.131-16.362-1.658-29.482-1.658-29.482-1.658L736.617,324.7l39.32-1.658-.14.529,19.492-4.43S800.124,324.282,804.567,351.655Z" fill="#1f3c88"/>
          </g>
          <g id="Group_43" data-name="Group 43">
            <rect id="Rectangle_9" data-name="Rectangle 9" width="16.166" height="26.899" transform="translate(735.653 218.203)" fill="#e28b6d"/>
            <path id="Path_122" data-name="Path 122" d="M743.227,229.389a19.51,19.51,0,0,1-7.573,9.877V227.522Z" fill="#102048"/>
            <path id="Path_123" data-name="Path 123" d="M727.317,204.475,726.181,215.8s-5.29,7.076-1.988,7.076c3.549,0,2.981,1.415,2.981,1.415s-1.988,14.719,16.042,5.095l3.833-22.079Z" fill="#e28b6d"/>
            <path id="Path_124" data-name="Path 124" d="M727.317,204.475A5.666,5.666,0,0,1,733.492,209c1.277,5.166,2.981,8.35,7.311,4.741l4.756-7.784-8.163-3.4Z" fill="#102048"/>
            <path id="Path_125" data-name="Path 125" d="M727.317,204.475c0-3.68,4.376-12.455,18.171-10.119,13.184,2.232,15.261,20.663,8.447,29.084,0,0-3.478,5.449-8.163-4.529l-8.021-10.756-1.7-3.4Z" fill="#102048"/>
            <path id="Path_126" data-name="Path 126" d="M746.5,218.239c-1.3,2.251-3.956,3.157-5.925,2.023s-2.509-3.877-1.205-6.128,3.956-3.156,5.925-2.023S747.8,215.989,746.5,218.239Z" fill="#e28b6d"/>
          </g>
          <g id="Group_44" data-name="Group 44">
            <path id="Path_127" data-name="Path 127" d="M777.106,239.228c30.973,9.983,55.425,51.774,26.781,52.471s-46.11-25.771-46.11-25.771Z" fill="#fa8549"/>
            <path id="Path_128" data-name="Path 128" d="M640.052,271.1s-15.3-6.648-15.82-5.165,3.1,3.325,3.1,3.325-9.844-1.4-10.663.069,3.314,1.826,3.314,1.826-4.217-.232-4.651,1.124,2.928,1.936,2.928,1.936-3.422-.255-3.638,1.245,2.434,1.974,2.434,1.974-2.133-.315-1.614,1.488,20.776,5.46,20.776,5.46l7.068-6.948Z" fill="#e28b6d"/>
            <path id="Path_129" data-name="Path 129" d="M793.011,332.431l-69.151,7.523a9.637,9.637,0,0,1-10.689-9.863l.866-28.446.405-13.108.014-.32a19.219,19.219,0,0,1-1.509,1.532c0,.014-.014.014-.028.028-.657.6-1.523,1.337-2.6,2.145-9.18,6.91-33.66,18.778-74.111-7.536l3.842-13.275,43.665,1.783s19.576-15.769,36.958-26.593a68.543,68.543,0,0,1,37.894-10.643,52.828,52.828,0,0,1,18.542,3.566c14.741,6.074,22.049,60.29,24.452,82.621A9.616,9.616,0,0,1,793.011,332.431Z" fill="#fa8549"/>
            <path id="Path_130" data-name="Path 130" d="M678.9,285.7c-1.265-8.65,4.152-13.164,4.384-13.352l.884,1.079a11.392,11.392,0,0,0-2.388,3.075,14.044,14.044,0,0,0-1.5,9Z" fill="#f9e1c0"/>
            <path id="Path_131" data-name="Path 131" d="M720.633,283.341s-.433,11.228-6.595,18.3l.405-13.108C716.748,286.67,719.389,284.483,720.633,283.341Z" fill="#f9e1c0"/>
            <path id="Path_132" data-name="Path 132" d="M700.16,298.3l-.274-1.366c10.113-2.017,23.732-18.909,23.869-19.08l1.093.869a105.388,105.388,0,0,1-8.27,8.948C710.162,293.833,704.639,297.409,700.16,298.3Z" fill="#f9e1c0"/>
          </g>
        </g>
      </g>
      <g id="Vector_Smart_Object-3" data-name="Vector Smart Object" transform="translate(-462.671 4399.819)">
        <g id="Group_47" data-name="Group 47">
          <path id="Path_133" data-name="Path 133" d="M1017.614,733.182H822.727a15.016,15.016,0,0,1-15.057-14.94V621.121a15.016,15.016,0,0,1,15.057-14.94h194.886a15.016,15.016,0,0,1,15.057,14.94v97.121A15.016,15.016,0,0,1,1017.614,733.182ZM822.727,608.519a12.666,12.666,0,0,0-12.7,12.6v97.121a12.666,12.666,0,0,0,12.7,12.6h194.886a12.666,12.666,0,0,0,12.7-12.6V621.121a12.666,12.666,0,0,0-12.7-12.6Z" fill="#86a7ff"/>
          <path id="Path_134" data-name="Path 134" d="M831.09,706.255l-2.107-1.045L842.3,678.788l16.455,17.1,19.593-41.99,26.274,24.489,28.906-28.682,28.255,17.133,36.255-37.5,1.7,1.618-37.567,38.86-28.29-17.153-29.209,28.981-25.559-23.822-19.675,42.165-16.53-17.182Z" fill="#ff3e3e"/>
          <g id="Group_46" data-name="Group 46">
            <rect id="Rectangle_10" data-name="Rectangle 10" width="22.382" height="11.688" transform="translate(930.167 700.862)" fill="#53d398"/>
            <rect id="Rectangle_11" data-name="Rectangle 11" width="38.874" height="2.338" transform="translate(967.275 705.537)" fill="#fc9947"/>
          </g>
        </g>
      </g>
      <g id="Vector_Smart_Object-4" data-name="Vector Smart Object" transform="translate(-1.827 4855.528)">
        <g id="Group_55" data-name="Group 55">
          <g id="Group_50" data-name="Group 50">
            <g id="Group_48" data-name="Group 48">
              <path id="Path_135" data-name="Path 135" d="M258.9,621.472l-24.563-25.464.053-18.789-29.835.884,2.463,43.369Z" fill="#102048"/>
              <path id="Path_136" data-name="Path 136" d="M234.588,506.634l-33.836,4.494,1.335,23.509,32.425-.784Z" fill="#e28b6d"/>
              <path id="Path_137" data-name="Path 137" d="M234.512,533.852l-32.425.784,2.468,43.467,29.835-.884Z" fill="#f9b384"/>
              <rect id="Rectangle_12" data-name="Rectangle 12" width="14.127" height="2.996" transform="translate(220.915 600.644) rotate(-25.201)" fill="#fff"/>
            </g>
            <g id="Group_49" data-name="Group 49">
              <path id="Path_138" data-name="Path 138" d="M306.021,498.9l-32.583-1.248-4.278,24.833,31.214,4.541Z" fill="#e28b6d"/>
              <path id="Path_139" data-name="Path 139" d="M313.29,596.258l-20.051-33.7,2.593-12.912c-8.842-2.018-22.493-5.125-30.174-6.831L258.9,582.028Z" fill="#102048"/>
              <path id="Path_140" data-name="Path 140" d="M300.373,527.022l-31.214-4.541-3.5,20.332c7.682,1.707,21.333,4.813,30.174,6.831Z" fill="#f9b384"/>
              <rect id="Rectangle_13" data-name="Rectangle 13" width="13.356" height="2.996" transform="translate(280.101 565.38) rotate(-18.607)" fill="#fff"/>
            </g>
            <path id="Path_141" data-name="Path 141" d="M327.827,502.645s-13.535,16.971-38.6,11.474c-25.054-5.482-20.542,8.987-34.588,11.983s-53.131-21.465-66.169,1.5c0,0-7.76-86.952-4.226-141.985.963-14.859,2.737-27.4,5.73-35.26l59.988-.824,13.2-.18s.045.284.15.854c.226,1.183.677,3.6,1.429,7.04C269.643,379.908,286.847,447.118,327.827,502.645Z" fill="#fbc343"/>
            <path id="Path_142" data-name="Path 142" d="M264.74,357.245c-13.414,8.822-41.386,23.981-80.5,28.37.963-14.859,2.737-27.4,5.73-35.26l59.988-.824,13.354.674C263.538,351.388,263.989,353.8,264.74,357.245Z" fill="#e49b31"/>
          </g>
          <g id="Group_53" data-name="Group 53">
            <g id="Group_51" data-name="Group 51">
              <rect id="Rectangle_14" data-name="Rectangle 14" width="51.131" height="68.154" transform="translate(212.85 382.748) rotate(106.423)" fill="#fff"/>
              <path id="Path_143" data-name="Path 143" d="M198.9,432.528l-67.075-19.692,14.882-50.287,67.075,19.693Zm-65.208-20.705,64.19,18.845,14.032-47.414-64.191-18.846Z" fill="#86a7ff"/>
            </g>
            <g id="Group_52" data-name="Group 52">
              <rect id="Rectangle_15" data-name="Rectangle 15" width="15.226" height="1.498" transform="translate(195.68 401.033) rotate(-73.578)" fill="#86a7ff"/>
              <rect id="Rectangle_16" data-name="Rectangle 16" width="36.656" height="1.498" transform="matrix(0.283, -0.959, 0.959, 0.283, 180.606, 418.86)" fill="#86a7ff"/>
              <rect id="Rectangle_17" data-name="Rectangle 17" width="36.656" height="1.498" transform="matrix(0.283, -0.959, 0.959, 0.283, 171.591, 416.214)" fill="#86a7ff"/>
              <rect id="Rectangle_18" data-name="Rectangle 18" width="36.656" height="1.498" transform="matrix(0.283, -0.959, 0.959, 0.283, 162.575, 413.567)" fill="#86a7ff"/>
              <rect id="Rectangle_19" data-name="Rectangle 19" width="28.009" height="1.498" transform="matrix(0.283, -0.959, 0.959, 0.283, 156.005, 402.658)" fill="#86a7ff"/>
            </g>
          </g>
          <path id="Path_144" data-name="Path 144" d="M301.1,260.979s1.854-17.8,3.522-17.5,1.485,4.649,1.485,4.649,3.9-9.926,5.711-9.915-.039,4.058-.039,4.058,2.014-4.059,3.518-3.746.269,3.757.269,3.757,1.573-3.328,3.1-2.737.567,3.316.567,3.316.833-2.157,2.254-.719-5.869,22.278-5.869,22.278l-10.273,2.92Z" fill="#f9b384"/>
          <path id="Path_145" data-name="Path 145" d="M315.665,264.48S306.7,301.194,284.1,311.919a29.858,29.858,0,0,1-18.182,2.487l-4.045-7.175-26.528-47,9.263-3.236s20.813,7.729,32.092,24.955c0,0,10.527-.989,24.558-21.959Z" fill="#3a6bea"/>
          <path id="Path_146" data-name="Path 146" d="M284.1,311.919a29.858,29.858,0,0,1-18.182,2.487l-4.045-7.175,1.038-17.54S278.25,298.363,284.1,311.919Z" fill="#102048"/>
          <path id="Path_147" data-name="Path 147" d="M190.726,382.746s-2.028,17.284-3.8,16.991-1.56-4.644-1.56-4.644-4.2,9.947-6.129,9.944.06-4.06.06-4.06-2.164,4.069-3.765,3.764-.269-3.757-.269-3.757-1.691,3.336-3.311,2.752-.588-3.314-.588-3.314-.9,2.161-2.4.73,6.355-22.313,6.355-22.313l10.955-2.969Z" fill="#f9b384"/>
          <path id="Path_148" data-name="Path 148" d="M226.693,257.361c-44.488,5.368-57.584,66.781-52.509,124.45l16.542,1s2.757-56.42,25.565-83.382l19.049-39.195Z" fill="#3a6bea"/>
          <path id="Path_149" data-name="Path 149" d="M235.34,260.232l30.829,20.721s8.522,39.694,8.02,74.894c0,0-59.652,21.969-89.228-1l23.31-75.394Z" fill="#3a6bea"/>
          <g id="Group_54" data-name="Group 54">
            <path id="Path_150" data-name="Path 150" d="M253.036,224.345c2.856-9.924-7.169-21.532-26.343-11.671,0,0-19.049,3.246-15.665,36.2l20.051.749Z" fill="#102048"/>
            <path id="Path_151" data-name="Path 151" d="M230.7,211.988c2.621-10.486-8.816-12.164-10.723-5.732-.254.858-5.828-2.2-7.387,2.8-1.787,5.732,4.423,9.547,11.437,8.109Z" fill="#102048"/>
            <path id="Path_152" data-name="Path 152" d="M244.609,237.264v19.727l-8.647,12.1L226.7,257.366l.5-20.476Z" fill="#f9b384"/>
            <path id="Path_153" data-name="Path 153" d="M244.609,244v12.657c-6.2-2.681-8.858-10.785-8.858-10.785Z" fill="#102048"/>
            <path id="Path_154" data-name="Path 154" d="M253.036,224.345s6.159,32.392-17.279,21.532l-7.7-8.8,4.79-17.787,12.318-3Z" fill="#f9b384"/>
            <path id="Path_155" data-name="Path 155" d="M253.036,224.345s-4.913-7.614-11.054-3.932-5.827,16.6-12.219,13.356-2.694-13.231-2.694-13.231l9.4-7.115L247,214.609Z" fill="#102048"/>
            <ellipse id="Ellipse_12" data-name="Ellipse 12" cx="4.449" cy="5.055" rx="4.449" ry="5.055" transform="matrix(0.866, -0.5, 0.5, 0.866, 221.744, 232.792)" fill="#f9b384"/>
          </g>
          <ellipse id="Ellipse_13" data-name="Ellipse 13" cx="3.008" cy="2.996" rx="3.008" ry="2.996" transform="translate(233.084 276.708)" fill="#102048"/>
          <path id="Path_156" data-name="Path 156" d="M193.219,359.86l-1.476-.287c.022-.111,2.211-11.226,5.891-23.66,4.964-16.773,10.138-27.844,15.378-32.905l1.047,1.076C201.961,315.767,193.3,359.42,193.219,359.86Z" fill="#102048"/>
          <path id="Path_157" data-name="Path 157" d="M187.643,324.491c-2.762-2.064-9.231-1.85-9.3-1.848l-.056-1.5c.287-.011,7.07-.232,10.254,2.146Z" fill="#102048"/>
        </g>
      </g>
    </g>
  </g>
</svg>
