<svg xmlns="http://www.w3.org/2000/svg" xmlns:xlink="http://www.w3.org/1999/xlink" width="312" height="378" viewBox="0 0 312 378">
  <defs>
    <clipPath id="clip-path">
      <path id="Path_127" data-name="Path 127" d="M219.741,186.346,271.7,176.58l-19.222,39.131-17.835-16.737-4.086,7.174-2.837-13.4Z" fill="none"/>
    </clipPath>
    <clipPath id="clip-path-2">
      <path id="Path_138" data-name="Path 138" d="M251.7,351.9c-1.44,6.244-2.978,13.021-4.672,19.2-8.234-1.667-16.5-3.9-24.731-5.563-4.23-.856-4.276,5.772-6.027,8.427a30.062,30.062,0,0,1-6.358,6.539c-4.889,4-12.353,5.4-18.627,5.3-7.375-.111-15.142-3.567-18.38-10.192-2.635-5.389-1.88-11.809-.293-17.594,5.814-21.2,21.485-38.259,38.168-52.589,8.242-7.08,18.578-12.259,29.661-8.38,17.874,6.257,17.144,26.53,14.045,41.942Q253.185,345.461,251.7,351.9Z" fill="none"/>
    </clipPath>
    <clipPath id="clip-path-3">
      <path id="Path_155" data-name="Path 155" d="M177.387,273.331c0-.154-.017-.305-.027-.459-1.667-3.318-6.684-2.27-9.8-3.19a6.178,6.178,0,0,1-1.693-.8c-.067-.045-.135-.089-.2-.137a6.764,6.764,0,0,1-2.341-3.243c-1.973-5.482-.057-11.151,1.474-16.609a1.655,1.655,0,0,0-.371-.324,3.636,3.636,0,0,0-2.62-.11,16.034,16.034,0,0,1-9.632-1.2,27.222,27.222,0,0,1-4.119-2.4c-.751-.514-2.335-2.509-3.306-2.4a.49.49,0,0,0-.221.119c-.236,4.72.5,8.946-1.417,13.51a14.737,14.737,0,0,1-2.914,4.6,5.474,5.474,0,0,1-2.648,2.044,6.977,6.977,0,0,1-.961.282c-.129.045-.248.106-.383.145a.709.709,0,0,1-.419,0c-2.055.312-4.253.245-5.585,1.75a5.49,5.49,0,0,0-1.112,2.578c-1.413,6.841,2.075,14.7,6.551,19.725,3.411,3.827,8.69,6.95,13.845,7.349,4.907.379,9.546-1.669,13.655-4.15,1.8-1.088,3.508-2.15,5.12-3.312,4.849-3.5,8.911-7.129,9.117-13.447C177.383,273.545,177.385,273.438,177.387,273.331Z" fill="none"/>
    </clipPath>
    <clipPath id="clip-path-4">
      <path id="Path_165" data-name="Path 165" d="M116.982,371.968c1.538-6.643,8.449-6.622,17.195-5.756,9.388.929,18.838-.236,28.254-.8,16.694-1,33.436-.128,50.137.748,6.5.342,13.276.758,18.94,3.972,5.715,3.244,9.633,9.036,11.9,15.2s3.062,12.758,3.839,19.282q3.083,25.89,6.166,51.782c.524,4.4,1.135,8.793,1.572,13.2.5,5.033.194,4.882-4.8,5.627-8.355,1.248-16.738,2.334-25.106,3.5-3.675-14.615-7.361-29.279-9.137-44.243-.244-2.055-4.446-26.868-5.137-26.758a191.266,191.266,0,0,1-45.2,1.743c-10.647-.855-21.481-2.693-30.771-7.965-8.168-4.636-16.534-13.254-17.907-22.893A18.348,18.348,0,0,1,116.982,371.968Z" fill="none"/>
    </clipPath>
  </defs>
  <g id="Ai" transform="translate(-419 -1226)">
    <g id="Vector_Smart_Object" data-name="Vector Smart Object" transform="translate(357.689 1092.823)">
      <path id="Path_118" data-name="Path 118" d="M352.316,327.92a26.069,26.069,0,0,1-3.855,9.473c-7.726,11.105-27.3,24.684-41.023,18.948-7.2-3.009-11.6-12.705-7.171-19.122,3.212-4.648,9.395-5.99,14.038-9.208,8.156-5.653,11.744-17.248,21.142-20.434C350.619,302.434,354.732,316.207,352.316,327.92Z" fill="#61db92"/>
      <path id="Path_119" data-name="Path 119" d="M103.059,312.625a7.394,7.394,0,0,1-.288,2.426c-.673,2.288-2.375,4.109-4.059,5.8C91.866,327.7,67.2,355.6,61.67,333.52c-3.008-12.023,13.574-28.185,24.116-30.255,4.072-.8,8.505-.721,12.108,1.336A10.205,10.205,0,0,1,103.059,312.625Z" fill="#e0adad"/>
      <path id="Path_120" data-name="Path 120" d="M204.83,167.68q-.4.393-.794.8c-3.065,3.183-6.271,6.454-10.388,8.059s-9.426,1.058-12.1-2.458a9.361,9.361,0,0,1-1.662-3.841c-1.213-6.056,2.5-12.108,7.162-16.154,6.278-5.445,13.537-9.156,20.1-14.477,3.972-3.219,8.561-6.071,13.663-6.407s10.7,2.58,11.944,7.538c.913,3.649-.688,7.559-3.217,10.345s-5.882,4.659-9.172,6.483C214.812,160.646,209.355,163.236,204.83,167.68Z" fill="#fcd61d"/>
      <path id="Path_121" data-name="Path 121" d="M351.049,187.015a5.349,5.349,0,1,1-5.349-5.348A5.348,5.348,0,0,1,351.049,187.015Z" fill="none" stroke="#000" stroke-miterlimit="10" stroke-width="0.568"/>
      <ellipse id="Ellipse_4" data-name="Ellipse 4" cx="10.421" cy="10.422" rx="10.421" ry="10.422" transform="matrix(0.544, -0.839, 0.839, 0.544, 274.243, 274.621)" fill="none" stroke="#000" stroke-miterlimit="10" stroke-width="0.568"/>
      <path id="Path_122" data-name="Path 122" d="M267.555,275.367a3.808,3.808,0,1,1-1.86,5.054A3.81,3.81,0,0,1,267.555,275.367Z"/>
      <path id="Path_123" data-name="Path 123" d="M70.808,180.1a3.808,3.808,0,1,1-1.86,5.054A3.809,3.809,0,0,1,70.808,180.1Z"/>
      <line id="Line_16" data-name="Line 16" x1="27.38" y2="27.372" transform="translate(345.731 177.506)" fill="none" stroke="#000" stroke-miterlimit="10" stroke-width="0.568"/>
      <line id="Line_17" data-name="Line 17" x1="27.38" y2="27.372" transform="translate(296.74 340.434)" fill="none" stroke="#000" stroke-miterlimit="10" stroke-width="0.568"/>
      <path id="Path_124" data-name="Path 124" d="M82.679,203.743,87.918,193.4l7.195,10.344,5.746-10.344,5.746,10.344,6.019-10.344,6.293,10.344,5.472-10.344" fill="none" stroke="#000" stroke-miterlimit="10" stroke-width="0.568"/>
      <g id="Group_15" data-name="Group 15">
        <path id="Path_125" data-name="Path 125" d="M219.741,186.346,271.7,176.58,249.9,216l-15.251-17.029-4.173,7.626-2.75-13.852Z" fill="#9dd1c9" stroke="#000" stroke-miterlimit="10" stroke-width="0.568"/>
        <g id="Group_14" data-name="Group 14">
          <g id="Group_13" data-name="Group 13" clip-path="url(#clip-path)">
            <path id="Path_126" data-name="Path 126" d="M263.889,182.15l-29.245,16.824-2.005,14.142-8.8-5.816,3.884-14.552Z"/>
          </g>
        </g>
      </g>
      <path id="Path_128" data-name="Path 128" d="M243.579,510.73,263.07,367.661a.39.39,0,0,1,.773-.028l21.249,143.1" fill="none" stroke="#81b9fc" stroke-miterlimit="10" stroke-width="3.407"/>
      <path id="Path_129" data-name="Path 129" d="M137.513,510.049l23.509-94.882,32.55,95.46" fill="none" stroke="#81b9fc" stroke-miterlimit="10" stroke-width="3.407"/>
      <path id="Path_130" data-name="Path 130" d="M224.168,353.595c-.192-6.39.089-12.716,1.928-18.816,1.034-3.425,2.9-8.161,6.152-10.112,3.415-2.048,8.754-1.11,11.889.992,4.21,2.824,6.311,8.04,6.605,13.1.79,13.605-4.874,27.913-8.225,40.936-.712,2.771-1.559,5.754-3.828,7.5-3.036,2.336-7.458,1.543-10.893-.152a5.8,5.8,0,0,1-2.248-1.678c-.882-1.238-.793-2.893-.7-4.41q.307-4.873.2-9.759C224.915,365.359,224.343,359.45,224.168,353.595Z" fill="#fff" stroke="#222221" stroke-miterlimit="10" stroke-width="0.568"/>
      <path id="Path_131" data-name="Path 131" d="M235.734,373.174c-3.338-.7-6.639-1.562-9.918-2.493-.266-.076-.532-.15-.8-.225.007.246.023.493.028.739q.111,4.879-.2,9.759c-.1,1.516-.185,3.172.7,4.41a5.787,5.787,0,0,0,2.248,1.677c3.434,1.7,7.857,2.489,10.893.153,2.269-1.745,3.116-4.728,3.828-7.5.438-1.7.918-3.431,1.415-5.175C241.185,374.178,238.449,373.74,235.734,373.174Z" fill="#f65e59" stroke="#000" stroke-miterlimit="10" stroke-width="0.568"/>
      <path id="Path_132" data-name="Path 132" d="M237.955,439.994c4.684-1.131,4.34-1.911,8.868-3.523.008,20.782,5.591,56.4,5.5,62.38-5.815.417-8.877,5.5-14.76,5.318-4.613-7.4-8.51-26.524-11.116-34.516-.6-1.847,2.524-17.77-.412-28.25C231.786,440.346,232.275,441.366,237.955,439.994Z" fill="#fff" stroke="#222221" stroke-miterlimit="10" stroke-width="0.568"/>
      <path id="Path_133" data-name="Path 133" d="M244.688,481.548c-4.772.807-9.545,1.67-14.346,2.275,2.087,7.749,4.53,16.035,7.217,20.345,5.883.185,8.945-4.9,14.76-5.318.037-2.355-.807-9.323-1.844-18.163C248.541,480.955,246.608,481.224,244.688,481.548Z" fill="#f65e59" stroke="#000" stroke-miterlimit="10" stroke-width="0.568"/>
      <path id="Path_134" data-name="Path 134" d="M128.956,419.22q5.685,1.986,11.5,3.559c7.545.612,15.133.777,22.7.732,11.816-.07,23.8-.554,35.447-2.7a77.661,77.661,0,0,0,16.868-4.942c4.562-1.979,9.65-4.576,12.823-8.521a26.156,26.156,0,0,0,5.4-13.269c-4.489-14.267-17.442-16.32-29.075-22.924a85.727,85.727,0,0,1-30.825-29.822c-6.963-11.457-11.053-24.3-16.619-36.425-5.192-11.317-11.935-17.152-23.826-21.309-8.822-3.084-18.567-5.2-27.424-2.217-12.31,4.143-19.641,17.188-21.782,29.995-3.323,19.881-1.051,44.232,5.194,63.453C95.278,393.127,110.3,412.709,128.956,419.22Z" fill="#81b9fc" stroke="#000" stroke-miterlimit="10" stroke-width="0.568"/>
      <path id="Path_135" data-name="Path 135" d="M160.463,401.707q5.877.378,11.725,1.082c3.424.412,6.956.949,9.865,2.8.638.406,1.306,1.018,1.217,1.77-.078.674-.729,1.113-1.323,1.443-5.25,2.926-12.771,6.063-18.921,5.342-5.438-.637-11.756-.326-17.019-2.056-2.612-.859-5.187-2.266-6.652-4.593-1.095-1.741-2.04-5.725.434-6.8,1.667-.722,6.844.565,8.755.58Q154.509,401.325,160.463,401.707Z" fill="#222221"/>
      <path id="Path_136" data-name="Path 136" d="M251.7,351.9c-1.44,6.244-2.978,13.021-4.672,19.2-8.234-1.667-16.5-3.9-24.731-5.563-4.23-.856-4.276,5.772-6.027,8.427a30.062,30.062,0,0,1-6.358,6.539c-4.889,4-12.353,5.4-18.627,5.3-7.375-.111-15.142-3.567-18.38-10.192-2.635-5.389-1.88-11.809-.293-17.594,5.814-21.2,21.485-38.259,38.168-52.589,8.242-7.08,18.578-12.259,29.661-8.38,17.874,6.257,17.144,26.53,14.045,41.942Q253.185,345.461,251.7,351.9Z" fill="#020f2b" stroke="#000" stroke-miterlimit="10" stroke-width="0.568"/>
      <g id="Group_17" data-name="Group 17">
        <g id="Group_16" data-name="Group 16" clip-path="url(#clip-path-2)">
          <path id="Path_137" data-name="Path 137" d="M244.932,309.338c3.349.042,6.4-2.234,8.131-5.1a7.047,7.047,0,0,0,1.053-2.744,7.466,7.466,0,0,0-1.316-4.642c-2.859-4.713-10.714-10.306-14.538-3.486C235.02,299.143,237.026,309.238,244.932,309.338Z" fill="#114"/>
        </g>
      </g>
      <path id="Path_139" data-name="Path 139" d="M226.821,396.449c6.762,1.558,13.7,2.273,20.559,3.284,3.61.532,10.995,2.586,14.4.062,4.308-3.19-2.75-5.054-5.943-6.839-5.5-3.072-11.077-6-16.62-8.991-5.12-2.762-11.7-8.649-16.919-2.953-3.359,3.663-3.743,9.508-4.126,14.2A45.305,45.305,0,0,1,226.821,396.449Z" fill="#222221"/>
      <path id="Path_140" data-name="Path 140" d="M116.982,371.968c1.538-6.643,8.449-6.622,17.195-5.756,9.388.929,18.838-.236,28.254-.8,16.694-1,33.436-.128,50.137.748,6.5.342,13.276.758,18.94,3.972,5.715,3.244,9.633,9.036,11.9,15.2s3.062,12.758,3.839,19.282q3.083,25.89,6.166,51.782c.524,4.4,1.135,8.793,1.572,13.2.5,5.033.194,4.882-4.8,5.627-8.355,1.248-16.738,2.334-25.106,3.5-3.675-14.615-7.361-29.279-9.137-44.243-.244-2.055-4.446-26.868-5.137-26.758a191.266,191.266,0,0,1-45.2,1.743c-10.647-.855-21.481-2.693-30.771-7.965-8.168-4.636-16.534-13.254-17.907-22.893A18.348,18.348,0,0,1,116.982,371.968Z" fill="#020f2b" stroke="#000" stroke-miterlimit="10" stroke-width="0.568"/>
      <path id="Path_141" data-name="Path 141" d="M238.809,510.888a2.879,2.879,0,0,0,.357.124h5.025c10.692-.678,21.342.07,32.029-.73a7.81,7.81,0,0,0,4.3-1.213c2.718-2.118.333-5.367-2.166-6.362-8.837-3.52-20.366-2.918-26.22-11.654A114.4,114.4,0,0,1,234.2,499.26c.733-.261,1.135,5.225,1.3,5.834C236.011,506.973,236.928,509.972,238.809,510.888Z" fill="#222221"/>
      <path id="Path_142" data-name="Path 142" d="M139.646,260a35.857,35.857,0,0,0-23.279,12.67c-5.63,6.433-7.939,15.108-9.852,23.231L99.1,327.4a37.391,37.391,0,0,0-1.236,7.482c-.115,4.062,1.051,9.231,2,13.142A5.867,5.867,0,0,0,102,351.717a23.977,23.977,0,0,1,9.437,11.675c.56,1.611,1.123,3.221,1.674,4.827a22.6,22.6,0,0,0,1.526,3.948c2.735-.037,5.476.006,8.211.047,9.262,0,17.574.157,26.512-2.454,9.012-2.632,18.584-2.194,27.656-4.552a2.436,2.436,0,0,0,1.793-1.147c.361-.881.153-3.282.232-4.355.167-2.3.242-4.605.292-6.91.1-4.493.041-8.986-.033-13.478-.145-8.772-.4-17.554.117-26.32.622-6.221.821-12.568.888-18.808,9.15-.405,18.478-2.212,27.644-3.328,7.934-.966,15.773-1.6,21.322-8.081a11.968,11.968,0,0,0,1.624-2.345c3.933-7.739-1.84-16.3-9.934-17.729a28.143,28.143,0,0,0-4.89-.288c-13.169-.011-26.291-.476-39.448-1-7.384-.293-12.437-.082-19.648-1.552C151.076,258.664,145.528,260,139.646,260Z" fill="#fa463c" stroke="#000" stroke-miterlimit="10" stroke-width="0.568"/>
      <path id="Path_143" data-name="Path 143" d="M212.586,268.036c.345-5.264,1.94-10.717,3.065-15.523,1.693-7.235,3.668-14.406,5.086-21.7a85.191,85.191,0,0,0,1.814-19.421c-.189-4.963,1.172-10.263,4.529-14a5.6,5.6,0,0,1,1.81-1.459,5.984,5.984,0,0,1,2.6-.357,16.6,16.6,0,0,1,6.316,1.294c-.79.512-1.588,1.014-2.37,1.536-.692.463-.764.514-.269,1.139a19.083,19.083,0,0,1,1.868,2.035c.742,1.3-.1,3.791-.526,5.083a20.625,20.625,0,0,1-2.579,5.056,6.237,6.237,0,0,0-1,1.854,5.458,5.458,0,0,0-.131,1.247,101.082,101.082,0,0,0,1.124,16.5c.821,5.847,1.4,11.728,1.682,17.626q.07,1.5.115,3.009c.286,9.826.373,19.934-5.05,28.5a15.424,15.424,0,0,1-2.806,3.492c-6.485,5.621-13.615-3.3-14.888-9.281A24.266,24.266,0,0,1,212.586,268.036Z" fill="#fff" stroke="#222221" stroke-miterlimit="10" stroke-width="0.568"/>
      <path id="Path_144" data-name="Path 144" d="M138.9,290.722a15.951,15.951,0,0,0-4.727,9.571c-2.379,13.08-4.505,26.329-8.011,39.186" fill="none" stroke="#131834" stroke-miterlimit="10" stroke-width="0.568"/>
      <path id="Path_145" data-name="Path 145" d="M226.667,315.206c-3.129,13.487-10.293,33.973-10.427,47.82" fill="none" stroke="#131834" stroke-miterlimit="10" stroke-width="0.568"/>
      <path id="Path_146" data-name="Path 146" d="M97.158,400.4a30.485,30.485,0,0,0,21.555,19.1l.158.036c14.5,3.366,29.444,4.061,44.284,3.974,7.383-.044,14.833-.25,22.225-.921-1.6-.694-3.2-1.417-4.773-2.186-13.78-6.7-27.239-14.409-38.947-24.371a146.563,146.563,0,0,1-28.4-31.876,160.545,160.545,0,0,1-9.765-18.22c-2.81-5.9-5.662-11.777-8.221-17.789-3.592-8.436-7.166-17.7-8.226-27.07a49.474,49.474,0,0,0-2.9,10.3c-3.323,19.881-1.051,44.232,5.194,63.453C91.923,382.8,94.038,392.031,97.158,400.4Z" fill="#81b9fc" stroke="#000" stroke-miterlimit="10" stroke-width="0.568"/>
      <path id="Path_147" data-name="Path 147" d="M216.561,367.565c-14.581-2.217-23.965-.276-42.737-.276" fill="none" stroke="#131834" stroke-miterlimit="10" stroke-width="0.568"/>
      <path id="Path_148" data-name="Path 148" d="M183.179,359.671a84.948,84.948,0,0,0-14.978-5.829,71.533,71.533,0,0,1-7.114-2.173,50.439,50.439,0,0,1-7.441-3.992l-14.23-8.694c-3.831-2.34-7.684-4.69-11.7-6.672a58.909,58.909,0,0,0-6.405-2.727c-5.908-2.086-16.221-4.635-21.213.325A10.308,10.308,0,0,0,97.8,333.3c2.647,5.6,5.28,11.211,8.066,16.745a35.1,35.1,0,0,0,5.319,2.14c7.411,2.382,15.158,3.385,22.853,4.358,7.635.964,15.433,1.442,22.169,5.488,7.411,4.452,17.644,4.385,25.932,2.575,1.5-.327,3.328-1.2,3.172-2.722C185.2,360.817,184.135,360.152,183.179,359.671Z" fill="#fff" stroke="#222221" stroke-miterlimit="10" stroke-width="0.568"/>
      <g id="Group_18" data-name="Group 18">
        <path id="Path_149" data-name="Path 149" d="M66.4,510.73,86.834,367.661a.411.411,0,0,1,.811-.028l22.276,143.1" fill="none" stroke="#81b9fc" stroke-miterlimit="10" stroke-width="3.407"/>
        <rect id="Rectangle_1" data-name="Rectangle 1" width="202.414" height="6.202" transform="translate(74.284 363.254)" fill="#81b9fc"/>
        <line id="Line_18" data-name="Line 18" x1="205.5" transform="translate(72.741 363.313)" fill="none" stroke="#131834" stroke-miterlimit="10" stroke-width="0.568"/>
        <line id="Line_19" data-name="Line 19" x2="7.513" transform="translate(84.537 369.461)" fill="none" stroke="#131834" stroke-miterlimit="10" stroke-width="0.568"/>
        <line id="Line_20" data-name="Line 20" x2="7.513" transform="translate(259.839 369.461)" fill="none" stroke="#131834" stroke-miterlimit="10" stroke-width="0.568"/>
      </g>
      <g id="Group_20" data-name="Group 20">
        <path id="Path_150" data-name="Path 150" d="M269.568,359.626H177.306a1.561,1.561,0,0,0-1.7,1.365v1.231a1.562,1.562,0,0,0,1.7,1.366h92.262Z"/>
        <path id="Path_151" data-name="Path 151" d="M269.46,362.6H188.768l7.021-46.355a3.276,3.276,0,0,1,3.2-2.81h74.3a3.144,3.144,0,0,1,3.068,3.673Z" fill="#fff" stroke="#222221" stroke-miterlimit="10" stroke-width="0.568"/>
        <g id="Group_19" data-name="Group 19">
          <line id="Line_21" data-name="Line 21" x2="3.5" y2="2.91" transform="translate(239.647 336.591)" fill="none" stroke="#131834" stroke-miterlimit="10" stroke-width="0.568"/>
          <line id="Line_22" data-name="Line 22" x2="3.5" y2="2.91" transform="translate(235.047 336.591)" fill="none" stroke="#131834" stroke-miterlimit="10" stroke-width="0.568"/>
          <line id="Line_23" data-name="Line 23" x2="3.5" y2="2.91" transform="translate(230.448 336.591)" fill="none" stroke="#131834" stroke-miterlimit="10" stroke-width="0.568"/>
        </g>
      </g>
      <path id="Path_152" data-name="Path 152" d="M170.049,222.46c-1.6-3.354-4.784.47-8.466-.036-3.2-.442-5.669-.916-8.77.274a12.115,12.115,0,0,0-6.564,5.684c-.36.72-.673,1.437-.949,2.149a44.463,44.463,0,0,0-1.232,6.689,42.311,42.311,0,0,0,.073,5.593c.135.769.238,1.541.341,2.313,0,3.73.2,7.235-1.366,10.962a14.737,14.737,0,0,1-2.914,4.6,5.411,5.411,0,0,1-1.919,1.7,3.57,3.57,0,0,1,.586.578c3.646,4.623,10.792,5.2,16.216,4.739a25.208,25.208,0,0,0,8.463-2.035c-2.108-3.126-1.271-6.648-.354-10.783.08-.361.533-1.642.946-2.93a10.3,10.3,0,0,0,3.868-3.642,22.626,22.626,0,0,0,2.764-7.528C171.619,236.778,171.814,226.154,170.049,222.46Z" fill="#fff" stroke="#222221" stroke-miterlimit="10" stroke-width="0.568"/>
      <path id="Path_153" data-name="Path 153" d="M146.783,242.388a22.282,22.282,0,0,1,1.162-5.06c.78-1.668,2.53-2.032,3.4-3.508,1.819-3.092,1.727-6.761,5.555-8.513,3.955-1.811,8.8.775,12.881-.739a6.921,6.921,0,0,0,4.392-6.384A11.323,11.323,0,0,0,173.122,214a9.612,9.612,0,0,0-2.906-4.23c-1.92-1.4-4.525-1.432-6.869-1.018s-4.638,1.208-7.018,1.248c-3.019.051-6.034-1.117-9-.575a8.125,8.125,0,0,0-6.128,5.331c-.829,2.509-.911,4.95-2.47,7.2-1.625,2.345-3.207,4.269-3.253,7.307-.036,2.473,1.809,4.786,2.729,6.986.822,1.967,1.194,4.107,2.111,6.03s2.6,3.7,4.727,3.854a1.472,1.472,0,0,0,.936-.178c.546-.367.521-1.157.5-1.814A16.844,16.844,0,0,1,146.783,242.388Z"/>
      <g id="Group_22" data-name="Group 22">
        <g id="Group_21" data-name="Group 21" clip-path="url(#clip-path-3)">
          <path id="Path_154" data-name="Path 154" d="M156.294,251.547a3.454,3.454,0,0,0,.472.1,17.276,17.276,0,0,0,9.024-.309c.794.168.669.814.513,1.968q-.329,2.423-.491,4.867L156.1,251.5Z" fill="#222221"/>
        </g>
      </g>
      <path id="Path_156" data-name="Path 156" d="M159.036,242.976a4.229,4.229,0,0,0,3.483,2.307,3.951,3.951,0,0,0,3.495-2.094Z" fill="none" stroke="#222221" stroke-miterlimit="10" stroke-width="0.568"/>
      <path id="Path_157" data-name="Path 157" d="M151.83,237.406c-.658-3.339-4.109-5.99-7.509-4.569-3.322,1.387-4.459,6.751-2.122,9.44a5.094,5.094,0,0,0,4.978,1.562" fill="#fff" stroke="#222221" stroke-miterlimit="10" stroke-width="0.568"/>
      <path id="Path_158" data-name="Path 158" d="M145.629,236.038a3.18,3.18,0,0,1,3.382,4.151" fill="none" stroke="#222221" stroke-miterlimit="10" stroke-width="0.568"/>
      <path id="Path_159" data-name="Path 159" d="M229.936,207.684a5.324,5.324,0,0,0,3.237-.237,5.7,5.7,0,0,0,2.464-1.714c1.207-1.519.844-3.343-.009-4.925a27.537,27.537,0,0,1-4.645,4.065,3.544,3.544,0,0,0-1.267,1.214C229.274,206.976,229.463,207.455,229.936,207.684Z" fill="#fff"/>
      <path id="Path_160" data-name="Path 160" d="M230.735,204.794a2.812,2.812,0,0,1-.451.112,29.66,29.66,0,0,1-.78-3.737l-.664-3.133L228.2,195c-.14-.659-.7-1.991.011-2.449a1.813,1.813,0,0,1,.662-.217,17.014,17.014,0,0,1,4.262-.393,6.827,6.827,0,0,1,3.964,1.451,2.748,2.748,0,0,1,1.13,2.3,3.268,3.268,0,0,1-1.677,2.125c-.551.36-1.107.782-1.623,1.2-.164.135.568.949.566,1.13-.007.483-1.048,1.41-1.363,1.754C233.211,202.906,232.1,204.338,230.735,204.794Z"/>
      <path id="Path_161" data-name="Path 161" d="M235.533,200.008a13.723,13.723,0,0,1-5.408,5.127" fill="none" stroke="#222221" stroke-miterlimit="10" stroke-width="0.568"/>
      <path id="Path_162" data-name="Path 162" d="M180.162,294.94q.443-3.279.885-6.558" fill="#dea600" stroke="#000" stroke-miterlimit="10" stroke-width="0.568"/>
      <path id="Path_163" data-name="Path 163" d="M165.094,261.1a25.479,25.479,0,0,1-2.834-.787,6.229,6.229,0,0,1-3.107,5.678,12.5,12.5,0,0,1-7.412,1.082c-4.427-.48-10.272-3.1-12.257-7.36a27.716,27.716,0,0,1-4.225,1.135,17.54,17.54,0,0,0,4.584,5.909,21.653,21.653,0,0,0,3.884,2.346,23.805,23.805,0,0,0,9.044,2.266,14.993,14.993,0,0,0,9.333-2.325,9.677,9.677,0,0,0,3.694-7.8Q165.445,261.176,165.094,261.1Z"/>
      <g id="Group_24" data-name="Group 24">
        <g id="Group_23" data-name="Group 23" clip-path="url(#clip-path-4)">
          <path id="Path_164" data-name="Path 164" d="M228.4,377.218c.6,3.112,2.633,6.122,5.66,7.057,7.967,2.458,13.751-7.211,8.419-13.259C237.775,365.683,226.93,369.554,228.4,377.218Z" fill="#114"/>
        </g>
      </g>
      <path id="Path_166" data-name="Path 166" d="M211.2,408.011q-1.107-5.99-1.79-12.045-1.261,6.39-2.519,12.779C208.337,408.561,209.769,408.281,211.2,408.011Z" fill="#222221"/>
      <path id="Path_167" data-name="Path 167" d="M217.039,241.836l-.078.156"/>
    </g>
  </g>
</svg>
