<svg xmlns="http://www.w3.org/2000/svg" xmlns:xlink="http://www.w3.org/1999/xlink" width="723" height="662" viewBox="0 0 723 662">
  <defs>
    <clipPath id="clip-path">
      <rect id="crop" width="582" height="597" transform="translate(95.38 186.891)" fill="none"/>
    </clipPath>
  </defs>
  <g id="Ai_" data-name="Ai " transform="translate(-1095 -2720)">
    <circle id="Ellipse_756_copy" data-name="Ellipse 756 copy" cx="29.5" cy="29.5" r="29.5" transform="translate(1729 3251)" fill="#f7c23d"/>
    <ellipse id="Ellipse_754" data-name="Ellipse 754" cx="354" cy="65.5" rx="354" ry="65.5" transform="translate(1095 3251)" fill="#fff9f5"/>
    <g id="Vector_Smart_Object" data-name="Vector Smart Object" transform="translate(1303.859 2889.441)">
      <g id="Group_19" data-name="Group 19">
        <g id="Group_15" data-name="Group 15">
          <g id="Group_13" data-name="Group 13">
            <path id="Path_121" data-name="Path 121" d="M513.378,292.084l-10.321-17.066a2.05,2.05,0,0,1-.295-1.061v-9.109a2.016,2.016,0,0,0-2-2.031h-1.808a2.017,2.017,0,0,0-2,2.031v9.109a2.05,2.05,0,0,1-.295,1.061l-10.321,17.066a2.031,2.031,0,0,0,1.707,3.092h23.631A2.03,2.03,0,0,0,513.378,292.084Z" fill="#f9f8f6"/>
            <path id="Path_122" data-name="Path 122" d="M511.9,295.559H487.96a2.384,2.384,0,0,1-1.989-.968,2.287,2.287,0,0,1-.078-2.508l10.441-17.265a1.663,1.663,0,0,0,.238-.859v-9.112a2.4,2.4,0,0,1,2.38-2.412h1.808a2.4,2.4,0,0,1,2.379,2.412v9.11a1.67,1.67,0,0,0,.239.86l10.365,17.14a2.458,2.458,0,0,1,.226,2.224A2.231,2.231,0,0,1,511.9,295.559ZM498.952,263.2a1.636,1.636,0,0,0-1.626,1.647v9.11a2.442,2.442,0,0,1-.351,1.262l-10.44,17.265a1.517,1.517,0,0,0-.03,1.534,1.477,1.477,0,0,0,1.306.776H511.9a1.475,1.475,0,0,0,1.306-.777,1.515,1.515,0,0,0-.029-1.533h0l-10.459-17.3a2.3,2.3,0,0,1-.334-1.193v-9.147a1.636,1.636,0,0,0-1.625-1.647Z" fill="#313149"/>
          </g>
          <g id="Group_14" data-name="Group 14">
            <path id="Rectangle_1" data-name="Rectangle 1" d="M.655,0h7.52a.656.656,0,0,1,.656.656V2.348A.656.656,0,0,1,8.175,3H.655A.655.655,0,0,1,0,2.348V.655A.655.655,0,0,1,.655,0Z" transform="translate(495.441 261.942)" fill="#f9f8f6"/>
            <path id="Path_123" data-name="Path 123" d="M503.621,265.328h-7.528a1.036,1.036,0,0,1-1.029-1.043V262.6a1.036,1.036,0,0,1,1.029-1.043h7.528a1.035,1.035,0,0,1,1.028,1.043v1.683A1.035,1.035,0,0,1,503.621,265.328Zm-7.528-3a.277.277,0,0,0-.275.278v1.683a.276.276,0,0,0,.275.278h7.528a.276.276,0,0,0,.274-.278V262.6a.277.277,0,0,0-.274-.278Z" fill="#313149"/>
          </g>
        </g>
        <g id="Group_18" data-name="Group 18">
          <g id="Group_16" data-name="Group 16">
            <path id="Path_124" data-name="Path 124" d="M497.963,292.084l-10.321-17.066a2.05,2.05,0,0,1-.3-1.061v-9.109a2.016,2.016,0,0,0-2-2.031h-1.809a2.016,2.016,0,0,0-2,2.03v9.11a2.05,2.05,0,0,1-.3,1.061l-10.321,17.066a2.031,2.031,0,0,0,1.707,3.092h23.631A2.031,2.031,0,0,0,497.963,292.084Z" fill="#f9f8f6"/>
            <path id="Path_125" data-name="Path 125" d="M496.486,295.559H472.548a2.391,2.391,0,0,1-1.993-.968,2.287,2.287,0,0,1-.077-2.508l10.439-17.265a1.667,1.667,0,0,0,.24-.863v-9.108a2.4,2.4,0,0,1,2.379-2.412h1.809a2.4,2.4,0,0,1,2.379,2.412v9.147a1.531,1.531,0,0,0,.22.792l10.383,17.169a2.457,2.457,0,0,1,.225,2.225A2.229,2.229,0,0,1,496.486,295.559ZM483.537,263.2a1.636,1.636,0,0,0-1.625,1.647v9.147a2.3,2.3,0,0,1-.333,1.193l-10.459,17.3a1.518,1.518,0,0,0-.03,1.533,1.476,1.476,0,0,0,1.306.777h24.09a1.477,1.477,0,0,0,1.306-.776,1.517,1.517,0,0,0-.029-1.534h0l-10.441-17.265a2.44,2.44,0,0,1-.351-1.262v-9.11a1.636,1.636,0,0,0-1.625-1.647Z" fill="#313149"/>
          </g>
          <path id="Path_126" data-name="Path 126" d="M495.042,290.632l-1.876-3.385a.113.113,0,0,0-.108-.066c-1.035.033-13.237.427-15.156.427h-1.189a1.864,1.864,0,0,0-1.593.9l-1.161,1.921a1.607,1.607,0,0,0,1.351,2.446H493.8A1.476,1.476,0,0,0,495.042,290.632Z" fill="#ff5d5b"/>
          <g id="Group_17" data-name="Group 17">
            <path id="Rectangle_2" data-name="Rectangle 2" d="M.655,0h7.52a.656.656,0,0,1,.656.656V2.348A.656.656,0,0,1,8.175,3H.656A.656.656,0,0,1,0,2.348V.655A.655.655,0,0,1,.655,0Z" transform="translate(480.025 261.942)" fill="#f9f8f6"/>
            <path id="Path_127" data-name="Path 127" d="M488.205,265.328h-7.528a1.036,1.036,0,0,1-1.029-1.043V262.6a1.036,1.036,0,0,1,1.029-1.043h7.529a1.035,1.035,0,0,1,1.027,1.042v1.684A1.036,1.036,0,0,1,488.205,265.328Zm-7.528-3a.277.277,0,0,0-.275.278v1.683a.276.276,0,0,0,.275.278h7.529a.275.275,0,0,0,.273-.277V262.6a.276.276,0,0,0-.273-.277Z" fill="#313149"/>
          </g>
        </g>
      </g>
    </g>
    <g id="Vector_Smart_Object-2" data-name="Vector Smart Object" transform="translate(1089.62 2533.109)" clip-path="url(#clip-path)">
      <g id="Group_26" data-name="Group 26">
        <g id="Group_20" data-name="Group 20">
          <ellipse id="Ellipse_4" data-name="Ellipse 4" cx="54.351" cy="56.832" rx="54.351" ry="56.832" transform="translate(118.138 445.314)" fill="#a4d5ea"/>
          <path id="Path_128" data-name="Path 128" d="M173.614,445.344v60.33l47.93,20.966a58.743,58.743,0,0,0,5.3-24.493C226.84,471.153,203.11,445.971,173.614,445.344Z" fill="#ef3f4f"/>
        </g>
        <g id="Group_21" data-name="Group 21">
          <ellipse id="Ellipse_5" data-name="Ellipse 5" cx="54.351" cy="56.832" rx="54.351" ry="56.832" transform="translate(252.516 445.314)" fill="#f7c23e"/>
          <path id="Path_129" data-name="Path 129" d="M307.992,445.344c-.376-.009-.748-.03-1.125-.03-30.018,0-54.351,25.444-54.351,56.832,0,22.023,11.987,41.106,29.5,50.541l25.972-50.541Z" fill="#fff7eb"/>
        </g>
        <g id="Group_22" data-name="Group 22">
          <ellipse id="Ellipse_6" data-name="Ellipse 6" cx="54.351" cy="56.832" rx="54.351" ry="56.832" transform="translate(384.962 445.314)" fill="#58d1dd"/>
          <path id="Path_130" data-name="Path 130" d="M493.617,504.106h-54.3v54.872C468.7,558.979,492.626,534.584,493.617,504.106Z" fill="#f5fff6"/>
        </g>
        <g id="Group_23" data-name="Group 23">
          <rect id="Rectangle_3" data-name="Rectangle 3" width="96.469" height="1.646" transform="translate(124.255 573.458)" fill="#1b1b1b"/>
          <rect id="Rectangle_4" data-name="Rectangle 4" width="96.469" height="1.647" transform="translate(124.255 578.398)" fill="#1b1b1b"/>
          <rect id="Rectangle_5" data-name="Rectangle 5" width="96.469" height="1.647" transform="translate(124.255 583.338)" fill="#1b1b1b"/>
          <rect id="Rectangle_6" data-name="Rectangle 6" width="96.469" height="1.646" transform="translate(124.255 588.278)" fill="#1b1b1b"/>
          <rect id="Rectangle_7" data-name="Rectangle 7" width="96.469" height="1.647" transform="translate(124.255 593.217)" fill="#1b1b1b"/>
        </g>
        <g id="Group_24" data-name="Group 24">
          <rect id="Rectangle_8" data-name="Rectangle 8" width="96.469" height="1.646" transform="translate(258.633 573.458)" fill="#1b1b1b"/>
          <rect id="Rectangle_9" data-name="Rectangle 9" width="96.469" height="1.647" transform="translate(258.633 578.398)" fill="#1b1b1b"/>
          <rect id="Rectangle_10" data-name="Rectangle 10" width="96.469" height="1.647" transform="translate(258.633 583.338)" fill="#1b1b1b"/>
          <rect id="Rectangle_11" data-name="Rectangle 11" width="96.469" height="1.646" transform="translate(258.633 588.278)" fill="#1b1b1b"/>
          <rect id="Rectangle_12" data-name="Rectangle 12" width="65.964" height="1.634" transform="translate(258.633 593.23)" fill="#1b1b1b"/>
        </g>
        <g id="Group_25" data-name="Group 25">
          <rect id="Rectangle_13" data-name="Rectangle 13" width="96.47" height="1.646" transform="translate(391.078 573.458)" fill="#1b1b1b"/>
          <rect id="Rectangle_14" data-name="Rectangle 14" width="96.47" height="1.647" transform="translate(391.078 578.398)" fill="#1b1b1b"/>
          <rect id="Rectangle_15" data-name="Rectangle 15" width="96.47" height="1.647" transform="translate(391.078 583.338)" fill="#1b1b1b"/>
          <rect id="Rectangle_16" data-name="Rectangle 16" width="96.47" height="1.646" transform="translate(391.078 588.278)" fill="#1b1b1b"/>
          <rect id="Rectangle_17" data-name="Rectangle 17" width="65.964" height="1.634" transform="translate(391.078 593.23)" fill="#1b1b1b"/>
        </g>
      </g>
      <g id="Group_28" data-name="Group 28">
        <g id="Group_27" data-name="Group 27">
          <rect id="Rectangle_18" data-name="Rectangle 18" width="48.694" height="111.878" transform="translate(608.195 299.646)" fill="#ef3f4f"/>
          <rect id="Rectangle_19" data-name="Rectangle 19" width="48.694" height="151.916" transform="translate(550.573 259.609)" fill="#66d19e"/>
          <rect id="Rectangle_20" data-name="Rectangle 20" width="48.694" height="83.804" transform="translate(492.952 327.72)" fill="#ef3f4f"/>
        </g>
        <line id="Line_16" data-name="Line 16" x2="176.923" transform="translate(486.459 421.708)" fill="none" stroke="#163e4f" stroke-miterlimit="10" stroke-width="2.052"/>
      </g>
      <g id="Group_31" data-name="Group 31">
        <g id="Group_30" data-name="Group 30">
          <path id="Path_131" data-name="Path 131" d="M96.13,186.891V422.058H451.474" fill="none" stroke="#1b1b1b" stroke-miterlimit="10" stroke-width="1.533"/>
          <g id="Group_29" data-name="Group 29">
            <rect id="Rectangle_21" data-name="Rectangle 21" width="339.548" height="223.019" transform="translate(108.822 190.027)" fill="none" stroke="#163e4f" stroke-miterlimit="10" stroke-width="0.435"/>
            <line id="Line_17" data-name="Line 17" x2="339.548" transform="translate(108.822 375.876)" fill="none" stroke="#163e4f" stroke-miterlimit="10" stroke-width="0.425"/>
            <line id="Line_18" data-name="Line 18" x2="339.548" transform="translate(108.822 338.706)" fill="none" stroke="#163e4f" stroke-miterlimit="10" stroke-width="0.425"/>
            <line id="Line_19" data-name="Line 19" x2="339.548" transform="translate(108.822 301.536)" fill="none" stroke="#163e4f" stroke-miterlimit="10" stroke-width="0.425"/>
            <line id="Line_20" data-name="Line 20" x2="339.548" transform="translate(108.822 264.367)" fill="none" stroke="#163e4f" stroke-miterlimit="10" stroke-width="0.425"/>
            <line id="Line_21" data-name="Line 21" x2="339.548" transform="translate(108.822 227.197)" fill="none" stroke="#163e4f" stroke-miterlimit="10" stroke-width="0.425"/>
            <line id="Line_22" data-name="Line 22" y2="223.019" transform="translate(391.779 190.027)" fill="none" stroke="#163e4f" stroke-miterlimit="10" stroke-width="0.444"/>
            <line id="Line_23" data-name="Line 23" y2="223.019" transform="translate(335.188 190.027)" fill="none" stroke="#163e4f" stroke-miterlimit="10" stroke-width="0.444"/>
            <line id="Line_24" data-name="Line 24" y2="223.019" transform="translate(278.596 190.027)" fill="none" stroke="#163e4f" stroke-miterlimit="10" stroke-width="0.444"/>
            <line id="Line_25" data-name="Line 25" y2="223.019" transform="translate(222.005 190.027)" fill="none" stroke="#163e4f" stroke-miterlimit="10" stroke-width="0.444"/>
            <line id="Line_26" data-name="Line 26" y2="223.019" transform="translate(165.414 190.027)" fill="none" stroke="#163e4f" stroke-miterlimit="10" stroke-width="0.444"/>
          </g>
        </g>
        <path id="Path_132" data-name="Path 132" d="M108.848,356.556l56.841-55.308,25.263,26.416,30.789-26.416,16.579,13.208,40.657-49.942,16.973,16.51L352.4,243.051l39.078,46.641L438.843,241.4" fill="none" stroke="#ef3f4f" stroke-miterlimit="10" stroke-width="3.042"/>
      </g>
      <g id="Group_32" data-name="Group 32">
        <path id="Path_133" data-name="Path 133" d="M152.489,378.5s-18.7,2.173-32.545,35.479C109.04,440.208,102,475.863,99.5,489.835c-1.567,8.753,2.342,17.805,9.975,21.753,7.855,4.062,21.318,5.871,44.4.14l5.54-33.3-22.85-.724,11.079-33.306S176.032,396.607,152.489,378.5Z" fill="#546bfb"/>
        <path id="Path_134" data-name="Path 134" d="M109.475,511.588c7.855,4.062,21.318,5.871,44.4.14l5.54-33.3-22.85-.724s-13.762,7.268-35.331,2.94c-.714,3.617-1.3,6.746-1.733,9.2C97.933,498.588,101.842,507.64,109.475,511.588Z" fill="#fcc9bb"/>
        <path id="Path_135" data-name="Path 135" d="M136.911,471.554a11.311,11.311,0,0,0-4.9.023c-9.4,1.436-18.967,3.043-28.35,1.482-1.724-.287-3.594-.655-5.132.209s-2.087,3.595-.523,4.407c-1.664-.274-2.637,2.3-1.721,3.781s2.748,1.961,4.417,2.2c1.828.256,3.67.362,5.513.458,8.206.43,16.62.663,24.651-1.45,2.484-.652,6.8-1.464,8.4-3.855A4.793,4.793,0,0,0,136.911,471.554Z" fill="#e07744"/>
        <path id="Path_136" data-name="Path 136" d="M101.5,475.394a81.183,81.183,0,0,0,21.631-.232" fill="none" stroke="#191718" stroke-linecap="round" stroke-linejoin="round" stroke-width="0.869"/>
        <path id="Path_137" data-name="Path 137" d="M110.127,479.188a86.946,86.946,0,0,0,24.63-4.244" fill="none" stroke="#191718" stroke-linecap="round" stroke-linejoin="round" stroke-width="0.869"/>
      </g>
      <g id="Group_33" data-name="Group 33">
        <path id="Path_138" data-name="Path 138" d="M138.22,541.413s-25.187,44.166-23.145,85.436l4.795,184.315h49.978L181.79,624.676l48.032,186.715H274.8L239.654,542.137Z" fill="#06103d"/>
        <path id="Path_139" data-name="Path 139" d="M148.731,611.4s22.526,20.464,68.315,11.584" fill="none" stroke="#191718" stroke-linecap="round" stroke-linejoin="round" stroke-width="0.869"/>
        <path id="Path_140" data-name="Path 140" d="M196.471,576.876l27.979,1.32s2.735,30.136-14.305,30.8S196.471,576.876,196.471,576.876Z" fill="none" stroke="#191718" stroke-linecap="round" stroke-linejoin="round" stroke-width="0.869"/>
        <path id="Path_141" data-name="Path 141" d="M135.271,569.525l20,3.432S154.4,601.708,142.087,601,135.271,569.525,135.271,569.525Z" fill="none" stroke="#191718" stroke-linecap="round" stroke-linejoin="round" stroke-width="0.869"/>
        <path id="Path_142" data-name="Path 142" d="M134.581,572.451s10.96,4.388,20.52,4.145" fill="none" stroke="#191718" stroke-linecap="round" stroke-linejoin="round" stroke-width="0.869"/>
        <path id="Path_143" data-name="Path 143" d="M195.907,580.5s16.556,2.682,28.681,1.95" fill="none" stroke="#191718" stroke-linecap="round" stroke-linejoin="round" stroke-width="0.869"/>
        <line id="Line_27" data-name="Line 27" x2="34.917" y2="254.745" transform="translate(234.382 553.92)" fill="none" stroke="#191718" stroke-linecap="round" stroke-linejoin="round" stroke-width="0.869"/>
        <line id="Line_28" data-name="Line 28" x1="12.044" y2="184.882" transform="translate(163.81 623.409)" fill="none" stroke="#191718" stroke-linecap="round" stroke-linejoin="round" stroke-width="0.869"/>
      </g>
      <g id="Group_34" data-name="Group 34">
        <path id="Path_144" data-name="Path 144" d="M206.76,376.8c-15.23-3.761-32.273-6.379-47.822-3.1-7.875,1.663-15.6,5.647-20.318,12.443-15.3,22.018.889,60.283,4.086,83.933,3.144,23.264,2.84,48.219-8.21,68.677-2.225,4.117-4.871,9.288-2.3,13.176,1.694,2.563,4.964,3.266,7.912,3.725a344.159,344.159,0,0,0,95.933,1.388c1.5-.19,3.17-.483,4.089-1.742a6.153,6.153,0,0,0,.813-3.539c.777-36.241-10.837-72.438-5.76-108.3,1.241-8.776,3.477-17.41,4.066-26.26s-.655-18.235-5.695-25.373C227.4,383.127,216.84,379.293,206.76,376.8Z" fill="#546bfb"/>
        <path id="Path_145" data-name="Path 145" d="M140.627,525.9s10.677-41.223-5.75-97.9" fill="none" stroke="#191718" stroke-linecap="round" stroke-linejoin="round" stroke-width="0.869"/>
        <path id="Path_146" data-name="Path 146" d="M132.74,432.631a106.3,106.3,0,0,1,5.787,21.4" fill="none" stroke="#191718" stroke-linecap="round" stroke-linejoin="round" stroke-width="0.869"/>
        <path id="Path_147" data-name="Path 147" d="M230.538,544.619a189.767,189.767,0,0,1-60.47,4.558" fill="none" stroke="#191718" stroke-linecap="round" stroke-linejoin="round" stroke-width="0.869"/>
        <path id="Path_148" data-name="Path 148" d="M196.57,546.174a296.942,296.942,0,0,1-33.929-.506" fill="none" stroke="#191718" stroke-linecap="round" stroke-linejoin="round" stroke-width="0.869"/>
      </g>
      <g id="Group_35" data-name="Group 35">
        <path id="Path_149" data-name="Path 149" d="M242.693,328.858a17.443,17.443,0,0,1-9,1.648,100.161,100.161,0,0,1,.415,16.158c-.378,4.6-1.474,9.317-4.275,12.889-2.847,3.631-7.191,5.7-11.6,6.578s-8.945.669-13.43.461c-8.114-.378-16.478-.818-23.819-4.452a31.744,31.744,0,0,1-14.957-16.107c-2.126-5.077-2.955-10.628-3.693-16.117-1.05-7.826-1.948-15.827-.537-23.59,1.478-8.141,5.453-15.618,10.452-22.051,6.363-8.19,14.722-15.024,24.477-17.725a35.864,35.864,0,0,1,26.942,3.328c9.032,5.089,8.509,16.187,10.366,25.445C234.607,298.183,242.542,328.93,242.693,328.858Z" fill="#fcc9bb"/>
        <path id="Path_150" data-name="Path 150" d="M243.465,284.052a14.9,14.9,0,0,1-1.943,7.817c-5.3,10.051-18.4,14.646-28.426,9.971a19.108,19.108,0,0,1,1.775,6.674c.039,2.323-.952,4.821-2.954,5.831-2.312,1.166-5.017.05-7.567-.271a11.638,11.638,0,0,0-12.077,7.171c-1.834,4.843.379,11.1,4.97,13.113,4.02,1.767,9.444.641,12.163,4.206a8.172,8.172,0,0,1,1.439,3.941c.549,4.289-1.05,7.668-3.825,10.562-.465.484-8.668,6.9-8.95,4.562.559,4.644,4.757,8.333,4.676,13.013a9.616,9.616,0,0,1-4.546,7.5,24.358,24.358,0,0,1-8.306,3.041,6.355,6.355,0,0,0-2.63,1.022c-1.346,1.065-1.679,3.038-1.586,4.8a25,25,0,0,1,.22,5.271c-.73,4.528-5.53,6.8-9.678,8.3-2.325.843-4.828,1.695-7.2,1-2.048-.6-4.12-2.312-6.054-1.386a11.378,11.378,0,0,0-2.047,1.718c-3.008,2.466-7.359.552-10.69-1.408s-7.692-3.861-10.687-1.378c-2.174,1.8-2.522,5.172-4.4,7.3a8.182,8.182,0,0,1-5.762,2.468,13.513,13.513,0,0,1-9.947-3.9c-2.906-2.789-2.778-5.269-3.9-8.734-1.963-6.033-10.188-9.469-9.043-16.75,1.018-6.473,10.139-10.2,8.864-16.626-.616-3.107-3.547-5.066-5-7.85a9.048,9.048,0,0,1,.333-8.747c2.556-4.087,8.087-5.4,10.353-9.673,3.6-6.8-3.264-16.4,1.135-22.664,2.333-3.325,6.735-3.94,10.6-4.775s8.267-2.9,8.855-6.978c.505-3.5-2.113-7.254-.586-10.412,2.4-4.959,11.137-1.64,14.058-6.279,1.163-1.848.873-4.263,1.247-6.439.7-4.048,4.1-8.695,6.83-11.564,3.727-3.921,9.246-6.172,14.43-5.08,2.714.572,5.258,2.007,8.023,2.173a17.994,17.994,0,0,0,3.819-.321,24.44,24.44,0,0,0,6.93-1.8c1.384-.668,2.64-1.593,3.973-2.369,2.891-1.685,5.8-2.153,8.966-2.86,2.8-.624,5.617.546,7.98,2.185,3.823,2.654,5.087,7.731,8.716,10.263,2.906,2.027,6.844,1.53,10.029,3.477C239.811,275.489,243.15,279.286,243.465,284.052Z" fill="#1b1b1b"/>
        <path id="Path_151" data-name="Path 151" d="M203.332,317.587c-1.627.141-2.664,1.883-3.15,3.513a15.009,15.009,0,0,0-.6,5.053c.01.21.079.478.279.494a.415.415,0,0,0,.309-.176,4.883,4.883,0,0,1,1.649-1.342c1.313-.5,2.744.459,3.594,1.62a4.221,4.221,0,0,1,.913,3.416,2.9,2.9,0,0,1-2.546,2.112,3.4,3.4,0,0,1-2.972-1.547" fill="none" stroke="#191718" stroke-linecap="round" stroke-linejoin="round" stroke-width="0.869"/>
        <path id="Path_152" data-name="Path 152" d="M232.526,347.121a18.091,18.091,0,0,1-4.877.064,7.1,7.1,0,0,1-4.3-2.225" fill="none" stroke="#191718" stroke-linecap="round" stroke-linejoin="round" stroke-width="0.869"/>
        <path id="Path_153" data-name="Path 153" d="M233.778,330.438q-1.363-.012-2.727-.02a1.271,1.271,0,0,1-.922-.256,1.317,1.317,0,0,1-.291-.735,11.432,11.432,0,0,1-.139-1.322,1.845,1.845,0,0,1,.213-1.144,1.507,1.507,0,0,1,1.376-.492,4.719,4.719,0,0,0,1.513.027" fill="none" stroke="#191718" stroke-linecap="round" stroke-linejoin="round" stroke-width="0.869"/>
        <path id="Path_154" data-name="Path 154" d="M228.713,316.113c.111,1.837-.57,3.377-1.52,3.441s-1.813-1.375-1.925-3.212.568-3.377,1.52-3.44S228.6,314.276,228.713,316.113Z" fill="#191718"/>
      </g>
      <g id="Group_37" data-name="Group 37">
        <path id="Path_155" data-name="Path 155" d="M223.824,439.3s-18.644-39.489-1.433-50.486,57.365,73.48,57.365,73.48l58.322-49.987s11.951,3,13.386,19c0,0-49.238,62.983-54.975,68.981s-24.859,17-39.679-3S223.824,439.3,223.824,439.3Z" fill="#546bfb"/>
        <path id="Path_156" data-name="Path 156" d="M296.488,500.287c5.737-6,54.975-68.981,54.975-68.981-1.435-16-13.386-19-13.386-19L279.755,462.3s-13.518,18.735-31.017,22.976c2.715,4.36,5.446,8.472,8.071,12.014C271.629,517.283,290.75,506.287,296.488,500.287Z" fill="#fcc9bb"/>
        <path id="Path_157" data-name="Path 157" d="M277.241,455.831a2.61,2.61,0,0,0-3.33-1.43,8.317,8.317,0,0,0-3.188,2.454,72.821,72.821,0,0,1-23.3,16.407c-1.97.867-4.072,1.712-5.417,3.451s-1.513,4.7.253,5.958c.511.364,1.189.624,1.361,1.245s-.259,1.232-.261,1.869A1.814,1.814,0,0,0,245,487.43a4.979,4.979,0,0,0,2.415-.516c6.549-2.6,13.146-5.222,19.1-9.085a45.913,45.913,0,0,0,13.47-13.455c1.188-1.825,2.335-3.719,2.111-6.088C281.893,456.109,278.917,452.426,277.241,455.831Z" fill="#e07744"/>
        <path id="Path_158" data-name="Path 158" d="M233.5,458.546l-25.937-37.776s-8.027-12.915,1.853-22.278" fill="none" stroke="#191718" stroke-linecap="round" stroke-linejoin="round" stroke-width="0.869"/>
        <path id="Path_159" data-name="Path 159" d="M211.258,431.433a63.24,63.24,0,0,1,9.9,18.392" fill="none" stroke="#191718" stroke-linecap="round" stroke-linejoin="round" stroke-width="0.869"/>
        <path id="Path_160" data-name="Path 160" d="M248.334,478.589q7.366-3.984,14.487-8.443" fill="none" stroke="#191718" stroke-linecap="round" stroke-linejoin="round" stroke-width="0.869"/>
        <path id="Path_161" data-name="Path 161" d="M254.818,479.236a98.149,98.149,0,0,0,17.271-11.658" fill="none" stroke="#191718" stroke-linecap="round" stroke-linejoin="round" stroke-width="0.869"/>
        <g id="Group_36" data-name="Group 36">
          <path id="Path_162" data-name="Path 162" d="M337.245,398.159c.747-2.145,2.616-3.6,4.39-4.935l5.937-4.459c5.6-4.2,11.3-8.464,17.835-10.755,1.183-.414,2.577-.734,3.6.008,1.264.914,1.2,3.009.306,4.316a10.241,10.241,0,0,1-3.694,2.8,7.014,7.014,0,0,0-3.339,3.183c-1.051,2.612.787,5.4,2.141,7.856a25.178,25.178,0,0,1,3.063,10.78c.178,3.416-.481,7.149-2.9,9.452-2.469,2.349-6.215,2.709-8.756,4.971-2.012,1.792-2.994,4.534-3.649,7.21-.333,1.367-.663,2.853-1.7,3.758a3.808,3.808,0,0,1-3.973.414,9.192,9.192,0,0,1-3.248-2.717,28.641,28.641,0,0,1-6.62-15.9c-.129-2.066.18-4.156.186-6.226C336.837,404.844,336.218,401.1,337.245,398.159Z" fill="#fcc9bb"/>
          <path id="Path_163" data-name="Path 163" d="M362.951,387.211q-4.784,5.548-9.936,10.728" fill="none" stroke="#191718" stroke-linecap="round" stroke-linejoin="round" stroke-width="0.869"/>
          <path id="Path_164" data-name="Path 164" d="M363.967,396.349a35.9,35.9,0,0,1-7.149,5.694" fill="none" stroke="#191718" stroke-linecap="round" stroke-linejoin="round" stroke-width="0.869"/>
          <path id="Path_165" data-name="Path 165" d="M366.02,402.186a22.752,22.752,0,0,1-5.912,4.779" fill="none" stroke="#191718" stroke-linecap="round" stroke-linejoin="round" stroke-width="0.869"/>
          <path id="Path_166" data-name="Path 166" d="M367.079,411.728q-3.351,1.778-6.843,3.239" fill="none" stroke="#191718" stroke-linecap="round" stroke-linejoin="round" stroke-width="0.869"/>
          <path id="Path_167" data-name="Path 167" d="M361.147,411.96a17.546,17.546,0,0,1-4.458,8.181" fill="none" stroke="#191718" stroke-linecap="round" stroke-linejoin="round" stroke-width="0.869"/>
        </g>
      </g>
      <g id="Group_43" data-name="Group 43">
        <path id="Path_168" data-name="Path 168" d="M616.889,540.319l-10.657,19.193s2.369,9.907-6.218,9.288-18.946-26.622-18.946-26.622,12.137-17.335,26.051-17.954S616.889,540.319,616.889,540.319Z" fill="#cc7672"/>
        <g id="Group_38" data-name="Group 38">
          <path id="Path_169" data-name="Path 169" d="M559.855,705.249l22.769,106.142h47.052s-16.113-124.114-16.65-148.262,4.3-74.692-17.724-103.9c0,0-103.657-1.685-114.4,10.107l19.872,242.05H561.8Z" fill="#fc7835"/>
          <line id="Line_29" data-name="Line 29" x1="3.38" y1="76.066" transform="translate(556.476 629.183)" fill="none" stroke="#191718" stroke-linecap="round" stroke-linejoin="round" stroke-width="0.869"/>
          <path id="Path_170" data-name="Path 170" d="M545.871,630.059s15.349-.292,36.558-7.588" fill="none" stroke="#191718" stroke-linecap="round" stroke-linejoin="round" stroke-width="0.869"/>
          <line id="Line_30" data-name="Line 30" x2="21.491" y2="234.645" transform="translate(487.209 574.802)" fill="none" stroke="#191718" stroke-linecap="round" stroke-linejoin="round" stroke-width="0.869"/>
          <line id="Line_31" data-name="Line 31" x2="31.486" y2="156.256" transform="translate(557.678 653.191)" fill="none" stroke="#191718" stroke-linecap="round" stroke-linejoin="round" stroke-width="0.869"/>
          <path id="Path_171" data-name="Path 171" d="M482.264,574.638s.745,13.875,6.858,17.148" fill="none" stroke="#191718" stroke-linecap="round" stroke-linejoin="round" stroke-width="0.869"/>
          <path id="Path_172" data-name="Path 172" d="M516.082,592.059s18.868.484,31.86-1.779" fill="none" stroke="#191718" stroke-linecap="round" stroke-linejoin="round" stroke-width="0.869"/>
          <path id="Path_173" data-name="Path 173" d="M573,585.913s18.868-4.2,28.3-7.278" fill="none" stroke="#191718" stroke-linecap="round" stroke-linejoin="round" stroke-width="0.869"/>
        </g>
        <path id="Path_174" data-name="Path 174" d="M597.242,375.948S635,396.338,665.286,444.494c0,0,22.4,27.333,6.224,47.723s-54.353,53.363-54.353,53.363-13.277-12.147-13.277-22.559L640.807,477.9s-33.193-39.48-49.789-61.606C591.018,416.295,579.4,383.323,597.242,375.948Z" fill="#182240"/>
        <g id="Group_39" data-name="Group 39">
          <path id="Path_175" data-name="Path 175" d="M504.014,270.488c-.693,3.88-1.324,38.395-1.128,67.313s11.131,28.636,36.791,29.227,33.852-5.354,38.7-26.717,7.95-53.427,4.279-67.164-16.751-23.012-38.044-21.969S507.507,250.934,504.014,270.488Z" fill="#cc7672"/>
          <path id="Path_176" data-name="Path 176" d="M588.881,252.118a3.268,3.268,0,0,0-.571-2.507c-1.147-1.176-3.131.135-3.732,1.692s-.607,3.408-1.637,4.7a9.026,9.026,0,0,0-2.9-8.834q-.839,2.373-1.675,4.746a26.389,26.389,0,0,0-6.488-13.542c-1.928-2.11-4.405-3.949-7.2-4.014s-5.723,2.314-5.491,5.222c-2.24-2.243-5.05-4.189-8.152-4.159s-6.287,2.784-5.909,6a32.038,32.038,0,0,0-12.425-7.449c-2.81-.9-5.981-1.356-8.59.056s-4.074,5.326-2.215,7.706c-5.716-2.339-12.527-2.138-17.688,1.336a8.127,8.127,0,0,0-3.549,4.394c-.507,1.886.267,4.239,2.03,4.9-4.634-.085-8.75,4.8-8.087,9.595s5.93,8.262,10.351,6.812c-1.874.834-1.867,3.883-.444,5.407s3.6,1.906,5.623,2.154c5.056.618,10.32.873,15.1-.948-.138,4.2,4.527,6.952,8.548,6.818s7.8-2.059,11.792-2.565c-1.61,1.913-.261,5.08,1.789,6.461s4.583,1.736,6.737,2.933a6.051,6.051,0,0,0-1.886,8.085,5.481,5.481,0,0,0,7.861,1.3c-.213,2.806-3.3,4.694-3.434,7.5-.117,2.552,2.2,4.4,4.269,5.768-3.161.383-5.441,4.128-4.651,7.351a6.572,6.572,0,0,0,7.393,4.743,5.923,5.923,0,0,0-1.148,7.392,5.343,5.343,0,0,0,6.943,1.834c-1.343,1.9-.189,4.821,1.781,5.973s4.387.992,6.617.629a3.036,3.036,0,0,0,1.844-.775,4.778,4.778,0,0,0,.709-2.581c.751-5.007,7.137-8.242,6.354-13.245a8.471,8.471,0,0,0,7.38-3.432,9.358,9.358,0,0,0,1.274-8.341c5.444-3.214,6.509-12.255,1.972-16.752,4-2.463,7.548-6.284,8.363-11.058s-2-10.34-6.584-11.09c.976-3.829.756-8.273-1.712-11.28-2.242-2.734-4.528-2-7.425-2.311-1.649-.174-1.418.615-1.963-.941C587.68,256.715,588.8,253.4,588.881,252.118Z" fill="#1b1b1b"/>
          <path id="Path_177" data-name="Path 177" d="M497.745,304.6c-2.747,2.447-6.386,4.409-7.309,8.055a11.354,11.354,0,0,0-.03,4.385c.294,2.055.82,4.206,2.251,5.65,1.946,1.963,4.952,2.06,7.656,2.013a13.97,13.97,0,0,0,5.626-.894c3.685-1.687,5.392-6.114,6.3-10.213a60.26,60.26,0,0,0,1.363-15.483c-.138-3.361.3-10.669-3.537-12.017-4.194-1.471-4.345,4.322-5.3,7.116A26.445,26.445,0,0,1,497.745,304.6Z" fill="#cc7672"/>
          <path id="Path_178" data-name="Path 178" d="M504.867,324.454a8.568,8.568,0,0,0,5.293-.688,4.352,4.352,0,0,0,2.2-1.678,1.955,1.955,0,0,0-.435-2.563" fill="none" stroke="#191718" stroke-linecap="round" stroke-linejoin="round" stroke-width="0.869"/>
          <path id="Path_179" data-name="Path 179" d="M510.218,325.025a7.687,7.687,0,0,1,4.9-1.38,3.635,3.635,0,0,1,3.188,3.587c2.852-1.425,6.717,1.279,6.545,4.579a5.432,5.432,0,0,1,7.465.963,21.523,21.523,0,0,1,4-5.442,7.788,7.788,0,0,1,6.041-2.218c-.928-3.523,2.174-7.51,5.663-7.276a14.148,14.148,0,0,1-.4-6.315c.505-2.065,2.3-3.954,4.323-3.734a7.373,7.373,0,0,1-.811-6.668,6.87,6.87,0,0,1,4.954-4.283c1.7-.337,3.777.277,4.368,1.974.256.734.193,1.547.384,2.3a11.4,11.4,0,0,0,1.805,3.082c.64,1.011,1.042,2.407.372,3.4-.429.63-1.229.98-1.459,1.715-.309.988.573,1.888,1.243,2.654a5.26,5.26,0,0,1,1.444,3.912,2.877,2.877,0,0,1-2.738,2.676,12.56,12.56,0,0,1,2.135,3.943,4.355,4.355,0,0,1-.91,4.22,5.589,5.589,0,0,1,.412,8.185,7.16,7.16,0,0,1,2.559,4.053,3.7,3.7,0,0,1-.408,2.454c-.217.271-2.409,1.279-2.583.95a11.884,11.884,0,0,1,1.409,3.565,4.044,4.044,0,0,1-.978,3.571,4.623,4.623,0,0,0-.97.945,5.73,5.73,0,0,0-.355,1.148,2.419,2.419,0,0,1-2.814,1.6,12.565,12.565,0,0,1,.066,4.5,4.02,4.02,0,0,1-2.762,3.167,4.131,4.131,0,0,0-1.51.372,3.286,3.286,0,0,0-.916,1.4,5.742,5.742,0,0,1-7.749,2.465,14.406,14.406,0,0,1-4.053,3.984,5.407,5.407,0,0,1-5.356.268,6.436,6.436,0,0,1-8.44,1.723,4.314,4.314,0,0,1-5.964,1.892,4.179,4.179,0,0,1-3.843,2.86,7.626,7.626,0,0,0-1.871,0c-1.081.271-1.73,1.384-2.562,2.154A4.82,4.82,0,0,1,507.7,378a3.8,3.8,0,0,1-5.656-2.349,5.607,5.607,0,0,1-3.5-.716c-.988-.731-1.352-2.479-.376-3.228-2.48-1.439-2.673-5.755-.334-7.431a2.857,2.857,0,0,1-1.625-2.769,4.248,4.248,0,0,1,1.534-2.963c.306-.263.67-.542.712-.955.057-.539-.453-.927-.838-1.29-1.8-1.7-1.21-5.316,1.024-6.3a5.373,5.373,0,0,1,.068-8.855,6.281,6.281,0,0,1,1.972-8.452c-2.48-2.7-.874-6.549,1.475-8.6a5.892,5.892,0,0,1,4.275-1.345C506.911,322.792,510.66,324.76,510.218,325.025Z" fill="#1b1b1b"/>
          <path id="Path_180" data-name="Path 180" d="M516.055,296.141c-.181,1.831-1.316,3.209-2.535,3.078s-2.059-1.725-1.877-3.554,1.316-3.209,2.534-3.076S516.236,294.312,516.055,296.141Z" fill="#191718"/>
          <path id="Path_181" data-name="Path 181" d="M510.8,284.494a1.8,1.8,0,0,0,.814,1.607,5.05,5.05,0,0,0,1.706.662,14.733,14.733,0,0,1,4.026,1.505c.813.492,1.543,1.126,2.358,1.612a15.489,15.489,0,0,0,3.438,1.362c.354.108.8.19,1.032-.111a.784.784,0,0,0,.135-.455,3.442,3.442,0,0,0-.847-2.022,19.06,19.06,0,0,0-4.171-4.614,8.052,8.052,0,0,0-5.228-1.436C512.927,282.646,510.977,283.032,510.8,284.494Z" fill="#1b1b1b"/>
          <path id="Path_182" data-name="Path 182" d="M503.473,339.266a6.157,6.157,0,0,0-1.152,2.665c-.15,1.1.2,2.532.9,2.918a4.909,4.909,0,0,0,.5,4.7c.081.1.174.188.27.183.154-.008.24-.252.31-.461.7-2.068,2.379-3.048,3.888-2.275a6.026,6.026,0,0,1,1.1-3.568,8.578,8.578,0,0,1,2.216-1.983c-.226-2.068.634-4.108,1.879-4.454-1.555.891-3.522.121-4.823-1.886-.21-.323-.427-.7-.7-.773a.839.839,0,0,0-.553.135,2.728,2.728,0,0,1-2.624-.343c-.5-.307-1.526-1.612-2.056-1.381C501.122,333.39,502.721,338.142,503.473,339.266Z" fill="#cc7672"/>
          <path id="Path_183" data-name="Path 183" d="M560.629,306.262a10.206,10.206,0,0,1,4.825,1.278,11.945,11.945,0,0,1,4.67,3.592,9.284,9.284,0,0,1,.472,9.327,11.244,11.244,0,0,1-7.369,5.653,8.966,8.966,0,0,1-5.207-.146,6.083,6.083,0,0,1-3.7-3.68c1.288-.011,2.729-.191,3.538-1.237a3.831,3.831,0,0,0,.588-2.766,7.166,7.166,0,0,0-2.287-4.5C560.166,312.423,554.2,306.542,560.629,306.262Z" fill="#cc7672"/>
          <path id="Path_184" data-name="Path 184" d="M563.614,311.663a9.838,9.838,0,0,0-2.753,5.776,2.472,2.472,0,1,1-.2,4.728" fill="none" stroke="#191718" stroke-linecap="round" stroke-linejoin="round" stroke-width="0.869"/>
          <path id="Path_185" data-name="Path 185" d="M503.462,339.288c2.534.716,5.2-.187,7.681-1.08" fill="none" stroke="#191718" stroke-linecap="round" stroke-linejoin="round" stroke-width="0.869"/>
        </g>
        <g id="Group_40" data-name="Group 40">
          <path id="Path_186" data-name="Path 186" d="M577.476,369.053c.151-2.19.34-4.81.522-7.3a6.273,6.273,0,0,0-7.735-6.745l-47.045,12.9A6.479,6.479,0,0,0,518.7,375.3l.421,2.463A6.216,6.216,0,0,0,526.225,383l46.1-8.033A6.366,6.366,0,0,0,577.476,369.053Z" fill="#ff9d66"/>
          <path id="Path_187" data-name="Path 187" d="M524.168,370.661l.16,9.838" fill="none" stroke="#191718" stroke-linecap="round" stroke-linejoin="round" stroke-width="0.869"/>
          <path id="Path_188" data-name="Path 188" d="M529.464,370.028q.241,4.6.151,9.2" fill="none" stroke="#191718" stroke-linecap="round" stroke-linejoin="round" stroke-width="0.869"/>
          <path id="Path_189" data-name="Path 189" d="M533.864,369.551v8.41" fill="none" stroke="#191718" stroke-linecap="round" stroke-linejoin="round" stroke-width="0.889"/>
          <path id="Path_190" data-name="Path 190" d="M538.568,368.6v6.5" fill="none" stroke="#191718" stroke-linecap="round" stroke-linejoin="round" stroke-width="0.889"/>
          <path id="Path_191" data-name="Path 191" d="M542.679,367.171q.13,6.267.259,12.536" fill="none" stroke="#191718" stroke-linecap="round" stroke-linejoin="round" stroke-width="0.869"/>
          <path id="Path_192" data-name="Path 192" d="M548.149,365.265a106.3,106.3,0,0,1,.574,14.124" fill="none" stroke="#191718" stroke-linecap="round" stroke-linejoin="round" stroke-width="0.869"/>
          <path id="Path_193" data-name="Path 193" d="M553.131,364.95a92.069,92.069,0,0,1-.12,13.807" fill="none" stroke="#191718" stroke-linecap="round" stroke-linejoin="round" stroke-width="0.869"/>
          <path id="Path_194" data-name="Path 194" d="M557.839,362.253v17.929" fill="none" stroke="#191718" stroke-linecap="round" stroke-linejoin="round" stroke-width="0.889"/>
          <path id="Path_195" data-name="Path 195" d="M563.665,360.189q.189,9.122.075,18.247" fill="none" stroke="#191718" stroke-linecap="round" stroke-linejoin="round" stroke-width="0.869"/>
          <path id="Path_196" data-name="Path 196" d="M569.2,360.032q.173,8.729-.274,17.454" fill="none" stroke="#191718" stroke-linecap="round" stroke-linejoin="round" stroke-width="0.869"/>
          <path id="Path_197" data-name="Path 197" d="M573.444,359.08a147.256,147.256,0,0,1-.7,20.314" fill="none" stroke="#191718" stroke-linecap="round" stroke-linejoin="round" stroke-width="0.869"/>
        </g>
        <path id="Path_198" data-name="Path 198" d="M572.208,371.1s28.465-2.247,33.3,12.354,4.3,58.969,2.149,75.816c0,9.267-1.585,18.856-2.1,28.132-.661,11.925-.457,23.2-2.5,34.925-.928,5.326-1.856,10.794-.924,16.12.525,3.007,1.636,5.895,1.952,8.935a20.687,20.687,0,0,1-5.242,15.353c-7.845,9.015-19.8,13.278-30.543,16.854-12.526,4.17-25.044,6.141-37.986,2.67a170.446,170.446,0,0,0-31.219-5.084c-8.618-.66-16.916,2.429-23.612-5.481a19.12,19.12,0,0,1-2.8-19.362c.808-1.872,1.951-3.725,1.853-5.776a14.26,14.26,0,0,0-1.12-3.891c-3.17-9.137,2.1-18.805,5.937-27.659a98.175,98.175,0,0,0,6.473-21.385c3.8-20.828.078-42.523,2.173-63.588,1.856-18.668,7.539-40.987,26.206-48.264C545.892,369.413,557.707,370.537,572.208,371.1Z" fill="#182240"/>
        <path id="Path_199" data-name="Path 199" d="M609.31,439.1s2.225-32.832-1.483-51.7" fill="none" stroke="#fdecee" stroke-linecap="round" stroke-linejoin="round" stroke-width="0.869"/>
        <path id="Path_200" data-name="Path 200" d="M642.939,477.114a65.7,65.7,0,0,1,15.038-7.369" fill="none" stroke="#fdecee" stroke-linecap="round" stroke-linejoin="round" stroke-width="0.869"/>
        <path id="Path_201" data-name="Path 201" d="M644.219,479.359a96.757,96.757,0,0,1,13.29-2.857" fill="none" stroke="#fdecee" stroke-linecap="round" stroke-linejoin="round" stroke-width="0.869"/>
        <path id="Path_202" data-name="Path 202" d="M607.332,520.022s5.933,12.926,14.092,20.682" fill="none" stroke="#fdecee" stroke-linecap="round" stroke-linejoin="round" stroke-width="0.869"/>
        <path id="Path_203" data-name="Path 203" d="M477.038,549.1c15.556,8.723,34.028,8.961,51.679,8.994" fill="none" stroke="#fdecee" stroke-linecap="round" stroke-linejoin="round" stroke-width="0.869"/>
        <path id="Path_204" data-name="Path 204" d="M505.455,561.6a158.078,158.078,0,0,0,37.337-1.333" fill="none" stroke="#fdecee" stroke-linecap="round" stroke-linejoin="round" stroke-width="0.869"/>
        <path id="Path_205" data-name="Path 205" d="M597.2,544.858a130.547,130.547,0,0,1-26.422,10.233" fill="none" stroke="#fdecee" stroke-linecap="round" stroke-linejoin="round" stroke-width="0.869"/>
        <path id="Path_206" data-name="Path 206" d="M595.7,542.239a54.684,54.684,0,0,1-11.834,4.766" fill="none" stroke="#fdecee" stroke-linecap="round" stroke-linejoin="round" stroke-width="0.869"/>
        <g id="Group_42" data-name="Group 42">
          <g id="Group_41" data-name="Group 41">
            <path id="Path_207" data-name="Path 207" d="M484.932,335.8a5.9,5.9,0,0,1,.193,2.85,15.49,15.49,0,0,1-4.612,9.2,4.794,4.794,0,0,1-3.42,1.626c-1.855-.124-3.14-2.041-3.637-3.912a11.381,11.381,0,0,1,3.048-10.829C478.67,332.693,483.677,332.52,484.932,335.8Z" fill="#a55656"/>
            <path id="Path_208" data-name="Path 208" d="M446.616,342.5a5.562,5.562,0,0,1,.436-3.485,5.057,5.057,0,0,1,3.113-1.814,157.169,157.169,0,0,1,27.772-5.225c2.453-.237,5.237-.3,7,1.5a2.824,2.824,0,0,1,.706,3.2c-.6,1.043-1.943,1.221-3.1,1.289l-6.755.392c3.453,3.659,7.194,8.356,5.927,13.323-.741,2.9-3.051,5.031-5.273,6.937-2.2,1.889-5.326,3.8-7.668,2.109a128.863,128.863,0,0,1,.519,13.067,5.109,5.109,0,0,1-.7,3.062,3.97,3.97,0,0,1-1.99,1.243C448.487,384.135,447.622,353.163,446.616,342.5Z" fill="#cc7672"/>
            <line id="Line_32" data-name="Line 32" x1="16.419" y2="1.973" transform="translate(459.369 338.362)" fill="none" stroke="#191718" stroke-linecap="round" stroke-linejoin="round" stroke-width="0.869"/>
            <path id="Path_209" data-name="Path 209" d="M471.291,348.938a22.867,22.867,0,0,1-5.814,11.973" fill="none" stroke="#191718" stroke-linecap="round" stroke-linejoin="round" stroke-width="0.869"/>
            <path id="Path_210" data-name="Path 210" d="M479.727,343.263a107.119,107.119,0,0,0-17.087,2.168" fill="none" stroke="#191718" stroke-linecap="round" stroke-linejoin="round" stroke-width="0.869"/>
            <path id="Path_211" data-name="Path 211" d="M471.114,350.971a18.814,18.814,0,0,0,5.873-.531" fill="none" stroke="#191718" stroke-linecap="round" stroke-linejoin="round" stroke-width="0.869"/>
            <path id="Path_212" data-name="Path 212" d="M470.049,354.8a19.615,19.615,0,0,0,1.222,3.528" fill="none" stroke="#191718" stroke-linecap="round" stroke-linejoin="round" stroke-width="0.869"/>
          </g>
          <path id="Path_213" data-name="Path 213" d="M449.217,424.45s51.559-40.435,62.3-35.943,26.318,9.548,17.187,31.45-58.005,46.05-77.877,52.229-50.486,10.67-36.521-26.4,35.448-80.308,35.448-80.308,15.038-.563,20.946,8.424Z" fill="#182240"/>
          <line id="Line_33" data-name="Line 33" y1="14.344" x2="24.65" transform="translate(487.705 440.8)" fill="none" stroke="#fdecee" stroke-linecap="round" stroke-linejoin="round" stroke-width="0.869"/>
          <path id="Path_214" data-name="Path 214" d="M450.387,423.967a83.864,83.864,0,0,0-11.139,15.927" fill="none" stroke="#fdecee" stroke-linecap="round" stroke-linejoin="round" stroke-width="0.869"/>
          <path id="Path_215" data-name="Path 215" d="M449.8,427.382a31.232,31.232,0,0,0-5.027,10.711" fill="none" stroke="#fdecee" stroke-linecap="round" stroke-linejoin="round" stroke-width="0.869"/>
          <path id="Path_216" data-name="Path 216" d="M446.973,425.1a44.672,44.672,0,0,0-12.657,14.344" fill="none" stroke="#fdecee" stroke-linecap="round" stroke-linejoin="round" stroke-width="0.869"/>
          <path id="Path_217" data-name="Path 217" d="M448.908,368.854a28.918,28.918,0,0,1,18.862,8.966" fill="none" stroke="#fdecee" stroke-linecap="round" stroke-linejoin="round" stroke-width="0.869"/>
        </g>
        <path id="Path_218" data-name="Path 218" d="M580.569,412.556c-1.49,30.178-16.721,59.284-12.674,89.2" fill="none" stroke="#fdecee" stroke-linecap="round" stroke-linejoin="round" stroke-width="0.869"/>
      </g>
    </g>
  </g>
</svg>
