<svg xmlns="http://www.w3.org/2000/svg" xmlns:xlink="http://www.w3.org/1999/xlink" width="712" height="808" viewBox="0 0 712 808">
  <defs>
    <clipPath id="clip-path">
      <rect id="Rectangle_1" data-name="Rectangle 1" width="712" height="808" transform="translate(404 180)" fill="#fff" stroke="#707070" stroke-width="1"/>
    </clipPath>
    <clipPath id="clip-path-2">
      <path id="Path_216" data-name="Path 216" d="M754.828,271.553c24.518,13.707,2.635,50.456,23.046,60.452a68.163,68.163,0,0,1-36.566,3.032c.52.1.208-7.741.159-8.261-.527-5.425-4.46-5.238-8.6-6.7a13.4,13.4,0,0,1-6.251-5.066c-4.916-6.958-6.558-16.564-7.634-24.841-.856-6.585.008-12.971,4.911-17.856,2.892-2.881,5.821-2.821,9.285-4.47,3.778-1.8,6.428-1.885,10.564-.9a43.984,43.984,0,0,1,11.086,4.61Z" fill="none"/>
    </clipPath>
    <clipPath id="clip-path-3">
      <path id="Path_255" data-name="Path 255" d="M553.384,371.049c9.237-17.756,15.026-43.2,15.026-71.466,0-53.66-45.408-97.16-45.408-97.16s-42.078,43.5-42.078,97.16c0,28.267,8.621,53.71,17.858,71.466Z" fill="none"/>
    </clipPath>
    <clipPath id="clip-path-4">
      <path id="Path_277" data-name="Path 277" d="M356.373,405.18q.061-.6.116-1.2c.878-9.262.052-17.651,4.475-25.988,4.141-7.807,16.214-19.056,26.059-17.661,8.684,1.227,13.788,15.032,16.423,21.969,2.662,7.012,4.973,17.088,1.975,24.37-2.659,6.46-14.008,5.749-14.232,13.236q-.532,17.683-1.065,35.37a14.51,14.51,0,0,1-.937,5.677c-3.483,7.581-27.454,2.525-33.078-1.075-9.924-6.352-6.671-16.139-4.409-26.061a233.516,233.516,0,0,0,4.673-28.637Z" fill="none"/>
    </clipPath>
    <clipPath id="clip-path-5">
      <path id="Path_284" data-name="Path 284" d="M400.851,581.257c2.007-5.106,4.109-10.143,6.329-15.2,2.557-5.832,5.652-11.367,6.619-17.626,1.263-8.165-1.4-16.333-.152-24.454.554-3.622,1.968-7.059,2.7-10.65,1.609-7.928-.235-16.266-3.8-23.527-4.23-8.617-13.809-15.457-15.693-24.636-1.288-6.271,5.23-5.611,7.559-9.38,3.437-5.567-.586-12.177-6.894-13.961-15.814-4.471-33.146-7.542-48.345-1.3-14.644,6.014-24.783,19.778-31.2,34.25-18.215,41.069-28.887,86.868-26.194,131.824.38,6.349,1.021,12.778,3.327,18.7,2.667,6.85,7.407,12.657,12.073,18.337,3.535,4.3,7.23,8.737,12.239,11.175,4.87,2.372,10.556,2.6,15.9,1.722,12.877-2.124,23.557-10.165,32.531-19.218s20.11-17.324,27.418-27.769c3.417-4.883,6.19-10.167,9.286-15.263a1.138,1.138,0,0,0,.228-1.036c-.176-.363-.657-.422-1.06-.435l-3.32-.1a2.334,2.334,0,0,0-2.49-3.725Q399.346,585.081,400.851,581.257Z" fill="none"/>
    </clipPath>
  </defs>
  <g id="Mask_Group_1" data-name="Mask Group 1" transform="translate(-404 -180)" clip-path="url(#clip-path)">
    <g id="Ai_" data-name="Ai " transform="translate(-685 -4528)">
      <g id="Group_146" data-name="Group 146">
        <circle id="Ellipse_756_copy" data-name="Ellipse 756 copy" cx="29.5" cy="29.5" r="29.5" transform="translate(1729 5393)" fill="#f7c23d"/>
      </g>
      <ellipse id="Ellipse_754" data-name="Ellipse 754" cx="354" cy="65.5" rx="354" ry="65.5" transform="translate(1089 5385)" fill="#fff9f5"/>
      <g id="Vector_Smart_Object" data-name="Vector Smart Object" transform="translate(1208.859 5079.441)">
        <g id="Group_48" data-name="Group 48">
          <g id="Group_44" data-name="Group 44">
            <g id="Group_42" data-name="Group 42">
              <path id="Path_182" data-name="Path 182" d="M513.378,292.084l-10.321-17.066a2.05,2.05,0,0,1-.3-1.061v-9.109a2.016,2.016,0,0,0-2-2.031h-1.808a2.017,2.017,0,0,0-2,2.031v9.109a2.05,2.05,0,0,1-.3,1.061l-10.321,17.066a2.031,2.031,0,0,0,1.707,3.092h23.631a2.03,2.03,0,0,0,1.7-3.092Z" fill="#f9f8f6"/>
              <path id="Path_183" data-name="Path 183" d="M511.9,295.559H487.96a2.384,2.384,0,0,1-1.989-.968,2.287,2.287,0,0,1-.078-2.508l10.441-17.265a1.662,1.662,0,0,0,.238-.859v-9.112a2.4,2.4,0,0,1,2.38-2.412h1.808a2.4,2.4,0,0,1,2.379,2.412v9.11a1.671,1.671,0,0,0,.239.86l10.365,17.14a2.458,2.458,0,0,1,.226,2.224,2.231,2.231,0,0,1-2.069,1.378ZM498.952,263.2a1.636,1.636,0,0,0-1.626,1.647v9.11a2.443,2.443,0,0,1-.351,1.263l-10.44,17.264a1.517,1.517,0,0,0-.03,1.534,1.477,1.477,0,0,0,1.306.776H511.9a1.475,1.475,0,0,0,1.306-.777,1.515,1.515,0,0,0-.029-1.533h0l-10.459-17.3a2.3,2.3,0,0,1-.334-1.193v-9.147a1.636,1.636,0,0,0-1.625-1.647Z" fill="#313149"/>
            </g>
            <g id="Group_43" data-name="Group 43">
              <path id="Rectangle_7" data-name="Rectangle 7" d="M.655,0h7.52a.656.656,0,0,1,.656.656V2.348A.656.656,0,0,1,8.175,3H.655A.655.655,0,0,1,0,2.348V.655A.655.655,0,0,1,.655,0Z" transform="translate(495.441 261.942)" fill="#f9f8f6"/>
              <path id="Path_184" data-name="Path 184" d="M503.621,265.328h-7.528a1.036,1.036,0,0,1-1.029-1.043V262.6a1.036,1.036,0,0,1,1.029-1.043h7.528a1.035,1.035,0,0,1,1.028,1.043v1.683a1.035,1.035,0,0,1-1.028,1.045Zm-7.528-3a.277.277,0,0,0-.275.278v1.683a.276.276,0,0,0,.275.278h7.528a.276.276,0,0,0,.274-.278V262.6a.277.277,0,0,0-.274-.278Z" fill="#313149"/>
            </g>
          </g>
          <g id="Group_47" data-name="Group 47">
            <g id="Group_45" data-name="Group 45">
              <path id="Path_185" data-name="Path 185" d="M497.963,292.084l-10.321-17.066a2.05,2.05,0,0,1-.3-1.061v-9.109a2.016,2.016,0,0,0-2-2.031h-1.809a2.016,2.016,0,0,0-2,2.03v9.11a2.05,2.05,0,0,1-.3,1.061l-10.321,17.066a2.031,2.031,0,0,0,1.707,3.092H496.25a2.031,2.031,0,0,0,1.713-3.092Z" fill="#f9f8f6"/>
              <path id="Path_186" data-name="Path 186" d="M496.486,295.559H472.548a2.391,2.391,0,0,1-1.993-.968,2.287,2.287,0,0,1-.077-2.508l10.439-17.265a1.667,1.667,0,0,0,.24-.863v-9.108a2.4,2.4,0,0,1,2.379-2.412h1.809a2.4,2.4,0,0,1,2.379,2.412v9.147a1.531,1.531,0,0,0,.22.792l10.383,17.169a2.457,2.457,0,0,1,.225,2.225A2.229,2.229,0,0,1,496.486,295.559ZM483.537,263.2a1.636,1.636,0,0,0-1.625,1.647v9.147a2.3,2.3,0,0,1-.333,1.193l-10.459,17.3a1.518,1.518,0,0,0-.03,1.533,1.476,1.476,0,0,0,1.306.777h24.09a1.477,1.477,0,0,0,1.306-.776,1.517,1.517,0,0,0-.029-1.534h0l-10.441-17.265a2.44,2.44,0,0,1-.351-1.262v-9.11a1.636,1.636,0,0,0-1.625-1.647Z" fill="#313149"/>
            </g>
            <path id="Path_187" data-name="Path 187" d="M495.042,290.632l-1.876-3.385a.113.113,0,0,0-.108-.066c-1.035.033-13.237.427-15.156.427h-1.189a1.864,1.864,0,0,0-1.593.9l-1.161,1.921a1.607,1.607,0,0,0,1.351,2.446H493.8a1.476,1.476,0,0,0,1.242-2.243Z" fill="#ff5d5b"/>
            <g id="Group_46" data-name="Group 46">
              <path id="Rectangle_8" data-name="Rectangle 8" d="M.655,0h7.52a.656.656,0,0,1,.656.656V2.348A.656.656,0,0,1,8.175,3H.656A.656.656,0,0,1,0,2.348V.655A.655.655,0,0,1,.655,0Z" transform="translate(480.025 261.942)" fill="#f9f8f6"/>
              <path id="Path_188" data-name="Path 188" d="M488.2,265.328h-7.528a1.036,1.036,0,0,1-1.029-1.043V262.6a1.036,1.036,0,0,1,1.029-1.043h7.529a1.035,1.035,0,0,1,1.027,1.042v1.684a1.036,1.036,0,0,1-1.028,1.045Zm-7.528-3a.277.277,0,0,0-.275.278v1.683a.276.276,0,0,0,.275.278h7.529a.275.275,0,0,0,.273-.277V262.6a.276.276,0,0,0-.273-.277Z" fill="#313149"/>
            </g>
          </g>
        </g>
      </g>
      <g id="Vector_Smart_Object-2" data-name="Vector Smart Object" transform="translate(843 4642)">
        <path id="Path_189" data-name="Path 189" d="M439.3,70.852a31.768,31.768,0,1,0,31.77,31.769A31.768,31.768,0,0,0,439.3,70.852" fill="#fff"/>
        <path id="Path_190" data-name="Path 190" d="M439.3,84.7a17.918,17.918,0,1,1-17.919,17.918A17.918,17.918,0,0,1,439.3,84.7" fill="#fff"/>
        <path id="Path_191" data-name="Path 191" d="M367.47,154.216a43.742,43.742,0,0,0,62.676,32.2c8.493-4.228,15.988-15.055,10.3-22.65-4.877-6.517-16.155-4.245-20.748,2.475s-4.146,15.648-2.488,23.617a95.069,95.069,0,0,0,139.77,63.453c9.867-5.562,18.937-13.165,24.152-23.22s6.018-22.823.155-32.516c-1.411-2.331-3.467-4.617-6.18-4.88-5.944-.577-7.963,8.244-5.534,13.7a23.8,23.8,0,0,0,44.782-3.722c2.271-8.771-.586-18.119.785-27.074,2.063-13.482,14.823-24.491,28.463-24.555" fill="none" stroke="#5b7799" stroke-miterlimit="10" stroke-width="1.688" stroke-dasharray="6"/>
        <g id="Group_55" data-name="Group 55">
          <g id="Group_53" data-name="Group 53">
            <g id="Group_49" data-name="Group 49">
              <line id="Line_16" data-name="Line 16" y2="126.873" transform="translate(791.899 543.236)" fill="none" stroke="#000" stroke-miterlimit="10" stroke-width="6.752"/>
              <line id="Line_17" data-name="Line 17" x1="104.925" transform="translate(740.489 668.853)" fill="none" stroke="#000" stroke-miterlimit="10" stroke-width="8.44"/>
            </g>
            <path id="Path_192" data-name="Path 192" d="M880.656,477.618c-7.164,21.483-18.08,41.084-35.686,55.7a56.118,56.118,0,0,1-23.4,12.074c-11.32,3.05-23.086,3.769-34.755,4.154q-25.534.846-51.082-.133c-10.546-.4-22.568-1.823-28.644-10.45-10.571-15.013.155-33.557,15.048-38.962,14.33-5.2,29.559-7.657,43.107-14.962,28.377-15.3,35.832-49.848,43.266-78.477,5.409-20.827,8.866-43.723,23.873-60.366,18.875-20.935,48.688-16.823,61.219,8.4,9,18.114,2.456,40.438.52,59.47a297.957,297.957,0,0,1-13.466,63.552Z" fill="#f9eec2"/>
            <path id="Path_193" data-name="Path 193" d="M616.04,594.219c-5.319,1.566-14.091-.339-16.945-3.914-3.278-4.107.707-10.915,2.541-14.878,14.442-31.24,21.841-63.646,47.824-88.291a19.247,19.247,0,0,1,6.546-4.564c5.022-1.772,10.944.8,13.864,5.253,3.18,4.85,4.521,14.611,5.128,20.541.92,8.984-2.193,18.224-6.847,25.8-5.917,9.63-14.4,17.356-22.644,25.092s-16.486,15.8-21.716,25.825c-1.421,2.721-2.669,5.65-4.961,7.691A7.259,7.259,0,0,1,616.04,594.219Z" fill="#d98c73"/>
            <path id="Path_194" data-name="Path 194" d="M610.326,585.057a21.986,21.986,0,0,1-9.975-8.827,32.713,32.713,0,0,1-5.041,1.538,48.333,48.333,0,0,1-9.315-.473c-4.86-.56-27.864-7.1-27.874,2.449-.007,6.674,16.528,13.658,21.1,15.862a111.312,111.312,0,0,0,18.562,7c3.91,1.085,13.047,5.915,16.6,3.074a6.74,6.74,0,0,0,1.631-2.345q3.806-7.581,7.61-15.162A38.856,38.856,0,0,1,610.326,585.057Z" fill="#0c0c11"/>
            <path id="Path_195" data-name="Path 195" d="M669.362,564.825a161.9,161.9,0,0,1-8.393,13.933A323.374,323.374,0,0,1,600.7,557.6c8.972-6.7,12.7-26.034,18.137-35.8,7.487-13.452,16.081-26.252,24.081-39.395,8.447-13.874,17.47-29.643,30.874-39.4,28.851-21,66.766.263,97.091,5.31,15.5,2.579,31.991,16,45.19,5.086,41.345,99.589-50.471,77.878-64.391,65.822-8.029-11.151-37.445-51.825-51.252-24.046C689.215,517.741,681.332,542.636,669.362,564.825Z" fill="#89746e"/>
            <path id="Path_196" data-name="Path 196" d="M702.033,668.691c-32.018,34.6-20.846-69.289-4.176-71.229C740.733,588.512,707.047,652.521,702.033,668.691Z" fill="#d98c73"/>
            <path id="Path_197" data-name="Path 197" d="M657.135,631.965c17.3-1.528,51.641,4.554,60.2-1.089,6.109-4.024,8.457-26.65,9.725-33.515,2.1-11.379,3.27-22.9,5.182-34.31,1.253-7.474,2.289-22.965,8.1-28.493,6.244-5.935,33.175-3.109,31.924-15.19-.452-4.37-9.279-9.87-12.176-12.991-4.046-4.358-7.973-8.81-12.2-13-8.289-8.226-17.841-17.2-29.1-21.092-8.415-2.907-23.682-1.426-26.294,9.649C680.658,532.158,668.7,582.891,657.135,631.965Zm77.45-99.487.015,7.358a41.962,41.962,0,0,1-.015-7.359Z" fill="#89746e"/>
            <path id="Path_198" data-name="Path 198" d="M645.455,687.174c6.153-11.284,23.811-13.344,33.558-24.69,7.529,1.457,16.881,2.4,26.848-1.555.582.122,1.163.252,1.735.424C715.378,690.977,636.462,707.967,645.455,687.174Z" fill="#0c0c11"/>
            <path id="Path_199" data-name="Path 199" d="M782.635,526.131c-15.478-5.078-28.444-22.114-41.9-33.979-63.518-47.693-57.694,41.142-67.372,74.713" fill="none" stroke="#fff" stroke-miterlimit="10" stroke-width="1.688"/>
            <path id="Path_200" data-name="Path 200" d="M859.94,436.378c7.239,19.294-2.465,35.326-22.269,28.873-34.331-12.449-55.876-144.714.415-91.1C847.308,393.24,853.283,415.557,859.94,436.378Z" fill="#d6906f"/>
            <path id="Path_201" data-name="Path 201" d="M816.983,339.338c9.122,3.8,14.067,12.562,17.885,21.174,1.837,4.141,3.754,8.357,5.263,12.613,1.654,4.669,4.782,9.745,5.215,14.721a3.67,3.67,0,0,1-.322,2.164,4.253,4.253,0,0,1-1.082,1.117c-5.753,4.635-11.508,8.894-18.23,11.963-1.977.9-3.962,1.8-5.878,2.827-2.579,1.384-4.433,3.44-6.865,5.034a22.61,22.61,0,0,1-4.078,2.112,4.022,4.022,0,0,1,1.612,2.372c3.68,10.233,5.709,21.107,7.942,31.751.934,4.453,2.721,10.246,1.393,14.8-.981,3.369-3.969,4.418-7.161,4.946-6.224,1.031-12.742.729-19.027.949-9.509.333-18.908,1.306-28.38,2.088-52.949,4.369-53.089-4.293-60.214-51.308C690.363,329.057,747.408,308.963,816.983,339.338Z" fill="#ff2c2c"/>
            <path id="Path_202" data-name="Path 202" d="M733.727,396.374c5.967,88.893-32.712,75.194-32.751,53.8C689.838,338.837,735.594,345.95,733.727,396.374Z" fill="#d56d5b"/>
            <path id="Path_203" data-name="Path 203" d="M723.15,397.249q13.446-1.582,26.866-3.373c-2.775-21.379,3.893-55.123-8.886-71.077-44.456-6.473-39.677,48.257-45.972,77.521Q709.165,398.9,723.15,397.249Z" fill="#ff2c2c"/>
            <path id="Path_204" data-name="Path 204" d="M754.828,271.553c24.518,13.707,2.635,50.456,23.046,60.452a68.163,68.163,0,0,1-36.566,3.032c.52.1.208-7.741.159-8.261-.527-5.425-4.46-5.238-8.6-6.7a13.4,13.4,0,0,1-6.251-5.066c-4.916-6.958-6.558-16.564-7.634-24.841-.856-6.585.008-12.971,4.911-17.856,2.892-2.881,5.821-2.821,9.285-4.47,3.778-1.8,6.428-1.885,10.564-.9a43.984,43.984,0,0,1,11.086,4.61Z" fill="#d6906f"/>
            <path id="Path_205" data-name="Path 205" d="M724.831,282.816a20.968,20.968,0,0,1,3.945-2.893c1.329-.677,4.073-1.308,5.392-.248,1.072.861.653,1.759.778,2.954.373,3.563,2.755,4.937,6.035,2.772,1.627-1.074,3.511-2.463,5.324-1.744,2.659,1.055,1.479,3.828,2.173,5.822a28.833,28.833,0,0,0,5.039,8.121c2.606,3.076,5.594,6.663,9.227,8.585,11.268,5.957,8.711-11.551,10.821-16.747a15.5,15.5,0,0,0,1.507-4.542c.273-3.643-2.768-6.359-5.741-8.725-.476-.38-.952-.749-1.411-1.114a3.076,3.076,0,0,1-1.05-1.2c-.527-1.354,1.729-4.372,1.783-6.16.095-3.113-2-6.546-4.318-8.457a12.214,12.214,0,0,0-11.751-1.992c-1.7.628-3.53,1.654-5.208.966-2.448-1-2.038-3.965-4.119-5.444a5.66,5.66,0,0,0-6.472-.162c-.864.646-1.531,1.546-2.454,2.107-2.07,1.259-4.72.495-7.136.677a8.976,8.976,0,0,0-6.639,3.835c-1.139,1.673-1.724,3.754-3.233,5.1-1.627,1.452-3.96,1.73-5.944,2.638-5.132,2.35-7.252,9.5-4.408,14.372s9.891,6.6,14.778,3.779a21.108,21.108,0,0,0,3.082-2.3Z"/>
            <path id="Path_206" data-name="Path 206" d="M760.416,291.109a9.2,9.2,0,0,1,1.877,6.266,7.387,7.387,0,0,1-3.807,5.992c-9.737,4.981-18-12.142-6.644-15.241a7.994,7.994,0,0,1,8.574,2.983Z" fill="#d6906f"/>
            <path id="Path_207" data-name="Path 207" d="M807.661,414.895c-3.739-7.4-9.831-15.508-13.383-23.094" fill="none" stroke="#000" stroke-miterlimit="10" stroke-width="0.844"/>
            <path id="Path_208" data-name="Path 208" d="M773.641,469.424c-16.476,1.965-34.64,4.1-50.488-.574,17.256-26.2,21.674-11.09,46.386-15.788,97.219-46.854,106.882,8.317,78.664,13.149C822.594,467.061,799.151,466,773.641,469.424Z" fill="#d6906f"/>
            <path id="Path_209" data-name="Path 209" d="M648.991,336.06a3.641,3.641,0,0,0,.442,2.356,3.125,3.125,0,0,0-1.489,4.574.77.77,0,0,1,.193.395.806.806,0,0,1-.243.478c-2.444,3.16,3.8,7.733,5.643,9.47a15.73,15.73,0,0,0,9.136,4.271c3.089,13.71,5.856,27.342,8.314,41.172,2.743,15.438,6.523,35.657,24.943,38.734,2.235.375,5.257.859,7.49.348,15.088-3.454,1.965-34.9-.979-42.652a327.375,327.375,0,0,0-14.921-33.024q-3.917-7.634-8.155-15.1c-1.264-2.22-2.451-4.576-3.883-6.691-1.936-2.861-4.205-5.175-5.309-8.6a18.216,18.216,0,0,1-.8-3.84,34.355,34.355,0,0,1,.219-6.841,1.516,1.516,0,0,0-.145-1.057,1.022,1.022,0,0,0-1.312-.174,2.783,2.783,0,0,0-.93,1.094,24.788,24.788,0,0,0-3.012,8.794,6.631,6.631,0,0,1-.4,1.8c-3-1.8-9.49-7.952-12.009-2.129a4.3,4.3,0,0,0,.137,3.653,3.64,3.64,0,0,0-2.647,2.01A3.5,3.5,0,0,0,648.991,336.06Z" fill="#d6906f"/>
            <path id="Path_210" data-name="Path 210" d="M724.122,377.732c1.626,8.882,1.545,22.623,2.48,33.6" fill="none" stroke="#000" stroke-miterlimit="10" stroke-width="0.844"/>
            <path id="Path_211" data-name="Path 211" d="M651.266,354.348l-1.111,7.4,4.065-6.26Z" fill="#5b7799"/>
            <path id="Path_212" data-name="Path 212" d="M815.806,436.321a64.843,64.843,0,0,1,18.61,4.73" fill="none" stroke="#000" stroke-miterlimit="10" stroke-width="0.844"/>
            <path id="Path_213" data-name="Path 213" d="M670.812,308.154c-4.548,11.88-13.616,35.4-18.164,47.277" fill="none" stroke="#000" stroke-miterlimit="10" stroke-width="5.064"/>
            <path id="Path_214" data-name="Path 214" d="M730.273,310.438a11.571,11.571,0,0,0,6.845-3.217" fill="none" stroke="#000" stroke-miterlimit="10" stroke-width="1.688"/>
            <g id="Group_52" data-name="Group 52">
              <g id="Group_51" data-name="Group 51" clip-path="url(#clip-path-2)">
                <g id="Group_50" data-name="Group 50">
                  <path id="Path_215" data-name="Path 215" d="M737.417,322.209c-.042-.127-.074-.267-.12-.388,3.872-.449,8-1.436,11.177-3.459-1.43,2.892-5.853,7.289-9.224,10.548C739.192,328.051,738.854,324.244,737.417,322.209Z"/>
                </g>
              </g>
            </g>
            <path id="Path_217" data-name="Path 217" d="M759.153,294.917a6.592,6.592,0,0,0-7.811-2.974,3.69,3.69,0,0,0-2.517,2.562" fill="none" stroke="#000" stroke-miterlimit="10" stroke-width="0.844"/>
            <path id="Path_218" data-name="Path 218" d="M752.983,291.8a4.2,4.2,0,0,1,2.184,5.3" fill="none" stroke="#000" stroke-miterlimit="10" stroke-width="0.844"/>
            <path id="Path_219" data-name="Path 219" d="M654.392,327.043a20.621,20.621,0,0,1,10.392,3.31,2.631,2.631,0,0,1,1.4,1.761c.111,1.315-1.526,2.01-2.839,2.149a18.669,18.669,0,0,1-5.915-.321,6.27,6.27,0,0,1-3.778-2c-.885-1.158-.879-3.079.339-3.876" fill="#d6906f"/>
            <path id="Path_220" data-name="Path 220" d="M663.783,341.026c-.564,3.82-1.884,12.462-6.226,12.522a6.008,6.008,0,0,1-2.314-.606L652,351.612a8.105,8.105,0,0,1-1.543-.765c-2.07-1.425-2.368-4.436-1.673-6.852.719-2.5,2.831-8.72,5.853-9.164a5.315,5.315,0,0,1,2.038.235l5.012,1.249a3.7,3.7,0,0,1,1.467.6c.957.771.91,2.221.726,3.437C663.853,340.555,663.82,340.782,663.783,341.026Z" fill="#d6906f"/>
            <path id="Path_221" data-name="Path 221" d="M888.528,445.463C815.683,414.245,724.63,482.952,763,552.71" fill="none" stroke="#000" stroke-miterlimit="10" stroke-width="5.064"/>
            <path id="Path_222" data-name="Path 222" d="M664.893,329.994c.446.464,1.141.64,1.546,1.139a1.973,1.973,0,0,1-.564,2.652,5.718,5.718,0,0,1-2.851.886" fill="none" stroke="#000" stroke-miterlimit="10" stroke-width="0.844"/>
            <path id="Path_223" data-name="Path 223" d="M656.983,353.048a16.907,16.907,0,0,0,2.819.606c1.08.14,2.407.056,2.941-.9.625-1.109-.316-2.422-1.193-3.344,1.4-.015,3.045-.385,3.6-1.673a2.805,2.805,0,0,0-.56-2.782,8.239,8.239,0,0,0-2.367-1.786c1.452-.165,3.059-.435,3.948-1.593a2.775,2.775,0,0,0-1.6-4.4" fill="none" stroke="#000" stroke-miterlimit="10" stroke-width="0.844"/>
          </g>
          <line id="Line_18" data-name="Line 18" x2="20.325" y2="221.513" transform="translate(890.316 471.089)" fill="none" stroke="#000" stroke-miterlimit="10" stroke-width="1.688"/>
          <rect id="Rectangle_9" data-name="Rectangle 9" width="310.709" height="10.315" transform="translate(592.503 463.312)" fill="#adaca5"/>
          <g id="Group_54" data-name="Group 54">
            <path id="Path_224" data-name="Path 224" d="M640.811,463.484h132.23a3.148,3.148,0,0,0,3.148-3.148h0a3.148,3.148,0,0,0-3.148-3.148H640.811a3.148,3.148,0,0,0-3.148,3.148h0a3.148,3.148,0,0,0,3.148,3.148Z"/>
            <path id="Path_225" data-name="Path 225" d="M637.229,463.484h118.38l-10.3-68.018a4.806,4.806,0,0,0-4.691-4.124h-109a4.615,4.615,0,0,0-4.5,5.39Z" fill="#42b7ac"/>
            <path id="Path_226" data-name="Path 226" d="M679.953,422.558a5.668,5.668,0,1,0,5.668-5.667,5.668,5.668,0,0,0-5.668,5.667Z" fill="none" stroke="#fff" stroke-miterlimit="10" stroke-width="1.688"/>
          </g>
        </g>
        <g id="Group_56" data-name="Group 56">
          <line id="Line_19" data-name="Line 19" y2="112.281" transform="translate(377.067 694.102)" fill="none" stroke="#000" stroke-miterlimit="10" stroke-width="6.752"/>
          <line id="Line_20" data-name="Line 20" x2="100.932" transform="translate(325.339 803.86)" fill="none" stroke="#000" stroke-miterlimit="10" stroke-width="6.752"/>
        </g>
        <path id="Path_227" data-name="Path 227" d="M430.057,435.894q-.154.415-.275.847c-2.463,8.838,12.706,13.923,18.726,16.85,1.99.967,4.146,1.884,6.339,1.6,2.757-.358,4.892-2.5,6.8-4.522l18.773-19.891c12.919-13.688,26.012-27.619,34.608-44.362,2.411-4.7,5.267-14.046,2.377-19.083-6.011-10.474-9.752-3.626-15.7.587-23.292,16.5-43.96,40.424-65.08,59.723C434,430.038,431.276,432.6,430.057,435.894Z" fill="#d6906f"/>
        <path id="Path_228" data-name="Path 228" d="M412.414,439.42l-30.138,11.326c-5.556,2.088-11.273,4.276-15.566,8.371-8.611,8.212-9.256,28.193,2.147,34.589,13.388,7.508,40.275-.042,53.322-5.159A76.906,76.906,0,0,0,446.7,473.522c3.248-3.035,6.729-6.492,9.653-9.689,1.827-2,4.96-11.477,5.655-11.939,1.42-.944,3.346-.609,4.87-1.347a16.966,16.966,0,0,0,3.212-2.206,3.213,3.213,0,0,0,1.121-3.157,1.188,1.188,0,0,1-.093-.633c.137-.493.837-.43,1.347-.385,1.948.176,3.626-1.637,4-3.557,1.031-5.354-3.261-12.841-6.052-17.157-2.6-4.024-5.653-8.589-9.45-11.607-2.228-1.772-4.207-4.414-7.277-4.613a6.77,6.77,0,0,0-5.925,2.9c-1.394,2.061-1.523,4.694-2.267,7.069a2.313,2.313,0,0,1-1.236,1.649,3.444,3.444,0,0,1-1.482-.042c-2.065-.248-3.007,1-4.664,1.757-1.918.881-3.862.9-5.125,2.9-.844,1.332-.945,2.988-1.447,4.483C429,435.517,418.767,437.031,412.414,439.42Z" fill="#f2b430"/>
        <g id="Group_57" data-name="Group 57">
          <path id="Path_229" data-name="Path 229" d="M591.294,510.172a12.376,12.376,0,0,0-2.24-3.779,8.694,8.694,0,0,0-5.77-3.162c.508-.5.334-1.966.525-2.8a11.089,11.089,0,0,0-4.5-11.4,11.307,11.307,0,0,0-11.087-.572c-2.422,1.1-2.583-3.288-3.273-4.836a18.075,18.075,0,0,0-5.339-7.189,16.338,16.338,0,0,0-12.565-2.7,27.443,27.443,0,0,0-11.842,5.574c-4.7-29.11-3.656-59.509-6.04-88.907a4.3,4.3,0,0,0-3.434-4.6l-8.317-3.469a3.922,3.922,0,0,0-2.731-.422c-1.357.471-1.747,2.166-1.93,3.59-1.688,13.219-5.275,26.908-5.275,40.2.066,6.013-1.011,12.272-1.55,18.262q-1.628,18.056-3.626,36.074c.209-1.882-4.744-4.532-6.1-5.052a11.177,11.177,0,0,0-8.881.645,16.564,16.564,0,0,0-8.969,12.331,4.627,4.627,0,0,0-3.672-.885,19.53,19.53,0,0,0-15.374,10.15,28.453,28.453,0,0,0-1.735,20.545,17.809,17.809,0,0,0,8.272,10.31,17.361,17.361,0,0,0,12.083,1.325,21.665,21.665,0,0,0,5.176-2c1.41-.758,2.817-2.341,4.254-2.893,1.886-.724,1.87.685,3.126,2.353a25,25,0,0,0,3.15,3.449,28.483,28.483,0,0,0,3.629,2.809,30.744,30.744,0,0,0,7.418,3.526,37.4,37.4,0,0,0,7.887,1.8c5.876.532,11.774-.955,17.18-3.167a20.559,20.559,0,0,0,4.2-2.2,15.549,15.549,0,0,0,3-3.359c2.157,1.575,3.964,2.986,6.646,3.643a15.01,15.01,0,0,0,7.336-.01,12.449,12.449,0,0,0,4.83-2.579c.385-.341,3.55-4.129,3.354-4.36,8.338,9.9,25.944,6.848,31.534-4.4A15.133,15.133,0,0,0,591.294,510.172Z" fill="#f9fbfc" opacity="0.65"/>
          <path id="Path_230" data-name="Path 230" d="M571.673,506.346a11.257,11.257,0,0,0,1.6-11.894,11.022,11.022,0,0,0-8.8-6.148,10.174,10.174,0,0,0-4.845.641,11.82,11.82,0,0,0-1.573-3.545,15.418,15.418,0,0,0-11.336-6.408,13.284,13.284,0,0,0-11.344,4.728,12.458,12.458,0,0,0-2.833,5.437,6.057,6.057,0,0,0-.086,1.572,6.678,6.678,0,0,0-1.832-.446,7.96,7.96,0,0,0-5.476,1.637c.179-3.66-.169-7.139-.169-10.783.022-6.487.113-12.974.152-19.459.154-25.7-.263-51.271-1.756-76.947a3.44,3.44,0,0,0-2.407-3.783l-5.7-2.735a1.623,1.623,0,0,0-1.283-.219c-.523.218-.658.883-.722,1.447-1.71,15.116-2.549,30.392-4.519,45.372-2.022,15.376-4.637,30.641-7.053,45.957-3.987-5.175-13.709-3.83-18.6.56-4.576,4.1-4.6,10.906-2.125,16.635-2.119,1.426-5.061,2.633-6.582,4.326A20.266,20.266,0,0,0,502.062,521.7a17.494,17.494,0,0,0,16.126,14.459A17.024,17.024,0,0,0,529.2,532.42a21.7,21.7,0,0,0,5.429-6.411c5.017,7.456,19.68,7.751,27.286,5.3a16.5,16.5,0,0,0,9.17-24.343C571.283,506.761,571.487,506.57,571.673,506.346Z" fill="#e9f9ff"/>
          <path id="Path_231" data-name="Path 231" d="M449.467,507.964a3.56,3.56,0,0,0,1.021.5,1.953,1.953,0,0,0-.545,1.649c.206,2.078,2.8,3.521,4.718,3.66a4.1,4.1,0,0,0,3.374-6.546,3.6,3.6,0,0,0-4.018-1.035c.994-.4-1.116-2.578-1.568-2.728-1.254-.42-2.76.633-3.408,1.626a2.35,2.35,0,0,0-.446,1.553,1.975,1.975,0,0,0,.872,1.321Z" fill="#f9fbfc" opacity="0.66"/>
          <path id="Path_232" data-name="Path 232" d="M579.938,477.764a3.252,3.252,0,1,1-3.253-3.253,3.252,3.252,0,0,1,3.253,3.253Z" fill="none" stroke="#131834" stroke-miterlimit="10" stroke-width="0.844"/>
          <path id="Path_233" data-name="Path 233" d="M585.575,485.134a1.518,1.518,0,1,1-1.518-1.518,1.518,1.518,0,0,1,1.518,1.518Z" fill="none" stroke="#131834" stroke-miterlimit="10" stroke-width="0.844"/>
          <path id="Path_234" data-name="Path 234" d="M537.01,507.465a5.637,5.637,0,1,1-5.637-5.636A5.637,5.637,0,0,1,537.01,507.465Z" fill="none" stroke="#131834" stroke-miterlimit="10" stroke-width="0.844"/>
          <path id="Path_235" data-name="Path 235" d="M587.742,515.486a1.518,1.518,0,1,1-1.518-1.518,1.518,1.518,0,0,1,1.518,1.518Z" fill="none" stroke="#131834" stroke-miterlimit="10" stroke-width="0.844"/>
          <path id="Path_236" data-name="Path 236" d="M481.076,517.436a7.371,7.371,0,1,1,0-14.742" fill="none" stroke="#131834" stroke-miterlimit="10" stroke-width="0.844"/>
          <circle id="Ellipse_15" data-name="Ellipse 15" cx="1.301" cy="1.301" r="1.301" transform="translate(488.881 519.604)" fill="none" stroke="#131834" stroke-miterlimit="10" stroke-width="0.844"/>
          <path id="Path_237" data-name="Path 237" d="M553.921,485.352a3.469,3.469,0,1,1-3.469-3.469,3.469,3.469,0,0,1,3.469,3.469Z" fill="none" stroke="#131834" stroke-miterlimit="10" stroke-width="0.844"/>
          <path id="Path_238" data-name="Path 238" d="M525.737,517.87a6.071,6.071,0,0,1-12.141,0" fill="none" stroke="#131834" stroke-miterlimit="10" stroke-width="0.844"/>
          <path id="Path_239" data-name="Path 239" d="M483.651,476.23a9.776,9.776,0,0,0,4.835,14.225" fill="none" stroke="#131834" stroke-miterlimit="10" stroke-width="0.844"/>
          <line id="Line_21" data-name="Line 21" y2="72.407" transform="translate(522.268 421.182)" fill="none" stroke="#131834" stroke-miterlimit="10" stroke-width="0.844"/>
          <line id="Line_22" data-name="Line 22" x1="2.602" y2="45.526" transform="translate(513.162 410.343)" fill="none" stroke="#131834" stroke-miterlimit="10" stroke-width="0.844"/>
        </g>
        <line id="Line_23" data-name="Line 23" x1="28.771" y1="215.232" transform="translate(782.305 553.303)" fill="none" stroke="#000" stroke-miterlimit="10" stroke-width="1.688"/>
        <line id="Line_24" data-name="Line 24" x1="31.175" y2="217.888" transform="translate(397.253 551.909)" fill="none" stroke="#000" stroke-miterlimit="10" stroke-width="1.688"/>
        <rect id="Rectangle_10" data-name="Rectangle 10" width="413.837" height="11.323" transform="translate(392.815 548.443)" fill="#c0cfff"/>
        <path id="Path_240" data-name="Path 240" d="M405.48,708.234c-6.435.582-12.8.886-18.993.839-22.141-.167-45.167-8.357-64.87-18.18C265.513,662.924,268,604.385,265.7,549.744c-.728-17.349-1.443-34.883,1.953-51.931,6.5-32.653,28.208-54.389,62.38-55.2,3.883-.091,7.948.164,11.3,2.127,3.494,2.048,5.753,5.7,7.311,9.434,7.87,18.889,2.681,41.444,5.986,61.32,3.729,22.423,10.745,45.167,23.414,64.228,7.185,10.808,16.1,19.032,26.513,26.615,11.06,8.048,26.684,6.965,39.886,8.352,8.979.944,18.436,2.876,26.147,7.82,19.312,12.388,37.719,46.82,15.382,64.858-6.58,5.314-14.909,7.885-23.083,10.055C444.9,702.206,424.866,706.48,405.48,708.234Z" fill="#cae9fc"/>
        <path id="Path_241" data-name="Path 241" d="M690.2,750.157c4.608-5.834,9.617-11.689,15.61-16.19-2.161-1.921-4.424-3.844-6.455-5.846-12.385-12.2-23.706-24.78-37.01-35.743-.216.427-2.62,5.987-2.834,6.416-5.419,10.8-9.575,17-14.408,28.066,13.685,11.023,28.639,19.242,42.744,26.373C688.631,752.206,689.4,751.171,690.2,750.157Z" fill="#de9983"/>
        <path id="Path_242" data-name="Path 242" d="M745.232,701.726v-.034a6.113,6.113,0,0,0-4.776-5.343c-3.687-.773-6.7,1.815-9.285,4.227-5.167,3.087-9.864,9.2-14.28,13.323-3.739,3.489-7.777,9.671-12.328,11.924a6.126,6.126,0,0,1-5.493.216c-.576-.3-18.694,23.757-16.954,25.632,5.468,5.886,16.444,10.753,22.462,13.042A4.115,4.115,0,0,0,709.5,763.1q10.22-15.909,19.833-32.193c3.5-5.906,6.989-11.83,10.394-17.795C741.5,710,745.551,705.474,745.232,701.726Z"/>
        <path id="Path_243" data-name="Path 243" d="M645.8,757.18c8.645-8.256,14.129-15.913,18.736-26.7,5.329-12.478,8.1-26.574,16.061-37.293a3.2,3.2,0,0,0-1.291-4.883c-13.645-5.739-52.7-30.457-57.608-33.3-20.421-11.824-40.9-23.281-62.269-33.132-18.2-8.389-33.4-19.167-53.553-23.937-20.576-4.87-41.888-6.023-62.968-5.984q-20.837.038-41.645,1.334c-12.769.8-44.1,1.014-45.273,19.182-.3,4.694,3.8,24.091,6.256,27.285,2.424,3.158,13.912,5.96,17.511,7.891a66.68,66.68,0,0,0,17.664,6.7c11.982,2.706,24.25,3.233,36.39,4.789,22.09,2.832,44.438,5.077,65.731,11.929,26.891,8.651,51.56,25.259,74.7,41.034,22.131,15.084,50.108,32.472,70.144,48.56C645.362,759.831,644.866,758.073,645.8,757.18Z" fill="#e8654b"/>
        <path id="Path_244" data-name="Path 244" d="M356.373,405.18q.061-.6.116-1.2c.878-9.262.052-17.651,4.475-25.988,4.141-7.807,16.214-19.056,26.059-17.661,8.684,1.227,13.788,15.032,16.423,21.969,2.662,7.012,4.973,17.088,1.975,24.37-2.659,6.46-14.008,5.749-14.232,13.236q-.532,17.683-1.065,35.37a14.51,14.51,0,0,1-.937,5.677c-3.483,7.581-27.454,2.525-33.078-1.075-9.924-6.352-6.671-16.139-4.409-26.061a233.516,233.516,0,0,0,4.673-28.637Z" fill="#d6906f"/>
        <path id="Path_245" data-name="Path 245" d="M400.851,581.257c2.007-5.106,4.109-10.143,6.329-15.2,2.557-5.832,5.652-11.367,6.619-17.626,1.263-8.165-1.4-16.333-.152-24.454.554-3.622,1.968-7.059,2.7-10.65,1.609-7.928-.235-16.266-3.8-23.527-4.23-8.617-13.809-15.457-15.693-24.636-1.288-6.271,5.23-5.611,7.559-9.38,3.437-5.567-.586-12.177-6.9-13.961-18.662-5.277-40.19-10.764-56.874,2.193-8.677,6.74-14.713,16.358-19.135,26.417-9.492,21.6-10.1,47.271-21.2,67.959-10.537,19.643-9.853,46.182-8.533,68.207.38,6.349,1.021,12.778,3.327,18.7,2.667,6.85,7.407,12.657,12.073,18.337,3.535,4.3,7.23,8.737,12.239,11.175,4.87,2.372,10.556,2.6,15.9,1.722,12.877-2.124,23.557-10.165,32.531-19.218s20.11-17.324,27.418-27.769c3.417-4.883,6.19-10.167,9.286-15.263a1.138,1.138,0,0,0,.228-1.036c-.176-.363-.657-.422-1.06-.435l-3.32-.1a2.334,2.334,0,0,0-2.49-3.725Q399.346,585.081,400.851,581.257Z" fill="#f2b430"/>
        <path id="Path_246" data-name="Path 246" d="M600.546,781.113c-3.834-16.954-5.584-33.971-7.127-51.141-.457.147-.92.273-1.376.42-11.491,3.73-22.793,7.976-34.064,12.311,5.387,17.272,11.415,34.552,16.773,50.87.684,2.081,2.591,4.171,3.29,6.247,1.2,3.555-1.9,4.993,1.362,6.843,2.63,1.491,5.856,1.328,8.857.964C603.23,805.813,603.4,793.739,600.546,781.113Z" fill="#de9983"/>
        <path id="Path_247" data-name="Path 247" d="M650.178,793.449a3.915,3.915,0,0,0,.272-.351,6.2,6.2,0,0,0,.025-7.078c-2.085-2.932-5.922-3.244-9.359-3.386-5.829-1.507-13.479-.552-19.516-.8-5.11-.209-12.345,1.259-17.148-.4a6.139,6.139,0,0,1-4.013-3.757c-.187-.623-29.081,6.965-28.642,11.531.893,9.3,3.167,14.951,5.441,20.511a2.732,2.732,0,0,0,3.086,1.639c12.7-2.66,25.33-5.6,37.918-8.729,6.666-1.656,13.328-3.337,19.965-5.106C641.665,796.6,647.734,796.31,650.178,793.449Z"/>
        <path id="Path_248" data-name="Path 248" d="M533.718,774.646a118.747,118.747,0,0,0,17.041-2.351c21.836-4.6,42.208-14.13,62.19-24.174-1.106-2.962-2.2-5.927-3.317-8.884-19.879-52.8-35.307-103.906-72.771-147.5-6.7-7.79-14.806-15.744-25.053-16.471-4.637-.329-9.232.891-13.709,2.151-34.778,9.782-67.916,27.464-102.876,34.975a260.948,260.948,0,0,0-30.953,9.137c-5.925,2.159-9.617,6.58-15.922,8.02-8.9,2.032-19.244,1.377-28.218.29-3.2-.387-25.316-3.125-25.944-6.5,3.646,19.6,12.835,38.92,28.878,50.746,23.956,17.658,57.59,14.216,85.43,10.985,8.022-.932,94.106-16.134,92.849-21.471,6.678,28.323,15.3,56.756,23.608,84.486C527.627,757.013,530.436,765.918,533.718,774.646Z" fill="#e8654b"/>
        <path id="Path_249" data-name="Path 249" d="M388.737,344.153a27.187,27.187,0,0,0-9.84,3.99,82.659,82.659,0,0,0-26.371,25.166c-2.075,3.131-4,6.654-3.763,10.4.25,3.94,1.975,8.454,2.758,12.3a31.806,31.806,0,0,0,3.815,8.8c2.758,4.792,7.348,9.831,13.39,7.319,3.916-1.629,6.018-4.91,8.712-7.942,2.227-2.505,4.693-4.456,6.15-7.606,2.725-5.891,1.546-17.66,7.6-21.336,1.81-1.1,4.013-1.377,5.878-2.38s3.4-3.308,2.412-5.18c-.326-.616-.917-1.227-.721-1.9a1.926,1.926,0,0,1,.62-.8c1.712-1.58,4.387-5.435,3.638-8-.522-1.776-4.924-3.519-6.416-1.835,2.154-2.431,4.426-4.985,2.309-7.907-1.913-2.64-6.261-3.452-9.271-3.2C389.335,344.077,389.036,344.11,388.737,344.153Z"/>
        <path id="Path_250" data-name="Path 250" d="M399.548,588.526c-1.227,2.564-3.683,4.3-6.129,5.748a65.192,65.192,0,0,1-10.969,5.2" fill="none" stroke="#131834" stroke-miterlimit="10" stroke-width="0.844"/>
        <path id="Path_251" data-name="Path 251" d="M391.727,599.727a36.47,36.47,0,0,1-15.463,5.159" fill="none" stroke="#131834" stroke-miterlimit="10" stroke-width="0.844"/>
        <g id="Group_62" data-name="Group 62">
          <g id="Group_60" data-name="Group 60">
            <path id="Path_252" data-name="Path 252" d="M554.765,387.576h0A19.566,19.566,0,0,0,535.2,368.012H515.876a19.564,19.564,0,0,0-19.565,19.565h58.454Z" fill="#6ed39c"/>
            <path id="Path_253" data-name="Path 253" d="M553.384,371.049c9.237-17.756,15.026-43.2,15.026-71.466,0-53.66-45.408-97.16-45.408-97.16s-42.078,43.5-42.078,97.16c0,28.267,8.621,53.71,17.858,71.466Z" fill="#4179f7"/>
            <g id="Group_59" data-name="Group 59">
              <g id="Group_58" data-name="Group 58" clip-path="url(#clip-path-3)">
                <path id="Path_254" data-name="Path 254" d="M535.6,215.819a153.377,153.377,0,0,0-12.6-13.4,148.677,148.677,0,0,0-11.732,13.4Z" fill="#ff7676"/>
              </g>
            </g>
          </g>
          <g id="Group_61" data-name="Group 61">
            <path id="Path_256" data-name="Path 256" d="M549.642,279.843a24.218,24.218,0,1,0-39.378,19.241,17.952,17.952,0,0,1,6.742,11.8l1.565,13.031,15.068-.235L534.8,310.6a17.8,17.8,0,0,1,6.314-11.956A24.135,24.135,0,0,0,549.642,279.843Z" fill="#f2b430"/>
            <path id="Path_257" data-name="Path 257" d="M522.3,315.49l-3.965-17.651c-1.224-5.451-3.746-11.122-4.293-16.612-.23-2.309,2.6-2.417,4.072-1.342a2,2,0,0,1,.923,1.661,1.113,1.113,0,0,1-1.371,1.02,1.386,1.386,0,0,1-.652-1.519,3.014,3.014,0,1,1,5.96.9c-.129.753-.972,1.546-1.561,1.06a1.1,1.1,0,0,1-.316-.549,3.235,3.235,0,0,1,1.921-3.744,3.877,3.877,0,0,1,4.2,1.087,2.459,2.459,0,0,1,.706,1.639,1.363,1.363,0,0,1-1.035,1.33,1.4,1.4,0,0,1-1.445-1.47,2.727,2.727,0,0,1,1.163-1.958,4.07,4.07,0,0,1,4.284-.626,2.724,2.724,0,0,1,1.042,3.874,1.453,1.453,0,0,1-.964.584c-1.023.093-1.57-1.276-1.325-2.274a3.648,3.648,0,0,1,3.714-2.677c4.774.387,2.412,5.967,1.93,8.734q-1.008,5.8-2.019,11.6l-2.841,16.326" fill="none" stroke="#222540" stroke-miterlimit="10" stroke-width="0.844"/>
            <path id="Path_258" data-name="Path 258" d="M526.229,325.758c-3.287.194-7.493.5-8.993-2.838-1.205-2.691-1.15-6.5-.8-9.372,0-.02,17.242-.235,19.015-.322-.248.014.017,6.374-.086,6.985a5.915,5.915,0,0,1-3.307,4.537,14.517,14.517,0,0,1-5.378.984Z" fill="#1b2258"/>
          </g>
          <path id="Path_259" data-name="Path 259" d="M488.458,277.274q4.55.453,9.1.91" fill="none" stroke="#f2b430" stroke-miterlimit="10" stroke-width="1.688"/>
          <path id="Path_260" data-name="Path 260" d="M494.529,260.033a15.2,15.2,0,0,0,5.62,3.5" fill="none" stroke="#f2b430" stroke-miterlimit="10" stroke-width="1.688"/>
          <path id="Path_261" data-name="Path 261" d="M508.827,247.035q1.95,3.9,3.9,7.8" fill="none" stroke="#f2b430" stroke-miterlimit="10" stroke-width="1.688"/>
          <path id="Path_262" data-name="Path 262" d="M526.565,242.7q.443,4.553.886,9.1" fill="none" stroke="#f2b430" stroke-miterlimit="10" stroke-width="1.688"/>
          <path id="Path_263" data-name="Path 263" d="M537.01,245.735a38.177,38.177,0,0,0-2.168,7.8" fill="none" stroke="#f2b430" stroke-miterlimit="10" stroke-width="1.688"/>
          <path id="Path_264" data-name="Path 264" d="M547.866,263.556l6.069-2.176" fill="none" stroke="#f2b430" stroke-miterlimit="10" stroke-width="1.688"/>
          <path id="Path_265" data-name="Path 265" d="M553.487,279.121a19.522,19.522,0,0,1,6.07.434" fill="none" stroke="#f2b430" stroke-miterlimit="10" stroke-width="1.688"/>
          <path id="Path_266" data-name="Path 266" d="M547.429,296.873l2.608,1.288" fill="none" stroke="#f2b430" stroke-miterlimit="10" stroke-width="1.688"/>
          <path id="Path_267" data-name="Path 267" d="M502.756,296.9l-3.469,3.035" fill="none" stroke="#f2b430" stroke-miterlimit="10" stroke-width="1.688"/>
        </g>
        <path id="Path_268" data-name="Path 268" d="M533.475,410.678c-5.373,6.732-12.46,12.755-18.169,18.657q-14.031,14.508-28.591,28.492c-9.4,9.027-16.489,26.549-.567,34.032,6.173,2.9,13.712,1.381,19.477-2.262s10.091-9.127,14.146-14.61a375.4,375.4,0,0,0,26.466-41.169c6.3-11.375,16.984-25.843,19.106-38.811.9-5.479,2.671-11.546,1.359-17.079-.2-.834-.679-1.813-1.536-1.81a2.081,2.081,0,0,0-1.337.771l-9.8,9.679c-1.1,1.092-4.016,5.738-5.834,5.3a.928.928,0,0,1-.454-.317c-.932-1.074-.814-2.672-.643-4.083q.294-2.441.591-4.883c.128-1.06.324-3.314-.55-4.092-1.058-.944-2.829-.042-3.381,1.014a9.557,9.557,0,0,0-.572,3.984c-.267,5.081-3.462,9.586-4.18,14.623-.29,2.051-.184,4.417-1.231,6.276a47.491,47.491,0,0,1-4.3,6.288Z" fill="#d6906f"/>
        <path id="Path_269" data-name="Path 269" d="M567.161,381.7c-2.056,4.141-4.109,8.58-7.223,12" fill="none" stroke="#222540" stroke-miterlimit="10" stroke-width="0.844"/>
        <path id="Path_270" data-name="Path 270" d="M566.442,389.469c-.846,2.9-3.518,8.308-5.691,10.4" fill="none" stroke="#222540" stroke-miterlimit="10" stroke-width="0.844"/>
        <path id="Path_271" data-name="Path 271" d="M566.131,376.945a5.337,5.337,0,0,1-1.028,3.182,68.315,68.315,0,0,1-7.466,11.1" fill="none" stroke="#222540" stroke-miterlimit="10" stroke-width="0.844"/>
        <path id="Path_272" data-name="Path 272" d="M361.8,483.571c-7.227-9.235-11.39-20.059-9.286-30.971a17.619,17.619,0,0,1,3.194-7.5,19.233,19.233,0,0,1,9.489-6.109c15.566-5.012,31.216,1.994,44.681,8.908,13.915,7.147,29.861,9.086,44.907,12.668,4.843,1.155,9.555-1.2,14.34-1.02,4.09.152,7.358-4.119,11.45-3.211a1.785,1.785,0,0,0,1.175.044,1.614,1.614,0,0,0,.643-.944c.689-1.747,2.071-3.4,3.93-3.665a5,5,0,0,1,4.043,1.533,27.421,27.421,0,0,1,5,6.723,62.807,62.807,0,0,1,6.118,36.381c-.513,3.825-2.539,8.545-6.389,8.3-1.529-.1-3.175-1.018-4.484-.219a5.908,5.908,0,0,0-1.371,1.536c-2.546,3.219-8.537,2.4-10.127-1.384-18.964,14.681-55.591,8.349-77.178,4.414C388.484,506.6,372.057,496.68,361.8,483.571Z" fill="#f2b430"/>
        <ellipse id="Ellipse_16" data-name="Ellipse 16" cx="9.128" cy="9.127" rx="9.128" ry="9.127" transform="translate(373.585 384.306)" fill="#d6906f"/>
        <path id="Path_273" data-name="Path 273" d="M384.311,387.362a6.46,6.46,0,0,0-8.02,7.353" fill="none" stroke="#222540" stroke-miterlimit="10" stroke-width="0.844"/>
        <path id="Path_274" data-name="Path 274" d="M378.531,388.7a7.327,7.327,0,0,0,2.947,7.221" fill="none" stroke="#222540" stroke-miterlimit="10" stroke-width="0.844"/>
        <path id="Path_275" data-name="Path 275" d="M398.586,396.143a6.067,6.067,0,0,0,7.109.871" fill="none" stroke="#222540" stroke-miterlimit="10" stroke-width="1.688"/>
        <g id="Group_64" data-name="Group 64">
          <g id="Group_63" data-name="Group 63" clip-path="url(#clip-path-4)">
            <path id="Path_276" data-name="Path 276" d="M397.271,413.605a31.686,31.686,0,0,1-19.309,3.992c.145,1.1,1.291,1.749,2.321,2.172a36.414,36.414,0,0,0,26.324.42"/>
          </g>
        </g>
        <path id="Path_278" data-name="Path 278" d="M491.141,502.49a42.355,42.355,0,0,0-.775-14.746" fill="none" stroke="#131834" stroke-miterlimit="10" stroke-width="0.844"/>
        <path id="Path_279" data-name="Path 279" d="M479.471,503.976a48.728,48.728,0,0,0,1.185-9.085" fill="none" stroke="#131834" stroke-miterlimit="10" stroke-width="0.844"/>
        <path id="Path_280" data-name="Path 280" d="M493.077,490.976a61.91,61.91,0,0,0-4.186-14.735" fill="none" stroke="#131834" stroke-miterlimit="10" stroke-width="0.844"/>
        <path id="Path_281" data-name="Path 281" d="M503.611,671.536c-.643-2.706-2.785-4.811-3.736-7.424-1.038-2.849-.565-6-.081-8.992l2.066-12.765" fill="none" stroke="#131834" stroke-miterlimit="10" stroke-width="0.844"/>
        <path id="Path_282" data-name="Path 282" d="M490.467,668.13a29.12,29.12,0,0,0,6.764-2.431,3.188,3.188,0,0,1,1.654-.351" fill="none" stroke="#131834" stroke-miterlimit="10" stroke-width="0.844"/>
        <g id="Group_66" data-name="Group 66">
          <g id="Group_65" data-name="Group 65" clip-path="url(#clip-path-5)">
            <path id="Path_283" data-name="Path 283" d="M422.887,510.768a37.013,37.013,0,0,1-11.925-2.21,66.494,66.494,0,0,1-7.708-3.376c-.346-.095-.692-.2-1.038-.3a5.961,5.961,0,0,0-.333,2.139c.093,7.628,15.314,13.09,21.084,14.979C422.762,518.261,422.749,514.512,422.887,510.768Z"/>
          </g>
        </g>
        <path id="Path_285" data-name="Path 285" d="M460.387,460.52c-20.71,1.457-41.147-5.849-59.338-15.855" fill="none" stroke="#131834" stroke-miterlimit="10" stroke-width="0.844"/>
        <path id="Path_286" data-name="Path 286" d="M608,735.437q-11-29.637-22.8-58.961a385.337,385.337,0,0,0-27.712-54.7" fill="none" stroke="#131834" stroke-miterlimit="10" stroke-width="0.844"/>
        <path id="Path_287" data-name="Path 287" d="M394.745,611.872c3.829.2,7.034-2.751,10.681-3.941a32.986,32.986,0,0,1,5.486-1.006,44.571,44.571,0,0,0,14.258-4.654c9.8-5.164,20.823-4.733,30.531-9.536" fill="none" stroke="#131834" stroke-miterlimit="10" stroke-width="0.844"/>
        <path id="Path_288" data-name="Path 288" d="M266.841,585.307c19.494-10.386,42.01-16.645,64.465-15.219s46.026,10.135,58.072,27.827c26.594,39.059,16.022,90.538,2.985,109.882" fill="none" stroke="#000" stroke-miterlimit="10" stroke-width="5.064"/>
        <path id="Path_289" data-name="Path 289" d="M471.272,443.324q-1.694-2.735-3.385-5.471" fill="none" stroke="#131834" stroke-miterlimit="10" stroke-width="0.844"/>
        <path id="Path_290" data-name="Path 290" d="M446.882,418.485a17.013,17.013,0,0,1,6.609,7.922" fill="none" stroke="#131834" stroke-miterlimit="10" stroke-width="0.844"/>
        <path id="Path_291" data-name="Path 291" d="M441.627,420.734l6.71,4.569" fill="none" stroke="#131834" stroke-miterlimit="10" stroke-width="0.844"/>
        <path id="Path_292" data-name="Path 292" d="M0,844H931V0" fill="none"/>
      </g>
    </g>
  </g>
</svg>
