<svg xmlns="http://www.w3.org/2000/svg" width="282.992" height="430.992" viewBox="0 0 282.992 430.992">
  <g id="Ai" transform="translate(-1492 -10056)">
    <g id="Vector_Smart_Object" data-name="Vector Smart Object" transform="translate(930.854 9933.825)">
      <path id="Path_303" data-name="Path 303" d="M710.525,477.5c-5.045,20.468-20.191,56.423,1.765,68.291s53.409,5.34,83.082-3.263,49.255-5.935,47.77-33.229-13.054-59.632-29.671-66.456-40.946-6.824-40.946-6.824" fill="none" stroke="#000" stroke-miterlimit="10" stroke-width="1.851"/>
      <g id="Group_116" data-name="Group 116">
        <path id="Path_304" data-name="Path 304" d="M621.793,124.5c4.351,2.375,20.968,17.8,20.968,17.8" fill="none" stroke="#000" stroke-miterlimit="10" stroke-width="1.851"/>
        <path id="Path_305" data-name="Path 305" d="M585.3,123.021c2.671,1.186,18.4,12.163,18.4,12.163" fill="none" stroke="#000" stroke-miterlimit="10" stroke-width="1.851"/>
        <line id="Line_24" data-name="Line 24" x2="20.474" y2="11.868" transform="translate(573.428 149.127)" fill="none" stroke="#000" stroke-miterlimit="10" stroke-width="1.851"/>
        <line id="Line_25" data-name="Line 25" x2="16.913" y2="10.681" transform="translate(570.164 186.51)" fill="none" stroke="#000" stroke-miterlimit="10" stroke-width="1.851"/>
        <line id="Line_26" data-name="Line 26" x2="16.615" y2="13.351" transform="translate(565.121 213.21)" fill="none" stroke="#000" stroke-miterlimit="10" stroke-width="1.851"/>
      </g>
      <g id="Group_119" data-name="Group 119">
        <g id="Group_117" data-name="Group 117">
          <path id="Path_306" data-name="Path 306" d="M607.551,217.069c-.386,16.333-6,21.77-23.8,29.681s-29.607,24.71-17.936,39.545,42.728,14.24,82.289,13.449,60.53-6.923,68.444-43.315S729.8,179.489,706.455,169.2a118.6,118.6,0,0,0-59.232-9.683C631.549,160.995,608.737,166.634,607.551,217.069Z" fill="#ffa477"/>
          <path id="Path_307" data-name="Path 307" d="M681.138,210.082c-3.045-6.921.658-13.5,8.368-14.409s15.956,6.639,9.836,15.367C695.082,217.114,684.184,217,681.138,210.082Z" fill="none" stroke="#000" stroke-miterlimit="10" stroke-width="1.851"/>
          <path id="Path_308" data-name="Path 308" d="M646.174,185.887c.625-6.035,5.822-9.156,11.56-6.728s8.491,10.966.757,14.624C653.106,196.328,645.551,191.923,646.174,185.887Z" fill="none" stroke="#000" stroke-miterlimit="10" stroke-width="1.851"/>
          <path id="Path_309" data-name="Path 309" d="M626.548,228.046c-.506-7.629,5.287-12.606,12.927-10.805s12.87,11.817,4.042,18C637.371,239.541,627.052,235.673,626.548,228.046Z" fill="none" stroke="#000" stroke-miterlimit="10" stroke-width="1.851"/>
          <path id="Path_310" data-name="Path 310" d="M579.39,268.421c4.142-6.968,12.193-7.838,17.785-1.676s4.146,18.054-7.281,18.151C581.941,284.964,575.248,275.389,579.39,268.421Z" fill="none" stroke="#000" stroke-miterlimit="10" stroke-width="1.851"/>
          <path id="Path_311" data-name="Path 311" d="M627.326,267.584c.612-5.938,5.726-9.007,11.367-6.619s8.352,10.784.746,14.383C634.144,277.851,626.711,273.518,627.326,267.584Z" fill="none" stroke="#000" stroke-miterlimit="10" stroke-width="1.851"/>
          <path id="Path_312" data-name="Path 312" d="M690.824,246.221c.613-5.936,5.724-9.007,11.367-6.616s8.35,10.783.744,14.381C697.64,256.49,690.209,252.158,690.824,246.221Z" fill="none" stroke="#000" stroke-miterlimit="10" stroke-width="1.851"/>
        </g>
        <g id="Group_118" data-name="Group 118">
          <path id="Path_313" data-name="Path 313" d="M763.438,275.157c-6.311,17.328-.288,29.74,8.888,34.245,6.518-2.958,10.349,2.907,6.712,8.442h0c9.981-4.151,16.073-13.613,13.362-25.349C788.947,277.538,772.867,274.357,763.438,275.157Z" fill="#ffa477"/>
          <path id="Path_314" data-name="Path 314" d="M790.129,287.085c2.374-3.363,9.351-10.035,17.8-5.539s11.493,19.531-.841,24.081a14.673,14.673,0,0,1-14.786-2.918" fill="#ffa477"/>
          <path id="Path_315" data-name="Path 315" d="M779.042,317.842c9.981-4.151,16.073-13.613,13.362-25.349-4.178-18.073-26.8-18.957-33.827-16.391-4.337,1.612-8.8,5.535-12.569,11.675-1.386,2.255-2.659,4.431-3.776,6.519,0,0-5.759-.634-6.273.42-.2.421,3.713,4.873,3.713,4.873-4.2,9.924-3.265,16.5,7.78,21.17,3.857,1.63,8.555.987,9.643.889" fill="none" stroke="#000" stroke-miterlimit="10" stroke-width="1.851"/>
          <path id="Path_316" data-name="Path 316" d="M744.76,304.14c-1.255,2.421-4.94,3.484-6.853,1.437" fill="none" stroke="#000" stroke-miterlimit="10" stroke-width="1.851"/>
          <path id="Path_317" data-name="Path 317" d="M750.147,294.13a1.261,1.261,0,1,0,1.365-1.144A1.26,1.26,0,0,0,750.147,294.13Z"/>
          <line id="Line_27" data-name="Line 27" x1="5.675" y2="10.946" transform="translate(765.106 320.74)" fill="none" stroke="#000" stroke-miterlimit="10" stroke-width="1.851"/>
          <path id="Path_318" data-name="Path 318" d="M668.981,253.443s8.859,9.88,11.793,15.531" fill="none" stroke="#000" stroke-miterlimit="10" stroke-width="1.851"/>
          <path id="Path_319" data-name="Path 319" d="M666.676,255.829c1.206,3.567,10.5,15.236,10.5,15.236" fill="none" stroke="#000" stroke-miterlimit="10" stroke-width="1.851"/>
          <path id="Path_320" data-name="Path 320" d="M664.819,260.186a73.8,73.8,0,0,0,7.86,12.064" fill="none" stroke="#000" stroke-miterlimit="10" stroke-width="1.851"/>
          <path id="Path_321" data-name="Path 321" d="M667.013,269.8c7,11.152,24.777,68.11,84.924,83.442" fill="none" stroke="#000" stroke-miterlimit="10" stroke-width="1.851"/>
          <path id="Path_322" data-name="Path 322" d="M732.566,390.529c5.935-.2,27.5,4.348,47.87,3.559" fill="none" stroke="#000" stroke-miterlimit="10" stroke-width="1.234"/>
          <path id="Path_323" data-name="Path 323" d="M723.467,427.91c2.176,1.78,6.132,9.1,8.9,17.207" fill="none" stroke="#000" stroke-miterlimit="10" stroke-width="1.851"/>
          <line id="Line_28" data-name="Line 28" x2="20.176" y2="9.89" transform="translate(658.19 496.343)" fill="none" stroke="#000" stroke-miterlimit="10" stroke-width="1.234"/>
          <line id="Line_29" data-name="Line 29" y1="7.516" x2="21.363" transform="translate(717.928 473.004)" fill="none" stroke="#000" stroke-miterlimit="10" stroke-width="1.234"/>
          <path id="Path_324" data-name="Path 324" d="M785.578,419.8l-3.361-4.549c-3.759,6.824-8.9,9.989-13.847,12.164s-4.9,12.016-4.9,12.016" fill="none" stroke="#000" stroke-miterlimit="10" stroke-width="1.234"/>
          <path id="Path_325" data-name="Path 325" d="M735.137,317.94c-2.374,3.115-7.418,11.421-9.049,17.059" fill="none" stroke="#000" stroke-miterlimit="10" stroke-width="1.234"/>
          <path id="Path_326" data-name="Path 326" d="M715.109,336.779c-.592,2.225-1.334,12.163-1.334,12.163" fill="none" stroke="#000" stroke-miterlimit="10" stroke-width="1.234"/>
          <path id="Path_327" data-name="Path 327" d="M728.906,394.335c5.538.276,43.753,7.591,56.375,3.857" fill="none" stroke="#000" stroke-miterlimit="10" stroke-width="1.851"/>
          <path id="Path_328" data-name="Path 328" d="M669.267,299.743c2.967,7.12,23.341,26.307,36.4,28.086" fill="none" stroke="#000" stroke-miterlimit="10" stroke-width="1.851"/>
          <path id="Path_329" data-name="Path 329" d="M636.48,301.621c8.458,3.115,21.709,7.021,21.709,7.021,7.912,26.108,42.331,50.437,75.762,43.712" fill="none" stroke="#000" stroke-miterlimit="10" stroke-width="1.851"/>
          <path id="Path_330" data-name="Path 330" d="M643.355,301.128c4.549.792,15.032,2.967,15.032,2.967" fill="none" stroke="#000" stroke-miterlimit="10" stroke-width="1.851"/>
          <path id="Path_331" data-name="Path 331" d="M649.091,299.4c4.747.79,12.462,2.324,12.462,2.324" fill="none" stroke="#000" stroke-miterlimit="10" stroke-width="1.851"/>
          <path id="Path_332" data-name="Path 332" d="M748.657,491.315c-2.529,1.432-5.9,3.332-8.574,4.831-7.715-6.724-15.628-.791-13.452,3.957l-.168.114c2.633,3.545,4.831,6.42,6.336,8.385,0,0-20.806,16.423-15.153,20.791s21.2-9.108,36.588-22.194C754.235,507.2,751.89,500.506,748.657,491.315Z" fill="#ffa477"/>
          <path id="Path_333" data-name="Path 333" d="M663.134,520.08c.865-9.511-7.642-10.86-12.045-7.743-2.071,7.875-2.648,10.438-3.581,11.1-22.947,2.967-27.1,9.295-22.155,12.46,2.432,1.556,32.243-1.582,38.969-2.572,2.116-2,5.261-6.4,8.87-12.025A32.3,32.3,0,0,0,663.134,520.08Z" fill="#ffa477"/>
          <path id="Path_334" data-name="Path 334" d="M678.978,259.4c6.942,6.133,5.643,12.474,26.207,37.155s44.986,21.191,63.142,38.763,14.379,48.5,16.892,62.508c1.744,9.714,10.476,50.328-54.717,42.483,3.646,9.558,23.732,66.892,23.732,66.892-15.387,13.086-30.936,26.561-36.588,22.194S732.8,508.6,732.8,508.6c-10.343-13.513-53.4-69.82-46.995-94.44s43.527-19.69,43.527-19.69c-2.444-16.23,4.093-41.58,6.154-46.837" fill="none" stroke="#000" stroke-miterlimit="10" stroke-width="1.851"/>
          <path id="Path_335" data-name="Path 335" d="M685.716,425.676c-10.315,1.048-21.127,38.157-30.36,71.125-5.87,20.508-6.463,25.65-7.848,26.64-22.947,2.967-27.1,9.295-22.155,12.46,2.432,1.556,32.243-1.582,38.969-2.572,9.493-8.965,39.657-66.194,39.657-66.194" fill="none" stroke="#000" stroke-miterlimit="10" stroke-width="1.851"/>
          <line id="Line_30" data-name="Line 30" x1="0.692" y2="1.878" transform="translate(749.282 321.501)" fill="none" stroke="#000" stroke-miterlimit="10" stroke-width="1.851"/>
          <path id="Path_336" data-name="Path 336" d="M716.594,486.9s22.846-9.2,26.853-10.977" fill="none" stroke="#000" stroke-miterlimit="10" stroke-width="1.851"/>
          <path id="Path_337" data-name="Path 337" d="M780.535,399.23c.89,5.49-10.236,24.328-49.107,18.692-16.022-1.039-23,4.895-17.357,17.948,4.5,10.417,19.09,37.135,19.09,37.135" fill="none" stroke="#000" stroke-miterlimit="10" stroke-width="1.234" stroke-dasharray="5 4"/>
          <line id="Line_31" data-name="Line 31" x1="26.111" y2="46.084" transform="translate(673.619 460.149)" fill="none" stroke="#000" stroke-miterlimit="10" stroke-width="1.234" stroke-dasharray="5 4"/>
          <line id="Line_32" data-name="Line 32" x2="24.728" y2="11.472" transform="translate(654.234 500.497)" fill="none" stroke="#000" stroke-miterlimit="10" stroke-width="1.851"/>
          <path id="Path_338" data-name="Path 338" d="M721.637,519.237c3.264,1.337,10.978-1.63,16.318-6.674s7.074-6.428,2.128-16.417" fill="none" stroke="#000" stroke-miterlimit="10" stroke-width="1.234"/>
          <line id="Line_33" data-name="Line 33" x2="8.159" y2="1.337" transform="translate(726.089 514.193)" fill="none" stroke="#000" stroke-miterlimit="10" stroke-width="1.234"/>
          <line id="Line_34" data-name="Line 34" y1="0.147" x2="9.643" transform="translate(731.132 509.892)" fill="none" stroke="#000" stroke-miterlimit="10" stroke-width="1.234"/>
          <line id="Line_35" data-name="Line 35" y1="3.412" x2="12.166" transform="translate(730.241 501.585)" fill="none" stroke="#000" stroke-miterlimit="10" stroke-width="1.234"/>
          <path id="Path_339" data-name="Path 339" d="M663.333,519.534c-4.005,5.191-6.973,7.861-17.357,9.643s-13.649-2.375-13.649-2.375" fill="none" stroke="#000" stroke-miterlimit="10" stroke-width="1.234"/>
          <line id="Line_36" data-name="Line 36" x2="6.231" y2="4.006" transform="translate(638.854 525.022)" fill="none" stroke="#000" stroke-miterlimit="10" stroke-width="1.234"/>
          <line id="Line_37" data-name="Line 37" x2="5.786" y2="4.155" transform="translate(646.123 523.687)" fill="none" stroke="#000" stroke-miterlimit="10" stroke-width="1.234"/>
          <line id="Line_38" data-name="Line 38" x2="9.793" y2="4.3" transform="translate(649.535 519.386)" fill="none" stroke="#000" stroke-miterlimit="10" stroke-width="1.234"/>
          <path id="Path_340" data-name="Path 340" d="M623.721,533.626a352.776,352.776,0,0,0,43.469-3.561" fill="none" stroke="#000" stroke-miterlimit="10" stroke-width="1.234"/>
          <path id="Path_341" data-name="Path 341" d="M717.647,529.392c2.061-.513,13.189-5.556,35.591-24.99" fill="none" stroke="#000" stroke-miterlimit="10" stroke-width="1.234"/>
          <path id="Path_342" data-name="Path 342" d="M730.567,315.567c-2.154,2.768-9.414,16.72-10.037,24.083" fill="none" stroke="#000" stroke-miterlimit="10" stroke-width="1.851"/>
          <path id="Path_343" data-name="Path 343" d="M711.833,333.415c-1.026,2.523-2.358,18.692-2.358,18.692" fill="none" stroke="#000" stroke-miterlimit="10" stroke-width="1.851"/>
          <path id="Path_344" data-name="Path 344" d="M766.144,284.712c-.3,4,0,17.355,9.792,23.882" fill="none" stroke="#000" stroke-miterlimit="10" stroke-width="1.234"/>
          <path id="Path_345" data-name="Path 345" d="M810.441,290.137c.89,5.34-.613,15.438-13.373,14.4" fill="none" stroke="#000" stroke-miterlimit="10" stroke-width="1.234"/>
          <path id="Path_346" data-name="Path 346" d="M793.145,297.618c2.969,4,9.376,1.365,12.167-2.226" fill="none" stroke="#000" stroke-miterlimit="10" stroke-width="1.234"/>
          <path id="Path_347" data-name="Path 347" d="M767.753,318.215c3.6,5.143,11.83,2.057,12.756-3.7s-5.761-6.994-9.155-4.731" fill="none" stroke="#000" stroke-miterlimit="10" stroke-width="1.851"/>
        </g>
      </g>
    </g>
  </g>
</svg>
