<svg xmlns="http://www.w3.org/2000/svg" width="309.196" height="21.846" viewBox="0 0 309.196 21.846">
  <path id="Path_740" data-name="Path 740" d="M449.769,338.391c12.05-4.216,24.236-8.429,37-3.9,11.591,4.115,19.952,9.631,33.131,10.034a157.254,157.254,0,0,0,35.3-2.509c9.441-1.808,18.475-5.628,28.2-6.2,11.972-.706,24.376.717,35.133,6.257,12.067,6.218,22.591,9.516,36.591,8.039,15.094-1.593,29.779-9.125,43.99-14,8.062-2.764,15.507-4.094,24.149-3.278,12.04,1.138,22.923,7.4,34.76,9.1" transform="translate(-449.108 -330.554)" fill="none" stroke="#fa8549" stroke-miterlimit="10" stroke-width="4"/>
</svg>
