<svg xmlns="http://www.w3.org/2000/svg" width="10.551" height="126.02" viewBox="0 0 10.551 126.02">
  <path id="Path_288" data-name="Path 288" d="M742.532,292.05c-1.731-4.888-3.46-9.832-1.649-15.026,1.645-4.718,3.863-8.126,4-13.482A64.091,64.091,0,0,0,743.8,249.2c-.75-3.833-2.315-7.5-2.565-11.445a27.672,27.672,0,0,1,2.468-14.288c2.5-4.915,3.812-9.2,3.187-14.884-.674-6.13-3.753-12.083-5.754-17.848a22.533,22.533,0,0,1-1.374-9.806c.438-4.895,2.955-9.329,3.622-14.142" transform="translate(-738.076 -166.568)" fill="none" stroke="#f88f57" stroke-miterlimit="10" stroke-width="3.218"/>
</svg>
