<svg xmlns="http://www.w3.org/2000/svg" width="222.526" height="15.843" viewBox="0 0 222.526 15.843">
  <path id="Path_64" data-name="Path 64" d="M1033.884,2984c8.667-3.042,17.432-6.081,26.62-2.837,8.344,2.946,14.366,6.9,23.851,7.178a113.321,113.321,0,0,0,25.4-1.837c6.792-1.308,13.289-4.062,20.284-4.483,8.615-.519,17.541.492,25.287,4.462,8.689,4.457,16.266,6.816,26.338,5.742,10.86-1.16,21.42-6.586,31.641-10.1a39.844,39.844,0,0,1,17.374-2.379c8.665.807,16.5,5.3,25.022,6.509" transform="translate(-1033.387 -2978.096)" fill="none" stroke="#f88f57" stroke-miterlimit="10" stroke-width="3"/>
</svg>
