<svg xmlns="http://www.w3.org/2000/svg" width="285.418" height="19.527" viewBox="0 0 285.418 19.527">
  <path id="Path_1" data-name="Path 1" d="M1090.254,4457.245c11.118-3.908,22.364-7.814,34.162-3.678,10.715,3.756,18.452,8.809,30.625,9.146a145.825,145.825,0,0,0,32.6-2.4c8.716-1.686,17.05-5.222,26.027-5.774,11.056-.679,22.515.6,32.465,5.668,11.161,5.689,20.889,8.7,33.815,7.3,13.937-1.5,27.481-8.468,40.594-12.985,7.439-2.562,14.312-3.8,22.3-3.076,11.124,1.017,21.191,6.75,32.128,8.288" transform="translate(-1089.757 -4449.767)" fill="none" stroke="#fa8c53" stroke-miterlimit="10" stroke-width="3"/>
</svg>
