<svg xmlns="http://www.w3.org/2000/svg" width="222.477" height="15.779" viewBox="0 0 222.477 15.779">
  <path id="Path_125" data-name="Path 125" d="M1357.606,5449.576c8.665-3.025,17.428-6.049,26.614-2.824,8.343,2.929,14.364,6.863,23.846,7.137a113.891,113.891,0,0,0,25.4-1.83c6.791-1.3,13.286-4.041,20.279-4.461,8.613-.517,17.538.487,25.282,4.436,8.688,4.432,16.263,6.778,26.333,5.708,10.857-1.154,21.415-6.553,31.633-10.05a40.03,40.03,0,0,1,17.37-2.368c8.664.8,16.5,5.266,25.017,6.472" transform="translate(-1357.112 -5443.675)" fill="none" stroke="#fa8c53" stroke-miterlimit="10" stroke-width="3"/>
</svg>
