<svg xmlns="http://www.w3.org/2000/svg" width="355.449" height="23.505" viewBox="0 0 355.449 23.505">
  <path id="Path_389" data-name="Path 389" d="M876.862,7683.738c13.86-4.842,27.878-9.68,42.572-4.517,13.345,4.69,22.976,10.987,38.143,11.428a182.023,182.023,0,0,0,40.624-2.925c10.863-2.082,21.252-6.466,32.439-7.138,13.777-.825,28.053.783,40.441,7.1,13.9,7.095,26.013,10.852,42.121,9.141,17.367-1.846,34.256-10.485,50.6-16.081,9.273-3.174,17.839-4.707,27.786-3.787,13.858,1.284,26.392,8.431,40.017,10.362" transform="translate(-876.367 -7675.227)" fill="none" stroke="#fa8c53" stroke-miterlimit="10" stroke-width="3"/>
</svg>
