<svg xmlns="http://www.w3.org/2000/svg" width="197.725" height="14.59" viewBox="0 0 197.725 14.59">
  <path id="Path_207" data-name="Path 207" d="M460.358,9209.381c7.7-2.743,15.48-5.484,23.641-2.564,7.412,2.651,12.762,6.213,21.185,6.459a99.2,99.2,0,0,0,22.56-1.664c6.032-1.181,11.8-3.664,18.013-4.047,7.651-.47,15.579.438,22.46,4.013,7.719,4.013,14.449,6.137,23.394,5.165,9.645-1.049,19.022-5.942,28.1-9.113a34.926,34.926,0,0,1,15.43-2.149c7.7.724,14.659,4.767,22.225,5.856" transform="translate(-459.854 -9203.846)" fill="none" stroke="#fa8549" stroke-miterlimit="10" stroke-width="3"/>
</svg>
