<svg xmlns="http://www.w3.org/2000/svg" width="119.692" height="19.361" viewBox="0 0 119.692 19.361">
  <g id="Group_447" data-name="Group 447" transform="translate(-725.145 -315.607)">
    <g id="Vector_Smart_Object" data-name="Vector Smart Object">
      <g id="Vector_Smart_Object-2" data-name="Vector Smart Object" transform="matrix(-0.002, 1, -1, -0.001, 1002.224, -307.399)">
        <path id="Path_9" data-name="Path 9" d="M637.3,275.512c-1.485-4.611-2.97-9.275-1.416-14.175,1.412-4.45,3.316-7.665,3.434-12.718a66.331,66.331,0,0,0-.93-13.528c-.644-3.616-1.987-7.072-2.2-10.8a28.4,28.4,0,0,1,2.118-13.479c2.142-4.637,3.272-8.677,2.735-14.041-.578-5.783-3.221-11.4-4.938-16.838a23.2,23.2,0,0,1-1.179-9.251c.376-4.617,2.536-8.8,3.109-13.341" fill="none" stroke="#5353f8" stroke-miterlimit="10" stroke-width="2.895"/>
      </g>
    </g>
    <g id="Vector_Smart_Object_copy" data-name="Vector Smart Object copy">
      <g id="Vector_Smart_Object_copy-2" data-name="Vector Smart Object copy" transform="matrix(-0.002, 1, -1, -0.001, 1003.107, -317.399)">
        <path id="Path_11" data-name="Path 11" d="M637.3,275.512c-1.485-4.611-2.97-9.275-1.416-14.175,1.412-4.45,3.316-7.665,3.434-12.718a66.331,66.331,0,0,0-.93-13.528c-.644-3.616-1.987-7.072-2.2-10.8a28.4,28.4,0,0,1,2.118-13.479c2.142-4.637,3.272-8.677,2.735-14.041-.578-5.783-3.221-11.4-4.938-16.838a23.2,23.2,0,0,1-1.179-9.251c.376-4.617,2.536-8.8,3.109-13.341" fill="none" stroke="#fc9054" stroke-miterlimit="10" stroke-width="2.895"/>
      </g>
    </g>
  </g>
</svg>
