<svg xmlns="http://www.w3.org/2000/svg" width="183" height="220" viewBox="0 0 183 220">
  <g id="Card_" data-name="Card  " transform="translate(-1163 -283)">
    <rect id="Rectangle_565" data-name="Rectangle 565" width="173" height="206" transform="translate(1173 297)" fill="#fff"/>
    <g id="Rectangle_565_copy" data-name="Rectangle 565 copy" transform="translate(1163 283)" fill="rgba(255,255,255,0)" stroke="#110101" stroke-linejoin="round" stroke-width="1">
      <rect width="173" height="206" stroke="none"/>
      <rect x="0.5" y="0.5" width="172" height="205" fill="none"/>
    </g>
    <rect id="Rectangle_566" data-name="Rectangle 566" width="100" height="4" transform="translate(1202 416)" fill="#01030f"/>
    <rect id="Rectangle_566_copy" data-name="Rectangle 566 copy" width="74.22" height="4" transform="translate(1202 392)" fill="#01030f"/>
    <rect id="Rectangle_566_copy_2" data-name="Rectangle 566 copy 2" width="90.63" height="4" transform="translate(1202 440)" fill="#01030f"/>
    <g id="Vector_Smart_Object" data-name="Vector Smart Object" transform="translate(981.256 221.133)">
      <g id="Group_220" data-name="Group 220">
        <path id="Path_519" data-name="Path 519" d="M265.921,119.63a24.043,24.043,0,0,0-15.542-16.516l-7.635,22.752Z" fill="#fca7a7"/>
        <path id="Path_520" data-name="Path 520" d="M242.744,125.867l-10.623,21.522a24,24,0,0,0,33.8-27.758Z" fill="#c8dafc"/>
        <path id="Path_521" data-name="Path 521" d="M250.379,103.114a24,24,0,0,0-18.258,44.274l10.623-21.522Z" fill="#f7d02d"/>
      </g>
    </g>
    <rect id="Rectangle_582" data-name="Rectangle 582" width="16" height="12" transform="translate(1301 311)" fill="#fba7a7"/>
  </g>
</svg>
