<svg xmlns="http://www.w3.org/2000/svg" width="36.605" height="125.342" viewBox="0 0 36.605 125.342">
  <g id="Vector_Smart_Object" data-name="Vector Smart Object" transform="matrix(0, 1, -1, 0, 334.283, -427.571)">
    <g id="Group_1" data-name="Group 1">
      <path id="Path_5" data-name="Path 5" d="M430.365,301.872c4.637-1.626,9.326-3.251,14.254-1.549,4.475,1.546,7.708,3.63,12.788,3.76a61.237,61.237,0,0,0,13.6-1.018c3.636-.7,7.111-2.175,10.857-2.411a26.472,26.472,0,0,1,13.552,2.32c4.663,2.346,8.725,3.581,14.119,2.994,5.814-.633,11.462-3.526,16.93-5.406a21.554,21.554,0,0,1,9.3-1.291c4.644.411,8.85,2.777,13.415,3.4" fill="none" stroke="#c48e6a" stroke-miterlimit="10" stroke-width="3.038"/>
      <path id="Path_6" data-name="Path 6" d="M429.757,309.9c5.229-1.092,11.625-2.488,16.935-.486,2.3.865,4.138,2.141,6.616,2.547,5.216.854,9.655.217,14.747-.878,8.109-1.741,15.256-3.229,23.61-1.082a65.566,65.566,0,0,1,9.875,3.71c4.011,1.745,8.9,1.713,13.215,1.369,6.069-.484,11.026-2.724,16.566-4.924,3.739-1.486,7.953-2.493,11.982-1.66" fill="none" stroke="#c48e6a" stroke-miterlimit="10" stroke-width="3.038"/>
      <path id="Path_7" data-name="Path 7" d="M429.148,318.319c3.716-.945,7-2.036,10.969-1.83,2.445.127,5.031,1.342,7.273,2.248,3.036,1.228,5.541,2.882,8.915,3.151a41.816,41.816,0,0,0,15.219-1.785,34.15,34.15,0,0,1,23.724,1.424c8.97,3.811,17.086,2.424,26.207-.275,9.862-2.92,20.856-7.164,30.771-2.131" fill="none" stroke="#c48e6a" stroke-miterlimit="10" stroke-width="3.038"/>
      <path id="Path_8" data-name="Path 8" d="M427.932,327.344c3.419-.838,6.269-2.458,9.963-1.9,3.772.573,6.9,2.8,10.4,4.108a38.861,38.861,0,0,0,14.487,2.2c4.9-.047,9.092-1.553,13.8-2.283,10.686-1.658,21.734,3.308,32.448,3.282a78.069,78.069,0,0,0,10.7-.383c3.758-.526,7.237-1.786,10.936-2.545a57.97,57.97,0,0,1,11.058-1.483c1.642-.024,3.97-.6,5.427,0" fill="none" stroke="#c48e6a" stroke-miterlimit="10" stroke-width="3.038"/>
    </g>
  </g>
</svg>
