<svg xmlns="http://www.w3.org/2000/svg" width="33.577" height="54.682" viewBox="0 0 33.577 54.682">
  <path id="Color_Overlay" data-name="Color Overlay" d="M824.29,5502.224a1.428,1.428,0,0,1,.005-2.071,1.394,1.394,0,0,1,2.049.008,1.457,1.457,0,1,1-2.055,2.063Zm-10.225-.014a1.429,1.429,0,0,1,.03-2.071,1.4,1.4,0,0,1,2.051.036,1.489,1.489,0,0,1-1.037,2.506A1.45,1.45,0,0,1,814.065,5502.21Zm20.439.015a1.429,1.429,0,0,1,0-2.073,1.4,1.4,0,0,1,2.049.007,1.456,1.456,0,1,1-2.051,2.066Zm-30.63.005a1.425,1.425,0,0,1-.011-2.071,1.392,1.392,0,0,1,2.048-.005,1.455,1.455,0,1,1-2.037,2.077Zm-.007-10.348a1.466,1.466,0,0,1-.443-1.03v0a1.47,1.47,0,0,1,.446-1.037,1.4,1.4,0,0,1,2.051.008,1.456,1.456,0,1,1-2.054,2.063Zm30.615-.021a1.464,1.464,0,0,1-.423-1.012,1.48,1.48,0,0,1,.467-1.059,1.4,1.4,0,0,1,2.052.049,1.437,1.437,0,0,1-.051,2.075,1.416,1.416,0,0,1-.993.425A1.455,1.455,0,0,1,834.482,5491.862Zm-10.26-.048a1.432,1.432,0,0,1-.374-.958,1.5,1.5,0,0,1,.517-1.113,1.4,1.4,0,0,1,2.048.147,1.441,1.441,0,0,1-.146,2.072,1.4,1.4,0,0,1-.943.378A1.477,1.477,0,0,1,824.223,5491.814Zm-10.149.063a1.427,1.427,0,0,1,.015-2.071,1.39,1.39,0,0,1,2.048.022,1.486,1.486,0,0,1-1.027,2.512A1.446,1.446,0,0,1,814.073,5491.877Zm-.032-10.373a1.457,1.457,0,0,1-.406-.995,1.485,1.485,0,0,1,.485-1.079,1.4,1.4,0,0,1,2.051.086,1.438,1.438,0,0,1-.086,2.074,1.407,1.407,0,0,1-.974.408A1.465,1.465,0,0,1,814.042,5481.5Zm20.47.045a1.426,1.426,0,0,1-.011-2.072,1.393,1.393,0,0,1,2.049-.007,1.456,1.456,0,1,1-2.038,2.079Zm-10.235-.022a1.431,1.431,0,0,1,.032-2.072,1.392,1.392,0,0,1,2.048.039,1.487,1.487,0,0,1-1.035,2.5A1.451,1.451,0,0,1,824.277,5481.528Zm-20.42,0a1.457,1.457,0,0,1-.428-1.018,1.479,1.479,0,0,1,.46-1.055,1.383,1.383,0,0,1,2.044.033,1.482,1.482,0,0,1-1.033,2.5A1.449,1.449,0,0,1,803.857,5481.531Zm20.428-10.335a1.429,1.429,0,0,1,.017-2.072,1.4,1.4,0,0,1,2.051.022,1.49,1.49,0,0,1-1.031,2.513A1.446,1.446,0,0,1,824.285,5471.2Zm10.24.029a1.486,1.486,0,0,1-.465-1.059,1.461,1.461,0,0,1,.425-1.012,1.391,1.391,0,0,1,2.048-.035,1.456,1.456,0,1,1-2.008,2.106Zm-20.445-.021a1.432,1.432,0,0,1,.008-2.074,1.381,1.381,0,0,1,2.044.008,1.483,1.483,0,0,1-1.022,2.517A1.447,1.447,0,0,1,814.08,5471.2Zm-10.251-.04a1.447,1.447,0,0,1-.4-.987,1.5,1.5,0,0,1,.487-1.087,1.388,1.388,0,0,1,2.045.087,1.436,1.436,0,0,1-.079,2.073,1.417,1.417,0,0,1-.979.405A1.463,1.463,0,0,1,803.829,5471.164Zm30.667-10.31a1.429,1.429,0,0,1,.018-2.073,1.4,1.4,0,0,1,2.049.023,1.456,1.456,0,1,1-2.067,2.049Zm-10.225-.012a1.458,1.458,0,0,1-.418-1.01,1.49,1.49,0,0,1,.47-1.066,1.385,1.385,0,0,1,2.044.052,1.483,1.483,0,0,1-1.042,2.5A1.452,1.452,0,0,1,824.271,5460.842Zm-10.191.021a1.432,1.432,0,0,1,.008-2.074,1.381,1.381,0,0,1,2.044.01,1.483,1.483,0,0,1-1.021,2.517A1.447,1.447,0,0,1,814.08,5460.862Zm-10.217-.008a1.427,1.427,0,0,1,.019-2.073,1.384,1.384,0,0,1,2.044.022,1.483,1.483,0,0,1-1.026,2.511A1.445,1.445,0,0,1,803.864,5460.854Zm10.225-10.327a1.427,1.427,0,0,1-.007-2.072,1.38,1.38,0,0,1,2.044-.005,1.455,1.455,0,1,1-2.037,2.077Zm20.407-.013a1.464,1.464,0,0,1-.432-1.024,1.479,1.479,0,0,1,.456-1.05,1.382,1.382,0,0,1,2.044.023,1.483,1.483,0,0,1-1.029,2.511A1.447,1.447,0,0,1,834.5,5450.514Zm-10.21,0a1.459,1.459,0,0,1-.435-1.024,1.481,1.481,0,0,1,.454-1.05,1.384,1.384,0,0,1,2.045.023,1.483,1.483,0,0,1-1.028,2.51A1.446,1.446,0,0,1,824.286,5450.514Zm-20.432-.007a1.46,1.46,0,0,1-.425-1.018,1.481,1.481,0,0,1,.461-1.057,1.385,1.385,0,0,1,2.045.037,1.483,1.483,0,0,1-1.036,2.5A1.451,1.451,0,0,1,803.854,5450.507Z" transform="translate(-803.423 -5448)" fill="#1d1f44"/>
</svg>
