<svg xmlns="http://www.w3.org/2000/svg" width="18.215" height="21.41" viewBox="0 0 18.215 21.41">
  <g id="Vector_Smart_Object_copy_8" data-name="Vector Smart Object copy 8" transform="translate(-86.451 -8600.575)">
    <g id="Vector_Smart_Object_copy_8-2" data-name="Vector Smart Object copy 8">
      <g id="Group_86" data-name="Group 86">
        <path id="Path_278" data-name="Path 278" d="M95.208,8621.421a9.654,9.654,0,0,1-2.157.521,6.422,6.422,0,0,1-2.892-.323,4.643,4.643,0,0,1-.807-.382,6.286,6.286,0,0,1-1.249-.988,4.93,4.93,0,0,1-.955-1.459,7.338,7.338,0,0,1-.642-4.031,23.078,23.078,0,0,1,.728-3.5c.34-1.214.676-2.429.995-3.648a20.589,20.589,0,0,1,1.212-3.4,7.635,7.635,0,0,1,2.027-2.685,3.964,3.964,0,0,1,3.273-.9,6.168,6.168,0,0,1,1.815.595,7.126,7.126,0,0,1,2.714,2.249c.215.3.431.6.648.9a4.3,4.3,0,0,0,1.105,1.067c.433.286.876.557,1.309.843.311.205.623.409.916.64a3.607,3.607,0,0,1,1.393,2.632,8.5,8.5,0,0,1-.266,2.813,11.156,11.156,0,0,1-2.527,4.708,12.25,12.25,0,0,1-2.408,2.114c-.487.325-.946.694-1.464.972-.564.3-1.122.618-1.7.892A10.2,10.2,0,0,1,95.208,8621.421Zm-1.526-1.028c.387-.162.78-.311,1.161-.488a19.979,19.979,0,0,0,2.315-1.33,13.2,13.2,0,0,0,3.052-2.622,10.027,10.027,0,0,0,1.853-3.149,8.859,8.859,0,0,0,.521-2.907,2.07,2.07,0,0,0-.727-1.652c-.259-.224-.524-.441-.788-.659-.364-.3-.734-.591-1.094-.895a6.681,6.681,0,0,1-1.237-1.405q-.358-.536-.725-1.068a6.449,6.449,0,0,0-3.038-2.365,2.7,2.7,0,0,0-2.955.534,5.3,5.3,0,0,0-1.486,2.234,16.589,16.589,0,0,0-.844,3.279c-.153,1.06-.358,2.108-.583,3.154-.232,1.082-.433,2.171-.636,3.259a8.485,8.485,0,0,0-.138,1.977,7.869,7.869,0,0,0,.328,1.857,3.811,3.811,0,0,0,1.249,1.873,2.859,2.859,0,0,0,1.622.681A4.967,4.967,0,0,0,93.682,8620.393Z" fill="#f0b149"/>
      </g>
    </g>
    <path id="Color_Overlay" data-name="Color Overlay" d="M90.158,8621.619a4.748,4.748,0,0,1-.807-.381,6.253,6.253,0,0,1-1.249-.991,4.885,4.885,0,0,1-.954-1.456,7.325,7.325,0,0,1-.643-4.031,23.148,23.148,0,0,1,.727-3.5c.34-1.214.677-2.428,1-3.648a20.653,20.653,0,0,1,1.212-3.4,7.637,7.637,0,0,1,2.028-2.683,3.951,3.951,0,0,1,3.272-.9,6.146,6.146,0,0,1,1.815.595,7.107,7.107,0,0,1,2.713,2.246c.216.3.431.6.649.9a4.266,4.266,0,0,0,1.1,1.066c.433.288.876.559,1.309.842.312.208.623.411.915.643a3.6,3.6,0,0,1,1.394,2.629,8.509,8.509,0,0,1-.266,2.815,11.154,11.154,0,0,1-2.527,4.708,12.21,12.21,0,0,1-2.408,2.112c-.487.327-.946.7-1.463.974-.565.3-1.121.619-1.7.892a10.49,10.49,0,0,1-1.069.372,9.629,9.629,0,0,1-2.157.52,6.818,6.818,0,0,1-.757.043A6.42,6.42,0,0,1,90.158,8621.619Zm1.859-19.232a5.285,5.285,0,0,0-1.484,2.233,16.551,16.551,0,0,0-.844,3.28c-.154,1.056-.357,2.107-.582,3.15-.234,1.084-.435,2.175-.636,3.261a8.51,8.51,0,0,0-.138,1.976,7.842,7.842,0,0,0,.329,1.858,3.8,3.8,0,0,0,1.249,1.872,2.856,2.856,0,0,0,1.621.682,4.966,4.966,0,0,0,2.151-.3c.387-.163.781-.312,1.162-.489a20.194,20.194,0,0,0,2.313-1.333,13.115,13.115,0,0,0,3.053-2.618,10.033,10.033,0,0,0,1.852-3.15,8.864,8.864,0,0,0,.521-2.906,2.078,2.078,0,0,0-.727-1.653c-.26-.223-.524-.441-.79-.662-.364-.3-.734-.591-1.093-.894a6.663,6.663,0,0,1-1.238-1.4c-.238-.359-.48-.712-.725-1.066a6.408,6.408,0,0,0-3.038-2.365,3,3,0,0,0-1.1-.226A2.766,2.766,0,0,0,92.017,8602.387Z" fill="#fd6e42"/>
  </g>
</svg>
