<svg xmlns="http://www.w3.org/2000/svg" width="55.001" height="55.001" viewBox="0 0 55.001 55.001">
  <path id="Color_Overlay" data-name="Color Overlay" d="M270,9520.376q0,1.014-.079,2.022L244.4,9547.921c-.673.05-1.349.076-2.022.079Zm-35.845,26.395,34.616-34.616q.234.756.422,1.522l-33.519,33.518C235.166,9547.067,234.658,9546.927,234.155,9546.771Zm32.862-13.96a27.829,27.829,0,0,1-12.206,12.206Zm-39.332,10.981,38.107-38.107c.254.4.5.808.726,1.218L228.9,9544.519Q228.284,9544.173,227.685,9543.792Zm-4.711-3.767c-.163-.163-.321-.326-.479-.491l39.039-39.04c.163.158.328.316.491.479s.321.326.479.491l-39.039,39.04C223.3,9540.349,223.137,9540.188,222.974,9540.025Zm-4.493-5.929L256.1,9496.48c.41.23.817.473,1.217.727l-38.107,38.107Q218.826,9534.714,218.481,9534.1Zm-2.677-6.771,33.518-33.519q.766.188,1.522.422l-34.616,34.616C216.073,9528.341,215.932,9527.833,215.8,9527.325Zm-.726-8.725,25.522-25.522c.673-.05,1.349-.076,2.022-.079L215,9520.623C215,9519.949,215.028,9519.273,215.079,9518.6Zm8.037-17.485a27.758,27.758,0,0,1,7.074-5.133l-12.206,12.206A27.7,27.7,0,0,1,223.116,9501.115Z" transform="translate(-215 -9492.999)" fill="#1d1f44"/>
</svg>
