<svg xmlns="http://www.w3.org/2000/svg" width="12" height="9" viewBox="0 0 12 9">
  <g id="Vector_Smart_Object_copy_24" data-name="Vector Smart Object copy 24" transform="translate(-1642 -1924)">
    <g id="Vector_Smart_Object_copy_24-2" data-name="Vector Smart Object copy 24" transform="translate(1599.684 1917.386)">
      <path id="Path_284" data-name="Path 284" d="M44.581,8.559A9.5,9.5,0,0,0,42.8,11.084a4.369,4.369,0,0,0-.481,1.585c-.183,2.626,3.305,3.084,5.337,2.914a12.553,12.553,0,0,0,3.189-.637A5.911,5.911,0,0,0,54.1,11.251a3.153,3.153,0,0,0-.773-3.512,5.435,5.435,0,0,0-3.042-1.125,8.628,8.628,0,0,0-4.578,1.021A7.05,7.05,0,0,0,44.581,8.559Z" fill="#c48e6a"/>
    </g>
    <path id="Color_Overlay" data-name="Color Overlay" d="M1642.007,1930.055a4.373,4.373,0,0,1,.481-1.585,9.519,9.519,0,0,1,1.777-2.524,7.029,7.029,0,0,1,1.127-.924,8.636,8.636,0,0,1,4.577-1.021,5.432,5.432,0,0,1,3.042,1.125,3.151,3.151,0,0,1,.773,3.512,5.912,5.912,0,0,1-3.252,3.694,12.562,12.562,0,0,1-3.189.637c-.24.02-.5.031-.771.031C1644.541,1933,1641.846,1932.371,1642.007,1930.055Z" fill="#fcbf7f"/>
  </g>
</svg>
