<svg xmlns="http://www.w3.org/2000/svg" xmlns:xlink="http://www.w3.org/1999/xlink" width="1920" height="40" viewBox="0 0 1920 40">
  <defs>
    <clipPath id="clip-Custom_Size_1">
      <rect width="1920" height="40"/>
    </clipPath>
  </defs>
  <g id="Custom_Size_1" data-name="Custom Size – 1" clip-path="url(#clip-Custom_Size_1)">
    <path id="Rectangle_" data-name="Rectangle " d="M-5.152-1.994H1918.29c-.034,151.267.084,353.036,3.552,512.357,3.3,162.248,9.969,279.883,19.172,347.453-71.777,14.071-145.847,15.26-223.15,14.091-77.222-1.376-157.6-5.009-240.009-6.9q-30.906-.773-62.169-1.35-3.907-.071-7.818-.139l-3.913-.068-3.915-.067q-7.833-.129-15.685-.248t-15.721-.224l-7.874-.1-7.882-.1q-63.092-.752-127.123-.854c-85.313-.191-171.541.061-258.32.223-173.471.14-349.866,1.047-525.363,6.346-87.663,2.665-174.492,6.885-257.457,10.678-41.281,1.639-81.584,3.145-119.4,2.886-18.911-.126-37.2-.683-54.715-1.831q-13.133-.862-25.659-2.181-3.129-.332-6.218-.7t-6.135-.757q-6.093-.79-12.016-1.711c-51.567-26.749-74.589-77.051-80.131-141.56q-.515-6.061-.825-12.293t-.427-12.627q-.234-12.791.272-26.209c.659-17.879,2.244-36.549,4.556-55.846,4.616-38.584,12.158-79.7,20.773-121.676C-59.389,334.59-4.722,148.074-5.152-1.994Z" transform="translate(-1.015 -841.019)" fill="#feeade"/>
  </g>
</svg>
