<svg xmlns="http://www.w3.org/2000/svg" xmlns:xlink="http://www.w3.org/1999/xlink" width="1920" height="40" viewBox="0 0 1920 40">
  <defs>
    <clipPath id="clip-Custom_Size_1">
      <rect width="1920" height="40"/>
    </clipPath>
  </defs>
  <g id="Custom_Size_1" data-name="Custom Size – 1" clip-path="url(#clip-Custom_Size_1)">
    <path id="Rectangle_" data-name="Rectangle " d="M-5.152-2H1918.29c-.034,124.229.084,289.935,3.552,420.78,3.3,133.249,9.969,229.858,19.172,285.351-71.777,11.556-145.847,12.533-223.15,11.573-77.222-1.13-157.6-4.113-240.009-5.67q-30.906-.635-62.169-1.109l-7.818-.115-3.913-.056-3.915-.055q-7.833-.106-15.685-.2t-15.721-.184l-7.874-.085-7.882-.08q-63.092-.618-127.123-.7c-85.313-.156-171.541.05-258.32.183-173.471.115-349.866.86-525.363,5.211-87.663,2.188-174.492,5.655-257.457,8.77-41.281,1.346-81.584,2.583-119.4,2.37-18.911-.1-37.2-.561-54.715-1.5q-13.133-.708-25.659-1.791-3.129-.273-6.218-.57t-6.135-.622q-6.093-.65-12.016-1.405c-51.567-21.968-74.589-63.279-80.131-116.259q-.515-4.977-.825-10.1t-.427-10.37q-.234-10.505.272-21.525c.659-14.684,2.244-30.016,4.556-45.865,4.616-31.687,12.158-65.457,20.773-99.929C-59.389,274.429-4.722,121.25-5.152-2Z" transform="translate(21.985 -687.005)" fill="#e8efff"/>
  </g>
</svg>
