<svg xmlns="http://www.w3.org/2000/svg" width="72" height="72" viewBox="0 0 72 72">
  <g id="Vector_Smart_Object" data-name="Vector Smart Object" transform="translate(-403.11 -306.042)">
    <g id="Group_421" data-name="Group 421">
      <path id="Path_631" data-name="Path 631" d="M406.611,307.807a1.751,1.751,0,1,1-1.751-1.765A1.758,1.758,0,0,1,406.611,307.807Z" fill="#1200b6"/>
      <path id="Path_632" data-name="Path 632" d="M429.444,307.807a1.751,1.751,0,1,1-1.751-1.765A1.758,1.758,0,0,1,429.444,307.807Z" fill="#1200b6"/>
      <path id="Path_633" data-name="Path 633" d="M452.277,307.807a1.751,1.751,0,1,1-1.751-1.765A1.758,1.758,0,0,1,452.277,307.807Z" fill="#1200b6"/>
      <ellipse id="Ellipse_27" data-name="Ellipse 27" cx="1.751" cy="1.765" rx="1.751" ry="1.765" transform="translate(471.609 306.042)" fill="#1200b6"/>
      <path id="Path_634" data-name="Path 634" d="M406.611,330.631a1.751,1.751,0,1,1-1.751-1.765A1.758,1.758,0,0,1,406.611,330.631Z" fill="#1200b6"/>
      <path id="Path_635" data-name="Path 635" d="M429.444,330.631a1.751,1.751,0,1,1-1.751-1.765A1.758,1.758,0,0,1,429.444,330.631Z" fill="#1200b6"/>
      <path id="Path_636" data-name="Path 636" d="M452.277,330.631a1.751,1.751,0,1,1-1.751-1.765A1.758,1.758,0,0,1,452.277,330.631Z" fill="#1200b6"/>
      <ellipse id="Ellipse_28" data-name="Ellipse 28" cx="1.751" cy="1.765" rx="1.751" ry="1.765" transform="translate(471.609 328.865)" fill="#1200b6"/>
      <path id="Path_637" data-name="Path 637" d="M406.611,353.454a1.751,1.751,0,1,1-1.751-1.765A1.758,1.758,0,0,1,406.611,353.454Z" fill="#1200b6"/>
      <path id="Path_638" data-name="Path 638" d="M429.444,353.454a1.751,1.751,0,1,1-1.751-1.765A1.758,1.758,0,0,1,429.444,353.454Z" fill="#1200b6"/>
      <path id="Path_639" data-name="Path 639" d="M452.277,353.454a1.751,1.751,0,1,1-1.751-1.765A1.758,1.758,0,0,1,452.277,353.454Z" fill="#1200b6"/>
      <path id="Path_640" data-name="Path 640" d="M475.11,353.454a1.751,1.751,0,1,1-1.751-1.765A1.758,1.758,0,0,1,475.11,353.454Z" fill="#1200b6"/>
      <path id="Path_641" data-name="Path 641" d="M406.611,376.277a1.751,1.751,0,1,1-1.751-1.765A1.758,1.758,0,0,1,406.611,376.277Z" fill="#1200b6"/>
      <path id="Path_642" data-name="Path 642" d="M429.444,376.277a1.751,1.751,0,1,1-1.751-1.765A1.758,1.758,0,0,1,429.444,376.277Z" fill="#1200b6"/>
      <path id="Path_643" data-name="Path 643" d="M452.277,376.277a1.751,1.751,0,1,1-1.751-1.765A1.757,1.757,0,0,1,452.277,376.277Z" fill="#1200b6"/>
      <ellipse id="Ellipse_29" data-name="Ellipse 29" cx="1.751" cy="1.765" rx="1.751" ry="1.765" transform="translate(471.609 374.512)" fill="#1200b6"/>
    </g>
  </g>
</svg>
