<svg xmlns="http://www.w3.org/2000/svg" width="12" height="9" viewBox="0 0 12 9">
  <path id="Color_Overlay" data-name="Color Overlay" d="M163.007,329.054a4.378,4.378,0,0,1,.481-1.585,9.521,9.521,0,0,1,1.777-2.525,7.028,7.028,0,0,1,1.127-.923A8.628,8.628,0,0,1,170.969,323a5.432,5.432,0,0,1,3.042,1.125,3.153,3.153,0,0,1,.773,3.512,5.911,5.911,0,0,1-3.252,3.695,12.563,12.563,0,0,1-3.19.637c-.24.02-.5.031-.773.031C165.538,332,162.845,331.37,163.007,329.054Z" transform="translate(-163 -323)" fill="#fcbf7f"/>
</svg>
