<svg xmlns="http://www.w3.org/2000/svg" width="12" height="9" viewBox="0 0 12 9">
  <path id="Color_Overlay" data-name="Color Overlay" d="M1785.007,458.054a4.378,4.378,0,0,1,.481-1.585,9.521,9.521,0,0,1,1.777-2.525,7.077,7.077,0,0,1,1.127-.923,8.628,8.628,0,0,1,4.577-1.021,5.446,5.446,0,0,1,3.042,1.125,3.153,3.153,0,0,1,.773,3.512,5.909,5.909,0,0,1-3.252,3.695,12.526,12.526,0,0,1-3.189.637c-.24.02-.5.031-.773.031C1787.539,461,1784.845,460.37,1785.007,458.054Z" transform="translate(-1785 -452)" fill="#fcbf7f"/>
</svg>
