<svg xmlns="http://www.w3.org/2000/svg" width="8" height="6" viewBox="0 0 8 6">
  <path id="Color_Overlay" data-name="Color Overlay" d="M1091,1010.037a2.913,2.913,0,0,1,.321-1.057,6.3,6.3,0,0,1,1.184-1.683,4.739,4.739,0,0,1,.751-.617,5.746,5.746,0,0,1,3.051-.68,3.626,3.626,0,0,1,2.029.75,2.1,2.1,0,0,1,.516,2.341,3.943,3.943,0,0,1-2.168,2.463,8.355,8.355,0,0,1-2.127.425c-.16.013-.334.021-.516.021C1092.692,1012,1090.9,1011.58,1091,1010.037Z" transform="translate(-1091 -1006)" fill="#b8beff"/>
</svg>
