<svg xmlns="http://www.w3.org/2000/svg" width="8" height="6" viewBox="0 0 8 6">
  <path id="Color_Overlay" data-name="Color Overlay" d="M999,1011.037a2.928,2.928,0,0,1,.32-1.057,6.324,6.324,0,0,1,1.185-1.683,4.729,4.729,0,0,1,.751-.616,5.756,5.756,0,0,1,3.052-.68,3.626,3.626,0,0,1,2.029.75,2.1,2.1,0,0,1,.515,2.342,3.94,3.94,0,0,1-2.167,2.462,8.357,8.357,0,0,1-2.127.425c-.16.013-.334.021-.516.021C1000.692,1013,998.9,1012.58,999,1011.037Z" transform="translate(-999 -1007)" fill="#fba7a7"/>
</svg>
