<svg xmlns="http://www.w3.org/2000/svg" width="78" height="30" viewBox="0 0 78 30">
  <g id="Vector_Smart_Object" data-name="Vector Smart Object" transform="translate(-507.138 -16.632)">
    <path id="Path_644" data-name="Path 644" d="M583.577,21.275l1.561-2.043a13.833,13.833,0,0,0-16.58.325,11.182,11.182,0,0,1-13.907,0,13.85,13.85,0,0,0-17.026,0,11.182,11.182,0,0,1-13.907,0,13.831,13.831,0,0,0-16.58-.325l1.56,2.043a11.154,11.154,0,0,1,13.46.323,13.846,13.846,0,0,0,17.026,0,11.181,11.181,0,0,1,13.907,0,13.848,13.848,0,0,0,17.025,0A11.154,11.154,0,0,1,583.577,21.275Z" fill="#ff4b4c"/>
    <path id="Path_645" data-name="Path 645" d="M508.7,32.329a11.158,11.158,0,0,1,13.46.322,13.845,13.845,0,0,0,17.025,0,11.192,11.192,0,0,1,13.908,0,13.839,13.839,0,0,0,17.025,0,11.154,11.154,0,0,1,13.46-.322l1.56-2.044a13.835,13.835,0,0,0-16.579.325,11.187,11.187,0,0,1-13.908,0,13.852,13.852,0,0,0-17.025,0,11.187,11.187,0,0,1-13.908,0,13.831,13.831,0,0,0-16.579-.323Z" fill="#ff4b4c"/>
    <path id="Path_646" data-name="Path 646" d="M553.092,43.7a13.839,13.839,0,0,0,17.025,0,11.156,11.156,0,0,1,13.46-.323l1.56-2.043a13.835,13.835,0,0,0-16.579.325,11.189,11.189,0,0,1-13.908,0,13.848,13.848,0,0,0-17.025,0,11.189,11.189,0,0,1-13.908,0,13.83,13.83,0,0,0-16.579-.325l1.56,2.043a11.156,11.156,0,0,1,13.46.323,13.848,13.848,0,0,0,17.025,0,11.187,11.187,0,0,1,13.908,0Z" fill="#ff4b4c"/>
  </g>
</svg>
