<svg xmlns="http://www.w3.org/2000/svg" xmlns:xlink="http://www.w3.org/1999/xlink" width="426" height="306" viewBox="0 0 426 306">
  <defs>
    <clipPath id="clip-path">
      <rect id="Rectangle_1" data-name="Rectangle 1" width="11.627" height="21.442" fill="none"/>
    </clipPath>
    <clipPath id="clip-path-2">
      <rect id="Rectangle_2" data-name="Rectangle 2" width="13.068" height="13.07" fill="none"/>
    </clipPath>
    <clipPath id="clip-path-3">
      <rect id="Rectangle_3" data-name="Rectangle 3" width="7.661" height="10.322" fill="none"/>
    </clipPath>
    <clipPath id="clip-path-5">
      <rect id="Rectangle_5" data-name="Rectangle 5" width="9.142" height="24.378" fill="none"/>
    </clipPath>
    <clipPath id="clip-path-6">
      <rect id="Rectangle_6" data-name="Rectangle 6" width="15.024" height="17.985" fill="none"/>
    </clipPath>
    <clipPath id="clip-path-7">
      <rect id="Rectangle_7" data-name="Rectangle 7" width="19.046" height="11.788" fill="none"/>
    </clipPath>
    <clipPath id="clip-path-8">
      <rect id="Rectangle_8" data-name="Rectangle 8" width="8.819" height="16.263" fill="none"/>
    </clipPath>
    <clipPath id="clip-path-10">
      <rect id="Rectangle_10" data-name="Rectangle 10" width="7.166" height="9.655" fill="none"/>
    </clipPath>
    <clipPath id="clip-path-11">
      <rect id="Rectangle_11" data-name="Rectangle 11" width="7.167" height="9.655" fill="none"/>
    </clipPath>
    <clipPath id="clip-path-12">
      <rect id="Rectangle_12" data-name="Rectangle 12" width="8.784" height="9.856" fill="none"/>
    </clipPath>
    <clipPath id="clip-Custom_Size_1">
      <rect width="426" height="306"/>
    </clipPath>
  </defs>
  <g id="Custom_Size_1" data-name="Custom Size – 1" clip-path="url(#clip-Custom_Size_1)">
    <g id="_10" data-name="10" transform="translate(-22.732)">
      <path id="Path_802" data-name="Path 802" d="M377.789,271.367a1.691,1.691,0,1,0,1.65,1.69,1.691,1.691,0,0,0-1.65-1.69" transform="translate(-15.3)" fill="#f29f05"/>
      <path id="Path_803" data-name="Path 803" d="M392.94,174.448a1.692,1.692,0,1,0,1.634,1.691,1.692,1.692,0,0,0-1.634-1.691" transform="translate(-19.268)" fill="#f29f05"/>
      <path id="Path_804" data-name="Path 804" d="M66.656,244.583a1.691,1.691,0,1,0,1.633,1.69,1.691,1.691,0,0,0-1.633-1.69" fill="#f29f05"/>
      <path id="Path_805" data-name="Path 805" d="M227.1,85.035c-1.969,2.138-4.149,4.091-5.974,6.373A27.692,27.692,0,0,0,216.8,99c-.186.507-1,.288-.811-.228l.076-.177A3.791,3.791,0,0,1,214,95.524c-.279-1.894.524-3.66.845-5.486a5.617,5.617,0,0,0-1.411-4.919,5.311,5.311,0,0,0-2.079-1.378,6.651,6.651,0,0,1-2.341-.972c-1.124-.989-1.064-2.628-1.3-3.981a3.7,3.7,0,0,0-.955-2.054A4.308,4.308,0,0,0,204.82,75.7a12.172,12.172,0,0,0-5.205.2,9.673,9.673,0,0,1-5.585-.262A13.246,13.246,0,0,1,190.379,73a16.351,16.351,0,0,0-3.591-2.781,6.6,6.6,0,0,0-4.352-.431c-2.983.642-5.586,2.409-8.551,3.1a7.262,7.262,0,0,1-4.074-.084,8.251,8.251,0,0,1-3.54-2.722,35.732,35.732,0,0,0-3.025-3.643,13.166,13.166,0,0,0-4.622-2.316,7.23,7.23,0,0,1-3.837-2.874,6.279,6.279,0,0,1-.76-4.572c.371-1.7,1.6-2.959,2.56-4.345a6.008,6.008,0,0,0,1.073-2.35,8.633,8.633,0,0,0-.194-2.941c-.33-1.775-.634-3.533.143-5.24a6.906,6.906,0,0,1,3.431-3.321,10.164,10.164,0,0,1,5.628-.66c2.07.288,3.988,1.141,6.033,1.547a7.623,7.623,0,0,0,5.265-.862c1.445-.769,2.746-1.766,4.175-2.561a8.677,8.677,0,0,1,4.385-1.276A11.063,11.063,0,0,1,191,35.888c2.916,1.352,5.8,3.473,9.186,3.026,3.354-.431,6.759-2.823,10.165-1.293,2.45,1.1,3.54,3.787,4.614,6.068a15.667,15.667,0,0,0,2.07,3.525,7.892,7.892,0,0,0,4.225,2.333,11.49,11.49,0,0,1,4.656,2.105,9.348,9.348,0,0,1,2.653,4.023c1.226,3.541.288,7.378-1.419,10.589a7.655,7.655,0,0,1,4.681,4.683c2,5.173-1.326,10.4-4.732,14.089" transform="translate(-7.441)" fill="#191930"/>
      <path id="Path_806" data-name="Path 806" d="M221.563,89.96a13.714,13.714,0,0,1-4.808,5.35v4.04c0,.178,0,.355-.017.533.009.27-.008.54-.025.8a24.133,24.133,0,0,1-2.02,8.478.026.026,0,0,1-.009.017A24.678,24.678,0,0,1,192.14,123.96a24.358,24.358,0,0,1-12.557-3.474,24.65,24.65,0,0,1-12.05-21.138V65.915c.135-.127.2-.2.338-.33a11.587,11.587,0,0,0,7.436-2.806A7.583,7.583,0,0,1,183.25,61.6a11.6,11.6,0,0,0,5.392.981,11.42,11.42,0,0,0,3.473-.786A7.592,7.592,0,0,1,200.8,63.86a11.191,11.191,0,0,0,1.42,1.42,11.735,11.735,0,0,0,3.059,1.842,7.66,7.66,0,0,1,4.817,6.406,9.808,9.808,0,0,0,2.889,6.323A4.782,4.782,0,0,1,220.9,77.62a7.047,7.047,0,0,1,1.9,4.083,13.658,13.658,0,0,1-1.242,8.257" transform="translate(-7.657)" fill="#fce1d0"/>
      <g id="Group_3606" data-name="Group 3606" transform="translate(165.454 79.547)" opacity="0.3">
        <g id="Group_3605" data-name="Group 3605">
          <g id="Group_3604" data-name="Group 3604" clip-path="url(#clip-path)">
            <path id="Path_807" data-name="Path 807" d="M178.354,79.546l5.873,21.442H172.6Z" transform="translate(-172.6 -79.547)" fill="#191930"/>
          </g>
        </g>
      </g>
      <path id="Path_808" data-name="Path 808" d="M217.972,123.413c-1.791,9.559-13.554,21.62-25.266,21.383S177.64,132.11,177.64,132.11l1.445-8.757.465-2.814.034-.051a24.365,24.365,0,0,0,12.557,3.474,24.683,24.683,0,0,0,24.573-23.277h.043Z" transform="translate(-7.838)" fill="#fce1d0"/>
      <path id="Path_809" data-name="Path 809" d="M214.684,109.18c-.169.659-6.624,23.885-36.386,18.949l1.285-7.64a24.365,24.365,0,0,0,12.557,3.474,24.677,24.677,0,0,0,22.544-14.783" transform="translate(-7.797)" fill="#191930"/>
      <g id="Group_3609" data-name="Group 3609" transform="translate(188.624 86.215)" opacity="0.3">
        <g id="Group_3608" data-name="Group 3608">
          <g id="Group_3607" data-name="Group 3607" clip-path="url(#clip-path-2)">
            <path id="Path_810" data-name="Path 810" d="M209.864,92.75a6.534,6.534,0,1,1-6.534-6.536,6.534,6.534,0,0,1,6.534,6.536" transform="translate(-196.797 -86.215)" fill="#191930"/>
          </g>
        </g>
      </g>
      <path id="Path_811" data-name="Path 811" d="M193.308,99.868a8.641,8.641,0,0,1-8.852,5.788c-1.085-.08-1.08,1.611,0,1.69a10.341,10.341,0,0,0,10.482-7.029c.349-1.033-1.283-1.475-1.63-.449" transform="translate(-7.599)" fill="#191930"/>
      <g id="Group_3612" data-name="Group 3612" transform="translate(179.647 74.31)" opacity="0.3">
        <g id="Group_3611" data-name="Group 3611">
          <g id="Group_3610" data-name="Group 3610" clip-path="url(#clip-path-3)">
            <path id="Path_812" data-name="Path 812" d="M195,79.66c0,2.954-1.715,4.971-3.831,4.971s-3.831-2.016-3.831-4.971,1.715-5.35,3.831-5.35S195,76.705,195,79.66" transform="translate(-187.338 -74.31)" fill="#191930"/>
          </g>
        </g>
      </g>
      <path id="Path_813" data-name="Path 813" d="M194.412,80.49c0,2.288-1.452,4.142-3.244,4.142s-3.244-1.854-3.244-4.142,1.452-4.142,3.244-4.142,3.244,1.855,3.244,4.142" transform="translate(-7.696)" fill="#191930"/>
      <path id="Path_814" data-name="Path 814" d="M196.763,70.792a1.63,1.63,0,0,0-1.01-.777l-5.6-.837a1.852,1.852,0,0,0-1.3.17,1.691,1.691,0,0,0-.607,2.313,1.634,1.634,0,0,0,1.01.777l5.6.837a1.853,1.853,0,0,0,1.3-.17,1.691,1.691,0,0,0,.606-2.313" transform="translate(-7.74)" fill="#191930"/>
      <g id="Group_3615" data-name="Group 3615" transform="translate(161.423 74.31)" opacity="0.3">
        <g id="Group_3614" data-name="Group 3614">
          <g id="Group_3613" data-name="Group 3613" clip-path="url(#clip-path-3)">
            <path id="Path_815" data-name="Path 815" d="M176,79.66c0,2.954-1.715,4.971-3.831,4.971s-3.831-2.016-3.831-4.971,1.715-5.35,3.831-5.35S176,76.705,176,79.66" transform="translate(-168.334 -74.31)" fill="#191930"/>
          </g>
        </g>
      </g>
      <path id="Path_816" data-name="Path 816" d="M175.408,80.49c0,2.288-1.452,4.142-3.244,4.142s-3.244-1.854-3.244-4.142,1.452-4.142,3.244-4.142,3.244,1.855,3.244,4.142" transform="translate(-6.917)" fill="#191930"/>
      <path id="Path_817" data-name="Path 817" d="M166.943,71.272a1.63,1.63,0,0,1,1.01-.777l5.6-.837a1.848,1.848,0,0,1,1.3.171,1.69,1.69,0,0,1,.607,2.313,1.636,1.636,0,0,1-1.01.777l-5.6.837a1.854,1.854,0,0,1-1.3-.17,1.691,1.691,0,0,1-.606-2.313" transform="translate(-6.863)" fill="#191930"/>
      <path id="Path_818" data-name="Path 818" d="M183.346,100.391l-10,.1,5.644-20.563a.423.423,0,0,0-.815-.225l-5.792,21.1a.427.427,0,0,0,.407.535l10.554-.1a.423.423,0,0,0,0-.845" transform="translate(-7.133)" fill="#191930"/>
      <path id="Path_819" data-name="Path 819" d="M221.079,80.114a2.34,2.34,0,0,0-2.382-.725,3.4,3.4,0,0,0-2.127,1.93,9.649,9.649,0,0,0-.137,6.746.427.427,0,0,0,.815,0,.8.8,0,0,1,1.181-.22,1.7,1.7,0,0,1,.625,1.375,2.431,2.431,0,0,1-1.97,2.4c-.531.118-.306.934.225.815a3.26,3.26,0,0,0,2.451-4.093,2.08,2.08,0,0,0-1.58-1.49,1.605,1.605,0,0,0-1.133.255,9.355,9.355,0,0,1,0-4.638,3.326,3.326,0,0,1,1.311-2.024,1.587,1.587,0,0,1,2.122.263c.347.419.942-.181.6-.6" transform="translate(-8.819)" fill="#191930"/>
      <path id="Path_820" data-name="Path 820" d="M242.866,203l9.963,79.955H144.05l6.109-106.671L129.33,180.67l-1.006-3.491-10.444-36.14-.456-1.563s22.26-15.18,35-15.07c10.182.085,26.656-1.047,26.656-1.047l-1.444,8.756S180.99,144.564,192.7,144.8s23.474-11.824,25.266-21.383c0,0,27.716,8.452,41.338,19.025s19.266,55.613,19.266,55.613l-2.476.346Z" transform="translate(-7.163)" fill="#fccf86"/>
      <path id="Path_821" data-name="Path 821" d="M279.6,282.949H252.83l-9.963-79.955,33.234-4.6Z" transform="translate(-10.629)" fill="#ed8843"/>
      <path id="Path_822" data-name="Path 822" d="M128.325,177.174c-4.369.879-23.246,4.488-35.727,3.7-5.256-.338-9.388-1.461-10.8-3.887-1.209-2.079-1.935-6.9-2.341-13.084-1.352-20.572.853-56.23.853-56.23s-3.169-22.811-1.758-27.021,5.983-2.7,5.983-2.7c.633-4.345,3.92-3.33,3.92-3.33a3.629,3.629,0,0,1,1.876-3.288c1.749-.829,9.633,3.431,11.425,4.42.237.127.363.2.363.2,2.29-.473,11.864,7.463,11.391,12.678a4.828,4.828,0,0,1-.253,1.1,23.935,23.935,0,0,1-4.267,6.516,117.691,117.691,0,0,1-9.81,10.015l6.81,39.589,11.89-4.818Z" transform="translate(-3.529)" fill="#ed8843"/>
      <g id="Group_3618" data-name="Group 3618" transform="translate(258.262 231.937)" opacity="0.3">
        <g id="Group_3617" data-name="Group 3617">
          <g id="Group_3616" data-name="Group 3616" clip-path="url(#clip-path-5)">
            <path id="Path_823" data-name="Path 823" d="M278.5,256.315c-4.833-.084-8.426-5.608-9.085-11.82-.609-5.84,3.835-11.046,8.077-12.559Z" transform="translate(-269.355 -231.937)" fill="#191930"/>
          </g>
        </g>
      </g>
      <g id="Group_3621" data-name="Group 3621" transform="translate(79.459 162.891)" opacity="0.3">
        <g id="Group_3620" data-name="Group 3620">
          <g id="Group_3619" data-name="Group 3619" clip-path="url(#clip-path-6)">
            <path id="Path_824" data-name="Path 824" d="M94.483,174.36a11.992,11.992,0,0,1-1.885,6.516c-5.256-.338-9.388-1.461-10.8-3.887-1.208-2.079-1.934-6.9-2.34-13.084a9.938,9.938,0,0,1,4.377-1.014c5.882,0,10.647,5.131,10.647,11.469" transform="translate(-79.459 -162.891)" fill="#191930"/>
          </g>
        </g>
      </g>
      <path id="Path_825" data-name="Path 825" d="M103.874,131.549q-.732-4.142-1.463-8.283c-.094-.534-.908-.308-.815.225q2.579,14.6,5.157,29.2.732,4.141,1.463,8.282c.1.535.909.308.815-.225q-2.578-14.6-5.157-29.2" transform="translate(-4.169)" fill="#191930"/>
      <path id="Path_826" data-name="Path 826" d="M152.459,151.038q-1.925,12.519-2.633,25.182c-.03.543.815.542.845,0q.7-12.534,2.6-24.957c.082-.532-.732-.761-.815-.225" transform="translate(-6.096)" fill="#191930"/>
      <path id="Path_827" data-name="Path 827" d="M273.683,197.974l-32.015,4.97-8.635,1.342-2.766-24.817-.793-7.118c-.059-.533-.906-.556-.845-.016l2.824,25.333.793,7.118a.472.472,0,0,0,.644.375l31.93-4.958,9.073-1.409c.537-.083.326-.9-.209-.818" transform="translate(-10.211)" fill="#191930"/>
      <path id="Path_828" data-name="Path 828" d="M105.814,88.058a11.741,11.741,0,0,0-3.76.38,11.453,11.453,0,0,0-4.2,2.079,11.787,11.787,0,0,0-4.14,6.618c-.118.532-.939.3-.82-.22A12.55,12.55,0,0,1,105,87.2c-.7-1.014-1.394-2.028-2.1-3.051a20.469,20.469,0,0,1-2.155-3.415,4.23,4.23,0,0,1-.237-3.144,3.126,3.126,0,0,1,.829-1.276,2.559,2.559,0,0,1,1.022-.584.421.421,0,0,1,.219.812,1.845,1.845,0,0,0-.685.4,2.512,2.512,0,0,0-.743,1.581,4.74,4.74,0,0,0,.93,2.915c1.267,2.054,2.72,4,4.09,5.984a.425.425,0,0,1-.363.633" transform="translate(-3.86)" fill="#191930"/>
      <path id="Path_829" data-name="Path 829" d="M98.093,81.417a.423.423,0,0,0-.729.427,1.286,1.286,0,0,1-.13,1.448,1.628,1.628,0,0,1-1.851.243,9,9,0,0,1-2.965-2.3c-.057-.06-.109-.126-.164-.188-.009-.021-.015-.043-.025-.063a.34.34,0,0,0-.2-.2,13.394,13.394,0,0,1-2.94-6.024c-.109-.532-.924-.307-.815.225a14.218,14.218,0,0,0,3.031,6.26c.07.084.154.154.226.236a11.659,11.659,0,0,1,.961,5.537,1.667,1.667,0,0,1-1.361,1.7,2.748,2.748,0,0,1-2.233-.987,34.312,34.312,0,0,0-1.124-3.768,35.828,35.828,0,0,0-2.686-5.794.423.423,0,0,0-.729.426,34.614,34.614,0,0,1,3.6,8.873c.34,1.356,1.08,3.429.059,4.648-1.109,1.322-2.961.206-3.9-.708a9.505,9.505,0,0,1-2.5-4.245.423.423,0,0,0-.815.225A10.425,10.425,0,0,0,83.219,91.7c1.073,1.146,2.622,2.227,4.27,1.721,1.681-.517,2-2.321,1.771-3.849-.026-.181-.067-.361-.1-.542a3.091,3.091,0,0,0,1.851.545,2.346,2.346,0,0,0,2.176-1.713,8.131,8.131,0,0,0,.051-3.322,12.983,12.983,0,0,0-.36-1.728,13.065,13.065,0,0,0,1.06.854,3.284,3.284,0,0,0,3.385.614,2.116,2.116,0,0,0,.771-2.871" transform="translate(-3.388)" fill="#191930"/>
      <path id="Path_830" data-name="Path 830" d="M105,87.205a12.455,12.455,0,0,0-3.558.549L84.089,68.214l-1.7-7.573,7.317,2.578,11.636,13.1a3.112,3.112,0,0,0-.828,1.276,4.23,4.23,0,0,0,.236,3.144,20.6,20.6,0,0,0,2.155,3.415c.7,1.022,1.394,2.037,2.1,3.051" transform="translate(-3.494)" fill="#f29f05"/>
      <path id="Path_831" data-name="Path 831" d="M113.368,101.175l-4.377-4.927a23.944,23.944,0,0,0,4.267-6.516l5.728,6.449-5.619,5" transform="translate(-4.497)" fill="#f29f05"/>
      <path id="Path_832" data-name="Path 832" d="M84.087,68.214l5.62-4.993-7.318-2.579Z" fill="#191930"/>
      <path id="Path_833" data-name="Path 833" d="M118.391,95.694a9.635,9.635,0,0,0-5.614,4.532c-.263.476.467.9.729.426a8.774,8.774,0,0,1,5.109-4.144.423.423,0,0,0-.225-.815" transform="translate(-4.613)" fill="#191930"/>
      <path id="Path_834" data-name="Path 834" d="M79.787,57.861a.422.422,0,0,1-.111-.83q1.231-.335,2.478-.621a.423.423,0,1,1,.188.824q-1.23.282-2.444.612a.392.392,0,0,1-.111.015" fill="#191930"/>
      <path id="Path_835" data-name="Path 835" d="M106.363,207.53c-1.268,0-2.553-.032-3.816-.1a.394.394,0,0,1-.278-.137.432.432,0,0,1-.1-.3.418.418,0,0,1,.128-.3.379.379,0,0,1,.293-.1c1.595.079,3.21.106,4.806.087a.366.366,0,0,1,.3.111.4.4,0,0,1,.112.307.432.432,0,0,1-.115.3.393.393,0,0,1-.284.126q-.517.007-1.034.007m5.853-.227a.425.425,0,0,1-.03-.844l.16-.012c1.537-.123,3.092-.292,4.623-.5a.408.408,0,0,1,.453.364.42.42,0,0,1-.347.475c-1.545.213-3.117.385-4.668.509l-.162.012h-.031m-14.468-.255H97.71c-1.6-.178-3.215-.41-4.81-.688a.421.421,0,0,1-.331-.486.405.405,0,0,1,.464-.347c1.58.275,3.182.5,4.762.68a.415.415,0,0,1,.382.443.41.41,0,0,1-.423.4m24.039-1.063a.412.412,0,0,1-.4-.384.421.421,0,0,1,.324-.454c1.55-.306,3.132-.664,4.7-1.064a.4.4,0,0,1,.487.311.424.424,0,0,1-.3.51c-1.582.4-3.177.765-4.741,1.074a.363.363,0,0,1-.075.007m-33.569-.6a.365.365,0,0,1-.089-.011c-1.566-.371-3.148-.8-4.7-1.267a.426.426,0,0,1-.276-.523.4.4,0,0,1,.5-.29c1.538.465,3.1.887,4.655,1.256a.422.422,0,0,1,.31.459.411.411,0,0,1-.4.376m42.951-1.8a.41.41,0,0,1-.4-.362.424.424,0,0,1,.283-.466c1.521-.476,3.059-1,4.573-1.562a.4.4,0,0,1,.516.259.429.429,0,0,1-.248.541c-1.526.565-3.078,1.094-4.61,1.574a.4.4,0,0,1-.116.018m-52.231-1a.392.392,0,0,1-.134-.023c-1.526-.561-3.046-1.177-4.529-1.829a.43.43,0,0,1-.216-.553.4.4,0,0,1,.528-.226c1.469.645,2.978,1.254,4.484,1.81a.426.426,0,0,1,.261.469.41.41,0,0,1-.395.352m61.339-2.358a.409.409,0,0,1-.4-.342.427.427,0,0,1,.244-.473c1.46-.619,2.947-1.291,4.418-2a.4.4,0,0,1,.525.213.432.432,0,0,1-.19.556c-1.482.71-2.98,1.387-4.451,2.013a.4.4,0,0,1-.152.03m-70.246-1.552a.391.391,0,0,1-.177-.043c-1.456-.749-2.9-1.546-4.293-2.372a.435.435,0,0,1-.14-.568.394.394,0,0,1,.537-.168c1.379.818,2.809,1.607,4.252,2.348a.43.43,0,0,1,.21.473.408.408,0,0,1-.388.327m79.028-2.655a.407.407,0,0,1-.395-.324.429.429,0,0,1,.213-.476c1.408-.752,2.837-1.551,4.249-2.375a.393.393,0,0,1,.548.163.433.433,0,0,1-.156.574c-1.419.831-2.862,1.635-4.276,2.39a.386.386,0,0,1-.183.046M61.63,193.692a.4.4,0,0,1-.219-.068c-1.361-.928-2.7-1.9-3.99-2.9a.435.435,0,0,1-.086-.59.391.391,0,0,1,.563-.09c1.273.986,2.6,1.95,3.951,2.867a.433.433,0,0,1,.168.475.407.407,0,0,1-.387.3m95.871-2.6a.407.407,0,0,1-.389-.309.432.432,0,0,1,.18-.476c1.362-.866,2.733-1.774,4.073-2.7a.392.392,0,0,1,.549.128.436.436,0,0,1-.106.579c-1.348.927-2.726,1.839-4.1,2.711a.393.393,0,0,1-.209.062m-103.636-3.41a.389.389,0,0,1-.259-.1c-1.24-1.092-2.454-2.235-3.615-3.4a.437.437,0,0,1-.012-.6.391.391,0,0,1,.571-.013c1.145,1.152,2.35,2.283,3.575,3.363a.436.436,0,0,1,.119.468.4.4,0,0,1-.378.278M165.58,185.54a.406.406,0,0,1-.383-.3.434.434,0,0,1,.151-.473c1.306-.961,2.619-1.96,3.9-2.968a.391.391,0,0,1,.55.1.437.437,0,0,1-.068.581c-1.288,1.013-2.607,2.016-3.921,2.983a.385.385,0,0,1-.231.076M46.892,180.675a.394.394,0,0,1-.3-.137l-.493-.57c-.911-1.063-1.812-2.173-2.671-3.3a.437.437,0,0,1,.074-.58.391.391,0,0,1,.556.052c.848,1.112,1.734,2.209,2.637,3.26l.488.566a.438.438,0,0,1,.071.455.4.4,0,0,1-.369.252m126.422-1.2a.405.405,0,0,1-.381-.284.436.436,0,0,1,.13-.47c1.246-1.038,2.5-2.115,3.731-3.2a.391.391,0,0,1,.568.052.437.437,0,0,1-.049.6c-1.235,1.089-2.5,2.172-3.748,3.215a.39.39,0,0,1-.251.092m7.4-6.518a.4.4,0,0,1-.377-.273.436.436,0,0,1,.111-.466c1.184-1.1,2.385-2.244,3.57-3.4a.391.391,0,0,1,.57.022.438.438,0,0,1-.021.6c-1.19,1.16-2.4,2.308-3.586,3.413a.39.39,0,0,1-.267.106m-139.848-.183a.4.4,0,0,1-.33-.181c-.918-1.381-1.808-2.817-2.644-4.27a.434.434,0,0,1,.136-.58.393.393,0,0,1,.553.143c.829,1.438,1.709,2.859,2.617,4.224a.439.439,0,0,1,.027.437.4.4,0,0,1-.358.227m146.926-6.718a.4.4,0,0,1-.373-.263.437.437,0,0,1,.093-.462q1.727-1.765,3.421-3.564a.39.39,0,0,1,.556.012.438.438,0,0,1,.016.583q-1.7,1.8-3.434,3.575a.392.392,0,0,1-.286.12M35.866,164.107a.4.4,0,0,1-.358-.228c-.743-1.5-1.45-3.04-2.1-4.589a.43.43,0,0,1,.206-.557.4.4,0,0,1,.531.215c.646,1.532,1.346,3.06,2.081,4.541a.44.44,0,0,1,.027.322.417.417,0,0,1-.2.248.379.379,0,0,1-.185.048m158.712-5.258a.4.4,0,0,1-.371-.256.437.437,0,0,1,.08-.458q1.666-1.83,3.305-3.685a.39.39,0,0,1,.569-.022.437.437,0,0,1,.021.6q-1.644,1.86-3.314,3.694a.4.4,0,0,1-.291.131m-162.617-4a.4.4,0,0,1-.382-.277c-.559-1.588-1.077-3.213-1.538-4.829a.426.426,0,0,1,.275-.511.4.4,0,0,1,.5.269c.456,1.6.968,3.208,1.521,4.779a.428.428,0,0,1-.238.542.366.366,0,0,1-.139.026m169.187-3.426a.389.389,0,0,1-.27-.109.437.437,0,0,1-.03-.6q1.622-1.877,3.217-3.773a.39.39,0,0,1,.569-.035.437.437,0,0,1,.034.6q-1.6,1.9-3.221,3.779a.394.394,0,0,1-.3.139M29.2,145.149a.409.409,0,0,1-.393-.328c-.364-1.651-.683-3.331-.945-4.993a.421.421,0,0,1,.332-.486.406.406,0,0,1,.464.348c.259,1.643.572,3.307.936,4.941a.424.424,0,0,1-.3.507.4.4,0,0,1-.1.011m178.355-1.312a.4.4,0,0,1-.367-.247.438.438,0,0,1,.064-.453q1.584-1.909,3.155-3.832a.39.39,0,0,1,.559-.034.437.437,0,0,1,.054.584q-1.574,1.923-3.159,3.837a.392.392,0,0,1-.3.145m213.683-1.82a.38.38,0,0,1-.158-.034.431.431,0,0,1-.213-.554c.622-1.531,1.185-3.115,1.671-4.708a.4.4,0,0,1,.5-.257.427.427,0,0,1,.266.515c-.5,1.618-1.066,3.227-1.7,4.781a.4.4,0,0,1-.371.257M213.843,136.15a.4.4,0,0,1-.369-.246.438.438,0,0,1,.063-.454q1.564-1.929,3.123-3.862a.4.4,0,0,1,.385-.159.409.409,0,0,1,.316.281.438.438,0,0,1-.086.425q-1.562,1.933-3.125,3.864a.4.4,0,0,1-.307.149m-186.225-.988a.41.41,0,0,1-.4-.379c-.162-1.682-.272-3.391-.328-5.081a.434.434,0,0,1,.108-.3.4.4,0,0,1,.281-.134.381.381,0,0,1,.292.109.419.419,0,0,1,.125.3c.055,1.672.165,3.362.324,5.025a.417.417,0,0,1-.361.462h-.041m396.569-2.777a.407.407,0,0,1-.088-.01.424.424,0,0,1-.305-.5c.346-1.618.631-3.282.846-4.949a.407.407,0,0,1,.454-.362.419.419,0,0,1,.345.476c-.217,1.69-.507,3.379-.859,5.02a.409.409,0,0,1-.394.33m-204.1-3.966a.4.4,0,0,1-.371-.245.438.438,0,0,1,.063-.455q1.56-1.934,3.123-3.866a.394.394,0,0,1,.384-.153.41.41,0,0,1,.313.279.438.438,0,0,1-.082.422q-1.563,1.929-3.122,3.864a.393.393,0,0,1-.307.15m-192.8-3.363h-.012a.415.415,0,0,1-.39-.436c.052-1.695.159-3.4.32-5.081a.4.4,0,1,1,.8.084c-.158,1.658-.264,3.349-.314,5.024a.413.413,0,0,1-.4.409m398.2-2.686h-.022a.4.4,0,0,1-.279-.139.435.435,0,0,1-.1-.3c.053-1.078.08-2.185.08-3.29,0-.581-.007-1.16-.022-1.741a.415.415,0,0,1,.392-.433h.011a.413.413,0,0,1,.4.411c.014.588.023,1.177.022,1.764,0,1.119-.028,2.24-.082,3.333a.412.412,0,0,1-.4.4M226.34,120.7a.4.4,0,0,1-.369-.246.438.438,0,0,1,.063-.454q1.572-1.925,3.153-3.841a.39.39,0,0,1,.568-.043.436.436,0,0,1,.041.6q-1.581,1.914-3.148,3.838a.4.4,0,0,1-.306.148M28.255,114.976a.364.364,0,0,1-.069-.007.4.4,0,0,1-.261-.172.438.438,0,0,1-.069-.315c.273-1.673.607-3.35.992-4.988a.4.4,0,0,1,.487-.31.424.424,0,0,1,.3.51c-.382,1.618-.711,3.276-.98,4.928a.411.411,0,0,1-.4.352m204.411-1.931a.4.4,0,0,1-.365-.248.438.438,0,0,1,.064-.452q1.6-1.9,3.211-3.789a.394.394,0,0,1,.39-.15.411.411,0,0,1,.309.291.437.437,0,0,1-.1.423q-1.61,1.882-3.2,3.782a.394.394,0,0,1-.3.143m192.564-.8a.41.41,0,0,1-.4-.379c-.162-1.651-.388-3.329-.668-4.985a.435.435,0,0,1,.129-.413.389.389,0,0,1,.408-.076.42.42,0,0,1,.257.341c.286,1.677.512,3.376.677,5.046a.419.419,0,0,1-.359.464h-.042m-186.1-6.733a.4.4,0,0,1-.369-.252.438.438,0,0,1,.073-.456q1.638-1.866,3.3-3.707a.39.39,0,0,1,.559,0,.438.438,0,0,1,.027.585q-1.663,1.836-3.293,3.7a.4.4,0,0,1-.3.137m-208.563-.36a.394.394,0,0,1-.125-.021.409.409,0,0,1-.234-.21.441.441,0,0,1-.023-.323c.5-1.606,1.064-3.215,1.673-4.782a.4.4,0,0,1,.525-.231.43.43,0,0,1,.221.55c-.6,1.549-1.159,3.139-1.653,4.725a.407.407,0,0,1-.382.291m392.977-2.874a.407.407,0,0,1-.39-.319c-.39-1.618-.84-3.244-1.335-4.837a.438.438,0,0,1,.067-.432.392.392,0,0,1,.4-.137.412.412,0,0,1,.3.306c.506,1.61.962,3.256,1.356,4.892a.439.439,0,0,1-.044.32.4.4,0,0,1-.247.194.394.394,0,0,1-.1.013m-177.78-4.117a.4.4,0,0,1-.37-.26.438.438,0,0,1,.084-.459q1.69-1.809,3.418-3.591a.391.391,0,0,1,.4-.124.413.413,0,0,1,.291.309.435.435,0,0,1-.123.415q-1.717,1.776-3.407,3.58a.394.394,0,0,1-.286.127M34.212,95.779a.383.383,0,0,1-.178-.044.415.415,0,0,1-.2-.243.44.44,0,0,1,.02-.322c.711-1.51,1.486-3.019,2.3-4.485a.393.393,0,0,1,.551-.151.434.434,0,0,1,.145.577c-.807,1.45-1.574,2.941-2.276,4.433a.4.4,0,0,1-.362.235m386.319-3.124a.4.4,0,0,1-.374-.264c-.6-1.549-1.261-3.1-1.961-4.6a.432.432,0,0,1,.194-.545.394.394,0,0,1,.53.174c.708,1.519,1.375,3.083,1.983,4.65a.441.441,0,0,1-.039.394.4.4,0,0,1-.333.188m-167.87-1.6a.4.4,0,0,1-.375-.266.437.437,0,0,1,.1-.463q1.759-1.743,3.551-3.448a.39.39,0,0,1,.569.03.437.437,0,0,1-.028.6q-1.785,1.7-3.537,3.436a.394.394,0,0,1-.278.115M39.08,87.038a.384.384,0,0,1-.227-.073.436.436,0,0,1-.107-.587c.909-1.4,1.874-2.784,2.868-4.112a.391.391,0,0,1,.557-.059.437.437,0,0,1,.077.581c-.983,1.313-1.937,2.681-2.835,4.066a.4.4,0,0,1-.333.185m220.738-2.784a.4.4,0,0,1-.376-.275.437.437,0,0,1,.112-.466c1.227-1.116,2.469-2.221,3.692-3.283a.39.39,0,0,1,.567.056.436.436,0,0,1-.053.594c-1.219,1.058-2.456,2.159-3.677,3.271a.389.389,0,0,1-.264.1m156.471-.692a.4.4,0,0,1-.348-.211c-.8-1.452-1.657-2.888-2.546-4.268a.436.436,0,0,1,.12-.569.391.391,0,0,1,.548.1c.9,1.4,1.767,2.85,2.576,4.319a.44.44,0,0,1,0,.423.4.4,0,0,1-.349.211M45.038,79.072a.4.4,0,0,1-.364-.249.438.438,0,0,1,.064-.451c1.078-1.256,2.211-2.49,3.369-3.669a.39.39,0,0,1,.564.015.438.438,0,0,1,0,.592c-1.145,1.165-2.266,2.385-3.331,3.627a.4.4,0,0,1-.3.139M267.26,77.8a.4.4,0,0,1-.382-.284.434.434,0,0,1,.133-.471c1.268-1.049,2.56-2.089,3.839-3.093a.391.391,0,0,1,.565.085.437.437,0,0,1-.081.592c-1.275,1-2.56,2.035-3.823,3.081a.392.392,0,0,1-.25.09m143.626-2.618a.4.4,0,0,1-.317-.161c-.985-1.319-2.029-2.612-3.1-3.843a.437.437,0,0,1,.027-.6.391.391,0,0,1,.57.029c1.082,1.246,2.137,2.555,3.136,3.89a.439.439,0,0,1,.046.445.4.4,0,0,1-.362.238M51.966,72.023a.4.4,0,0,1-.38-.277.436.436,0,0,1,.118-.469c1.233-1.094,2.516-2.156,3.816-3.154a.389.389,0,0,1,.411-.063.422.422,0,0,1,.246.351A.43.43,0,0,1,56,68.8c-1.282.987-2.55,2.036-3.77,3.119a.393.393,0,0,1-.26.1M275,71.723a.406.406,0,0,1-.384-.295.434.434,0,0,1,.151-.473c1.327-.984,2.671-1.951,3.991-2.875a.389.389,0,0,1,.421-.056.432.432,0,0,1,.026.756c-1.316.92-2.654,1.883-3.973,2.862a.388.388,0,0,1-.233.078m129.39-4.03a.393.393,0,0,1-.278-.115c-.785-.778-1.6-1.545-2.424-2.277q-.591-.525-1.189-1.035a.438.438,0,0,1-.046-.583.391.391,0,0,1,.554-.073q.606.516,1.2,1.047c.834.742,1.661,1.518,2.457,2.307a.439.439,0,0,1,.015.6.391.391,0,0,1-.293.132M283.033,66.108a.406.406,0,0,1-.388-.306.432.432,0,0,1,.175-.475c1.374-.9,2.766-1.782,4.147-2.624a.394.394,0,0,1,.537.161.435.435,0,0,1-.13.569c-1.372.837-2.76,1.716-4.126,2.611a.389.389,0,0,1-.214.064M59.746,66.033a.407.407,0,0,1-.386-.306.433.433,0,0,1,.171-.474c1.372-.908,2.785-1.77,4.2-2.565a.4.4,0,0,1,.547.173.434.434,0,0,1-.165.573c-1.4.784-2.792,1.636-4.149,2.534a.389.389,0,0,1-.215.065M396.9,61.3a.386.386,0,0,1-.233-.078c-1.294-.959-2.644-1.892-4.007-2.772a.436.436,0,0,1-.119-.573.393.393,0,0,1,.542-.147c1.379.889,2.744,1.831,4.051,2.8a.434.434,0,0,1,.151.473.406.406,0,0,1-.384.295m-328.646-.04a.409.409,0,0,1-.394-.335.429.429,0,0,1,.23-.474c1.483-.691,3-1.327,4.512-1.892a.4.4,0,0,1,.517.258.43.43,0,0,1-.247.541c-1.492.559-2.992,1.188-4.455,1.869a.385.385,0,0,1-.164.037m223.127-.247a.406.406,0,0,1-.393-.319.43.43,0,0,1,.2-.476c1.424-.806,2.87-1.594,4.3-2.339a.4.4,0,0,1,.525.2.433.433,0,0,1-.167.559c-1.42.741-2.862,1.523-4.276,2.325a.383.383,0,0,1-.191.051m8.649-4.507a.407.407,0,0,1-.4-.333.428.428,0,0,1,.229-.474c1.479-.7,2.973-1.382,4.448-2.016a.4.4,0,0,1,.525.231.43.43,0,0,1-.221.551c-1.462.63-2.95,1.3-4.419,2a.385.385,0,0,1-.167.037m88.643-.5a.4.4,0,0,1-.191-.049c-1.4-.781-2.854-1.53-4.312-2.224a.433.433,0,0,1-.182-.551.4.4,0,0,1,.515-.218c1.472.7,2.937,1.457,4.356,2.246a.43.43,0,0,1,.209.48.407.407,0,0,1-.4.32m-79.7-3.348a.408.408,0,0,1-.4-.348.425.425,0,0,1,.26-.471c1.518-.584,3.06-1.141,4.579-1.655a.4.4,0,0,1,.508.272.427.427,0,0,1-.26.533c-1.512.51-3.044,1.064-4.551,1.643a.386.386,0,0,1-.138.026m70.919-.849a.409.409,0,0,1-.145-.028c-1.477-.6-3-1.16-4.533-1.676a.429.429,0,0,1-.226-.518.4.4,0,0,1,.472-.282c1.546.52,3.087,1.089,4.579,1.691a.427.427,0,0,1,.252.472.409.409,0,0,1-.4.346M318.162,49.56a.411.411,0,0,1-.4-.365.424.424,0,0,1,.287-.464l.235-.068c1.469-.425,2.972-.824,4.466-1.182a.4.4,0,0,1,.466.322.425.425,0,0,1-.286.5c-1.482.356-2.973.751-4.432,1.173l-.231.068a.365.365,0,0,1-.109.015M370.7,48.72a.365.365,0,0,1-.1-.014c-1.537-.421-3.113-.8-4.686-1.144a.424.424,0,0,1-.3-.5.405.405,0,0,1,.46-.332c1.586.341,3.177.73,4.726,1.154a.423.423,0,0,1,.3.463.411.411,0,0,1-.4.369M327.577,47.3a.411.411,0,0,1-.4-.385.42.42,0,0,1,.329-.454c1.587-.3,3.2-.569,4.791-.794a.408.408,0,0,1,.439.365.421.421,0,0,1-.332.473c-1.58.223-3.179.488-4.753.788a.345.345,0,0,1-.072.007m33.662-.615a.341.341,0,0,1-.061-.005c-1.569-.25-3.176-.462-4.77-.632a.423.423,0,0,1,.082-.841c1.611.171,3.231.386,4.813.638a.419.419,0,0,1,.335.448.412.412,0,0,1-.394.392m-24.092-.738a.425.425,0,0,1-.034-.844c1.6-.148,3.23-.26,4.838-.331a.371.371,0,0,1,.295.1.409.409,0,0,1,.125.3.416.416,0,0,1-.382.44c-1.6.071-3.212.181-4.8.329h-.036m14.48-.283h-.021c-1.587-.087-3.205-.136-4.809-.143a.423.423,0,0,1,0-.846h0c1.622.008,3.248.057,4.849.144a.424.424,0,0,1-.021.845" fill="#191930"/>
      <path id="Path_836" data-name="Path 836" d="M436.758,148.852a.422.422,0,0,1-.361-.643c.433-.708.856-1.441,1.259-2.178a.422.422,0,1,1,.74.405c-.408.749-.837,1.494-1.278,2.214a.423.423,0,0,1-.36.2" transform="translate(-19.268)" fill="#191930"/>
      <path id="Path_837" data-name="Path 837" d="M461.322,149.411l-24.835,58.765-40.475-.211,5-12.923,17.669-45.631Z" transform="translate(-19.268)" fill="#39c9a6"/>
      <path id="Path_838" data-name="Path 838" d="M423.508,207.027l-.084.084C420.365,210,406.506,214,406.506,214l-62.894,11.292-2.991-17.115-2.865-16.422c3.338-3.524,6.752-7.285,10.089-11.072l5.882,22.043,1.732,5.239H403c1.943-4.428,8.813-3.346,8.813-3.346s1.995-15.416,4.048-15.56,1.529,11.275,1.529,11.275,2.822-11.689,4.758-11.571.33,10.978.33,10.978,5.408-10.336,7.994-9.863c2.552.457-3.87,14.072-6.963,17.148" transform="translate(-19.268)" fill="#ffb98a"/>
      <path id="Path_839" data-name="Path 839" d="M259.183,283.27l4.579-65.434-6.4-40.307v-.009c-7.326-8.02-14.052-17.073-14.449-23.513-.879-14.41,10.774-22.761,10.774-22.761.507-.27,1.006-.532,1.5-.777.043-.026.093-.043.136-.068.313-.152.617-.3.921-.439.5-.228,1-.448,1.487-.651,7.656-3.194,14.383-3.389,22.106-4.572a.779.779,0,0,0,.136-.017s.261.169.735.456c3.271,2.021,16.528,10.05,21.438,10.3,5.628.3,4.834-7.868,4.834-7.868l-.186-1.48v-.016s.371.008,1.039.042c3.726.161,16.655.955,24.513,4.463.194.084.388.169.583.262.354.169.7.338,1.03.524a11.5,11.5,0,0,1,3.169,2.426A49.6,49.6,0,0,1,346.06,149.4v.008l-1.783,33.351a29.217,29.217,0,0,1-2.2,9.889,16.347,16.347,0,0,1-3.27,5.215l1.808,10.311,2.991,17.115,10.115,57.979Z" transform="translate(-12.781)" fill="#ff5a5a"/>
      <path id="Path_840" data-name="Path 840" d="M389.281,121.941S395.8,138.38,392.4,143.13c-2.965,4.141-18.1,7.94-22.39,9.182l.085.288c-.381.49-22.248,28.075-22.248,28.075v.009c-3.338,3.786-6.751,7.548-10.089,11.072a158.152,158.152,0,0,1-15.27,14.512c-3.76,2.975-6.853,4.717-8.846,4.6a33.755,33.755,0,0,1-10.2-2.915c-9.718-4.1-21.108-11.36-25.434-14.208l21.767-27.773,13.554,10.988,32.735-27.545V149.4l13.865-11.349.009-.009c3.489-5.46,11.769-19.8,13.407-20.355,1.986-.676,5.383.423,5.383.423s25.08-15.2,26.424-11.055-15.869,14.883-15.869,14.883" transform="translate(-15.314)" fill="#ffb98a"/>
      <path id="Path_841" data-name="Path 841" d="M401.014,195.043l-5,12.922H341.83l12.277-4.091,26.559-8.832Z" transform="translate(-15.764)" fill="#39c9a6"/>
      <g id="Group_3624" data-name="Group 3624" transform="translate(290.674 199.082)" opacity="0.3">
        <g id="Group_3623" data-name="Group 3623">
          <g id="Group_3622" data-name="Group 3622" clip-path="url(#clip-path-7)">
            <path id="Path_842" data-name="Path 842" d="M322.487,206.266c-3.76,2.976-6.853,4.717-8.847,4.6a33.77,33.77,0,0,1-10.2-2.916,9.708,9.708,0,0,1,19.046-1.682" transform="translate(-303.441 -199.082)" fill="#191930"/>
          </g>
        </g>
      </g>
      <path id="Path_843" data-name="Path 843" d="M341.092,152.786,316.123,174.6l-7,6.113c-.409.359.19.955.6.6l24.97-21.814,7-6.114c.41-.358-.189-.954-.6-.6" transform="translate(-13.404)" fill="#191930"/>
      <path id="Path_844" data-name="Path 844" d="M352.234,175.488a227.981,227.981,0,0,1-18.919,20.7q-2.848,2.753-5.789,5.4c-.4.365.2.961.6.6a227.992,227.992,0,0,0,19.63-20.031q2.591-2.995,5.077-6.078c.338-.419-.255-1.021-.6-.6" transform="translate(-13.973)" fill="#191930"/>
      <path id="Path_845" data-name="Path 845" d="M401.82,206.724H348.34a.423.423,0,1,0,0,.846h53.48a.423.423,0,0,0,0-.846" transform="translate(-15.86)" fill="#191930"/>
      <path id="Path_846" data-name="Path 846" d="M419.458,150.52,411.3,171.559,403.179,192.5l-4.612,11.9c-.2.507.62.727.815.225l8.157-21.039,8.12-20.941,4.612-11.9c.2-.507-.619-.727-.815-.225" transform="translate(-19.268)" fill="#191930"/>
      <path id="Path_847" data-name="Path 847" d="M334.048,159.3,323.7,143.8c-.3-.451-1.033-.027-.729.426l10.349,15.5c.3.45,1.033.027.729-.426" transform="translate(-13.357)" fill="#191930"/>
      <path id="Path_848" data-name="Path 848" d="M302.626,162.985a.4.4,0,0,0-.084-.417,158.223,158.223,0,0,0-17.164-16.122c-.419-.338-1.021.255-.6.6a158.1,158.1,0,0,1,17.055,16.009L282.226,187.69l-5.282,6.636A247.843,247.843,0,0,1,253.6,172.007c-3.422-3.73-7.02-7.6-8.942-12.364a21.51,21.51,0,0,1-.138-15.054,28.617,28.617,0,0,1,9.528-12.806c.427-.336-.175-.931-.6-.6a29.986,29.986,0,0,0-8.981,11.254,23.053,23.053,0,0,0-1.384,15.167c1.334,4.977,4.614,9.091,7.983,12.866q2.821,3.159,5.76,6.212a.421.421,0,0,0-.051.273l3.23,21.021q.463,3.019.928,6.036c.082.536.9.308.815-.225q-1.616-10.511-3.23-21.022-.4-2.582-.793-5.164,2.381,2.452,4.824,4.843,6.744,6.577,13.978,12.628a.328.328,0,0,0,.052.028c.087.289.437.489.671.2L297,170.477q2.788-3.5,5.579-7.008a.442.442,0,0,0,.048-.484" transform="translate(-11.208)" fill="#191930"/>
      <path id="Path_849" data-name="Path 849" d="M302.148,135.482c-5.619-.288-22.753-10.609-22.753-10.609,1.918-2.78,3.834-8.66,4.4-11.991.092-.557.169-1.124.219-1.69a22.59,22.59,0,0,0,17.238,8h1.792a21.8,21.8,0,0,0,3.177-.228l.575,7.151.186,1.5s.8,8.164-4.833,7.868" transform="translate(-11.98)" fill="#fce1d0"/>
      <path id="Path_850" data-name="Path 850" d="M306.8,126.117c-16.815.414-22.6-14.538-22.773-14.918a22.591,22.591,0,0,0,17.229,8h1.792a21.805,21.805,0,0,0,3.177-.228Z" transform="translate(-12.048)" fill="#191930"/>
      <path id="Path_851" data-name="Path 851" d="M324.341,74.69V97.93a21.568,21.568,0,0,1-18.483,21.285,20.709,20.709,0,0,1-3.013.217h-1.7a21.421,21.421,0,0,1-16.337-7.581l-.008-.007a26.377,26.377,0,0,0-5.144-17.879V93.94a.117.117,0,0,1-.032-.024,12.272,12.272,0,0,1-5.568-12.4,6.524,6.524,0,0,1,1.722-3.71,4.439,4.439,0,0,1,3.878-1.09,2.874,2.874,0,0,1,.521.128,4.26,4.26,0,0,1,1.65,1.05l.113-.12a25.489,25.489,0,0,0,15.5-18.431l.144.024A20.28,20.28,0,0,1,324.341,74.69" transform="translate(-12.372)" fill="#fce1d0"/>
      <path id="Path_852" data-name="Path 852" d="M343.35,80.689a18.45,18.45,0,0,0-7.487-3.178,22.227,22.227,0,0,0,3.972-9.3c.481-3.567-.482-7.471-3.152-9.88-2.476-2.231-5.94-2.882-9.075-4.031-5.6-2.062-10.36-5.849-15.354-9.12s-10.639-6.11-16.6-5.89c-5.965.236-12.117,4.547-12.531,10.5a14.245,14.245,0,0,0-22.055,9.72c-.54,3.6.3,7.336-.161,10.929-1.842,5.24-7.055,9.094-10.884,12.9a21.5,21.5,0,0,0-5.687,8.393c-.963,3.017-.921,6.66,1.023,9.3a7.825,7.825,0,0,0,6.574,3.28,16.052,16.052,0,0,0-.2,23.327,17.675,17.675,0,0,0,12.9,5.147,19.569,19.569,0,0,0,13.445-5.916,18.509,18.509,0,0,0,1.766-2.13,20.894,20.894,0,0,0,2.823-5.367,21.667,21.667,0,0,0,1.926-5.925c.092-.532.16-1.064.211-1.605a26.368,26.368,0,0,0-5.146-17.876.076.076,0,0,0-.025-.051,12.238,12.238,0,0,1-5.569-12.4,6.518,6.518,0,0,1,1.716-3.71,4.443,4.443,0,0,1,3.878-1.091,3.711,3.711,0,0,1,.524.127,4.321,4.321,0,0,1,1.647,1.056l.118-.126a25.474,25.474,0,0,0,15.422-18.121c2.518,3.727,7.056,5.773,11.264,7.184A66.963,66.963,0,0,1,317.3,70a16.314,16.314,0,0,1,6.473,5.493c.2.3.389.6.567.913V97.93a21.557,21.557,0,0,1-18.48,21.282l.541,6.914s.135,0,.4.008v-.017s.372.009,1.039.043c3.726.16,16.656.955,24.514,4.462a5.114,5.114,0,0,0,4.4-4.234,11.679,11.679,0,0,0,6-5.215,11.842,11.842,0,0,0-.912-12.8,12.316,12.316,0,0,0-2.02-2.071,14.887,14.887,0,0,0-1.4-1.6,13.471,13.471,0,0,0,4.935-24.012M246.006,97.651a7.744,7.744,0,0,0,5.036,5.8,7.078,7.078,0,0,1-4.918-2.78c-2-2.645-1.876-6.33-.768-9.306,2.408-6.5,9.007-10.109,13.207-15.289.38-.473.735-.964,1.074-1.462a24.5,24.5,0,0,1-4.192,5.807c-2.332,2.5-4.9,4.8-6.853,7.606s-3.245,6.271-2.586,9.626m25.063,32.32a19.3,19.3,0,0,0,6.751-4.091,18.868,18.868,0,0,1-11.163,5.9,16.924,16.924,0,0,1-10.411-1.817,15.376,15.376,0,0,1-6.87-20.918,16,16,0,0,0,1.656,14.935,15.684,15.684,0,0,0,4.158,3.956c.279.186.566.355.853.524a17.6,17.6,0,0,0,1.69.854,18.446,18.446,0,0,0,13.334.659M342.453,117.8a14.262,14.262,0,0,0-.794-8.2,10.687,10.687,0,0,1,1.606,4.209,11.08,11.08,0,0,1-3.752,9.99,14.021,14.021,0,0,0,2.941-6m5.231-23.327a12.363,12.363,0,0,1-3.912,6.525,12.96,12.96,0,0,1-6.127,3.017c-.092-.076-.177-.152-.27-.228a13.156,13.156,0,0,0,3.49-23.631,12.983,12.983,0,0,1,6.2,6.694,13.211,13.211,0,0,1,.617,7.623" transform="translate(-12.629)" fill="#191930"/>
      <g id="Group_3627" data-name="Group 3627" transform="translate(296.198 83.37)" opacity="0.3">
        <g id="Group_3626" data-name="Group 3626">
          <g id="Group_3625" data-name="Group 3625" clip-path="url(#clip-path-8)">
            <path id="Path_853" data-name="Path 853" d="M313.365,83.37l-4.454,16.263h8.818Z" transform="translate(-308.911 -83.37)" fill="#191930"/>
          </g>
        </g>
      </g>
      <g id="Group_3630" data-name="Group 3630" transform="translate(271.846 88.823)" opacity="0.3">
        <g id="Group_3629" data-name="Group 3629">
          <g id="Group_3628" data-name="Group 3628" clip-path="url(#clip-path-2)">
            <path id="Path_854" data-name="Path 854" d="M283.626,95.358a6.534,6.534,0,1,0,6.534-6.535,6.534,6.534,0,0,0-6.534,6.535" transform="translate(-283.626 -88.823)" fill="#191930"/>
          </g>
        </g>
      </g>
      <g id="Group_3633" data-name="Group 3633" transform="translate(287.647 78.249)" opacity="0.3">
        <g id="Group_3632" data-name="Group 3632">
          <g id="Group_3631" data-name="Group 3631" clip-path="url(#clip-path-10)">
            <path id="Path_855" data-name="Path 855" d="M299.947,83.254c0,2.764,1.6,4.65,3.583,4.65s3.583-1.886,3.583-4.65-1.6-5-3.583-5-3.583,2.24-3.583,5" transform="translate(-299.948 -78.249)" fill="#191930"/>
          </g>
        </g>
      </g>
      <path id="Path_856" data-name="Path 856" d="M300.5,84.029c0,2.14,1.359,3.874,3.034,3.874s3.034-1.734,3.034-3.874-1.358-3.875-3.034-3.875-3.034,1.734-3.034,3.875" transform="translate(-12.295)" fill="#191930"/>
      <path id="Path_857" data-name="Path 857" d="M298.532,74.958a1.525,1.525,0,0,1,.944-.727l5.235-.784a1.734,1.734,0,0,1,1.218.159,1.582,1.582,0,0,1,.567,2.164,1.527,1.527,0,0,1-.945.727l-5.235.784a1.736,1.736,0,0,1-1.219-.16,1.582,1.582,0,0,1-.567-2.163" transform="translate(-12.266)" fill="#191930"/>
      <g id="Group_3636" data-name="Group 3636" transform="translate(303.693 78.319)" opacity="0.3">
        <g id="Group_3635" data-name="Group 3635">
          <g id="Group_3634" data-name="Group 3634" clip-path="url(#clip-path-11)">
            <path id="Path_858" data-name="Path 858" d="M316.68,83.324c0,2.764,1.6,4.65,3.583,4.65s3.583-1.886,3.583-4.65-1.6-5-3.583-5-3.583,2.24-3.583,5" transform="translate(-316.68 -78.319)" fill="#191930"/>
          </g>
        </g>
      </g>
      <path id="Path_859" data-name="Path 859" d="M317.229,84.1c0,2.14,1.358,3.874,3.034,3.874S323.3,86.24,323.3,84.1s-1.359-3.875-3.034-3.875-3.034,1.734-3.034,3.875" transform="translate(-12.979)" fill="#191930"/>
      <path id="Path_860" data-name="Path 860" d="M325.916,75.407a1.527,1.527,0,0,0-.944-.727l-5.235-.784a1.734,1.734,0,0,0-1.218.16,1.581,1.581,0,0,0-.567,2.163,1.528,1.528,0,0,0,.945.727l5.235.784a1.736,1.736,0,0,0,1.219-.159,1.581,1.581,0,0,0,.567-2.164" transform="translate(-13.065)" fill="#191930"/>
      <g id="Group_3639" data-name="Group 3639" transform="translate(286.637 99.438)" opacity="0.5">
        <g id="Group_3638" data-name="Group 3638">
          <g id="Group_3637" data-name="Group 3637" clip-path="url(#clip-path-12)">
            <path id="Path_861" data-name="Path 861" d="M306.88,106.415c-1.428,2.475-4.175,3.564-6.136,2.432s-2.391-4.055-.963-6.53,4.176-3.563,6.136-2.431,2.391,4.055.963,6.53" transform="translate(-298.939 -99.438)" fill="#191930"/>
          </g>
        </g>
      </g>
      <path id="Path_862" data-name="Path 862" d="M300.641,100.428a7.832,7.832,0,0,0,8.025,5.247c.983-.072.979,1.461,0,1.533a9.375,9.375,0,0,1-9.5-6.373c-.316-.937,1.162-1.338,1.478-.407" transform="translate(-12.349)" fill="#191930"/>
      <path id="Path_863" data-name="Path 863" d="M281.412,82.585a5.5,5.5,0,0,0-1.151-3.05,2.037,2.037,0,0,0-2.481-.476,3.427,3.427,0,0,0-1.477,2.6c-.094.532.721.76.815.225a2.8,2.8,0,0,1,1.019-2.057c.828-.5,1.585.2,1.928.929a7.63,7.63,0,0,1,.352,4.853,3.249,3.249,0,0,0-1.526,6.036c.459.3.884-.436.426-.73a2.419,2.419,0,0,1,1.439-4.478.428.428,0,0,0,.408-.31,9.2,9.2,0,0,0,.247-3.542" transform="translate(-11.283)" fill="#191930"/>
      <path id="Path_864" data-name="Path 864" d="M318.394,99.747q-2.4-8.385-4.793-16.77a.423.423,0,0,0-.815.224l4.64,16.235-8.551-.015a.423.423,0,1,0,0,.846l9.111.016a.427.427,0,0,0,.408-.535" transform="translate(-12.725)" fill="#191930"/>
      <path id="Path_865" data-name="Path 865" d="M323.19,72.342c-4.318,0-7.884,3.845-8.3,8.739a13.184,13.184,0,0,0-3.65.161c-.347-4.978-3.938-8.9-8.307-8.9-4.242,0-7.748,3.693-8.264,8.46C290.616,78.774,278,74.209,275.9,74.327a3.77,3.77,0,0,0-3.566,2.84c-.2,1.065,1.42,1.513,1.631.448.406-2.063,2.873-1.665,4.326-1.133,1.834.668,12.846,4.43,16.293,6.154.009.01.026.01.034.018.279,5.054,3.9,9.06,8.314,9.06,4.327,0,7.893-3.846,8.29-8.756a10.016,10.016,0,0,1,1.826-.254c.38-.018.768-.025,1.149-.008.177.008.363.025.549.041.043,0,.093.01.136.01.321,5,3.92,8.967,8.306,8.967,4.6,0,8.332-4.345,8.332-9.686s-3.735-9.686-8.332-9.686m-13.613,9.88c-.084,4.319-3.025,7.8-6.642,7.8-3.667,0-6.641-3.583-6.641-8v-.186c.084-4.328,3.026-7.809,6.641-7.809,3.667,0,6.642,3.583,6.642,8Zm13.613,7.8c-3.667,0-6.641-3.583-6.641-8s2.974-8,6.641-8,6.642,3.583,6.642,8-2.983,8-6.642,8" transform="translate(-12.559)" fill="#f29f05"/>
      <path id="Path_866" data-name="Path 866" d="M429.986,83.677a33.009,33.009,0,0,0-9.834,10.161l-1.835,2.976L405.2,93.655l-.185-2.345a33.761,33.761,0,0,0-4.657-14.428,20.894,20.894,0,1,1,29.631,6.8" transform="translate(-19.268)" fill="#f29f05"/>
      <rect id="Rectangle_13" data-name="Rectangle 13" width="4.319" height="17.718" transform="translate(382.728 96.48) rotate(-76.464)" fill="#bfbfbf"/>
      <rect id="Rectangle_14" data-name="Rectangle 14" width="1.125" height="15.307" transform="translate(383.636 97.856) rotate(-76.464)" fill="#191930"/>
      <rect id="Rectangle_15" data-name="Rectangle 15" width="4.318" height="17.718" transform="translate(381.453 101.772) rotate(-76.464)" fill="#bfbfbf"/>
      <path id="Path_867" data-name="Path 867" d="M403.284,102.389s.9,2.372,5.56,3.494,6.27-.644,6.27-.644Z" transform="translate(-19.268)" fill="#191930"/>
      <path id="Path_868" data-name="Path 868" d="M420.154,96.252l-18.111-.273c-.41-.006-.39.633.021.639l18.11.273c.411.006.39-.633-.021-.639" transform="translate(-19.268)" fill="#191930"/>
      <path id="Path_869" data-name="Path 869" d="M419.068,101.693l-9.3-.434a49.441,49.441,0,0,0-8.906.029c-.4.054-.387.694.022.639a49.425,49.425,0,0,1,8.9-.029l9.3.434c.41.018.389-.62-.021-.639" transform="translate(-19.268)" fill="#191930"/>
      <path id="Path_870" data-name="Path 870" d="M407.232,92.668l-.447-20.106q-.065-2.874-.128-5.745a.32.32,0,0,0-.638.021l.447,20.107.128,5.745a.32.32,0,0,0,.639-.022" transform="translate(-19.268)" fill="#191930"/>
      <path id="Path_871" data-name="Path 871" d="M431.438,67.356q-6.969,10.431-13.3,21.268-1.807,3.095-3.563,6.22a.319.319,0,0,0,.558.31q6.145-10.937,12.937-21.494,1.941-3.015,3.933-6c.228-.342-.332-.649-.56-.309" transform="translate(-19.268)" fill="#191930"/>
      <path id="Path_872" data-name="Path 872" d="M430.592,74.786a3.259,3.259,0,0,1-3.115,2.117,4.386,4.386,0,0,1-3.625-2.3,5.777,5.777,0,0,1-.6-1.576,6.259,6.259,0,0,0,1.6-1.647,12.874,12.874,0,0,0,1.251-2.523,4.569,4.569,0,0,0,.572-2.508,1.324,1.324,0,0,0-1.646-1.06c-.862.222-1.274,1.058-1.591,1.812a10.329,10.329,0,0,0-.892,5.631,3.984,3.984,0,0,1-.473.225,2.967,2.967,0,0,1-3.565-.771c-.05-.068-.09-.142-.134-.214a15.9,15.9,0,0,0,2.869-4.632,20.343,20.343,0,0,0,1.556-5.85c.153-1.392.536-4.144-1.4-4.536-1.67-.339-2.607,1.9-3.117,3.081A18.145,18.145,0,0,0,416.87,65.7a13.017,13.017,0,0,0,.721,6.159,5.861,5.861,0,0,1-.71.578,3.521,3.521,0,0,1-3.984.206,3.98,3.98,0,0,1-1.175-1.224,7.628,7.628,0,0,0,1.759-4.372,3.219,3.219,0,0,0-.437-2.3,1.334,1.334,0,0,0-1.9-.1,3.278,3.278,0,0,0-.862,2.4,9.564,9.564,0,0,0,.137,2.816,5.885,5.885,0,0,0,.523,1.447,4.447,4.447,0,0,1-1.719,1.1,3.139,3.139,0,0,1-3.742-1.139,2.429,2.429,0,0,1-.283-1.911c.109-.4-.512-.545-.621-.149a3.236,3.236,0,0,0,1.96,3.757,4.507,4.507,0,0,0,4.647-1.01c.032-.028.059-.06.09-.089a4.393,4.393,0,0,0,2.193,1.754,4.561,4.561,0,0,0,4.442-1.21,3.131,3.131,0,0,0,2.927,1.452,4.444,4.444,0,0,0,1.84-.5,5.674,5.674,0,0,0,2.6,3.556,4.213,4.213,0,0,0,4.613-.175,3.678,3.678,0,0,0,1.315-1.815c.128-.391-.493-.539-.621-.15M410.9,68.809a10.441,10.441,0,0,1,.081-2.392,2.275,2.275,0,0,1,.4-1.123.835.835,0,0,1,.982-.308c.6.324.519,1.368.487,1.926a7.064,7.064,0,0,1-.607,2.474A6.814,6.814,0,0,1,411.4,70.8a6.192,6.192,0,0,1-.494-1.984m6.557-.867a17.382,17.382,0,0,1,.466-4.855,15.14,15.14,0,0,1,1.758-4.438c.3-.476.773-1.083,1.391-1.094.86-.015,1.158.987,1.192,1.675a16.681,16.681,0,0,1-.589,4.833,19.674,19.674,0,0,1-1.838,4.665,14.193,14.193,0,0,1-1.785,2.646,10.085,10.085,0,0,1-.594-3.431m6.365-.134c.251-.653.564-1.685,1.323-1.9a.672.672,0,0,1,.863.45,1.931,1.931,0,0,1-.125,1.243,20.95,20.95,0,0,1-.882,2.181,7.089,7.089,0,0,1-1.879,2.546,7.846,7.846,0,0,1,.048-2.151,11.732,11.732,0,0,1,.653-2.369" transform="translate(-19.268)" fill="#fff"/>
      <path id="Path_873" data-name="Path 873" d="M408.882,49.251a17.71,17.71,0,0,0-7.754,7.29,17.4,17.4,0,0,0-2.053,10.592,17.685,17.685,0,0,0,1.838,5.962c.189.366.733.031.545-.333A16.841,16.841,0,0,1,409.22,49.8c.371-.178.035-.722-.333-.545" transform="translate(-19.268)" fill="#191930"/>
      <rect id="Rectangle_16" data-name="Rectangle 16" width="458" height="367" transform="translate(-0.268)" fill="none"/>
      <rect id="Rectangle_17" data-name="Rectangle 17" width="458" height="367" transform="translate(-0.268)" fill="none"/>
    </g>
  </g>
</svg>
