<svg xmlns="http://www.w3.org/2000/svg" xmlns:xlink="http://www.w3.org/1999/xlink" width="426" height="306" viewBox="0 0 426 306">
  <defs>
    <linearGradient id="linear-gradient" y1="0.5" x2="1" y2="0.5" gradientUnits="objectBoundingBox">
      <stop offset="0.004" stop-color="#e38ddd"/>
      <stop offset="1" stop-color="#9571f6"/>
    </linearGradient>
    <linearGradient id="linear-gradient-2" x1="0.624" y1="0.168" x2="-0.065" y2="1.411" gradientUnits="objectBoundingBox">
      <stop offset="0" stop-color="#ffc444"/>
      <stop offset="0.996" stop-color="#f36f56"/>
    </linearGradient>
    <linearGradient id="linear-gradient-3" x1="11.783" y1="-2.123" x2="12.963" y2="-0.575" xlink:href="#linear-gradient-2"/>
    <linearGradient id="linear-gradient-4" x1="124.743" y1="-19.912" x2="139.063" y2="-6.123" xlink:href="#linear-gradient-2"/>
    <linearGradient id="linear-gradient-5" x1="-0.124" y1="0.253" x2="0.63" y2="0.79" xlink:href="#linear-gradient"/>
    <linearGradient id="linear-gradient-6" x1="0.059" x2="0.941" xlink:href="#linear-gradient"/>
    <clipPath id="clip-Custom_Size_1">
      <rect width="426" height="306"/>
    </clipPath>
  </defs>
  <g id="Custom_Size_1" data-name="Custom Size – 1" clip-path="url(#clip-Custom_Size_1)">
    <g id="Vector_Smart_Object" data-name="Vector Smart Object" transform="translate(7.306 -56.051)">
      <g id="Group_3641" data-name="Group 3641">
        <g id="Group_3640" data-name="Group 3640">
          <path id="Path_874" data-name="Path 874" d="M156.929,312.584c-8.692,0-17.491-1.543-17.491-4.494s8.8-4.493,17.491-4.493,17.491,1.544,17.491,4.493S165.62,312.584,156.929,312.584Zm0-7.879c-11.671,0-16.386,2.389-16.386,3.385s4.715,3.386,16.386,3.386,16.386-2.389,16.386-3.386S168.6,304.7,156.929,304.7Z" fill="#fff"/>
          <ellipse id="Ellipse_8" data-name="Ellipse 8" cx="7.699" cy="1.791" rx="7.699" ry="1.791" transform="translate(149.229 306.3)" fill="#fff" opacity="0.6"/>
          <path id="Path_875" data-name="Path 875" d="M265.628,150.033l-91.1,149.4L173.7,300.8l-1.1,1.814-1.937,3.177-1.407,2.3c0,1.537-5.178,2.785-11.685,2.863h-.634c-6.806,0-12.318-1.282-12.318-2.866l-1.289-2.346-2.582-4.7-.88-1.6-1.1-2.009-5.421-9.866L124,270.582l-10.522-19.145-1.049-1.913L100.8,228.367l-7.391-13.445L60.694,155.4a176.638,176.638,0,0,1,51-27.079c3.826-1.289,7.829-2.49,12.009-3.568q1.447-.377,2.928-.731,1.11-.266,2.232-.517c.589-.137,1.186-.266,1.782-.4h.007a171.589,171.589,0,0,1,28.776-3.675q1.85-.083,3.734-.122a172.443,172.443,0,0,1,51.859,6.833c.5.14,1,.288,1.488.436.143.044.287.085.427.129q2.37.715,4.647,1.478c4.15,1.381,8.065,2.855,11.733,4.37A173.71,173.71,0,0,1,265.628,150.033Z" opacity="0.29" fill="url(#linear-gradient)"/>
        </g>
      </g>
      <g id="Group_3646" data-name="Group 3646">
        <g id="Group_3645" data-name="Group 3645">
          <g id="Group_3642" data-name="Group 3642">
            <path id="Path_876" data-name="Path 876" d="M233.115,286.131l-17.988-42.263a3.717,3.717,0,0,1,2.533-5.069l32.95-8.026a3.7,3.7,0,0,1,4.3,2.2L271.458,273.6a3.718,3.718,0,0,1-2.345,4.958l-31.507,9.669a3.7,3.7,0,0,1-4.491-2.1Z" fill="#26264f"/>
            <path id="Path_877" data-name="Path 877" d="M233.929,284.1l-16.8-39.477a3.472,3.472,0,0,1,2.366-4.735l30.778-7.5a3.458,3.458,0,0,1,4.019,2.06l15.454,37.942a3.473,3.473,0,0,1-2.19,4.631l-29.43,9.032a3.457,3.457,0,0,1-4.2-1.953Z" fill="#fccaec"/>
          </g>
          <path id="Path_878" data-name="Path 878" d="M223.556,272.493l-.54-4.98-2.861-5.47a5.21,5.21,0,0,1-.593-2.415V254.2l3.454,8.011a26.047,26.047,0,0,1,3.13-2.49c.864-.433.755,1.3.108,1.949s.324,5.955-.324,6.5l.216,3.248Z" fill="url(#linear-gradient-2)"/>
          <path id="Path_879" data-name="Path 879" d="M250.973,240.772c2.686-6.588,8.452-10.377,11.442-12.342,7.074-4.649,11.6-3.8,27.848-6.279,21.65-3.3,24.242-6.435,31.518-3.9,9.558,3.333,14.551,12.035,16.838,16.023,11.534,20.1-1.951,30.323,1.511,70.371,1.414,16.356,5.039,30.569-3.67,38.975-1.834,1.77-3.885,2.7-7.987,4.547-16.27,7.343-30.857,6.077-39.721,5.2-9.754-.969-14.684-1.524-17.27-4.98-4.131-5.522.122-12.539.864-24.684.533-8.72-1.444-15.629-5.4-29.448C257.758,262.128,245.826,253.394,250.973,240.772Z" fill="#4072ff"/>
          <g id="Group_3644" data-name="Group 3644">
            <g id="Group_3643" data-name="Group 3643">
              <path id="Path_880" data-name="Path 880" d="M287.212,210.3a10.478,10.478,0,0,1,1.117-7.487c1.59-2.942,2-3.344,2.756-3.854l1.055-.653s.061-.025.125-.048a12.174,12.174,0,0,1,3.451-.212c1.493.32,3.082,6.42,2.629,15.044q.093.493.179.994.353,2.043.566,4c.138,1.248,1.9,1.22,3.153,1.14,5.073-.325,7.556.108,7.772.866.4,1.42-5.613,6.063-13.043,7.107-9.972.074-18.083-.991-17.212-2.566.387-.7,8.113-2.724,10.286-4.731,1.99-1.838,1.828-3.735,1.991-5.094C291.435,214.5,287.937,212.894,287.212,210.3Z" fill="url(#linear-gradient-3)"/>
              <path id="Path_881" data-name="Path 881" d="M289.046,195.856c.009,2.672,1.264,5.525,1.9,5.984a4.443,4.443,0,0,1,.965,1.057,1.354,1.354,0,0,1,.152.316c.584,1.684-2.086,3.665-1.57,4.419.374.547,2.188-.184,2.4.288.2.444-1.3,1.365-1.074,1.9.174.4,1.1.034,1.687.65.292.307.206.55.515,1.487a8.486,8.486,0,0,0,.609,1.433c.921,1.569,3.528,2.142,4.03,1.514.139-.175.02-.322.162-.909a4.7,4.7,0,0,1,.51-1.173c.539-.9,1.841-1.542,3.155-2.491a8.651,8.651,0,0,0,3.292-3.761c.071-.18.115-.316.146-.414a9.959,9.959,0,0,0-.247-6.641c-1.479-2.98-4.814-1.565-7.545-4.518-3.15-3.407-1.274-8.063-2.983-8.577C293.272,185.849,289.03,190.916,289.046,195.856Z" fill="#26264f"/>
              <path id="Path_882" data-name="Path 882" d="M291.453,207c.653-.9,1.8-.054,1.807,1.11s-1.118,2.375-2.209,2.145S290.574,208.215,291.453,207Z" fill="url(#linear-gradient-4)"/>
            </g>
            <path id="Path_883" data-name="Path 883" d="M291.983,205.057l-1.515,1.976s-1.633,2.421-2.586,1.1c-.779-1.084-.981-1.06-1.028-1.014-.009.009-.011.022-.014.021s.114-.539.229-1.01a8.9,8.9,0,0,0-1.3,2.789,4.95,4.95,0,0,0,.015,3.814,3.782,3.782,0,0,0,2.227,1.746,9.965,9.965,0,0,0,2.926-.289s-2.586-1.882-2.626-2.329c-.107-1.216,1.574-1.873,2.822-4.366a10.038,10.038,0,0,0,.85-2.433Z" fill="#26264f"/>
          </g>
          <path id="Path_884" data-name="Path 884" d="M297.171,341.89c-2.87-5.731,4.162-13.349-.432-22.086-3.9-7.42-10.989-5.758-14.248-12.559-3.936-8.214,4.624-14.353,4.317-26.849-.366-14.939-13.182-29.893-20.724-28.582-4.88.849-5.507,8.15-8.94,16.144a181.86,181.86,0,0,1,9.8,26.3c3.953,13.819,5.93,20.728,5.4,29.448-.742,12.145-4.995,19.163-.864,24.684,2.586,3.457,7.516,4.011,17.27,4.98,8.864.88,23.452,2.146,39.721-5.2,2.059-.929,3.6-1.626,4.859-2.312C307.913,349.686,299.447,346.436,297.171,341.89Z" opacity="0.3" fill="url(#linear-gradient-5)"/>
          <path id="Path_885" data-name="Path 885" d="M222.585,271.519l4.749-2.057c2.675,2.745,6.088,5.414,8.959,4.547,4.279-1.292,3.209-9.187,8.419-23.06,5.9-15.718,12.6-19.759,15.975-21.22,1.885-.816,3.186-1.358,4.749-.974,7.2,1.764,9.575,20.572,7.556,34.644-1.138,7.929-3.368,23.476-16.083,30.855-1.806,1.048-11.748,6.819-21.588,2.274C226.916,292.645,221.722,282.682,222.585,271.519Z" fill="#2b5bf7"/>
        </g>
      </g>
      <g id="Group_3647" data-name="Group 3647">
        <path id="Path_886" data-name="Path 886" d="M193.355,231.842a34.115,34.115,0,0,1-2.382,4.7l2.379-4.7Z" fill="#fff"/>
      </g>
      <g id="Group_3648" data-name="Group 3648">
        <path id="Path_887" data-name="Path 887" d="M195.756,219.871a31.175,31.175,0,0,1-2.4,11.971h0l-2.379,4.7-.015.026-17.334,34.256-.667,1.311-.033.067h0a32.429,32.429,0,0,1-28.541,17.346,31.734,31.734,0,0,1-11.044-1.976L124,270.582l-10.522-19.145a3.224,3.224,0,0,1-1.049-1.91h0L100.8,228.367l-7.391-13.445c3.138-19.318,24.4-34.3,50.287-34.559.228-.007.457-.007.685-.007q1.906,0,3.778.107a63.072,63.072,0,0,1,19.625,4.226q2.088.82,4.058,1.784l.306.148h0q1.9.931,3.672,2h0C187.949,195.847,195.756,207.157,195.756,219.871Z" fill="#fff"/>
      </g>
      <ellipse id="Ellipse_9" data-name="Ellipse 9" cx="13.082" cy="10.992" rx="13.082" ry="10.992" transform="matrix(0.5, -0.866, 0.866, 0.5, 140.291, 193.775)" opacity="0.29" fill="url(#linear-gradient-6)"/>
      <g id="Group_3649" data-name="Group 3649">
        <ellipse id="Ellipse_10" data-name="Ellipse 10" cx="51.376" cy="39.516" rx="51.376" ry="39.516" transform="matrix(0.995, -0.098, 0.097, 0.995, 116.998, 115.814)" fill="#fff"/>
      </g>
      <g id="Group_3650" data-name="Group 3650">
        <path id="Path_888" data-name="Path 888" d="M212.06,140.629l.963,9.843a16.928,16.928,0,0,1-15.158,18.515l-6.3.62a16.554,16.554,0,0,1-2.316,3.75,16.385,16.385,0,0,1-11.111,5.954l-6.555.645a16.439,16.439,0,0,1-15.052-6.9l-4.675.46A16.906,16.906,0,0,1,133.4,158.31l-.963-9.843a7.648,7.648,0,0,1,6.85-8.363l64.438-6.343A7.636,7.636,0,0,1,212.06,140.629Z" fill="#ffab8d"/>
      </g>
      <g id="Group_3651" data-name="Group 3651">
        <path id="Rectangle_18" data-name="Rectangle 18" d="M2.25,0H71.006a2.25,2.25,0,0,1,2.25,2.25v18.3a3.542,3.542,0,0,1-3.542,3.542H3.542A3.542,3.542,0,0,1,0,20.548V2.25A2.25,2.25,0,0,1,2.25,0Z" transform="matrix(0.995, -0.098, 0.097, 0.995, 135.056, 143.178)" fill="#f99"/>
      </g>
      <g id="Group_3652" data-name="Group 3652">
        <path id="Path_889" data-name="Path 889" d="M162.621,153.968a3.9,3.9,0,0,0,.536-2.3c-.256-2.621-3.233-4.473-6.649-4.137s-5.977,2.734-5.72,5.355a3.891,3.891,0,0,0,.972,2.152Z" fill="#fff"/>
      </g>
      <g id="Group_3653" data-name="Group 3653">
        <path id="Path_890" data-name="Path 890" d="M193.77,150.9a3.9,3.9,0,0,0,.537-2.3c-.256-2.621-3.233-4.473-6.65-4.137s-5.977,2.734-5.72,5.355a3.891,3.891,0,0,0,.972,2.152Z" fill="#fff"/>
      </g>
      <g id="Group_3659" data-name="Group 3659">
        <g id="Group_3654" data-name="Group 3654">
          <path id="Path_891" data-name="Path 891" d="M177.223,188.762l-.3-3.084a50.3,50.3,0,0,0,45.553-50.606l3.09-.018a53.673,53.673,0,0,1-48.341,53.709Z" fill="#b6e9ff"/>
        </g>
        <g id="Group_3655" data-name="Group 3655">
          <path id="Path_892" data-name="Path 892" d="M122.541,152.5l-3.95.38c-.314-1.678-.554-3.358-.714-4.994l.858-.085a54,54,0,0,1,105.772-10.412l.858-.084c.16,1.636.25,3.331.268,5.038l-3.948.4a50.017,50.017,0,0,0-99.145,9.76Z" fill="#b6e9ff"/>
        </g>
        <g id="Group_3656" data-name="Group 3656">
          <path id="Path_893" data-name="Path 893" d="M128.1,169.346,116.344,170.5a2.467,2.467,0,0,1-2.694-2.219l-3.529-36.064a2.471,2.471,0,0,1,2.213-2.7l11.756-1.157a2.467,2.467,0,0,1,2.694,2.219l3.529,36.064a2.471,2.471,0,0,1-2.213,2.7Z" fill="#b6e9ff"/>
        </g>
        <g id="Group_3657" data-name="Group 3657">
          <path id="Path_894" data-name="Path 894" d="M176.075,190.668l-1.629-6.549a1.409,1.409,0,0,1,1.023-1.708l19.97-5a1.4,1.4,0,0,1,1.7,1.026l1.629,6.549a1.409,1.409,0,0,1-1.023,1.708l-19.97,5a1.4,1.4,0,0,1-1.7-1.026Z" fill="#b6e9ff"/>
        </g>
        <g id="Group_3658" data-name="Group 3658">
          <path id="Path_895" data-name="Path 895" d="M232.522,159.067l-11.756,1.157a2.467,2.467,0,0,1-2.694-2.219l-3.529-36.064a2.47,2.47,0,0,1,2.212-2.7l11.756-1.157a2.467,2.467,0,0,1,2.694,2.219l3.529,36.064A2.471,2.471,0,0,1,232.522,159.067Z" fill="#b6e9ff"/>
        </g>
      </g>
      <path id="Path_896" data-name="Path 896" d="M174.756,235.16l-17.107-1.009a3.153,3.153,0,0,1-3.045-3.617l.823-5.647a3.879,3.879,0,0,1,4.039-3.2l17.107,1.009a3.153,3.153,0,0,1,3.045,3.617l-.823,5.647A3.88,3.88,0,0,1,174.756,235.16Z" fill="#d8dee8"/>
      <path id="Path_897" data-name="Path 897" d="M251.765,126.9a33.737,33.737,0,0,1-7.727-21.125c0-22.491,23.876-40.724,53.328-40.724s53.328,18.233,53.328,40.724S326.819,146.5,297.367,146.5a65.232,65.232,0,0,1-29.8-6.948c-5.624.962-14.354,2.579-18.96,3.439a1.775,1.775,0,0,1-1.982-2.373Z" fill="#43c4ab"/>
      <g id="Group_3661" data-name="Group 3661">
        <path id="Path_898" data-name="Path 898" d="M271.237,205.8a18.819,18.819,0,0,0,3.386-12.078c-.969-12.5-15.027-21.6-31.4-20.329s-28.86,12.446-27.892,24.95,15.027,21.6,31.4,20.329A36.384,36.384,0,0,0,263,213.519c3.168.291,8.09.812,10.688,1.09a.99.99,0,0,0,1-1.4Z" fill="#f9b74b"/>
        <g id="Group_3660" data-name="Group 3660" opacity="0.3">
          <path id="Path_899" data-name="Path 899" d="M261.572,199.56c-6.865-2.284-13.716,4.2-18.606.43-4.929-3.8-.589-12.413-5.456-17.931-2.32-2.631-5.957-3.677-10.036-3.824-7.88,4.667-12.76,12.115-12.141,20.108.969,12.5,15.027,21.6,31.4,20.329A36.384,36.384,0,0,0,263,213.519c2.5.23,6.091.6,8.771.886C269.036,204.42,265.144,200.749,261.572,199.56Z" fill="#f5f955"/>
        </g>
      </g>
      <g id="Group_3662" data-name="Group 3662">
        <path id="Path_900" data-name="Path 900" d="M109.083,228.514a27.043,27.043,0,0,0-4.232,0c-.027-.136-.055-.272-.094-.408a5.063,5.063,0,0,0-6.163-3.513,4.905,4.905,0,0,0-3.442,6.1c.039.139.087.273.137.4a26.89,26.89,0,0,0-3.633,2.111c-.093-.108-.188-.214-.291-.316a4.95,4.95,0,1,0-6.958,7.042c.1.1.207.19.315.28a26.4,26.4,0,0,0-2.06,3.658c-.133-.047-.267-.093-.4-.129a4.923,4.923,0,0,0-6.062,3.523,5.045,5.045,0,0,0,3.616,6.091c.138.037.277.064.415.088a26.808,26.808,0,0,0,.055,4.219c-.136.025-.272.051-.408.088a4.905,4.905,0,0,0-3.442,6.1,5.063,5.063,0,0,0,6.163,3.513c.139-.037.272-.083.4-.131a27.719,27.719,0,0,0,2.167,3.65c-.107.091-.213.184-.313.286a5.017,5.017,0,1,0,7.158,7.031,3.738,3.738,0,0,0,.276-.31,27.476,27.476,0,0,0,3.7,2.1c-.046.132-.089.264-.124.4a5.045,5.045,0,0,0,3.616,6.091,4.923,4.923,0,0,0,6.062-3.523c.035-.137.06-.275.083-.413a27.046,27.046,0,0,0,4.232,0c.027.136.055.272.094.408a5.063,5.063,0,0,0,6.163,3.513,4.9,4.9,0,0,0,3.442-6.1c-.039-.139-.087-.273-.137-.4a26.885,26.885,0,0,0,3.633-2.111c.093.108.188.214.291.316a4.95,4.95,0,0,0,6.958-7.043c-.1-.1-.207-.19-.315-.28a26.415,26.415,0,0,0,2.06-3.658c.133.047.266.093.4.129a4.923,4.923,0,0,0,6.062-3.523,5.045,5.045,0,0,0-3.616-6.091c-.138-.037-.277-.064-.415-.088a26.8,26.8,0,0,0-.055-4.219c.136-.025.272-.051.408-.088a4.906,4.906,0,0,0,3.442-6.1,5.063,5.063,0,0,0-6.163-3.513c-.139.037-.272.083-.4.131a27.716,27.716,0,0,0-2.167-3.65c.107-.091.213-.184.313-.286a5.017,5.017,0,1,0-7.158-7.031,3.736,3.736,0,0,0-.276.31,27.477,27.477,0,0,0-3.7-2.1c.046-.132.089-.264.124-.4a5.045,5.045,0,0,0-3.616-6.091,4.923,4.923,0,0,0-6.062,3.523C109.131,228.238,109.106,228.376,109.083,228.514Zm2.711,9.561a18.317,18.317,0,0,1,13.128,22.114,17.875,17.875,0,0,1-22.011,12.793,18.317,18.317,0,0,1-13.128-22.114,17.874,17.874,0,0,1,22.011-12.794Z" fill="#d8dee8"/>
      </g>
      <g id="Group_3663" data-name="Group 3663">
        <path id="Path_901" data-name="Path 901" d="M81.7,77.929a15.75,15.75,0,0,0-2.464,0c-.016-.079-.032-.158-.055-.238a2.948,2.948,0,0,0-3.588-2.046,2.856,2.856,0,0,0-2,3.55c.023.081.051.159.08.236a15.643,15.643,0,0,0-2.115,1.229c-.054-.063-.109-.125-.169-.184a2.883,2.883,0,1,0-4.051,4.1c.059.058.121.111.183.163a15.364,15.364,0,0,0-1.2,2.13c-.077-.028-.155-.054-.236-.075a2.867,2.867,0,0,0-3.53,2.052,2.937,2.937,0,0,0,2.105,3.546c.081.021.161.037.242.051a15.6,15.6,0,0,0,.032,2.457c-.079.014-.159.03-.238.051a2.856,2.856,0,0,0-2,3.55,2.948,2.948,0,0,0,3.588,2.046c.081-.022.159-.048.236-.076a16.128,16.128,0,0,0,1.262,2.125c-.062.053-.124.107-.182.167a2.921,2.921,0,1,0,4.168,4.094c.057-.058.11-.119.161-.18a16.013,16.013,0,0,0,2.153,1.224c-.027.077-.052.154-.072.234a2.937,2.937,0,0,0,2.1,3.546,2.866,2.866,0,0,0,3.53-2.052c.02-.08.035-.16.048-.24a15.753,15.753,0,0,0,2.464,0c.016.079.032.158.055.238a2.948,2.948,0,0,0,3.588,2.046,2.856,2.856,0,0,0,2-3.55c-.023-.081-.051-.159-.08-.236a15.636,15.636,0,0,0,2.115-1.229c.054.063.109.125.169.184a2.883,2.883,0,1,0,4.051-4.1c-.059-.058-.121-.111-.183-.163a15.377,15.377,0,0,0,1.2-2.13c.077.028.155.054.236.075a2.867,2.867,0,0,0,3.53-2.052,2.938,2.938,0,0,0-2.1-3.547c-.081-.021-.161-.037-.242-.051a15.6,15.6,0,0,0-.032-2.456c.079-.014.159-.03.238-.051a2.856,2.856,0,0,0,2-3.55,2.948,2.948,0,0,0-3.588-2.046c-.081.022-.159.048-.236.076a16.14,16.14,0,0,0-1.262-2.125c.062-.053.124-.107.182-.166a2.921,2.921,0,1,0-4.168-4.094c-.057.058-.11.119-.161.18a15.992,15.992,0,0,0-2.153-1.224c.027-.077.052-.154.072-.234a2.937,2.937,0,0,0-2.105-3.547,2.867,2.867,0,0,0-3.53,2.052A2.216,2.216,0,0,0,81.7,77.929ZM83.278,83.5a10.665,10.665,0,0,1,7.644,12.877,10.408,10.408,0,0,1-12.816,7.449,10.665,10.665,0,0,1-7.644-12.877A10.408,10.408,0,0,1,83.278,83.5Z" fill="#ff4d4d"/>
      </g>
    </g>
  </g>
</svg>
