<svg xmlns="http://www.w3.org/2000/svg" xmlns:xlink="http://www.w3.org/1999/xlink" width="426" height="306" viewBox="0 0 426 306">
  <defs>
    <linearGradient id="linear-gradient" x1="0.5" y1="-0.169" x2="0.5" y2="0.344" gradientUnits="objectBoundingBox">
      <stop offset="0" stop-color="#a06053"/>
      <stop offset="0.12" stop-color="#a36354" stop-opacity="0.937"/>
      <stop offset="0.324" stop-color="#ae6b5a" stop-opacity="0.769"/>
      <stop offset="0.587" stop-color="#be7962" stop-opacity="0.498"/>
      <stop offset="0.895" stop-color="#d58b6e" stop-opacity="0.122"/>
      <stop offset="0.989" stop-color="#dd9272" stop-opacity="0"/>
    </linearGradient>
    <linearGradient id="linear-gradient-2" x1="-0.425" y1="0.5" x2="0.931" y2="0.5" xlink:href="#linear-gradient"/>
    <clipPath id="clip-Custom_Size_1">
      <rect width="426" height="306"/>
    </clipPath>
  </defs>
  <g id="Custom_Size_1" data-name="Custom Size – 1" clip-path="url(#clip-Custom_Size_1)">
    <g id="Vector_Smart_Object" data-name="Vector Smart Object" transform="translate(21.304 -29.863)">
      <path id="Path_902" data-name="Path 902" d="M260.6,311.577H250.5a1.25,1.25,0,0,1,0-2.5h10.1a1.25,1.25,0,0,1,0,2.5Zm-20.066,0h-9.968a1.25,1.25,0,1,1,0-2.5h9.968a1.25,1.25,0,1,1,0,2.5Zm-19.936,0h-9.967a1.25,1.25,0,0,1,0-2.5H220.6a1.25,1.25,0,1,1,0,2.5Zm-19.934,0H190.7a1.25,1.25,0,0,1,0-2.5h9.967a1.25,1.25,0,0,1,0,2.5Zm-19.936,0h-9.967a1.25,1.25,0,0,1,0-2.5h9.967a1.25,1.25,0,0,1,0,2.5Zm-19.934,0h-9.967a1.25,1.25,0,1,1,0-2.5H160.8a1.25,1.25,0,0,1,0,2.5Zm-19.935,0H130.9a1.25,1.25,0,1,1,0-2.5h9.968a1.25,1.25,0,0,1,0,2.5Zm-19.933-.03h-.04a61.234,61.234,0,0,1-10.093-1.16,1.248,1.248,0,0,1,.492-2.448,58.738,58.738,0,0,0,9.679,1.113,1.25,1.25,0,0,1-.038,2.5Zm149.589-.814a1.248,1.248,0,0,1-.207-2.478,58.03,58.03,0,0,0,9.433-2.432,1.249,1.249,0,1,1,.826,2.357,60.437,60.437,0,0,1-9.841,2.535,1.25,1.25,0,0,1-.206.018Zm-169.041-3.1a1.263,1.263,0,0,1-.448-.083,60.7,60.7,0,0,1-9.15-4.43,1.248,1.248,0,1,1,1.273-2.147,58.227,58.227,0,0,0,8.772,4.245,1.248,1.248,0,0,1-.447,2.413Zm187.759-3.446a1.248,1.248,0,0,1-.606-2.34,58.772,58.772,0,0,0,8.1-5.4,1.248,1.248,0,1,1,1.555,1.953,60.947,60.947,0,0,1-8.451,5.635,1.238,1.238,0,0,1-.6.154ZM84.406,297.532a1.241,1.241,0,0,1-.8-.3,61.226,61.226,0,0,1-7.189-7.177,1.249,1.249,0,0,1,1.906-1.613,58.885,58.885,0,0,0,6.9,6.884,1.249,1.249,0,0,1-.808,2.2Zm220.359-5.678a1.248,1.248,0,0,1-.928-2.083,58.6,58.6,0,0,0,5.893-7.758,1.25,1.25,0,0,1,2.11,1.339,61.185,61.185,0,0,1-6.146,8.088,1.248,1.248,0,0,1-.928.413ZM71.59,282.4a1.25,1.25,0,0,1-1.075-.611,60.719,60.719,0,0,1-4.437-9.132,1.249,1.249,0,1,1,2.331-.9,58.153,58.153,0,0,0,4.255,8.754A1.25,1.25,0,0,1,71.59,282.4Zm243.81-7.282a1.25,1.25,0,0,1-1.151-1.733,57.826,57.826,0,0,0,3.01-9.265,1.25,1.25,0,0,1,2.434.567,60.509,60.509,0,0,1-3.14,9.666A1.25,1.25,0,0,1,315.4,275.118ZM64.455,263.913a1.25,1.25,0,0,1-1.223-1,60.893,60.893,0,0,1-1.172-10.085,1.251,1.251,0,0,1,2.5-.081,58.3,58.3,0,0,0,1.126,9.672,1.249,1.249,0,0,1-1.227,1.5Zm255.467-8.1h-.079a1.249,1.249,0,0,1-1.169-1.324c.076-1.211.114-2.45.114-3.68v-6.2a1.25,1.25,0,0,1,2.5,0v6.2c0,1.282-.041,2.572-.12,3.836a1.25,1.25,0,0,1-1.246,1.168ZM63.275,244.074a1.248,1.248,0,0,1-1.249-1.248v-9.96a1.25,1.25,0,1,1,2.5,0v9.96a1.248,1.248,0,0,1-1.251,1.248Zm256.763-8.18a1.249,1.249,0,0,1-1.25-1.248v-9.96a1.25,1.25,0,1,1,2.5,0v9.96a1.249,1.249,0,0,1-1.25,1.249ZM63.275,224.154a1.249,1.249,0,0,1-1.249-1.249v-9.96a1.25,1.25,0,1,1,2.5,0v9.96a1.249,1.249,0,0,1-1.251,1.249Zm256.763-8.18a1.25,1.25,0,0,1-1.25-1.249v-9.96a1.25,1.25,0,0,1,2.5,0v9.96a1.25,1.25,0,0,1-1.25,1.25ZM63.275,204.233a1.248,1.248,0,0,1-1.249-1.247v-9.961a1.25,1.25,0,0,1,2.5,0v9.961a1.248,1.248,0,0,1-1.251,1.247Zm256.763-8.18a1.249,1.249,0,0,1-1.25-1.248v-9.96a1.25,1.25,0,0,1,2.5,0v9.96A1.249,1.249,0,0,1,320.038,196.053ZM63.275,184.313a1.249,1.249,0,0,1-1.249-1.249V173.1a1.25,1.25,0,1,1,2.5,0v9.96a1.249,1.249,0,0,1-1.251,1.253Zm256.763-8.18a1.249,1.249,0,0,1-1.25-1.248v-9.96a1.25,1.25,0,0,1,2.5,0v9.96A1.25,1.25,0,0,1,320.038,176.133ZM63.275,164.392a1.249,1.249,0,0,1-1.249-1.248v-9.96a1.25,1.25,0,1,1,2.5,0v9.96a1.249,1.249,0,0,1-1.251,1.248Zm256.763-8.18a1.249,1.249,0,0,1-1.25-1.248V145a1.25,1.25,0,0,1,2.5,0v9.961A1.25,1.25,0,0,1,320.038,156.212ZM63.275,144.47a1.248,1.248,0,0,1-1.249-1.248v-9.96a1.25,1.25,0,1,1,2.5,0v9.96a1.248,1.248,0,0,1-1.251,1.248Zm256.763-8.179a1.249,1.249,0,0,1-1.25-1.248v-9.96a1.25,1.25,0,1,1,2.5,0v9.96a1.25,1.25,0,0,1-1.25,1.249ZM63.275,124.55a1.249,1.249,0,0,1-1.249-1.249V117.17c0-1.3.041-2.614.124-3.9a1.221,1.221,0,0,1,1.326-1.166,1.248,1.248,0,0,1,1.166,1.325c-.078,1.237-.119,2.5-.119,3.746V123.3A1.249,1.249,0,0,1,63.275,124.55ZM320,116.372a1.249,1.249,0,0,1-1.247-1.207,58.539,58.539,0,0,0-1.136-9.67,1.249,1.249,0,1,1,2.447-.5,61.1,61.1,0,0,1,1.185,10.083,1.25,1.25,0,0,1-1.206,1.29ZM64.852,104.756a1.227,1.227,0,0,1-.286-.033,1.248,1.248,0,0,1-.931-1.5,60.617,60.617,0,0,1,3.15-9.661,1.249,1.249,0,0,1,2.3.971,58.11,58.11,0,0,0-3.02,9.262A1.25,1.25,0,0,1,64.852,104.756Zm251.2-7.806a1.25,1.25,0,0,1-1.165-.8,58.185,58.185,0,0,0-4.264-8.751,1.249,1.249,0,0,1,2.148-1.277,60.662,60.662,0,0,1,4.447,9.127,1.247,1.247,0,0,1-1.165,1.7ZM72.563,86.486a1.248,1.248,0,0,1-1.053-1.919,61.036,61.036,0,0,1,6.157-8.082,1.249,1.249,0,0,1,1.854,1.673,58.626,58.626,0,0,0-5.9,7.75,1.249,1.249,0,0,1-1.058.578Zm233.344-6.565a1.244,1.244,0,0,1-.953-.44,58.94,58.94,0,0,0-6.9-6.877,1.248,1.248,0,0,1,1.61-1.908,61.176,61.176,0,0,1,7.2,7.169,1.247,1.247,0,0,1-.951,2.056ZM85.85,71.761a1.248,1.248,0,0,1-.778-2.225,60.856,60.856,0,0,1,8.459-5.626,1.248,1.248,0,1,1,1.2,2.186,58.584,58.584,0,0,0-8.111,5.4A1.248,1.248,0,0,1,85.85,71.761ZM290.738,67.14a1.258,1.258,0,0,1-.636-.174,58.327,58.327,0,0,0-8.776-4.236,1.248,1.248,0,0,1,.893-2.331,60.616,60.616,0,0,1,9.155,4.419,1.248,1.248,0,0,1-.636,2.323ZM103.216,62.2a1.248,1.248,0,0,1-.411-2.426,60.807,60.807,0,0,1,9.843-2.527,1.249,1.249,0,0,1,.417,2.463,58,58,0,0,0-9.436,2.42,1.259,1.259,0,0,1-.413.07Zm168.992-2.151a1.175,1.175,0,0,1-.246-.024,58.656,58.656,0,0,0-9.682-1.1,1.251,1.251,0,1,1,.077-2.5,61.135,61.135,0,0,1,10.094,1.149,1.248,1.248,0,0,1-.242,2.472ZM252.351,58.9h-9.967a1.25,1.25,0,1,1,0-2.5h9.967a1.25,1.25,0,0,1,0,2.5Zm-19.935,0h-9.967a1.25,1.25,0,0,1,0-2.5h9.967a1.25,1.25,0,0,1,0,2.5Zm-19.935,0h-9.967a1.25,1.25,0,0,1,0-2.5h9.967a1.25,1.25,0,0,1,0,2.5Zm-19.934,0H182.58a1.25,1.25,0,0,1,0-2.5h9.967a1.25,1.25,0,0,1,0,2.5Zm-19.936,0h-9.967a1.25,1.25,0,0,1,0-2.5h9.967a1.25,1.25,0,0,1,0,2.5Zm-19.934,0H142.71a1.25,1.25,0,0,1,0-2.5h9.967a1.25,1.25,0,0,1,0,2.5Zm-19.936,0h-9.9a1.279,1.279,0,0,1-1.283-1.249,1.221,1.221,0,0,1,1.216-1.249h9.967a1.25,1.25,0,0,1,0,2.5Z" fill="#263238"/>
      <path id="Rectangle_19" data-name="Rectangle 19" d="M57.067,0H164.3a57.067,57.067,0,0,1,57.067,57.067V160.785A57.066,57.066,0,0,1,164.3,217.851H57.067A57.067,57.067,0,0,1,0,160.784V57.067A57.067,57.067,0,0,1,57.067,0Z" transform="translate(80.512 75.062)" fill="#fff"/>
      <g id="Group_3668" data-name="Group 3668">
        <g id="Group_3666" data-name="Group 3666">
          <path id="Path_903" data-name="Path 903" d="M100.706,123.7a38.534,38.534,0,1,0,0,.006Z" fill="#a0aff9"/>
          <g id="Group_3665" data-name="Group 3665">
            <path id="Rectangle_20" data-name="Rectangle 20" d="M3.015,0H7.074V10.972H3.015A3.015,3.015,0,0,1,0,7.956V3.015A3.015,3.015,0,0,1,3.015,0Z" transform="translate(34.659 111.974)" fill="#cfd8dc"/>
            <path id="Rectangle_21" data-name="Rectangle 21" d="M3.016,0H7.074V10.972H3.015A3.015,3.015,0,0,1,0,7.956V3.016A3.016,3.016,0,0,1,3.016,0Z" transform="translate(88.969 122.946) rotate(180)" fill="#cfd8dc"/>
            <rect id="Rectangle_22" data-name="Rectangle 22" width="12.423" height="14.187" transform="translate(55.773 132.511)" fill="#c0def2"/>
            <path id="Path_904" data-name="Path 904" d="M85.432,117.249c0,17.842-10.5,17.842-23.447,17.842s-23.447-.535-23.447-17.842c0-18.916,10.5-23.43,23.447-23.43S85.432,97.314,85.432,117.249Z" fill="#fff"/>
            <path id="Path_905" data-name="Path 905" d="M88.192,152.085a38.539,38.539,0,0,1-52.283-.274c0-12.394,10.917-11.928,19.865-13.574a34.054,34.054,0,0,1,12.427,0C77.264,139.9,88.192,140.177,88.192,152.085Z" fill="#fff"/>
            <path id="Path_906" data-name="Path 906" d="M79.409,116.054c0,7.309-7.8.706-17.424.706s-17.424,6.173-17.424-.706c0-8.072,1.442-14.617,17.424-14.617C78.634,101.437,79.409,107.982,79.409,116.054Z" fill="#c0def2"/>
            <g id="Group_3664" data-name="Group 3664">
              <ellipse id="Ellipse_11" data-name="Ellipse 11" cx="2.151" cy="2.149" rx="2.151" ry="2.149" transform="translate(51.66 110.036)" fill="#0591ff"/>
              <path id="Path_907" data-name="Path 907" d="M72.31,112.186a2.151,2.151,0,1,1-2.152-2.15,2.151,2.151,0,0,1,2.152,2.15Z" fill="#0591ff"/>
            </g>
            <line id="Line_26" data-name="Line 26" y2="9.519" transform="translate(61.985 84.336)" fill="none" stroke="#fff" stroke-miterlimit="10" stroke-width="1.528"/>
            <ellipse id="Ellipse_12" data-name="Ellipse 12" cx="3.011" cy="3.009" rx="3.011" ry="3.009" transform="translate(58.974 81.326)" fill="#0591ff"/>
            <path id="Path_908" data-name="Path 908" d="M75.578,146.6a2.132,2.132,0,1,1-2.132-2.131,2.132,2.132,0,0,1,2.132,2.131Z" fill="#c0def2"/>
            <path id="Path_909" data-name="Path 909" d="M68.526,146.6a1.066,1.066,0,1,1-1.066-1.065,1.066,1.066,0,0,1,1.066,1.065Z" fill="#c0def2"/>
          </g>
        </g>
        <g id="Group_3667" data-name="Group 3667">
          <path id="Path_910" data-name="Path 910" d="M206.517,134.556H124.1a3.265,3.265,0,0,1-3.266-3.263v-26.7l-6.732-4.282h92.415a3.264,3.264,0,0,1,3.266,3.263v27.718A3.265,3.265,0,0,1,206.517,134.556Z" fill="#8eafbc"/>
          <rect id="Rectangle_23" data-name="Rectangle 23" width="50.303" height="17.121" rx="3.264" transform="translate(120.961 140.337)" fill="#8eafbc"/>
          <rect id="Rectangle_24" data-name="Rectangle 24" width="86.41" height="17.122" rx="3.264" transform="translate(120.961 163.24)" fill="#8eafbc"/>
          <path id="Path_911" data-name="Path 911" d="M199.8,110.467H130.22a.833.833,0,1,1,0-1.665H199.8a.832.832,0,1,1,0,1.665Z" fill="#fff"/>
          <path id="Path_912" data-name="Path 912" d="M199.8,118.511H130.22a.832.832,0,0,1,0-1.664H199.8a.832.832,0,0,1,0,1.664Z" fill="#fff"/>
          <path id="Path_913" data-name="Path 913" d="M199.8,126.556H130.22a.833.833,0,1,1,0-1.665H199.8a.833.833,0,1,1,0,1.665Z" fill="#fff"/>
          <path id="Path_914" data-name="Path 914" d="M199.8,172.634H130.22a.833.833,0,0,1,0-1.665H199.8a.832.832,0,1,1,0,1.665Z" fill="#fff"/>
          <path id="Path_915" data-name="Path 915" d="M155.651,150.751h-26.33a.833.833,0,1,1,0-1.665H155.65a.833.833,0,0,1,0,1.665Z" fill="#fff"/>
        </g>
      </g>
      <g id="Group_3673" data-name="Group 3673">
        <g id="Group_3670" data-name="Group 3670">
          <ellipse id="Ellipse_13" data-name="Ellipse 13" cx="38.658" cy="38.63" rx="38.658" ry="38.63" transform="translate(281.381 204.174)" fill="#ffedc0"/>
          <path id="Path_916" data-name="Path 916" d="M345.476,261.219c2.623-1.3,3.865-4.018,2.369-7.506a24.891,24.891,0,0,1-2-11.93,26.1,26.1,0,1,0-51.61-1.517q.083.7.2,1.393a20.929,20.929,0,0,1-.776,8.576c-1.083,4.014-3.375,7.133.592,10.44a7.464,7.464,0,0,0,5.592,1.655,31.843,31.843,0,0,1,9.643-.134c3.669.646,7.337,2,11.089,1.093,1.988-.479,3.84-1.424,5.831-1.892C332.461,259.976,339.8,264.024,345.476,261.219Z" fill="#160c42"/>
          <path id="Path_917" data-name="Path 917" d="M318.207,258.56h7.94v9.681a3.969,3.969,0,0,1-3.969,3.968h0a3.969,3.969,0,0,1-3.971-3.968Z" fill="#dd9272"/>
          <path id="Path_918" data-name="Path 918" d="M318.207,258.56h7.94v9.681a3.969,3.969,0,0,1-3.969,3.968h0a3.969,3.969,0,0,1-3.971-3.968Z" fill="url(#linear-gradient)"/>
          <path id="Path_919" data-name="Path 919" d="M342.216,236.745a22.848,22.848,0,1,1-22.843-22.832,22.848,22.848,0,0,1,22.843,22.832Z" fill="#dd9272"/>
          <path id="Path_920" data-name="Path 920" d="M327.394,265.411a1.143,1.143,0,0,1-.821-1.516l.4-1.078a1.328,1.328,0,0,0-1.253-1.77h-7.1a1.328,1.328,0,0,0-1.252,1.77l.385,1.088a1.149,1.149,0,0,1-.854,1.507,23.576,23.576,0,0,0-15.4,11.3,38.714,38.714,0,0,0,40.076-1.83,23.3,23.3,0,0,0-14.181-9.471Z" fill="#e9ecf2"/>
          <path id="Path_921" data-name="Path 921" d="M309.167,234.929v8.848h-4.048a.934.934,0,0,1-.783-1.445Z" fill="url(#linear-gradient-2)"/>
          <path id="Path_922" data-name="Path 922" d="M314.547,249.479a3.813,3.813,0,0,0,3.814-3.813h-7.628a3.814,3.814,0,0,0,3.814,3.813Z" fill="#fff"/>
          <path id="Path_923" data-name="Path 923" d="M318.958,235.927a1.25,1.25,0,1,1-1.25-1.25A1.25,1.25,0,0,1,318.958,235.927Z" fill="#3f0600"/>
          <path id="Path_924" data-name="Path 924" d="M303.517,235.927a1.25,1.25,0,1,1-1.25-1.25A1.25,1.25,0,0,1,303.517,235.927Z" fill="#3f0600"/>
          <path id="Path_925" data-name="Path 925" d="M298.976,232.248a.538.538,0,0,1-.377-.921,5.158,5.158,0,0,1,7.336,0,.538.538,0,1,1-.755.766,4.083,4.083,0,0,0-5.826,0A.538.538,0,0,1,298.976,232.248Z" fill="#fff176"/>
          <path id="Path_926" data-name="Path 926" d="M314.418,232.248a.538.538,0,0,1-.378-.921,5.159,5.159,0,0,1,7.337,0,.538.538,0,0,1-.756.766,4.082,4.082,0,0,0-5.825,0,.538.538,0,0,1-.378.155Z" fill="#fff176"/>
          <path id="Path_927" data-name="Path 927" d="M330.466,216.4v41.553a23.587,23.587,0,0,0,0-41.553Z" fill="#160c42"/>
          <g id="Group_3669" data-name="Group 3669">
            <path id="Path_928" data-name="Path 928" d="M334.192,233.727a5.75,5.75,0,0,0-.662.043v11.168a5.742,5.742,0,0,0,.662.042,5.627,5.627,0,0,0,0-11.253Z" fill="#dd9272"/>
          </g>
          <path id="Path_929" data-name="Path 929" d="M332.939,234.646s-21.374-4.093-25.484-15.986,12.808-11.8,25.573-6.213S359.607,239.569,332.939,234.646Z" fill="#160c42"/>
          <path id="Path_930" data-name="Path 930" d="M343.945,234.929a9.017,9.017,0,0,0,3.672-2.549s1.271.319.577,1.907a6.46,6.46,0,0,1-4.665,1.915S343.289,235.21,343.945,234.929Z" fill="#4fc3f7"/>
          <path id="Path_931" data-name="Path 931" d="M316.9,265.412l4.637,6.8,5.857-6.8" fill="none" stroke="#546e7a" stroke-linecap="round" stroke-miterlimit="10" stroke-width="0.765"/>
          <path id="Path_932" data-name="Path 932" d="M322.647,272.161a1.11,1.11,0,1,1-1.11-1.109A1.11,1.11,0,0,1,322.647,272.161Z" fill="#4fc3f7"/>
          <line id="Line_27" data-name="Line 27" x2="2.925" transform="translate(318.264 235.325)" fill="none" stroke="#3f0600" stroke-linecap="round" stroke-miterlimit="10" stroke-width="0.765"/>
          <line id="Line_28" data-name="Line 28" x2="2.925" transform="translate(299.554 235.325)" fill="none" stroke="#3f0600" stroke-linecap="round" stroke-miterlimit="10" stroke-width="0.765"/>
        </g>
        <g id="Group_3672" data-name="Group 3672">
          <g id="Group_3671" data-name="Group 3671">
            <path id="Path_933" data-name="Path 933" d="M175.875,251.939h82.418a3.264,3.264,0,0,0,3.266-3.263v-26.7l6.732-4.282H175.875a3.265,3.265,0,0,0-3.266,3.263v27.718A3.264,3.264,0,0,0,175.875,251.939Z" fill="#b39ddb"/>
            <rect id="Rectangle_25" data-name="Rectangle 25" width="50.303" height="17.122" rx="3.264" transform="translate(211.129 257.721)" fill="#b39ddb"/>
          </g>
          <path id="Path_934" data-name="Path 934" d="M251.712,228.16H182.131a.833.833,0,0,1,0-1.665h69.581a.833.833,0,1,1,0,1.665Z" fill="#473f51"/>
          <path id="Path_935" data-name="Path 935" d="M251.712,236.2H182.131a.832.832,0,1,1,0-1.664h69.581a.832.832,0,1,1,0,1.664Z" fill="#473f51"/>
          <path id="Path_936" data-name="Path 936" d="M251.712,244.249H182.131a.833.833,0,0,1,0-1.665h69.581a.832.832,0,1,1,0,1.665Z" fill="#473f51"/>
          <path id="Path_937" data-name="Path 937" d="M250.271,267.114H223.942a.833.833,0,0,1,0-1.665h26.329a.833.833,0,0,1,0,1.665Z" fill="#473f51"/>
        </g>
      </g>
      <path id="Path_938" data-name="Path 938" d="M250.466,174.107a4.393,4.393,0,1,1,4.4-4.393A4.393,4.393,0,0,1,250.466,174.107Zm0-6.29a1.9,1.9,0,1,0,1.9,1.9,1.9,1.9,0,0,0-1.9-1.9Z" fill="#75d3c7"/>
      <path id="Path_939" data-name="Path 939" d="M114.1,217.612a4.393,4.393,0,1,1,4.4-4.393,4.393,4.393,0,0,1-4.4,4.393Zm0-6.29a1.9,1.9,0,1,0,1.9,1.9,1.9,1.9,0,0,0-1.9-1.9Z" fill="#75d3c7"/>
      <path id="Path_940" data-name="Path 940" d="M46.418,313.475a4.393,4.393,0,1,1,4.4-4.394A4.393,4.393,0,0,1,46.418,313.475Zm0-6.29a1.9,1.9,0,1,0,1.9,1.9,1.9,1.9,0,0,0-1.9-1.9Z" fill="#75d3c7"/>
      <path id="Path_941" data-name="Path 941" d="M266.337,143.061a3.645,3.645,0,1,1,3.647-3.646A3.645,3.645,0,0,1,266.337,143.061Zm0-4.793a1.148,1.148,0,1,0,1.149,1.148,1.148,1.148,0,0,0-1.149-1.148Z" fill="#fff"/>
      <path id="Path_942" data-name="Path 942" d="M132.617,239.111a3.644,3.644,0,1,1,3.647-3.644,3.644,3.644,0,0,1-3.647,3.644Zm0-4.792a1.148,1.148,0,1,0,1.149,1.148,1.148,1.148,0,0,0-1.149-1.148Z" fill="#fff"/>
      <path id="Path_943" data-name="Path 943" d="M302.38,41.153a3.645,3.645,0,1,1,3.647-3.646A3.645,3.645,0,0,1,302.38,41.153Zm0-4.793a1.148,1.148,0,1,0,1.149,1.149A1.148,1.148,0,0,0,302.38,36.36Z" fill="#fff"/>
      <path id="Path_944" data-name="Path 944" d="M342.886,69.532a3.644,3.644,0,1,1,3.647-3.643,3.644,3.644,0,0,1-3.647,3.643Zm0-4.792a1.148,1.148,0,1,0,1.149,1.149,1.148,1.148,0,0,0-1.149-1.149Z" fill="#fff"/>
      <path id="Path_945" data-name="Path 945" d="M68.2,331.863a3.644,3.644,0,1,1,3.648-3.643,3.644,3.644,0,0,1-3.648,3.643Zm0-4.792a1.148,1.148,0,1,0,1.149,1.149A1.148,1.148,0,0,0,68.2,327.071Z" fill="#fff"/>
      <ellipse id="Ellipse_14" data-name="Ellipse 14" cx="1.748" cy="1.747" rx="1.748" ry="1.747" transform="translate(265.377 105.712)" fill="#75d3c7"/>
      <path id="Path_946" data-name="Path 946" d="M173.012,274.8a1.749,1.749,0,1,1-1.748-1.747,1.749,1.749,0,0,1,1.748,1.747Z" fill="#75d3c7"/>
      <path id="Path_947" data-name="Path 947" d="M323.929,46.452a1.748,1.748,0,1,1-.511-1.239,1.748,1.748,0,0,1,.511,1.239Z" fill="#75d3c7"/>
      <path id="Path_948" data-name="Path 948" d="M339.156,135.958a1.748,1.748,0,1,1-1.748-1.747,1.748,1.748,0,0,1,1.748,1.747Z" fill="#75d3c7"/>
      <path id="Path_949" data-name="Path 949" d="M50.065,220.789a1.749,1.749,0,1,1-1.749-1.747,1.749,1.749,0,0,1,1.749,1.747Z" fill="#75d3c7"/>
      <path id="Path_950" data-name="Path 950" d="M238.187,141.813a1.748,1.748,0,1,1-1.748-1.748,1.748,1.748,0,0,1,1.748,1.748Z" fill="#75d3c7"/>
      <path id="Path_951" data-name="Path 951" d="M115.85,239.306a1.748,1.748,0,1,1-1.748-1.747,1.748,1.748,0,0,1,1.748,1.747Z" fill="#75d3c7"/>
      <g id="Group_3674" data-name="Group 3674">
        <path id="Path_952" data-name="Path 952" d="M333.788,117.162a1.249,1.249,0,0,1-1.248-1.248,71.111,71.111,0,0,0-71.055-71.006,1.25,1.25,0,0,1,0-2.5,73.611,73.611,0,0,1,73.553,73.5,1.249,1.249,0,0,1-1.25,1.254Z" fill="#f44d4d"/>
        <path id="Path_953" data-name="Path 953" d="M333.788,117.679l-7.663-7.658a1.248,1.248,0,1,1,1.766-1.765l5.9,5.894,5.627-5.623a1.249,1.249,0,1,1,1.767,1.766Z" fill="#f44d4d"/>
      </g>
      <g id="Group_3675" data-name="Group 3675">
        <path id="Path_954" data-name="Path 954" d="M120.909,325.563a73.612,73.612,0,0,1-73.555-73.5,1.25,1.25,0,1,1,2.5,0,71.11,71.11,0,0,0,71.056,71.006,1.25,1.25,0,0,1,0,2.5Z" fill="#3dd895"/>
        <path id="Path_955" data-name="Path 955" d="M55.384,260.085a1.245,1.245,0,0,1-.883-.365l-5.9-5.894-5.628,5.623a1.248,1.248,0,0,1-1.766-1.765L48.6,250.3l7.663,7.658a1.248,1.248,0,0,1-.883,2.131Z" fill="#75d3c7"/>
      </g>
    </g>
  </g>
</svg>
