<svg xmlns="http://www.w3.org/2000/svg" width="279.042" height="251.229" viewBox="0 0 279.042 251.229">
  <g id="Ai" transform="translate(-817.182 -1722.77)">
    <g id="Vector_Smart_Object" data-name="Vector Smart Object" transform="translate(645.122 1363.111)">
      <g id="Group_71" data-name="Group 71">
        <line id="Line_1" data-name="Line 1" x1="38.274" y2="46.547" transform="translate(390.436 368.319)" fill="none" stroke="#4272ff" stroke-linecap="round" stroke-miterlimit="10" stroke-width="1.112"/>
        <line id="Line_2" data-name="Line 2" y1="48.2" x2="41.223" transform="translate(406.624 360.442)" fill="none" stroke="#4272ff" stroke-linecap="round" stroke-miterlimit="10" stroke-width="1.112"/>
        <line id="Line_3" data-name="Line 3" y1="66.436" x2="53.759" transform="translate(396.56 368.899)" fill="none" stroke="#4272ff" stroke-linecap="round" stroke-miterlimit="10" stroke-width="1.112"/>
      </g>
    </g>
    <g id="Vector_Smart_Object-2" data-name="Vector Smart Object" transform="translate(533.783 1646.824)">
      <g id="Group_76" data-name="Group 76">
        <path id="Path_227" data-name="Path 227" d="M325.5,151.265l-5.629,28.09,13.759,2.7,8.13-24.978Z" fill="#fff" stroke="#000" stroke-linecap="round" stroke-miterlimit="10" stroke-width="0.825"/>
        <g id="Group_72" data-name="Group 72">
          <path id="Path_228" data-name="Path 228" d="M350.284,159.832,319,153.208l3.569-12.789,29.2,11.849Z" fill="#4272ff"/>
          <path id="Path_229" data-name="Path 229" d="M325,138.975,319.876,157.8l-6.379-1.583,5-20Z" fill="#4272ff"/>
          <line id="Line_4" data-name="Line 4" x1="5.128" y2="18.822" transform="translate(319.876 138.975)" fill="none" stroke="#bbd8ff" stroke-linecap="round" stroke-miterlimit="10" stroke-width="0.825"/>
        </g>
        <g id="Group_75" data-name="Group 75">
          <g id="Group_74" data-name="Group 74">
            <path id="Path_230" data-name="Path 230" d="M348.372,150.512a5.308,5.308,0,0,0-4.419.753c-2.047,1.566-4.89.834-10.819-1.848-4.044-1.83-5.692-4.986-4-7.181s9.256-.126,13.884,2.07S348.1,148.757,348.372,150.512Z" fill="#fff" stroke="#000" stroke-linecap="round" stroke-linejoin="round" stroke-width="0.825"/>
            <g id="Group_73" data-name="Group 73">
              <path id="Path_231" data-name="Path 231" d="M329.886,147.188a7.978,7.978,0,0,1,7.547-4.969" fill="none" stroke="#000" stroke-linecap="round" stroke-linejoin="round" stroke-width="0.825"/>
              <path id="Path_232" data-name="Path 232" d="M333.135,149.417s2.669-6.4,9.371-5.348" fill="none" stroke="#000" stroke-linecap="round" stroke-linejoin="round" stroke-width="0.825"/>
              <path id="Path_233" data-name="Path 233" d="M336.8,150.967s2.709-6.469,9.794-4.277" fill="none" stroke="#000" stroke-linecap="round" stroke-linejoin="round" stroke-width="0.825"/>
            </g>
          </g>
          <path id="Path_234" data-name="Path 234" d="M331.939,163.931s3.072-5.425,6.2-5.283c0,0-4.878-.854-4.878-3.429s5.5-2.482,9.505-.9,3.253,7.729,2.752,10.362-8.506,18.936-8.506,18.936L326.505,181.4" fill="#fff" stroke="#000" stroke-linecap="round" stroke-miterlimit="10" stroke-width="0.825"/>
        </g>
      </g>
      <path id="Path_235" data-name="Path 235" d="M370.742,219.884s-40.5,28.767-62.768,26.381-26.017-46.969,10.006-80.983l28.875,8.913-8.008,29.975,23.107.483Z" fill="#fff"/>
      <path id="Path_236" data-name="Path 236" d="M369.053,221.048s-38.814,27.6-61.078,25.217-26.017-46.969,10.006-80.983l28.875,8.913-6.217,27.232,25.382,1.094Z" fill="none" stroke="#000" stroke-linecap="round" stroke-miterlimit="10" stroke-width="0.825"/>
      <path id="Path_237" data-name="Path 237" d="M326.806,203.762s9.851-6.327,19.986-7.113" fill="none" stroke="#000" stroke-linecap="round" stroke-miterlimit="10" stroke-width="0.825"/>
      <g id="Group_100" data-name="Group 100">
        <g id="Group_86" data-name="Group 86">
          <path id="Path_238" data-name="Path 238" d="M504.214,226.972H487.479l.447,36.067h16.734Z" fill="#fff" stroke="#000" stroke-linecap="round" stroke-miterlimit="10" stroke-width="0.825"/>
          <g id="Group_77" data-name="Group 77">
            <path id="Path_239" data-name="Path 239" d="M390.743,232.237s32.87,34.691,42.021,36.644,60.979,0,60.979,0L492.4,217.806l-58.182-1.523-7.927-17.9Z" fill="#3d74fc"/>
            <path id="Path_240" data-name="Path 240" d="M492.552,223.566l-.021-.826H480.544V217.5l-.824-.021v5.266H463.008v-5.7l-.824-.021v5.725H445.472v-6.162l-.824-.021v6.184H427.935V206.592h1.992l-.366-.826h-1.626V202.1l-.824-1.861v5.53h-8.568l-.867.826h9.435V222.74H410.4V213.52l-.824.784v8.435h-8.858l-.867.826h9.725v16.149H398.023c.268.27.542.547.821.826h10.732v10.473l.824.776V240.541h16.712V256.69h-11.37q.466.416.93.826h10.441v8.416c.281.193.555.377.824.554v-8.97h16.713v12.162l.824.016V257.517h16.712v12.165l.824-.011V257.517H479.72v11.805l.824-.022V257.517h12.9l-.021-.826H480.544V240.541H493l-.022-.826H480.544V223.566Zm-65.442,16.149H410.4V223.566h16.712Zm17.537,16.975H427.935V240.541h16.713Zm0-16.975H427.935V223.566h16.713Zm17.536,16.975H445.472V240.541h16.712Zm0-16.975H445.472V223.566h16.712ZM479.72,256.69H463.008V240.541H479.72Zm0-16.975H463.008V223.566H479.72Z" fill="#bbd8ff"/>
            <path id="Path_241" data-name="Path 241" d="M426.292,198.387l-35.549,33.851s32.87,34.691,42.021,36.644,60.979,0,60.979,0L492.4,217.806" fill="none" stroke="#000" stroke-linecap="round" stroke-miterlimit="10" stroke-width="0.825"/>
          </g>
          <g id="Group_85" data-name="Group 85">
            <g id="Group_82" data-name="Group 82">
              <g id="Group_78" data-name="Group 78">
                <ellipse id="Ellipse_11" data-name="Ellipse 11" cx="5.786" cy="5.773" rx="5.786" ry="5.773" transform="matrix(0.2, -0.98, 0.98, 0.201, 534.631, 287.777)"/>
                <path id="Path_242" data-name="Path 242" d="M541.361,280.02a3.252,3.252,0,1,1-3.158,3.335A3.248,3.248,0,0,1,541.361,280.02Z" fill="none" stroke="#fff" stroke-linecap="round" stroke-miterlimit="10" stroke-width="0.825"/>
              </g>
              <g id="Group_79" data-name="Group 79">
                <path id="Path_243" data-name="Path 243" d="M540.8,258.546a5.787,5.787,0,1,1-5.62,5.935A5.779,5.779,0,0,1,540.8,258.546Z"/>
                <path id="Path_244" data-name="Path 244" d="M540.87,261.08a3.252,3.252,0,1,1-3.158,3.335A3.248,3.248,0,0,1,540.87,261.08Z" fill="none" stroke="#fff" stroke-linecap="round" stroke-miterlimit="10" stroke-width="0.825"/>
              </g>
              <g id="Group_80" data-name="Group 80">
                <path id="Path_245" data-name="Path 245" d="M540.313,239.606a5.787,5.787,0,1,1-5.621,5.935A5.779,5.779,0,0,1,540.313,239.606Z"/>
                <path id="Path_246" data-name="Path 246" d="M540.378,242.14a3.252,3.252,0,1,1-3.158,3.335A3.247,3.247,0,0,1,540.378,242.14Z" fill="none" stroke="#fff" stroke-linecap="round" stroke-miterlimit="10" stroke-width="0.825"/>
              </g>
              <g id="Group_81" data-name="Group 81">
                <path id="Path_247" data-name="Path 247" d="M539.822,220.666a5.787,5.787,0,1,1-5.62,5.935A5.779,5.779,0,0,1,539.822,220.666Z"/>
                <ellipse id="Ellipse_12" data-name="Ellipse 12" cx="3.243" cy="3.252" rx="3.243" ry="3.252" transform="translate(536.729 223.199)" fill="none" stroke="#fff" stroke-linecap="round" stroke-miterlimit="10" stroke-width="0.825"/>
              </g>
            </g>
            <path id="Path_248" data-name="Path 248" d="M538.452,292.86l-1.723-70.939L502.661,223.2l1.329,42.4,10.652-.257S518.351,297.872,538.452,292.86Z" fill="#fff" stroke="#000" stroke-linecap="round" stroke-miterlimit="10" stroke-width="0.825"/>
            <path id="Path_249" data-name="Path 249" d="M516.765,240.163a4.845,4.845,0,1,1-4.7,4.969A4.837,4.837,0,0,1,516.765,240.163Z" fill="none" stroke="#000" stroke-linecap="round" stroke-miterlimit="10" stroke-width="0.825"/>
            <g id="Group_83" data-name="Group 83">
              <line id="Line_5" data-name="Line 5" x1="7.235" y2="3.881" transform="translate(516.926 271.648)" fill="none" stroke="#000" stroke-linecap="round" stroke-miterlimit="10" stroke-width="0.825"/>
              <line id="Line_6" data-name="Line 6" x1="7.943" y2="4.343" transform="translate(515.228 264.539)" fill="none" stroke="#000" stroke-linecap="round" stroke-miterlimit="10" stroke-width="0.825"/>
            </g>
            <g id="Group_84" data-name="Group 84">
              <path id="Path_250" data-name="Path 250" d="M516.058,272.533s-18.152-9.81-24.663-4.446S489.347,292.013,516.058,272.533Z" fill="none" stroke="#000" stroke-linecap="round" stroke-linejoin="round" stroke-width="0.825"/>
              <path id="Path_251" data-name="Path 251" d="M515.96,272.493s-17.789,4.53-18.834,11.978S510.153,301.388,515.96,272.493Z" fill="none" stroke="#000" stroke-linecap="round" stroke-linejoin="round" stroke-width="0.825"/>
            </g>
            <path id="Path_252" data-name="Path 252" d="M533.968,239.183a17.3,17.3,0,0,0,3.17-.389l-.41-16.873-20.4.765A17.234,17.234,0,0,0,533.968,239.183Z" fill="#bbd8ff" stroke="#000" stroke-linecap="round" stroke-miterlimit="10" stroke-width="0.825"/>
            <path id="Path_253" data-name="Path 253" d="M533.452,293.35a16.177,16.177,0,0,0,5-.49l-1.723-70.939-5.124.193Z" fill="#fff" stroke="#000" stroke-linecap="round" stroke-miterlimit="10" stroke-width="0.825"/>
          </g>
        </g>
        <g id="Group_99" data-name="Group 99">
          <path id="Path_254" data-name="Path 254" d="M380.528,266.112l10.8,23.507,31.769-3.589-14.945-27.1Z" fill="#fff" stroke="#000" stroke-linecap="round" stroke-miterlimit="10" stroke-width="0.825"/>
          <g id="Group_89" data-name="Group 89">
            <path id="Path_255" data-name="Path 255" d="M422.068,192.6c-21.078-9.658-24.206-4.341-24.206-4.341s-41.9,25.947-44.624,39.922,16.768,50.761,16.768,50.761l49.146-10.814L403.738,242h0c13.474-6.955,33.218-17.438,37.918-21.51C448.955,214.164,443.146,202.258,422.068,192.6Z" fill="#4272ff"/>
            <g id="Group_87" data-name="Group 87">
              <path id="Path_256" data-name="Path 256" d="M433.962,223.567V207.417h8.286c-.185-.274-.377-.549-.583-.826h-7.7v-7.244c-.269-.192-.546-.384-.824-.576v7.82H416.425V190.443h.623c-.738-.295-1.454-.574-2.138-.826H398.889v-2.146a3.193,3.193,0,0,0-.824.552v1.594H395.72q-.574.368-1.278.826h3.623v16.148H381.352v-7.163l-.824.6v6.563h-8.571q-.51.411-1.017.826h9.588v16.149H363.817V213.64q-.418.394-.824.787v9.14h-7.777q-.257.416-.485.826h8.263v16.148h-8.657q.1.41.208.826h8.449v16.149h-2.918l.339.826h2.579v6.02q.415.936.824,1.834v-7.854h16.712v16.148H367.746l.41.826h12.371v1.31l.824-.182v-1.128h5.129l3.754-.826h-8.883V258.343h16.712v14.425l.824-.181V258.343H413.38l-.487-.826h-14V241.367h6.072l1.594-.826h-7.665V224.393H415.6v11.4l.824-.439V224.393h16.713v1.7c.279-.164.553-.327.824-.488v-1.209h2c.46-.283.9-.559,1.323-.826Zm-53.434,33.95H363.817V241.367h16.712Zm0-16.975H363.817V224.393h16.712Zm17.537,16.975H381.352V241.367h16.712Zm0-16.975H381.352V224.393h16.712Zm0-16.975H381.352V207.417h16.712Zm17.536,0H398.889V207.417H415.6Zm0-16.975H398.889V190.443H415.6Zm17.537,16.975H416.425V207.417h16.713Z" fill="#bbd8ff"/>
              <path id="Path_257" data-name="Path 257" d="M416.425,268.728V263.5l-.824-1.4v6.8Z" fill="#bbd8ff"/>
            </g>
            <g id="Group_88" data-name="Group 88">
              <path id="Path_258" data-name="Path 258" d="M370.006,278.942l49.146-10.813L403.739,242" fill="none" stroke="#000" stroke-linecap="round" stroke-miterlimit="10" stroke-width="0.825"/>
              <path id="Path_259" data-name="Path 259" d="M390.743,248.616s43.611-21.8,50.911-28.127,1.492-18.231-19.587-27.89-24.206-4.341-24.206-4.341-41.9,25.947-44.624,39.922" fill="none" stroke="#000" stroke-linecap="round" stroke-miterlimit="10" stroke-width="0.825"/>
            </g>
          </g>
          <g id="Group_98" data-name="Group 98">
            <g id="Group_94" data-name="Group 94">
              <g id="Group_90" data-name="Group 90">
                <ellipse id="Ellipse_13" data-name="Ellipse 13" cx="5.772" cy="5.787" rx="5.772" ry="5.787" transform="translate(366.4 315.522)"/>
                <ellipse id="Ellipse_14" data-name="Ellipse 14" cx="3.243" cy="3.252" rx="3.243" ry="3.252" transform="translate(368.929 318.057)" fill="none" stroke="#fff" stroke-linecap="round" stroke-miterlimit="10" stroke-width="0.825"/>
              </g>
              <g id="Group_91" data-name="Group 91">
                <ellipse id="Ellipse_15" data-name="Ellipse 15" cx="5.772" cy="5.787" rx="5.772" ry="5.787" transform="translate(385.298 315.522)"/>
                <ellipse id="Ellipse_16" data-name="Ellipse 16" cx="3.243" cy="3.252" rx="3.243" ry="3.252" transform="translate(387.827 318.057)" fill="none" stroke="#fff" stroke-linecap="round" stroke-miterlimit="10" stroke-width="0.825"/>
              </g>
              <g id="Group_92" data-name="Group 92">
                <ellipse id="Ellipse_17" data-name="Ellipse 17" cx="5.772" cy="5.787" rx="5.772" ry="5.787" transform="translate(404.196 315.522)"/>
                <ellipse id="Ellipse_18" data-name="Ellipse 18" cx="3.243" cy="3.252" rx="3.243" ry="3.252" transform="translate(406.724 318.057)" fill="none" stroke="#fff" stroke-linecap="round" stroke-miterlimit="10" stroke-width="0.825"/>
              </g>
              <g id="Group_93" data-name="Group 93">
                <ellipse id="Ellipse_19" data-name="Ellipse 19" cx="5.772" cy="5.787" rx="5.772" ry="5.787" transform="translate(423.093 315.522)"/>
                <path id="Path_260" data-name="Path 260" d="M432.109,321.309a3.243,3.243,0,1,1-3.243-3.252A3.247,3.247,0,0,1,432.109,321.309Z" fill="none" stroke="#fff" stroke-linecap="round" stroke-miterlimit="10" stroke-width="0.825"/>
              </g>
            </g>
            <path id="Path_261" data-name="Path 261" d="M362.688,318.059h77.319l-15.226-35.529L385.239,284.5l5.5,10.407S358.214,297.783,362.688,318.059Z" fill="#fff" stroke="#000" stroke-linecap="round" stroke-miterlimit="10" stroke-width="0.825"/>
            <g id="Group_97" data-name="Group 97">
              <path id="Path_262" data-name="Path 262" d="M415.8,297.693a4.833,4.833,0,1,1-4.833-4.845A4.839,4.839,0,0,1,415.8,297.693Z" fill="none" stroke="#000" stroke-linecap="round" stroke-miterlimit="10" stroke-width="0.825"/>
              <g id="Group_95" data-name="Group 95">
                <line id="Line_7" data-name="Line 7" x1="3.682" y1="7.352" transform="translate(380.528 296.936)" fill="none" stroke="#000" stroke-linecap="round" stroke-miterlimit="10" stroke-width="0.825"/>
                <line id="Line_8" data-name="Line 8" x1="4.124" y1="8.074" transform="translate(387.201 295.406)" fill="none" stroke="#000" stroke-linecap="round" stroke-miterlimit="10" stroke-width="0.825"/>
              </g>
              <g id="Group_96" data-name="Group 96">
                <path id="Path_263" data-name="Path 263" d="M383.539,296.144s10.253-17.938,5.073-24.6S364.81,268.866,383.539,296.144Z" fill="none" stroke="#000" stroke-linecap="round" stroke-linejoin="round" stroke-width="0.825"/>
                <path id="Path_264" data-name="Path 264" d="M383.581,296.046s-4.054-17.947-11.453-19.188S354.921,289.475,383.581,296.046Z" fill="none" stroke="#000" stroke-linecap="round" stroke-linejoin="round" stroke-width="0.825"/>
              </g>
              <path id="Path_265" data-name="Path 265" d="M431.346,297.85a17.193,17.193,0,0,0-14.728,20.209h23.389Z" fill="#bbd8ff" stroke="#000" stroke-linecap="round" stroke-miterlimit="10" stroke-width="0.825"/>
              <path id="Path_266" data-name="Path 266" d="M362.688,318.059h77.319l-2.153-5.024H362.33A16.32,16.32,0,0,0,362.688,318.059Z" fill="#fff" stroke="#000" stroke-linecap="round" stroke-miterlimit="10" stroke-width="0.825"/>
            </g>
          </g>
        </g>
      </g>
      <path id="Path_267" data-name="Path 267" d="M355.731,175.432s17.771-10.267,43.647-14.783c26.187-4.57,52.888-4.417,57.154,14.783l-49.458,24.636-52.332-19.417Z" fill="#fff"/>
      <path id="Path_268" data-name="Path 268" d="M355.731,175.432s17.771-10.267,43.647-14.783c26.187-4.57,52.888-4.417,57.154,14.783" fill="none" stroke="#000" stroke-linecap="round" stroke-miterlimit="10" stroke-width="0.825"/>
      <g id="Group_106" data-name="Group 106">
        <g id="Group_104" data-name="Group 104">
          <ellipse id="Ellipse_20" data-name="Ellipse 20" cx="12.441" cy="12.467" rx="12.441" ry="12.467" transform="matrix(0.945, -0.326, 0.325, 0.946, 349.869, 144.959)" fill="#fff" stroke="#010001" stroke-miterlimit="10" stroke-width="0.825"/>
          <path id="Path_269" data-name="Path 269" d="M365.676,139.218a12.441,12.441,0,0,0-11.921,8.925c3.245,3.559,9.631,6.894,22.136,5.067a8.132,8.132,0,0,0,2.1.14,12.385,12.385,0,0,0-12.315-14.133Z" fill="#010001"/>
          <g id="Group_103" data-name="Group 103">
            <path id="Path_270" data-name="Path 270" d="M357.431,160.649a2.967,2.967,0,0,0,2.491-2.753" fill="none" stroke="#010001" stroke-linecap="round" stroke-miterlimit="10" stroke-width="0.825"/>
            <path id="Path_271" data-name="Path 271" d="M354.625,152.583l-.87,5.474,1.976-.132" fill="#fff" stroke="#010001" stroke-linecap="round" stroke-miterlimit="10" stroke-width="0.825"/>
            <path id="Path_272" data-name="Path 272" d="M359.046,153.621a.924.924,0,1,1-.924-.926A.925.925,0,0,1,359.046,153.621Z" fill="#010001"/>
            <g id="Group_102" data-name="Group 102">
              <g id="Group_101" data-name="Group 101">
                <path id="Path_273" data-name="Path 273" d="M379.825,155.478a3.165,3.165,0,1,1-3.415-2.9A3.172,3.172,0,0,1,379.825,155.478Z" fill="#fff"/>
                <path id="Path_274" data-name="Path 274" d="M376.636,153.952a1.781,1.781,0,0,1,.291,3.551" fill="none" stroke="#010001" stroke-linecap="round" stroke-miterlimit="10" stroke-width="0.825"/>
                <path id="Path_275" data-name="Path 275" d="M374.789,153.182a3.175,3.175,0,1,1,.208,5.252" fill="none" stroke="#010001" stroke-linecap="round" stroke-miterlimit="10" stroke-width="0.825"/>
              </g>
            </g>
          </g>
        </g>
        <g id="Group_105" data-name="Group 105">
          <line id="Line_9" data-name="Line 9" x2="36.971" y2="8.138" transform="translate(356.066 146.326)" fill="none" stroke="#4272ff" stroke-linecap="round" stroke-miterlimit="10" stroke-width="3.3"/>
          <path id="Path_276" data-name="Path 276" d="M365.676,139.119a12.433,12.433,0,0,0-11.673,8.2l24.063,5.235c.024-.319.049-.639.049-.963A12.454,12.454,0,0,0,365.676,139.119Z" fill="#6cddaf" stroke="#010001" stroke-miterlimit="10" stroke-width="0.825"/>
        </g>
      </g>
      <g id="Group_108" data-name="Group 108">
        <rect id="Rectangle_15" data-name="Rectangle 15" width="34.78" height="143.152" transform="matrix(0.307, -0.952, 0.951, 0.308, 304.449, 194.578)" fill="#fb441a"/>
        <rect id="Rectangle_16" data-name="Rectangle 16" width="34.78" height="31.412" rx="9.889" transform="matrix(0.307, -0.952, 0.951, 0.308, 436.259, 237.244)" fill="#fb441a"/>
        <g id="Group_107" data-name="Group 107">
          <line id="Line_10" data-name="Line 10" x2="132.938" y2="43.032" transform="translate(307.806 185.15)" fill="none" stroke="#000" stroke-linecap="round" stroke-miterlimit="10" stroke-width="0.825"/>
          <line id="Line_11" data-name="Line 11" x2="132.938" y2="43.032" transform="translate(312.334 171.088)" fill="none" stroke="#000" stroke-linecap="round" stroke-miterlimit="10" stroke-width="0.825"/>
          <line id="Line_12" data-name="Line 12" x2="61.186" y2="19.806" transform="translate(348.787 208.93)" fill="none" stroke="#000" stroke-linecap="round" stroke-miterlimit="10" stroke-width="0.825"/>
        </g>
        <path id="Path_277" data-name="Path 277" d="M285.752,170.247l18.7,24.331,10.661-33.106Z" fill="#fb441a"/>
        <path id="Rectangle_17" data-name="Rectangle 17" d="M3.169,0H4.446A3.169,3.169,0,0,1,7.615,3.169v3.6a0,0,0,0,1,0,0H0a0,0,0,0,1,0,0v-3.6A3.169,3.169,0,0,1,3.169,0Z" transform="matrix(0.307, -0.952, 0.951, 0.308, 283.399, 173.488)" fill="#f98c8c"/>
        <rect id="Rectangle_18" data-name="Rectangle 18" width="38.79" height="7.419" rx="2.716" transform="matrix(0.307, -0.952, 0.951, 0.308, 434.777, 238.871)" fill="#f98c8c"/>
      </g>
      <g id="Group_109" data-name="Group 109">
        <path id="Path_278" data-name="Path 278" d="M388.432,200.93s-21.04,5.739-20.061,9.744c1.028,4.208,11.466,1.955,11.466,1.955s-4.813,3.395-8.542,3.586c0,0,3.653,5.791,15.064,8.442s22.148-18.613,22.148-18.613Z" fill="#fff" stroke="#000" stroke-linecap="round" stroke-linejoin="round" stroke-width="0.825"/>
        <path id="Path_279" data-name="Path 279" d="M370.006,209.92s1.745-1.094,2.459-.982c1.074.169,1.074,1.737,1.074,1.737" fill="none" stroke="#000" stroke-linecap="round" stroke-miterlimit="10" stroke-width="0.825"/>
        <path id="Path_280" data-name="Path 280" d="M375.359,220.03a29.008,29.008,0,0,0,7.777-2.546" fill="none" stroke="#000" stroke-linecap="round" stroke-miterlimit="10" stroke-width="0.825"/>
        <path id="Path_281" data-name="Path 281" d="M382.089,223.411s6.774-1.218,8.654-2.922" fill="none" stroke="#000" stroke-linecap="round" stroke-miterlimit="10" stroke-width="0.825"/>
      </g>
      <path id="Path_282" data-name="Path 282" d="M399.378,160.649c26.187-4.57,52.888-4.417,57.154,14.783,3.271,14.722-14.468,35.592-55.275,42.321l-19.867-17.685,27.653-29.162" fill="none" stroke="#000" stroke-linecap="round" stroke-miterlimit="10" stroke-width="0.825"/>
      <line id="Line_13" data-name="Line 13" x2="189.359" transform="translate(320.091 326.763)" fill="none" stroke="#000" stroke-linecap="round" stroke-miterlimit="10" stroke-width="0.824"/>
      <g id="Group_114" data-name="Group 114">
        <g id="Group_112" data-name="Group 112">
          <g id="Group_111" data-name="Group 111">
            <rect id="Rectangle_19" data-name="Rectangle 19" width="12.484" height="15.653" rx="5.384" transform="translate(404.409 121.596)" fill="#bbd8ff" stroke="#010001" stroke-linecap="round" stroke-miterlimit="10" stroke-width="0.825"/>
            <g id="Group_110" data-name="Group 110">
              <line id="Line_14" data-name="Line 14" x2="9.698" transform="translate(405.651 135.304)" fill="none" stroke="#010001" stroke-linecap="round" stroke-miterlimit="10" stroke-width="0.824"/>
              <line id="Line_15" data-name="Line 15" x2="12.256" transform="translate(404.499 132.838)" fill="none" stroke="#010001" stroke-linecap="round" stroke-miterlimit="10" stroke-width="0.824"/>
              <line id="Line_16" data-name="Line 16" x2="12.346" transform="translate(404.409 130.53)" fill="none" stroke="#010001" stroke-linecap="round" stroke-miterlimit="10" stroke-width="0.824"/>
            </g>
          </g>
          <ellipse id="Ellipse_21" data-name="Ellipse 21" cx="15.643" cy="15.605" rx="15.643" ry="15.605" transform="matrix(0.161, -0.987, 0.987, 0.162, 392.737, 125.899)" fill="#fff" stroke="#010001" stroke-linecap="round" stroke-miterlimit="10" stroke-width="0.825"/>
          <path id="Path_283" data-name="Path 283" d="M399.136,119.292s12.243-4.575,11.645-10.362-9.59.538-2.745,7.67,11.41-6.056,8.457-6.056-4.7,9.556,4.161,7.671" fill="none" stroke="#010001" stroke-linecap="round" stroke-miterlimit="10" stroke-width="0.825"/>
        </g>
        <g id="Group_113" data-name="Group 113">
          <line id="Line_17" data-name="Line 17" y1="3.095" x2="4.756" transform="translate(390.586 124.406)" fill="none" stroke="#010001" stroke-linecap="round" stroke-miterlimit="10" stroke-width="0.825"/>
          <line id="Line_18" data-name="Line 18" x2="10.969" transform="translate(381.995 114.044)" fill="none" stroke="#010001" stroke-linecap="round" stroke-miterlimit="10" stroke-width="0.824"/>
          <line id="Line_19" data-name="Line 19" x2="4.471" y2="3.634" transform="translate(390.586 98.702)" fill="none" stroke="#010001" stroke-linecap="round" stroke-miterlimit="10" stroke-width="0.825"/>
          <line id="Line_20" data-name="Line 20" y2="7.806" transform="translate(409.896 86.589)" fill="none" stroke="#010001" stroke-linecap="round" stroke-miterlimit="10" stroke-width="0.826"/>
          <line id="Line_21" data-name="Line 21" y1="3.903" x2="6.132" transform="translate(423.383 96.01)" fill="none" stroke="#010001" stroke-linecap="round" stroke-miterlimit="10" stroke-width="0.825"/>
          <line id="Line_22" data-name="Line 22" x2="6.712" transform="translate(428.306 112.025)" fill="none" stroke="#010001" stroke-linecap="round" stroke-miterlimit="10" stroke-width="0.824"/>
          <line id="Line_23" data-name="Line 23" x2="8.74" y2="3.473" transform="translate(426.278 122.481)" fill="none" stroke="#010001" stroke-linecap="round" stroke-miterlimit="10" stroke-width="0.825"/>
        </g>
      </g>
    </g>
  </g>
</svg>
