<svg xmlns="http://www.w3.org/2000/svg" width="585" height="460" viewBox="0 0 585 460">
  <g id="Ai" transform="translate(-1107 -198)">
    <g id="Vector_Smart_Object" data-name="Vector Smart Object" transform="translate(1079.984 107.86)">
      <g id="Group_39" data-name="Group 39">
        <path id="Path_1" data-name="Path 1" d="M327.207,444.768a17.17,17.17,0,1,0-34.34,0H259.587V545.862h100.9V444.768Z" fill="#f95535"/>
        <path id="Path_2" data-name="Path 2" d="M316.131,313.894a17.17,17.17,0,1,0-34.33-.863l-33.267-.837L246,413.255l36.149.909a17.766,17.766,0,1,1,35.531.04c0,.288-.029.569-.043.854l29.228.735L349.4,314.731Z" fill="#64bad8"/>
        <g id="Group_13" data-name="Group 13">
          <ellipse id="Ellipse_1" data-name="Ellipse 1" cx="77.387" cy="77.539" rx="77.387" ry="77.539" transform="translate(456.861 90.14)" fill="#ffe7e1"/>
          <g id="Group_12" data-name="Group 12">
            <g id="Group_1" data-name="Group 1">
              <path id="Path_3" data-name="Path 3" d="M381.275,205.574s-18.742-7.217-18.959-5.674,5.81,4.579,5.81,4.579-8.962,1.146-13.916,1.441a4.26,4.26,0,0,0-3.846,3.466l-.941,4.922s9.093.986,14.056,1.16,19.834-.146,19.834-.146Z" fill="#d8948f"/>
              <line id="Line_1" data-name="Line 1" y1="0.472" x2="11.433" transform="translate(350.504 208.444)" fill="none" stroke="#050528" stroke-linecap="round" stroke-linejoin="round" stroke-width="0.64"/>
              <line id="Line_2" data-name="Line 2" y1="0.471" x2="11.433" transform="translate(349.945 211.588)" fill="none" stroke="#050528" stroke-linecap="round" stroke-linejoin="round" stroke-width="0.64"/>
            </g>
            <g id="Group_2" data-name="Group 2">
              <path id="Path_4" data-name="Path 4" d="M549.481,266.335s-12.567,15.689-11.168,16.367,6.123-4.152,6.123-4.152-1.64,8.9-2.868,13.72A4.268,4.268,0,0,0,543.693,297l4.393,2.4s3.706-8.379,5.384-13.062,5.9-18.974,5.9-18.974Z" fill="#d8948f"/>
              <line id="Line_3" data-name="Line 3" y1="11.055" x2="3.033" transform="translate(543.288 285.665)" fill="none" stroke="#050528" stroke-linecap="round" stroke-linejoin="round" stroke-width="0.64"/>
              <line id="Line_4" data-name="Line 4" y1="11.055" x2="3.033" transform="translate(546.107 287.156)" fill="none" stroke="#050528" stroke-linecap="round" stroke-linejoin="round" stroke-width="0.64"/>
            </g>
            <g id="Group_10" data-name="Group 10">
              <g id="Group_9" data-name="Group 9">
                <g id="Group_3" data-name="Group 3">
                  <path id="Path_5" data-name="Path 5" d="M489.4,170.621h0a8.509,8.509,0,0,0,.166-11.982l-11.924-12.286a8.471,8.471,0,0,0-11.959-.166h0a8.509,8.509,0,0,0-.166,11.982l11.923,12.286A8.471,8.471,0,0,0,489.4,170.621Z" fill="#d8948f"/>
                  <path id="Path_6" data-name="Path 6" d="M465.171,146.69l1.033-1.007a7.75,7.75,0,0,1,10.941.152l4.227,4.356c-.665,7.02-4.193,14.162-7.362,16.723l-8.991-9.264A7.784,7.784,0,0,1,465.171,146.69Z" fill="#c67775"/>
                </g>
                <path id="Path_7" data-name="Path 7" d="M443.191,154.365a17.58,17.58,0,0,1-3.246-4.72c-.041-.067-.069-.118-.082-.142l.013-.013a17.581,17.581,0,0,1,27.011-21.064c.008,0,.018,0,.024.009,3.35,1.952,7.424,10.027,9.51,14.559a12.208,12.208,0,0,1,1.03,6.576c-.924,7.624-5.8,23.246-14.486,21.622C455.141,169.729,447.938,160.826,443.191,154.365Z" fill="#d8948f"/>
                <path id="Path_8" data-name="Path 8" d="M456.618,160.463s2.706-.012,3.516-3.427" fill="none" stroke="#0e0108" stroke-linecap="round" stroke-linejoin="round" stroke-width="0.64"/>
                <g id="Group_4" data-name="Group 4">
                  <path id="Path_9" data-name="Path 9" d="M463.942,141.7a.447.447,0,0,0,.129-.245.455.455,0,0,0-.366-.529c-4.343-.789-6.335,4.123-6.355,4.173a.454.454,0,0,0,.845.335c.069-.174,1.741-4.268,5.349-3.614A.448.448,0,0,0,463.942,141.7Z" fill="#0e0108"/>
                </g>
                <path id="Path_10" data-name="Path 10" d="M445.338,157.209c-.189-.245-.376-.485-.56-.727a8.743,8.743,0,0,1,3.021-2.072.455.455,0,0,1,.312.855A7.517,7.517,0,0,0,445.338,157.209Z" fill="#0e0108"/>
                <path id="Path_11" data-name="Path 11" d="M459.868,153.6s5.878-1.383,6.583-9.644C466.452,143.958,457.811,147.2,459.868,153.6Z" fill="#fff"/>
                <g id="Group_6" data-name="Group 6">
                  <g id="Group_5" data-name="Group 5">
                    <path id="Path_12" data-name="Path 12" d="M459.733,153.973a.455.455,0,0,0,.135-.371,8.239,8.239,0,0,1,6.8-8.759.455.455,0,0,0-.212-.885,9.261,9.261,0,0,0-7.487,9.736.453.453,0,0,0,.768.279Z" fill="#0e0108"/>
                  </g>
                </g>
                <g id="Group_7" data-name="Group 7">
                  <path id="Path_13" data-name="Path 13" d="M479.795,134.091a6.807,6.807,0,1,0-.133,9.636A6.79,6.79,0,0,0,479.795,134.091Z" fill="#d8948f"/>
                  <path id="Path_14" data-name="Path 14" d="M473.15,141.478s-2.3-5.5,2.759-8.714" fill="none" stroke="#0e0108" stroke-linecap="round" stroke-linejoin="round" stroke-width="0.64"/>
                </g>
                <path id="Path_15" data-name="Path 15" d="M462.049,152.534a3.133,3.133,0,0,1-2.354-2.11,7.931,7.931,0,0,1,2.975-4.272,3.166,3.166,0,0,1,2.927,1.721A9.7,9.7,0,0,1,462.049,152.534Z" fill="#050528"/>
                <g id="Group_8" data-name="Group 8">
                  <path id="Path_16" data-name="Path 16" d="M451.046,158.546a9.953,9.953,0,0,1,3.208-.058,13.88,13.88,0,0,1-1.8,2.433,3.2,3.2,0,0,0-.3-1.124A3.161,3.161,0,0,0,451.046,158.546Z" fill="#fff"/>
                  <path id="Path_17" data-name="Path 17" d="M450.412,158.206Z" fill="#050528"/>
                  <path id="Path_18" data-name="Path 18" d="M450.1,162.8l.116-.068c.129-.078.258-.159.389-.246s.235-.16.353-.246c.138-.1.277-.211.417-.324.111-.091.224-.181.335-.278.167-.147.332-.31.5-.475.084-.083.167-.156.251-.245h0a3.2,3.2,0,0,0-.3-1.124,3.161,3.161,0,0,0-1.1-1.251,9.953,9.953,0,0,1,3.208-.058c.115.015.227.027.346.046a.455.455,0,0,0,.144-.9,9.194,9.194,0,0,0-7.633,1.79l.212.254,0,0c.115.138.234.277.351.415C448.453,161.014,449.259,161.919,450.1,162.8Zm.317-4.6h0Z" fill="#050528"/>
                </g>
                <path id="Path_19" data-name="Path 19" d="M462.211,166.405a6.786,6.786,0,0,0,4.215-.837,8.358,8.358,0,0,0,4.119-6.617,6.364,6.364,0,0,0-.921-4.123c-.849-1.17-2.424-1.565-3.136-.051-.694,1.473-.552,3.18-1.258,4.656a5.415,5.415,0,0,1-1.04,1.473,4.856,4.856,0,0,1-1.14.574c-1.134.389-4.133.583-4.05,2.326C459.074,165.349,460.892,166.214,462.211,166.405Z" fill="#0e0108"/>
                <path id="Path_20" data-name="Path 20" d="M465.888,161.08a4.856,4.856,0,0,1,4.578-1.549,8.311,8.311,0,0,1-4.04,6.037,7.432,7.432,0,0,1-1.389.572A4.884,4.884,0,0,1,465.888,161.08Z" fill="#ff8dcc"/>
              </g>
            </g>
            <g id="Group_11" data-name="Group 11">
              <path id="Path_21" data-name="Path 21" d="M474.01,166.915l-42.452,32.768s-21.836,5.646-50.788,3.942L377.6,218.971s32.656,17.336,64.69,3.41,49.622-36.662,49.622-36.662Z" fill="#f9a08c"/>
              <path id="Path_22" data-name="Path 22" d="M554.661,205.13c-11.61-19.092-44.355-49.335-51.892-49.335a18.982,18.982,0,0,0-18.964,19c0,8.614,47.334,45.626,47.334,45.626s11.138,19.37,13.431,48.337l15.608,1.042S572.83,235.011,554.661,205.13Z" fill="#f9a08c"/>
              <path id="Path_23" data-name="Path 23" d="M609.623,187.249a77.8,77.8,0,0,0-8.332-58.561c-15.448.61-87.618,3.483-99.721,4.456C488,134.234,480.619,149.4,480.619,149.4c3.456,13.126-6.229,17.891-6.229,17.891,8.414,19.043,69.776,38.586,69.776,38.586Z" fill="#f9a08c"/>
              <line id="Line_5" data-name="Line 5" x2="17.898" y2="18.803" transform="translate(474.39 167.295)" fill="none" stroke="#fff" stroke-linecap="round" stroke-linejoin="round" stroke-width="0.64"/>
              <path id="Path_24" data-name="Path 24" d="M553.57,203.2s-36.559-48.2-49.164-48.722-21,9.932-19.643,23.71" fill="none" stroke="#fff" stroke-linecap="round" stroke-linejoin="round" stroke-width="0.64"/>
              <path id="Path_25" data-name="Path 25" d="M558.024,211.018c-.888-1.848-1.876-3.687-2.983-5.506-3.779-6.216-9.8-13.611-16.463-20.762a16.343,16.343,0,0,0,19.446,26.268Z" fill="#f98d67"/>
              <path id="Path_26" data-name="Path 26" d="M454.2,216.481a16.339,16.339,0,0,0-30.511,10.834,65.048,65.048,0,0,0,18.6-4.934C446.513,220.545,450.479,218.552,454.2,216.481Z" fill="#f98d67"/>
            </g>
          </g>
          <path id="Path_27" data-name="Path 27" d="M452.135,129.042s9.956,10.834,16.915,9.331a7.681,7.681,0,0,1,2.042-5.286,15.274,15.274,0,0,0-4.182-4.652c-.006-.005-.017-.005-.024-.009a17.581,17.581,0,0,0-27.011,21.064l-.013.013c.013.024.041.076.082.142a17.56,17.56,0,0,0,3.246,4.72S457.541,146.312,452.135,129.042Z" fill="#050528"/>
        </g>
        <g id="Group_25" data-name="Group 25">
          <path id="Path_28" data-name="Path 28" d="M510.09,301.329A134.771,134.771,0,0,1,369.7,531.38Z" fill="#c7ddff"/>
          <g id="Group_24" data-name="Group 24">
            <g id="Group_21" data-name="Group 21">
              <path id="Path_29" data-name="Path 29" d="M497.614,412.128h-66.7c.644-.444,1.307-.872,2-1.273a16.832,16.832,0,0,1-5.537-2.649c-2.3-1.556-4.651-3.335-5.917-5.582a5.83,5.83,0,0,1,.395-6.62c1.585-2.13,4.214-3.7,6.812-4.934a34.191,34.191,0,0,1,7.249-2.466,9.319,9.319,0,0,1-4.48-8.212,7.943,7.943,0,0,1,2.462-5.477,11.9,11.9,0,0,1,6.468-2.84,30.381,30.381,0,0,1,6.719-.133c-.809-1.908.391-4.248,2.2-5.659a14.63,14.63,0,0,1,9.13-2.771,14.272,14.272,0,0,1,8.992,3.176,12.288,12.288,0,0,1,2.844,3.569,10.41,10.41,0,0,1,5.03,7.983c4.067-1.251,9.358.876,11.846,3.533,3.393,3.621,1.154,7.837-1.626,11.215,4.435.229,8.389,2.994,9.732,6.477,1.489,3.865-.305,8.011-3.406,11.059A15.1,15.1,0,0,1,497.614,412.128Z" fill="#0e0108"/>
              <g id="Group_20" data-name="Group 20">
                <g id="Group_19" data-name="Group 19">
                  <g id="Group_14" data-name="Group 14">
                    <path id="Path_30" data-name="Path 30" d="M463.62,430.032h0a8.617,8.617,0,0,0,8.164-9l-.823-17.367a8.614,8.614,0,0,0-8.98-8.18h0a8.618,8.618,0,0,0-8.164,9l.824,17.368A8.614,8.614,0,0,0,463.62,430.032Z" fill="#d8948f"/>
                    <path id="Path_31" data-name="Path 31" d="M461.251,395.522l1.46-.069a7.878,7.878,0,0,1,8.214,7.484l.293,6.157c-5.214,4.889-12.687,7.942-16.814,7.755l-.621-13.1A7.884,7.884,0,0,1,461.251,395.522Z" fill="#c67775"/>
                  </g>
                  <path id="Path_32" data-name="Path 32" d="M439.4,386.555a17.847,17.847,0,0,1,.7-5.773c.014-.079.026-.137.033-.164h.018a17.819,17.819,0,0,1,34.661,2.176c0,.009.01.017.013.024,1.237,3.739-1.083,12.621-2.537,17.469a12.348,12.348,0,0,1-3.627,5.693c-5.816,5.173-20,13.767-25.514,6.681C438.173,406.281,438.669,394.664,439.4,386.555Z" fill="#d8948f"/>
                  <path id="Path_33" data-name="Path 33" d="M445.511,400.233s2.065,1.812,4.972-.237" fill="none" stroke="#0e0108" stroke-linecap="round" stroke-linejoin="round" stroke-width="0.64"/>
                  <g id="Group_15" data-name="Group 15">
                    <path id="Path_34" data-name="Path 34" d="M463.661,390.9a.446.446,0,0,0,.262-.1.46.46,0,0,0,.077-.648c-2.772-3.524-7.581-1.132-7.629-1.106a.461.461,0,0,0,.417.823c.17-.086,4.186-2.072,6.489.854A.458.458,0,0,0,463.661,390.9Z" fill="#0e0108"/>
                  </g>
                  <path id="Path_35" data-name="Path 35" d="M439.12,390.163c.019-.312.04-.621.061-.928a8.831,8.831,0,0,1,3.686.46.462.462,0,1,1-.337.859A7.594,7.594,0,0,0,439.12,390.163Z" fill="#0e0108"/>
                  <g id="Group_17" data-name="Group 17">
                    <g id="Group_16" data-name="Group 16">
                      <path id="Path_36" data-name="Path 36" d="M452.232,397.4a.461.461,0,0,0,.353-.191c.169-.236,4.225-5.716,11.04-2.082a.462.462,0,0,0,.432-.816,9.369,9.369,0,0,0-12.221,2.359.463.463,0,0,0,.1.644A.453.453,0,0,0,452.232,397.4Z" fill="#0e0108"/>
                    </g>
                  </g>
                  <path id="Path_37" data-name="Path 37" d="M438.963,393.776a9.548,9.548,0,0,1,6.654,2.548.462.462,0,0,1-.6.7,8.738,8.738,0,0,0-6.073-2.356C438.949,394.372,438.957,394.075,438.963,393.776Z" fill="#0e0108"/>
                  <g id="Group_18" data-name="Group 18">
                    <path id="Path_38" data-name="Path 38" d="M480.819,395.793a6.9,6.9,0,1,0-6.565,7.234A6.908,6.908,0,0,0,480.819,395.793Z" fill="#d8948f"/>
                    <path id="Path_39" data-name="Path 39" d="M470.813,396.933s1.941-5.733,7.943-4.766" fill="none" stroke="#0e0108" stroke-linecap="round" stroke-linejoin="round" stroke-width="0.64"/>
                  </g>
                  <path id="Path_40" data-name="Path 40" d="M447.161,406.711s6.68,2.014,9.57-4.312" fill="none" stroke="#0e0108" stroke-linecap="round" stroke-linejoin="round" stroke-width="0.64"/>
                </g>
              </g>
              <path id="Path_41" data-name="Path 41" d="M439.4,386.555a17.847,17.847,0,0,1,.7-5.773c.014-.079.026-.137.033-.164h.018a17.819,17.819,0,0,1,34.661,2.177.217.217,0,0,1,.013.023,54.141,54.141,0,0,1,1.274,6.773c-1.876.964-4.551,3.423-5.133,5.336a.534.534,0,0,1-.886.234A9.4,9.4,0,0,1,468.61,384.8c-2.068.278-4.193-1.318-5.321-2.993a11.731,11.731,0,0,1-1.713-4.526,5.1,5.1,0,0,1-.567.876,5.268,5.268,0,0,1-3.466,1.95,4.669,4.669,0,0,1-4.068-1.8,6,6,0,0,1-.492,1.812A4.093,4.093,0,0,1,450,382.557a3.83,3.83,0,0,1-3.484-1.542c-.043-.056-.077-.117-.118-.174a5.258,5.258,0,0,1-2.165,4.19,2.669,2.669,0,0,1-3.157-.088,2.791,2.791,0,0,1-.3-.291,6.612,6.612,0,0,1-1.458,2.8C439.344,387.155,439.37,386.848,439.4,386.555Z" fill="#0e0108"/>
              <path id="Path_42" data-name="Path 42" d="M479.768,402.155a3.987,3.987,0,1,0-3.986,4A3.991,3.991,0,0,0,479.768,402.155Z" fill="#fff"/>
            </g>
            <g id="Group_23" data-name="Group 23">
              <g id="Group_22" data-name="Group 22">
                <path id="Path_43" data-name="Path 43" d="M347.4,496.977a4.26,4.26,0,0,1,3.846-3.466c4.954-.294,13.916-1.441,13.916-1.441s-6.029-3.036-5.811-4.579c.174-1.229,12.106,3.1,16.946,4.912,6.087.489,47.568,2.692,63.281-26.478l27.342,21.854s-10.786,44.425-91.9,15.234c-4.775.077-11.478.155-14.5.047-4.963-.174-14.056-1.16-14.056-1.16Z" fill="#d8948f"/>
                <line id="Line_6" data-name="Line 6" y1="0.472" x2="11.433" transform="translate(347.533 496.035)" fill="none" stroke="#050528" stroke-linecap="round" stroke-linejoin="round" stroke-width="0.64"/>
                <line id="Line_7" data-name="Line 7" y1="0.472" x2="11.433" transform="translate(346.975 499.179)" fill="none" stroke="#050528" stroke-linecap="round" stroke-linejoin="round" stroke-width="0.64"/>
              </g>
              <path id="Path_44" data-name="Path 44" d="M430.657,474,454.3,419.181s10.878,1.578,17.431-6.183c37.413,6.62,56.319,65.836,63.535,95.645a134.53,134.53,0,0,1-86.705,41.082V511.69Z" fill="#ffb127"/>
              <path id="Path_45" data-name="Path 45" d="M448.565,511.69S480,494.6,474.953,454.91" fill="none" stroke="#fff" stroke-linecap="round" stroke-linejoin="round" stroke-width="0.64"/>
            </g>
          </g>
        </g>
        <g id="Group_38" data-name="Group 38">
          <path id="Path_46" data-name="Path 46" d="M244.785,496.507,196.756,413.54,27.016,434.521V515.4Z" fill="#ffc7c7"/>
          <g id="Group_37" data-name="Group 37">
            <g id="Group_33" data-name="Group 33">
              <path id="Path_47" data-name="Path 47" d="M167.2,264.944l-1.012,6.276c-.346,2.142,1.155,4.015-1.268,6.4H83.707a38.188,38.188,0,0,1,1.683-5.02c1.493-3.6,3.741-7.133,7.767-8.1a22.564,22.564,0,0,1,6.487-.193c2.045.1,3.916-.136,4.926-2.123a25.923,25.923,0,0,0,1.706-5.893,22.987,22.987,0,0,1,1.82-5.455c3.572-6.86,12.02-6.377,18.049-9.6a13.527,13.527,0,0,0,1.426-.89A37.242,37.242,0,0,0,129.9,237.3c1.748-2.445,3.368-4.978,5.209-7.354,2.968-3.828,6.778-7.372,11.517-8.666a12.324,12.324,0,0,1,3.028-.812,14.96,14.96,0,0,1,9.6,2.26,21.414,21.414,0,0,1,7.555,7.633,25.136,25.136,0,0,1,3,10.252,52.3,52.3,0,0,1-.656,12.165C168.555,256.841,167.856,260.89,167.2,264.944Z" fill="#0e0108"/>
              <g id="Group_32" data-name="Group 32">
                <g id="Group_31" data-name="Group 31">
                  <g id="Group_26" data-name="Group 26">
                    <path id="Path_48" data-name="Path 48" d="M144.374,284.679h0a8.888,8.888,0,0,1-8.422-9.28l.85-17.918a8.884,8.884,0,0,1,9.262-8.438h0a8.888,8.888,0,0,1,8.422,9.28l-.85,17.916A8.884,8.884,0,0,1,144.374,284.679Z" fill="#d8948f"/>
                    <path id="Path_49" data-name="Path 49" d="M146.816,249.078l-1.506-.072a8.129,8.129,0,0,0-8.474,7.72l-.3,6.353c5.379,5.044,13.089,8.193,17.346,8l.64-13.51A8.133,8.133,0,0,0,146.816,249.078Z" fill="#c67775"/>
                  </g>
                  <path id="Path_50" data-name="Path 50" d="M169.364,239.829a18.4,18.4,0,0,0-.72-5.956c-.014-.082-.027-.141-.035-.169h-.018a18.383,18.383,0,0,0-35.758,2.246.207.207,0,0,0-.013.023c-1.277,3.858,1.117,13.021,2.616,18.023a12.74,12.74,0,0,0,3.742,5.873c6,5.337,20.632,14.2,26.322,6.893C170.625,260.178,170.113,248.193,169.364,239.829Z" fill="#d8948f"/>
                  <path id="Path_51" data-name="Path 51" d="M163.055,253.939s-2.131,1.87-5.129-.245" fill="none" stroke="#0e0108" stroke-linecap="round" stroke-linejoin="round" stroke-width="0.64"/>
                  <g id="Group_27" data-name="Group 27">
                    <path id="Path_52" data-name="Path 52" d="M144.332,244.316a.477.477,0,0,1-.35-.771c2.86-3.636,7.822-1.168,7.872-1.141a.476.476,0,0,1-.431.849c-.175-.088-4.319-2.137-6.694.881A.475.475,0,0,1,144.332,244.316Z" fill="#0e0108"/>
                  </g>
                  <path id="Path_53" data-name="Path 53" d="M169.649,243.55c-.02-.323-.041-.642-.064-.958a9.136,9.136,0,0,0-3.8.474.477.477,0,0,0,.349.887A7.843,7.843,0,0,1,169.649,243.55Z" fill="#0e0108"/>
                  <g id="Group_29" data-name="Group 29">
                    <g id="Group_28" data-name="Group 28">
                      <path id="Path_54" data-name="Path 54" d="M156.122,251.013a.472.472,0,0,1-.363-.2c-.175-.242-4.359-5.9-11.39-2.149a.476.476,0,0,1-.446-.84,9.665,9.665,0,0,1,12.608,2.433.477.477,0,0,1-.109.663A.466.466,0,0,1,156.122,251.013Z" fill="#0e0108"/>
                    </g>
                  </g>
                  <path id="Path_55" data-name="Path 55" d="M169.81,247.278a9.853,9.853,0,0,0-6.863,2.629.476.476,0,0,0,.615.726,9.02,9.02,0,0,1,6.266-2.43C169.824,247.892,169.816,247.585,169.81,247.278Z" fill="#0e0108"/>
                  <g id="Group_30" data-name="Group 30">
                    <path id="Path_56" data-name="Path 56" d="M126.632,249.358a7.119,7.119,0,1,1,6.772,7.463A7.123,7.123,0,0,1,126.632,249.358Z" fill="#d8948f"/>
                    <path id="Path_57" data-name="Path 57" d="M136.953,250.534s-2-5.915-8.194-4.916" fill="none" stroke="#0e0108" stroke-linecap="round" stroke-linejoin="round" stroke-width="0.64"/>
                  </g>
                  <path id="Path_58" data-name="Path 58" d="M161.353,260.621s-6.893,2.078-9.873-4.447" fill="none" stroke="#0e0108" stroke-linecap="round" stroke-linejoin="round" stroke-width="0.64"/>
                </g>
              </g>
              <path id="Path_59" data-name="Path 59" d="M132.821,235.972a.207.207,0,0,1,.013-.023,18.383,18.383,0,0,1,35.758-2.246l.018,0c.008.027.02.086.035.168a9.851,9.851,0,0,1,.737,4.33s-3.9-1.975-12.245-9.814c-.538-.506-2.64-6.632-2.64-6.632l2.263,6.423s-.976,16.336-24.3,14.386l.213-.677A14.831,14.831,0,0,1,132.821,235.972Z" fill="#0e0108"/>
              <path id="Path_60" data-name="Path 60" d="M134.5,255.851a5.748,5.748,0,1,0-5.747,5.759A5.754,5.754,0,0,0,134.5,255.851Z" fill="none" stroke="#ffb127" stroke-linecap="round" stroke-linejoin="round" stroke-width="0.64"/>
            </g>
            <g id="Group_34" data-name="Group 34">
              <path id="Path_61" data-name="Path 61" d="M107.573,411.235s-11.908-5.276-17.352,4.436c0,0-39.553,8.934-40.212,11.991a4.167,4.167,0,0,0,1.437,4.437h55.29Z" fill="#d8948f"/>
              <path id="Path_62" data-name="Path 62" d="M75.884,366.546l134.6,6.179s21.042,3.09,21.042,30.535S192.7,434.521,192.7,434.521l-91.424-1.455,1.452-37.8S72.437,397.262,75.884,366.546Z" fill="#050528"/>
              <line id="Line_8" data-name="Line 8" x2="100.585" y2="5.271" transform="translate(102.73 395.263)" fill="none" stroke="#fff" stroke-linecap="round" stroke-linejoin="round" stroke-width="0.64"/>
            </g>
            <g id="Group_36" data-name="Group 36">
              <g id="Group_35" data-name="Group 35">
                <path id="Path_63" data-name="Path 63" d="M229.88,345.063s18.742-7.216,18.959-5.674-5.81,4.579-5.81,4.579,8.962,1.146,13.914,1.441a4.262,4.262,0,0,1,3.847,3.466l.941,4.922s-9.093.986-14.057,1.161-19.833-.147-19.833-.147Z" fill="#d8948f"/>
                <line id="Line_9" data-name="Line 9" x1="11.433" y1="0.472" transform="translate(249.218 347.933)" fill="none" stroke="#050528" stroke-linecap="round" stroke-linejoin="round" stroke-width="0.64"/>
                <line id="Line_10" data-name="Line 10" x1="11.433" y1="0.472" transform="translate(249.777 351.077)" fill="none" stroke="#050528" stroke-linecap="round" stroke-linejoin="round" stroke-width="0.64"/>
              </g>
              <path id="Path_64" data-name="Path 64" d="M75.884,366.546s10.325-92.759,60.565-101.65l-.507-4.417,19.268,9.051-1.328,1.548,17.5,46.761a21.956,21.956,0,0,0,17.42,16.6l42.723,7.811v17.782s-59.068,9.165-71.9,3.556l.806,6.839Z" fill="#ff3939"/>
              <path id="Path_65" data-name="Path 65" d="M159.62,363.59s-31.44-17.094-26.389-56.781" fill="none" stroke="#fff" stroke-linecap="round" stroke-linejoin="round" stroke-width="0.64"/>
              <path id="Path_66" data-name="Path 66" d="M231.521,342.25l-7.533-1.377.457,20.183,7.075-1.023Z" fill="#fff"/>
            </g>
          </g>
        </g>
        <path id="Path_67" data-name="Path 67" d="M261.012,194.857a17.2,17.2,0,0,0-5.8,33.913l-5.623,32.864,32.8,5.634a17.171,17.171,0,1,1,33.847,5.814l32.8,5.634,17.049-99.639-99.445-17.084Z" fill="#0048fd"/>
      </g>
      <path id="Path_68" data-name="Path 68" d="M196.839,162.7c1.412.711,2.361,1.179,3.3,1.662q11.585,5.939,23.164,11.885c2.257,1.16,2.405,1.579,1.287,3.775-4.266,8.37-8.572,16.72-12.795,25.111-.847,1.683-1.78,2.109-3.507,1.213q-12.68-6.583-25.426-13.039c-1.5-.762-1.9-1.684-1.106-3.231,4.425-8.605,8.788-17.243,13.25-25.83C195.377,163.534,196.319,163.123,196.839,162.7Zm12.315,40.386,12.306-24.118L197.39,166.634l-12.3,24.115Z" fill="#abf"/>
      <path id="Path_69" data-name="Path 69" d="M103.027,191.5q8.6,2.609,17.209,5.222c2.192.671,2.477,1.69.837,3.245q-13.059,12.38-26.171,24.7c-1.545,1.452-2.628,1.113-3.118-.948q-4.177-17.512-8.3-35.037c-.516-2.2.291-2.906,2.506-2.254C91.677,188.107,97.35,189.81,103.027,191.5Zm-8.82,29.772c7.974-7.539,15.6-14.75,23.552-22.264-10.437-3.131-20.494-6.149-30.989-9.3C89.3,200.454,91.706,210.661,94.207,221.273Z" fill="#67ef98"/>
      <path id="Path_70" data-name="Path 70" d="M344.241,139.915c.659,1.149,1.852,3.315,3.126,5.432,2.069,3.437,5.094,3.5,7.308.124,1.2-1.829,2.152-3.82,3.375-5.631,4.458-6.6,12.792-6.384,16.908.41.988,1.631,1.825,3.354,2.812,4.986,2.275,3.765,5.344,3.8,7.7.087,1.173-1.848,2.138-3.831,3.366-5.64a9.376,9.376,0,0,1,7.549-4.463c1.21-.059,2.327.341,2.16,1.647a2.661,2.661,0,0,1-1.875,1.7,6.946,6.946,0,0,0-5.419,3.611c-1.218,1.985-2.28,4.081-3.641,5.962-3.267,4.518-8.554,4.555-11.869.06a67.108,67.108,0,0,1-3.456-5.828c-3.053-5.17-8.436-5.284-11.68-.224-1.218,1.9-2.207,3.961-3.52,5.791-3.41,4.748-9.095,4.593-12.253-.292-1.264-1.955-2.338-4.034-3.568-6.012a6.206,6.206,0,0,0-5.154-3.249c-1.218-.059-2.249-.677-1.854-1.943a2.759,2.759,0,0,1,2.16-1.387C339.441,135.068,341.782,136.573,344.241,139.915Z" fill="#0e0108"/>
      <path id="Path_71" data-name="Path 71" d="M170.559,531.589c.658,1.149,1.852,3.314,3.126,5.431,2.068,3.437,5.093,3.5,7.307.124,1.2-1.829,2.154-3.82,3.377-5.631,4.457-6.6,12.792-6.384,16.908.41.988,1.631,1.825,3.354,2.81,4.987,2.275,3.765,5.344,3.8,7.705.087,1.173-1.848,2.138-3.831,3.366-5.64a9.376,9.376,0,0,1,7.548-4.463c1.212-.059,2.329.341,2.161,1.647a2.663,2.663,0,0,1-1.876,1.7,6.942,6.942,0,0,0-5.418,3.611c-1.218,1.985-2.281,4.081-3.641,5.962-3.267,4.519-8.555,4.555-11.869.06a66.793,66.793,0,0,1-3.456-5.828c-3.055-5.17-8.438-5.284-11.68-.224-1.218,1.9-2.207,3.961-3.521,5.791-3.41,4.748-9.095,4.593-12.252-.292-1.264-1.955-2.338-4.034-3.568-6.012a6.209,6.209,0,0,0-5.156-3.249c-1.217-.058-2.249-.677-1.854-1.943a2.761,2.761,0,0,1,2.161-1.387C165.758,526.741,168.1,528.245,170.559,531.589Z" fill="#f97446"/>
      <path id="Path_72" data-name="Path 72" d="M230.253,274.785l21.37,12.971-21.37,11.771Z" fill="#abf"/>
      <ellipse id="Ellipse_2" data-name="Ellipse 2" cx="3.249" cy="3.255" rx="3.249" ry="3.255" transform="translate(383.315 298.073)" fill="#ffb127"/>
      <path id="Path_73" data-name="Path 73" d="M228.272,442.03a3.249,3.249,0,1,1,3.249,3.256A3.252,3.252,0,0,1,228.272,442.03Z" fill="#ffb127"/>
      <path id="Path_74" data-name="Path 74" d="M214.964,128.687a3.249,3.249,0,1,1,3.249,3.255A3.252,3.252,0,0,1,214.964,128.687Z" fill="#ffb127"/>
      <ellipse id="Ellipse_3" data-name="Ellipse 3" cx="2.522" cy="2.527" rx="2.522" ry="2.527" transform="translate(377.898 452.383)" fill="#ffb127"/>
      <ellipse id="Ellipse_4" data-name="Ellipse 4" cx="3.249" cy="3.255" rx="3.249" ry="3.255" transform="translate(427.408 337.617)" fill="#55e0d5"/>
      <path id="Path_75" data-name="Path 75" d="M46.633,391.612a3.249,3.249,0,1,1,3.249,3.255A3.252,3.252,0,0,1,46.633,391.612Z" fill="#ffb127"/>
    </g>
  </g>
</svg>
